<svg width="98" height="40" viewBox="0 0 98 40" fill="none" xmlns="http://www.w3.org/2000/svg">
<path d="M18.7641 36.9937C28.1492 36.9937 35.7573 29.3856 35.7573 20.0005C35.7573 10.6154 28.1492 3.00732 18.7641 3.00732C9.37904 3.00732 1.77094 10.6154 1.77094 20.0005C1.77094 29.3856 9.37904 36.9937 18.7641 36.9937Z" fill="url(#paint0_linear_1403_54007)"/>
<mask id="mask0_1403_54007" style="mask-type:alpha" maskUnits="userSpaceOnUse" x="0" y="3" width="14" height="22">
<path d="M10.5695 16.0849C7.56025 21.7077 3.38485 25.3312 1.25029 24.1859C-0.884266 23.0405 -0.176218 17.5531 2.83299 11.9408C5.8422 6.32845 10.0176 2.69449 12.1522 3.83987C14.2867 4.98524 13.5787 10.4622 10.5695 16.0849Z" fill="url(#paint1_linear_1403_54007)"/>
</mask>
<g mask="url(#mask0_1403_54007)">
<path opacity="0.0476" d="M8.92423 8.08856C5.15491 12.4202 3.34314 18.2095 3.25984 23.8843C0.740023 16.6164 4.83213 7.71371 11.9855 4.90234C10.9026 5.90194 9.87177 6.9536 8.92423 8.08856Z" fill="white"/>
<path opacity="0.0952" d="M8.8514 8.13041C5.14456 12.3787 3.33278 18.1576 3.24948 23.7075C0.875439 16.5437 4.85301 7.79721 11.871 4.98584C10.8089 5.96461 9.78852 7.01627 8.8514 8.13041Z" fill="white"/>
<path opacity="0.1429" d="M8.77846 8.17193C5.13409 12.3473 3.32232 18.1054 3.23902 23.5407C1.01075 16.4707 4.88419 7.88038 11.7773 5.05859C10.7152 6.03737 9.69476 7.0682 8.77846 8.17193Z" fill="white"/>
<path opacity="0.1905" d="M8.69523 8.22354C5.11334 12.3156 3.30157 18.0529 3.21827 23.3841C1.12536 16.4077 4.90509 7.97364 11.6628 5.15186C10.6111 6.09939 9.61153 7.13023 8.69523 8.22354Z" fill="white"/>
<path opacity="0.2381" d="M8.62229 8.2657C5.09246 12.2745 3.30151 18.0014 3.2078 23.2076C1.26066 16.3354 4.93627 8.05745 11.5586 5.21484C10.5174 6.17279 9.51776 7.1828 8.62229 8.2657Z" fill="white"/>
<path opacity="0.2857" d="M8.54945 8.3178C5.08209 12.2537 3.29115 17.9598 3.19743 23.0515C1.39607 16.2729 4.96756 8.1512 11.4545 5.30859C10.4237 6.2353 9.43451 7.24531 8.54945 8.3178Z" fill="white"/>
<path opacity="0.3333" d="M8.47653 8.35932C5.07165 12.2119 3.2807 17.9076 3.18699 22.8847C1.52099 16.2103 5.00917 8.24478 11.3504 5.38135C10.3299 6.29765 9.35117 7.29724 8.47653 8.35932Z" fill="white"/>
<path opacity="0.381" d="M8.39328 8.40067C5.05087 12.1804 3.27034 17.8552 3.16621 22.7074C1.63558 16.1371 5.03005 8.32779 11.2359 5.46436C10.2259 6.37024 9.25751 7.35943 8.39328 8.40067Z" fill="white"/>
<path opacity="0.4286" d="M8.32038 8.45293C5.04045 12.1494 3.25991 17.8033 3.15579 22.5514C1.76052 16.0749 5.07169 8.4217 11.1317 5.54785C10.1322 6.43291 9.1742 7.41169 8.32038 8.45293Z" fill="white"/>
<path opacity="0.4762" d="M8.24749 8.49445C5.03004 12.1076 3.2495 17.7511 3.14538 22.3847C1.88547 16.0018 5.10292 8.50486 11.0276 5.62061C10.0384 6.50567 9.0909 7.47403 8.24749 8.49445Z" fill="white"/>
<path opacity="0.5238" d="M8.17457 8.5363C5.00917 12.087 3.24947 17.6785 3.12452 22.2079C1.98956 15.9292 5.13412 8.58836 10.913 5.7041C9.93428 6.56834 8.99715 7.52629 8.17457 8.5363Z" fill="white"/>
<path opacity="0.5714" d="M8.09126 8.58855C4.97793 12.0976 3.23905 17.6058 3.10369 22.0519C2.09368 15.8773 5.17577 8.67185 10.7985 5.7876C9.84056 6.64142 8.91385 7.58896 8.09126 8.58855Z" fill="white"/>
<path opacity="0.619" d="M8.01843 8.63023C4.95716 12.0768 3.2391 17.5329 3.09333 21.8749C2.20827 15.794 5.22789 8.74477 10.6944 5.8501C9.7469 6.70392 8.8306 7.64104 8.01843 8.63023Z" fill="white"/>
<path opacity="0.6667" d="M7.94553 8.68184C4.92591 12.0867 3.23908 17.4596 3.0829 21.7183C2.31237 15.7415 5.29034 8.8172 10.6007 5.94336C9.65317 6.77636 8.73687 7.70307 7.94553 8.68184Z" fill="white"/>
<path opacity="0.7143" d="M7.87264 8.72369C4.89468 12.0765 3.2495 17.366 3.07249 21.5519C2.41651 15.6792 5.35283 8.89029 10.4966 6.02686C9.54905 6.83903 8.65358 7.75533 7.87264 8.72369Z" fill="white"/>
<path opacity="0.7619" d="M7.78928 8.7652C4.85296 12.0868 3.24944 17.2826 3.05161 21.3851C2.51016 15.6166 5.41524 8.95263 10.382 6.09961C9.45528 6.90137 8.55981 7.81767 7.78928 8.7652Z" fill="white"/>
<path opacity="0.8095" d="M7.71641 8.81746C4.82174 12.087 3.24946 17.1891 3.04121 21.2187C2.60388 15.5543 5.49855 9.0153 10.2779 6.18311C9.36158 6.97445 8.47652 7.86993 7.71641 8.81746Z" fill="white"/>
<path opacity="0.8571" d="M7.64355 8.8585C4.79053 12.0864 3.24948 17.1156 3.03082 21.0515C2.7601 15.8765 4.95713 10.5766 8.88263 7.16127C8.99717 7.01549 10.33 6.00548 10.1738 6.25538C9.2679 7.03632 8.39325 7.93179 7.64355 8.8585Z" fill="white"/>
<path opacity="0.9048" d="M7.56023 8.90112C4.73844 12.1082 3.24946 17.0541 3.00997 20.8755C2.84337 16.0233 4.81133 11.119 8.27869 7.72451C8.63271 7.3809 9.00756 7.05811 9.38241 6.73533C9.42406 6.7145 10.3195 6.06893 10.0592 6.33965C9.16375 7.11017 8.29951 7.98482 7.56023 8.90112Z" fill="white"/>
<path opacity="0.9524" d="M7.48737 8.95249C4.67601 12.1595 3.25991 16.9909 2.9996 20.7186C2.92671 15.9393 4.87384 11.1703 8.2579 7.78629C8.60151 7.44268 8.95553 7.11989 9.31997 6.80751C9.3408 6.7971 10.2571 6.12029 9.95513 6.42225C9.07007 7.17195 8.21625 8.0466 7.48737 8.95249Z" fill="white"/>
<path d="M2.98914 20.5528C3.00996 15.3778 5.36318 10.2861 9.24703 6.88119C10.08 6.26685 10.0904 6.3085 9.31992 6.96448C5.23823 10.6609 3.39522 15.6485 2.98914 20.5528Z" fill="white"/>
</g>
<path d="M25.4595 18.8765L12.423 22.3646L14.2036 26.8108C14.4743 27.4876 15.2136 27.8624 15.9216 27.6646L25.0846 25.2073C25.7927 25.0198 26.2404 24.3326 26.1467 23.6037L25.4595 18.8765Z" fill="#003383"/>
<path d="M21.9713 14.1694C22.0858 14.1382 22.2212 14.1486 22.3357 14.2215C22.5648 14.3569 22.6481 14.6484 22.5128 14.8775L19.9721 19.2715C19.8367 19.5006 19.5452 19.5839 19.3161 19.4486C19.087 19.3132 19.0037 19.0217 19.1391 18.7926L21.6798 14.3985C21.7422 14.284 21.8568 14.2007 21.9713 14.1694Z" fill="#2C3E50"/>
<path d="M12.7459 17.1477C12.7146 17.0331 12.725 16.8978 12.7979 16.7832C12.9333 16.5541 13.2248 16.4708 13.4539 16.6062L17.848 19.1469C18.077 19.2822 18.1603 19.5738 18.025 19.8028C17.8896 20.0319 17.5981 20.1152 17.369 19.9799L12.9749 17.4392C12.8604 17.3663 12.7875 17.2622 12.7459 17.1477Z" fill="#2C3E50"/>
<path d="M19.2327 21.7184C19.0349 21.7704 18.9204 21.9787 18.9724 22.1765L19.743 25.0608C19.795 25.2586 20.0033 25.3731 20.2011 25.3211C20.3989 25.269 20.5135 25.0608 20.4614 24.8629L19.6909 21.9787C19.6388 21.7912 19.4306 21.6663 19.2327 21.7184ZM16.3277 22.4993C16.1298 22.5514 16.0153 22.7596 16.0673 22.9574L16.8379 25.8417C16.8899 26.0395 17.0982 26.1541 17.296 26.102C17.4939 26.05 17.6084 25.8417 17.5563 25.6439L16.7858 22.7596C16.7337 22.5722 16.5255 22.4472 16.3277 22.4993ZM22.1482 20.9478C21.9504 20.9999 21.8359 21.2081 21.8879 21.406L22.6584 24.2902C22.7105 24.4881 22.9188 24.6026 23.1166 24.5506C23.3144 24.4985 23.429 24.2902 23.3769 24.0924L22.6064 21.2081C22.5439 21.0103 22.3461 20.8854 22.1482 20.9478Z" fill="white"/>
<path d="M25.928 18.7509L11.9544 22.489C11.8295 22.5203 11.6941 22.4474 11.6629 22.3224L11.3922 21.3332C11.3609 21.2083 11.4338 21.0729 11.5588 21.0417L25.5323 17.3036C25.6573 17.2724 25.7926 17.3453 25.8239 17.4702L26.0946 18.4594C26.1258 18.5843 26.0529 18.7093 25.928 18.7509Z" fill="#529BDD"/>
<path d="M12.7042 23.0727L25.5636 19.6262L25.4595 18.8765L12.423 22.3646L12.7042 23.0727Z" fill="#002863"/>
<path d="M15.5571 12.9407C16.1506 12.7845 16.6088 13.1281 16.7754 13.732C16.9732 14.4609 16.6088 14.9711 16.109 15.1065C15.578 15.2522 15.0469 14.9607 14.8803 14.3047C14.7033 13.6695 14.9636 13.0968 15.5571 12.9407ZM15.6508 13.3884C15.4114 13.4509 15.3801 13.7632 15.4738 14.1173C15.5675 14.4817 15.7654 14.7108 16.0049 14.6483C16.2339 14.5858 16.286 14.3151 16.1819 13.9194C16.0778 13.5654 15.9112 13.3259 15.6508 13.3884ZM16.5359 16.5434L17.5771 12.3992L18.0145 12.2847L16.9732 16.4184L16.5359 16.5434ZM18.4622 13.7112C19.0557 13.555 19.5139 13.8986 19.6701 14.4921C19.8679 15.221 19.5035 15.7312 19.0037 15.8666C18.4726 16.0123 17.952 15.7208 17.775 15.0648C17.6084 14.4505 17.8687 13.8778 18.4622 13.7112ZM18.5559 14.1693C18.3164 14.2318 18.2852 14.5442 18.3789 14.8878C18.4726 15.2522 18.6705 15.4813 18.8995 15.4188C19.1286 15.3563 19.1807 15.0856 19.0765 14.7004C18.9828 14.3463 18.8162 14.0964 18.5559 14.1693Z" fill="#003383"/>
<path d="M95.5457 20.0421C95.1605 42.3769 61.9342 42.3769 61.5594 20.0421C61.9342 -2.30309 95.1605 -2.30309 95.5457 20.0421Z" fill="url(#paint2_linear_1403_54007)"/>
<mask id="mask1_1403_54007" style="mask-type:alpha" maskUnits="userSpaceOnUse" x="84" y="3" width="14" height="28">
<path d="M84.092 6.48505C84.2586 6.59959 90.4644 3.71533 90.4644 3.71533L97.9822 16.606L93.5882 30.6316L89.0691 29.6736L91.4744 17.918L84.092 6.48505Z" fill="url(#paint3_linear_1403_54007)"/>
</mask>
<g mask="url(#mask1_1403_54007)">
<path opacity="0.0476" d="M87.3927 6.58936C92.9426 9.17165 96.0663 15.7732 95.2333 21.7603C95.0042 24.1864 93.838 27.7788 91.7764 29.2157C93.1716 26.1961 93.9005 22.0935 93.5777 18.7824C93.1196 14.128 90.7768 9.78599 87.3927 6.58936Z" fill="white"/>
<path opacity="0.0952" d="M87.5176 6.68311C92.9113 9.19251 96.0142 15.8253 95.2125 21.6771C95.0146 24.0199 93.838 27.7163 91.8492 29.0908C93.2341 26.0503 93.9421 22.0936 93.6298 18.7616C93.1716 14.1593 90.86 9.85891 87.5176 6.68311Z" fill="white"/>
<path opacity="0.1429" d="M87.6322 6.77637C92.8905 9.23371 95.9414 15.8456 95.1812 21.6037C95.0146 23.832 93.8172 27.695 91.9117 28.9758C93.2966 25.9041 93.9734 22.1035 93.6714 18.7507C93.2237 14.1901 90.9434 9.92094 87.6322 6.77637Z" fill="white"/>
<path opacity="0.1905" d="M87.7468 6.88037C92.9114 9.35854 95.8581 15.8143 95.15 21.5307C95.0147 23.2384 94.5565 24.9044 93.7964 26.435C93.3279 27.2472 92.8489 28.4238 91.9846 28.8611C93.3695 25.7686 94.0255 22.1034 93.7131 18.7402C93.2654 14.2212 91.0267 9.9937 87.7468 6.88037Z" fill="white"/>
<path opacity="0.2381" d="M87.8717 6.97461C90.1 7.84926 92.8489 11.0355 93.9005 13.5241C95.0251 15.9918 95.3791 18.7615 95.1292 21.4375C95.0042 23.1348 94.5565 24.8008 93.8068 26.3314C93.3591 27.1123 92.8905 28.3202 92.0575 28.7159C93.432 25.5921 94.0671 22.0935 93.7652 18.6991C93.3174 14.2529 91.11 10.0671 87.8717 6.97461Z" fill="white"/>
<path opacity="0.2857" d="M87.9863 7.07861C90.0479 7.83872 92.8593 11.1291 93.8485 13.5031C94.9626 15.95 95.3271 18.6989 95.098 21.3749C94.973 23.0722 94.5461 24.7382 93.8068 26.2688C93.3903 26.9769 92.8801 28.2992 92.1096 28.6116C93.4737 25.5087 94.088 22.0726 93.7964 18.6989C93.3695 14.2736 91.1933 10.1295 87.9863 7.07861Z" fill="white"/>
<path opacity="0.3333" d="M88.1112 7.17236C89.9959 7.81794 92.8801 11.2124 93.8068 13.4719C94.7127 15.4607 95.1396 17.6577 95.1396 19.8235C95.15 21.9997 94.7648 24.1968 93.8277 26.1751C93.484 26.7687 92.8385 28.3305 92.1929 28.4867C93.5465 25.415 94.1504 22.0206 93.8589 18.6782C93.4216 14.3049 91.2766 10.2024 88.1112 7.17236Z" fill="white"/>
<path opacity="0.381" d="M88.2257 7.26611C89.9438 7.78674 92.8905 11.2957 93.7651 13.4407C94.6606 15.4087 95.1084 17.5953 95.1084 19.7507C95.1292 21.9269 94.7543 24.1135 93.838 26.0919C93.5569 26.5917 92.7968 28.341 92.2657 28.3618C95.5249 20.9689 94.0879 12.8993 88.2257 7.26611Z" fill="white"/>
<path opacity="0.4286" d="M88.3507 7.37012C89.267 7.46383 91.9534 10.2648 92.8072 11.7434C93.963 13.5447 94.6711 15.6585 94.9522 17.7722C95.2854 20.5523 95.0147 23.447 93.8485 26.0085C93.6298 26.4145 92.7552 28.3617 92.3387 28.2367C95.5561 20.9688 94.1192 12.8991 88.3507 7.37012Z" fill="white"/>
<path opacity="0.4762" d="M88.4652 7.46398C89.2357 7.44315 92.0159 10.3691 92.8072 11.7956C93.9422 13.5657 94.6294 15.6378 94.9105 17.6994C95.2646 20.4692 94.9938 23.3534 93.8589 25.9253C93.6819 26.2689 92.7343 28.3514 92.4115 28.1223C95.5873 20.969 94.1504 12.9097 88.4652 7.46398Z" fill="white"/>
<path opacity="0.5238" d="M88.5901 7.56812C89.0171 7.3807 91.6722 10.0046 92.4428 11.3062C93.0467 12.1496 93.609 13.2221 93.9838 14.1905C95.3895 17.8973 95.4207 22.1872 93.8693 25.8524C93.7235 26.144 92.7031 28.3514 92.4844 28.0078C95.6186 20.969 94.1817 12.9097 88.5901 7.56812Z" fill="white"/>
<path opacity="0.5714" d="M88.7047 7.66154C89.0171 7.39082 91.7243 10.0876 92.4532 11.3684C93.0363 12.1806 93.5673 13.2218 93.9318 14.1485C95.3375 17.8449 95.3895 22.1036 93.8693 25.7584C93.7548 26.0187 92.6719 28.3199 92.5469 27.8722C95.6498 20.9375 94.2129 12.9303 88.7047 7.66154Z" fill="white"/>
<path opacity="0.619" d="M88.8297 7.7658C89.0379 7.42219 91.766 10.1711 92.474 11.4414C95.2437 15.5439 95.7123 21.1042 93.8797 25.6753C93.786 25.9147 92.6614 28.2888 92.6198 27.7578C92.8801 27.1642 93.2133 26.3 93.3695 25.7794C95.3999 19.3861 93.6819 12.4098 88.8297 7.7658Z" fill="white"/>
<path opacity="0.6667" d="M88.9442 7.8597C89.0483 7.4432 91.7868 10.2442 92.4845 11.5145C95.1917 15.5962 95.6603 21.0627 93.8797 25.6026C92.8593 27.8725 92.0367 28.945 93.4216 25.6859C95.4416 19.3967 93.7235 12.4204 88.9442 7.8597Z" fill="white"/>
<path opacity="0.7143" d="M89.0587 7.95331C89.0483 7.46393 91.818 10.3169 92.4949 11.5769C95.1396 15.6273 95.6082 21.0106 93.8797 25.5088C92.8281 27.8412 92.1512 28.7679 93.4736 25.5712C95.4728 19.4175 93.7652 12.4411 89.0587 7.95331Z" fill="white"/>
<path opacity="0.7619" d="M89.1837 8.05733C88.9546 7.64084 90.5789 8.93198 91.7764 10.5876C91.8076 10.6188 92.0159 10.8999 92.0367 10.9312C92.1721 11.129 92.3907 11.4518 92.5157 11.6496C95.098 15.6689 95.5665 20.9688 93.9005 25.4254C92.828 27.8306 92.2762 28.6012 93.5465 25.4774C95.5145 19.4278 93.7964 12.4514 89.1837 8.05733Z" fill="white"/>
<path opacity="0.8095" d="M89.2982 8.15098C88.965 7.66159 90.5997 8.97356 91.7972 10.6604C91.818 10.6812 92.0262 10.9832 92.0575 11.004C92.1928 11.1914 92.4011 11.5246 92.526 11.7225C95.0459 15.7209 95.5248 20.9271 93.9005 25.342C92.8072 27.8202 92.3803 28.4241 93.5985 25.3732C95.5457 19.3965 93.8484 12.5034 89.2982 8.15098Z" fill="white"/>
<path opacity="0.8571" d="M89.4231 8.25521C88.8921 7.53675 91.1933 9.65048 92.0887 11.0874C92.2137 11.2748 92.4219 11.608 92.5469 11.7955C95.0042 15.7626 95.4832 20.8855 93.9109 25.2692C92.7968 27.8203 92.4948 28.2472 93.6506 25.29C95.5769 19.3757 93.9109 12.5556 89.4231 8.25521Z" fill="white"/>
<path opacity="0.9048" d="M89.5376 8.34905C88.8608 7.52647 91.2349 9.7235 92.1199 11.15C92.2345 11.3374 92.4531 11.6706 92.5677 11.8581C94.9625 15.794 95.4415 20.8336 93.9213 25.1756C92.7863 27.81 92.6093 28.0599 93.713 25.1756C95.6081 19.3446 93.9629 12.6078 89.5376 8.34905Z" fill="white"/>
<path opacity="0.9524" d="M89.6627 8.44242C88.8921 7.56777 91.2558 9.75439 92.1512 11.2225C92.2658 11.3996 92.474 11.7432 92.5886 11.9202C94.9106 15.8353 95.4104 20.7812 93.9318 25.0816C93.7444 25.6126 93.2341 26.7163 92.9842 27.2161C93.1613 26.6643 93.6402 25.5189 93.7756 25.0711C95.6394 19.3235 94.0151 12.6595 89.6627 8.44242Z" fill="white"/>
<path d="M91.943 10.9728C95.2021 15.6376 95.6603 22.0829 93.0259 27.1434C94.8689 23.1971 95.1501 17.9908 93.3591 13.8987C92.5365 11.9099 91.3079 10.0669 89.7772 8.55711C89.0171 7.78659 90.7248 9.16103 91.943 10.9728Z" fill="white"/>
</g>
<path d="M78.4934 12.0711L74.0681 13.2568L74.4642 14.7353L78.8895 13.5496L78.4934 12.0711Z" fill="#2C3E50"/>
<path d="M77.215 13.202L75.7366 13.5981L76.2297 15.4387L77.7082 15.0425L77.215 13.202Z" fill="#2C3E50"/>
<path d="M81.6692 14.2173L81.0341 15.3174L82.3596 16.0827L82.9947 14.9826L81.6692 14.2173Z" fill="#2C3E50"/>
<path d="M80.3226 27.7675C76.6678 28.7463 72.8881 26.5701 71.9093 22.9153C70.9305 19.2605 73.1067 15.4808 76.7615 14.502C80.4163 13.5232 84.196 15.6994 85.1748 19.3542C86.164 23.0194 83.9773 26.7887 80.3226 27.7675ZM77.1676 15.9806C74.325 16.7407 72.6277 19.677 73.3878 22.5196C74.148 25.3622 77.0843 27.0594 79.9269 26.2993C82.7695 25.5392 84.4667 22.6029 83.7066 19.7603C82.9465 16.9073 80.0102 15.2205 77.1676 15.9806Z" fill="#003383"/>
<path d="M79.7291 25.5608C77.2926 26.2168 74.7728 24.759 74.1272 22.3225C73.4712 19.886 74.9289 17.3662 77.3655 16.7206C77.7716 16.6165 78.1881 16.856 78.3026 17.2621C78.4067 17.6681 78.1672 18.0846 77.7611 18.1992C76.1368 18.6365 75.1684 20.3129 75.6058 21.9373C76.0431 23.5616 77.7195 24.53 79.3438 24.0926C79.7499 23.9885 80.1664 24.228 80.281 24.6341C80.3851 25.0298 80.1352 25.4463 79.7291 25.5608Z" fill="#529BDD"/>
<path d="M81.4367 23.7491C81.0723 23.5409 80.9577 23.0619 81.1764 22.7079C81.3846 22.3435 81.8636 22.2289 82.2176 22.4476C82.5821 22.6558 82.6966 23.1348 82.4779 23.4888C82.3738 23.6658 82.2072 23.7908 82.0198 23.8428C81.8219 23.8845 81.6137 23.8533 81.4367 23.7491ZM81.4992 20.3443C81.395 19.9382 81.6345 19.5217 82.0406 19.4071C82.4467 19.303 82.8632 19.5425 82.9777 19.9486C83.0819 20.3547 82.8424 20.7712 82.4363 20.8857C82.0198 21.0002 81.6033 20.7503 81.4992 20.3443Z" fill="#529BDD"/>
<path d="M78.7503 21.8745C78.3442 21.9786 77.9277 21.7391 77.8131 21.333C77.709 20.9269 77.9485 20.5104 78.3546 20.3959C78.7607 20.2918 79.1772 20.5313 79.2917 20.9374C79.3958 21.3434 79.1563 21.7703 78.7503 21.8745ZM78.5524 21.1352L78.188 21.2289L78.5524 21.1352Z" fill="#2C3E50"/>
<path d="M78.5524 21.1356C78.3441 21.1876 78.1359 21.0731 78.0838 20.8648L77.0946 17.1788C77.0426 16.9706 77.1571 16.7623 77.3654 16.7102C77.5736 16.6582 77.7819 16.7727 77.8339 16.981L78.8231 20.667C78.8752 20.8752 78.7502 21.0835 78.5524 21.1356Z" fill="#2C3E50"/>
<path d="M68.9522 19.9998C68.4941 46.6661 28.8226 46.6661 28.3748 19.9998C28.8226 -6.66659 68.4941 -6.66659 68.9522 19.9998Z" fill="url(#paint4_linear_1403_54007)"/>
<mask id="mask2_1403_54007" style="mask-type:alpha" maskUnits="userSpaceOnUse" x="26" y="0" width="16" height="26">
<path d="M38.6103 15.1895C35.018 21.8951 30.0304 26.2267 27.4794 24.8627C24.9283 23.4986 25.7717 16.9492 29.3744 10.2436C32.9772 3.53792 37.9543 -0.793672 40.5054 0.570363C43.0564 1.9344 42.2026 8.48385 38.6103 15.1895Z" fill="url(#paint5_linear_1403_54007)"/>
</mask>
<g mask="url(#mask2_1403_54007)">
<path opacity="0.0476" d="M36.6527 5.64138C32.1546 10.8164 29.9888 17.7198 29.895 24.4984C26.8858 15.8248 31.7693 5.19364 40.3075 1.84082C39.0164 3.02784 37.7773 4.28775 36.6527 5.64138Z" fill="white"/>
<path opacity="0.0952" d="M36.5591 5.69348C32.1338 10.7748 29.968 17.6678 29.8742 24.2902C27.0316 15.7311 31.7901 5.28739 40.1722 1.93457C38.9019 3.11118 37.6732 4.36068 36.5591 5.69348Z" fill="white"/>
<path opacity="0.1429" d="M36.4757 5.74558C32.1233 10.7227 29.9679 17.6054 29.8638 24.0924C27.1982 15.6478 31.8317 5.39155 40.0472 2.02832C38.7873 3.19452 37.569 4.4336 36.4757 5.74558Z" fill="white"/>
<path opacity="0.1905" d="M36.382 5.80842C32.1025 10.6919 29.9471 17.5537 29.843 23.9053C27.3544 15.5857 31.863 5.50646 39.9223 2.13281C38.6728 3.27819 37.4649 4.49645 36.382 5.80842Z" fill="white"/>
<path opacity="0.2381" d="M36.2883 5.86003C32.0817 10.6498 29.9367 17.4908 29.8222 23.707C27.5002 15.502 31.8838 5.61013 39.7869 2.22607C38.5478 3.35062 37.3608 4.56888 36.2883 5.86003Z" fill="white"/>
<path opacity="0.2857" d="M36.2051 5.91229C32.0713 10.6083 29.9264 17.4285 29.8118 23.499C27.6564 15.4085 31.9255 5.71445 39.662 2.30957C38.4333 3.43412 37.2567 4.63155 36.2051 5.91229Z" fill="white"/>
<path opacity="0.3333" d="M36.1113 5.96423C32.0505 10.5665 29.9159 17.3659 29.791 23.301C27.8022 15.325 31.9672 5.81845 39.537 2.41357C38.3188 3.5173 37.1526 4.70432 36.1113 5.96423Z" fill="white"/>
<path opacity="0.381" d="M36.0176 6.01633C32.0296 10.5249 29.895 17.3035 29.7701 23.1032C27.9479 15.2522 31.9984 5.92262 39.4121 2.50732C38.2042 3.59022 37.0484 4.76683 36.0176 6.01633Z" fill="white"/>
<path opacity="0.4286" d="M35.9343 6.07835C32.0088 10.5141 29.8951 17.2301 29.7597 22.9049C28.0937 15.1684 32.04 6.02629 39.2871 2.60059C38.0897 3.67307 36.9443 4.83927 35.9343 6.07835Z" fill="white"/>
<path opacity="0.4762" d="M35.8406 6.13094C31.9776 10.5042 29.8951 17.1265 29.7389 22.7076C28.2291 15.0857 32.0817 6.14136 39.1518 2.69482C37.9752 3.7569 36.8402 4.91268 35.8406 6.13094Z" fill="white"/>
<path opacity="0.5238" d="M35.7469 6.1824C31.9359 10.5036 29.8846 17.0322 29.718 22.5092C28.3644 15.0122 32.1233 6.24487 39.0164 2.79834C37.8606 3.82918 36.736 4.97455 35.7469 6.1824Z" fill="white"/>
<path opacity="0.5714" d="M35.6636 6.23465C31.9151 10.4725 29.8846 16.9491 29.718 22.3011C28.5206 14.9187 32.1858 6.32837 38.9123 2.88184C37.7461 3.91267 36.6319 5.04763 35.6636 6.23465Z" fill="white"/>
<path opacity="0.619" d="M35.5699 6.29701C31.8735 10.4828 29.8847 16.8553 29.6973 22.1136C28.6456 14.8561 32.2483 6.43237 38.777 2.98584C37.6316 3.99585 36.5279 5.10999 35.5699 6.29701Z" fill="white"/>
<path opacity="0.6667" d="M35.4761 6.34933C31.8318 10.4831 29.8846 16.7514 29.6764 21.916C28.8017 15.0125 31.9359 7.67171 37.6211 3.62126C37.7981 3.52755 38.7352 2.89239 38.6415 3.07981C37.517 4.069 36.4237 5.18313 35.4761 6.34933Z" fill="white"/>
<path opacity="0.7143" d="M35.3929 6.40131C31.8006 10.483 29.8951 16.6472 29.666 21.7181C28.9267 14.9187 31.9984 7.75493 37.5378 3.70447C37.694 3.62117 38.652 2.96519 38.5166 3.17344C37.4025 4.15221 36.3196 5.24552 35.3929 6.40131Z" fill="white"/>
<path opacity="0.7619" d="M35.2992 6.45401C31.7589 10.4836 29.8951 16.5437 29.6452 21.5105C29.0413 14.8152 32.0609 7.82846 37.4546 3.77801C37.5795 3.71553 38.5687 3.01789 38.3917 3.25738C37.288 4.23615 36.2155 5.31905 35.2992 6.45401Z" fill="white"/>
<path opacity="0.8095" d="M35.2054 6.50563C31.7172 10.4832 29.8951 16.4391 29.6243 21.3122C29.1454 14.7211 32.1233 7.91132 37.3712 3.86086C37.4753 3.8088 38.4854 3.09034 38.2667 3.36106C37.1734 4.3086 36.1113 5.38109 35.2054 6.50563Z" fill="white"/>
<path opacity="0.8571" d="M35.1221 6.56813C31.686 10.4936 29.9054 16.3559 29.6139 21.1248C29.2911 14.9398 31.915 8.61939 36.6007 4.54811C36.736 4.3711 38.3291 3.16325 38.1417 3.46522C37.0588 4.39193 36.0071 5.454 35.1221 6.56813Z" fill="white"/>
<path opacity="0.9048" d="M35.0284 6.62026C31.6235 10.5249 29.9055 16.283 29.5931 20.9166C29.3953 15.1273 31.7485 9.27544 35.8822 5.21457C36.2987 4.79807 36.7569 4.41281 37.1942 4.02755C37.2463 3.99631 38.3188 3.22579 37.996 3.54858C36.9443 4.47529 35.9135 5.52695 35.0284 6.62026Z" fill="white"/>
<path opacity="0.9524" d="M34.9347 6.67182C32.2378 9.94134 30.499 13.9814 29.9054 18.1776C29.5202 20.9682 29.5722 21.4263 29.5722 19.8748C29.7284 13.8773 32.5294 7.9942 37.1109 4.11035C37.1421 4.09994 38.2458 3.29817 37.8814 3.6522C36.8297 4.54767 35.8093 5.58892 34.9347 6.67182Z" fill="white"/>
<path d="M29.5619 20.5208C29.5827 14.3357 32.3941 8.26527 37.038 4.19399C38.0376 3.46512 38.0481 3.51718 37.1213 4.2877C32.2275 8.74425 30.0617 14.6377 29.5619 20.5208Z" fill="white"/>
</g>
<mask id="mask3_1403_54007" style="mask-type:alpha" maskUnits="userSpaceOnUse" x="55" y="0" width="17" height="33">
<path d="M55.0204 3.68373C55.2183 3.81909 62.632 0.372559 62.632 0.372559L71.6075 15.7622L66.3596 32.5159L60.966 31.3705L63.8398 17.3345L55.0204 3.68373Z" fill="url(#paint6_linear_1403_54007)"/>
</mask>
<g mask="url(#mask3_1403_54007)">
<path opacity="0.0476" d="M58.9667 3.80859C65.5891 6.89069 69.3167 14.7729 68.3276 21.9263C68.0777 24.7689 66.6199 29.1734 64.2042 30.829C65.8494 27.2887 66.7553 22.2699 66.3596 18.3757C65.7973 12.8154 63.0068 7.62997 58.9667 3.80859Z" fill="white"/>
<path opacity="0.0952" d="M59.1021 3.92334C65.537 6.92213 69.2542 14.8356 68.2859 21.8328C68.0776 24.5505 66.599 29.132 64.2771 30.6834C65.9222 27.1015 66.7865 22.2805 66.4012 18.355C65.8598 12.8468 63.1004 7.71348 59.1021 3.92334Z" fill="white"/>
<path opacity="0.1429" d="M59.2478 4.0376C65.5682 7.02598 69.1501 14.8041 68.265 21.7388C68.0984 23.7797 67.5361 25.7789 66.6094 27.601C66.0367 28.611 65.4328 29.9855 64.3707 30.5374C66.0159 26.9346 66.8489 22.2698 66.4637 18.3339C65.9222 12.8882 63.2045 7.7965 59.2478 4.0376Z" fill="white"/>
<path opacity="0.1905" d="M59.3936 4.15234C62.2675 5.33937 65.4537 9.00456 66.7865 12.1283C68.1297 15.0959 68.5358 18.4174 68.2338 21.6453C68.0776 23.6757 67.5258 25.6749 66.6095 27.4971C66.0576 28.4655 65.4745 29.8712 64.4437 30.3918C66.0784 26.7578 66.8802 22.2701 66.5158 18.3133C65.9743 12.9197 63.2983 7.8696 59.3936 4.15234Z" fill="white"/>
<path opacity="0.2381" d="M59.529 4.27686C62.1946 5.3181 65.4641 9.11866 66.724 12.0966C68.0672 15.0434 68.4837 18.3441 68.1922 21.5512C68.036 23.5816 67.5049 25.5704 66.6095 27.403C66.068 28.3297 65.5162 29.777 64.5166 30.2456C66.1513 26.5804 66.9219 22.2696 66.5574 18.2921C66.0368 12.9505 63.4024 7.95246 59.529 4.27686Z" fill="white"/>
<path opacity="0.2857" d="M59.6747 4.39209C62.1321 5.29798 65.4849 9.22348 66.6719 12.0661C68.0047 14.992 68.442 18.2719 68.1713 21.4581C68.0255 23.4782 67.5049 25.4669 66.6303 27.2995C66.1409 28.1325 65.5161 29.7361 64.6103 30.1005C66.2346 26.4041 66.9843 22.2807 66.6199 18.2615C66.0992 12.9928 63.4961 8.03646 59.6747 4.39209Z" fill="white"/>
<path opacity="0.3333" d="M59.8206 4.50635C62.0801 5.27687 65.5162 9.32733 66.6303 12.0242C67.7132 14.3982 68.2234 17.0117 68.2234 19.6149C68.2338 22.218 67.7861 24.8419 66.6511 27.1951C66.2555 27.8928 65.4537 29.7774 64.704 29.9544C66.3179 26.2788 67.0468 22.2284 66.6824 18.2404C66.1618 13.0238 63.6003 8.11948 59.8206 4.50635Z" fill="white"/>
<path opacity="0.381" d="M59.9559 4.62061C62.0072 5.24535 65.5266 9.43117 66.5679 11.9926C67.6403 14.3459 68.161 16.949 68.1714 19.5209C68.1922 22.1136 67.7549 24.7271 66.6512 27.0907C66.3284 27.6738 65.4017 29.7876 64.7769 29.798C66.37 26.1536 67.0885 22.1656 66.7345 18.2089C66.2242 13.0651 63.694 8.2025 59.9559 4.62061Z" fill="white"/>
<path opacity="0.4286" d="M60.1017 4.73535C61.195 4.83948 64.4124 8.19229 65.4225 9.96242C66.8073 12.1074 67.6507 14.6376 67.9735 17.1574C68.3796 20.4686 68.0464 23.936 66.6511 26.9972C66.3908 27.4762 65.3392 29.8086 64.8498 29.6628C68.7128 20.9163 67.0052 11.3993 60.1017 4.73535Z" fill="white"/>
<path opacity="0.4762" d="M60.2474 4.86044C61.1637 4.83962 64.4853 8.3278 65.4224 10.0354C66.7761 12.1388 67.5986 14.6169 67.9318 17.0847C68.3483 20.3855 68.0256 23.8424 66.6719 26.9037C66.4637 27.2993 65.3079 29.8192 64.9435 29.5172C68.744 20.9165 67.0468 11.3995 60.2474 4.86044Z" fill="white"/>
<path opacity="0.5238" d="M60.3828 4.97497C61.1429 4.8292 64.527 8.45274 65.4225 10.0875C66.7344 12.1596 67.5362 14.5857 67.8798 17.0014C68.3171 20.2917 68.0047 23.7383 66.6824 26.7995C66.5158 27.1431 65.2767 29.7983 65.0268 29.3714C68.7857 20.9165 67.078 11.4099 60.3828 4.97497Z" fill="white"/>
<path opacity="0.5714" d="M60.5286 5.08889C60.9138 4.78693 64.1105 7.97315 65.0059 9.51419C65.6931 10.4826 66.3387 11.7216 66.7656 12.8358C68.442 17.2403 68.5045 22.332 66.6928 26.7052C66.5574 27.0072 65.2454 29.7769 65.1101 29.2354C68.8169 20.9159 67.1197 11.4197 60.5286 5.08889Z" fill="white"/>
<path opacity="0.619" d="M60.6744 5.20436C60.9659 4.82951 64.1521 8.05738 65.0268 9.59842C68.3275 14.5027 68.9002 21.1355 66.7032 26.602C66.5991 26.8727 65.235 29.7362 65.1934 29.0802C65.5058 28.3617 65.9014 27.3413 66.0889 26.7165C68.515 19.0425 66.495 10.8063 60.6744 5.20436Z" fill="white"/>
<path opacity="0.6667" d="M60.8096 5.32901C60.9554 4.85003 64.1937 8.17162 65.0371 9.69184C68.265 14.5649 68.8272 21.0935 66.7031 26.508C65.4848 29.2257 64.4957 30.5064 66.1512 26.6121C68.5669 19.0527 66.5365 10.8268 60.8096 5.32901Z" fill="white"/>
<path opacity="0.7143" d="M60.9554 5.44325C60.9763 4.88097 64.225 8.23379 65.058 9.76443C68.2129 14.5958 68.7752 21.0203 66.7135 26.3932C65.464 29.1837 64.6415 30.2978 66.2242 26.4765C68.6086 19.0628 66.5886 10.8473 60.9554 5.44325Z" fill="white"/>
<path opacity="0.7619" d="M61.1012 5.55836C60.8305 5.05856 62.7568 6.59961 64.1938 8.57798C64.225 8.60921 64.4749 8.95283 64.5061 8.99448C64.6727 9.23396 64.9226 9.61923 65.0788 9.85871C68.1609 14.6589 68.7232 20.9792 66.724 26.3104C65.4432 29.1843 64.7769 30.111 66.2971 26.3729C68.6503 19.0738 66.6303 10.8687 61.1012 5.55836Z" fill="white"/>
<path opacity="0.8095" d="M61.2366 5.67236C60.8409 5.08926 62.7881 6.65113 64.225 8.66074C64.2562 8.69198 64.5061 9.046 64.527 9.06683C64.6831 9.2959 64.933 9.69158 65.0892 9.92065C68.0984 14.6896 68.6607 20.9058 66.724 26.1849C65.412 29.1525 64.9018 29.871 66.3596 26.2266C68.6919 19.0836 66.6823 10.889 61.2366 5.67236Z" fill="white"/>
<path opacity="0.8571" d="M61.3824 5.79749C60.7472 4.93325 63.4961 7.47389 64.5686 9.17113C64.7144 9.4002 64.9747 9.79588 65.1205 10.025C68.0464 14.7626 68.6191 20.8748 66.7448 26.1018C65.412 29.1527 65.0476 29.6733 66.4428 26.1226C68.7336 19.0734 66.7344 10.9308 61.3824 5.79749Z" fill="white"/>
<path opacity="0.9048" d="M61.5282 5.91182C60.716 4.92264 63.5586 7.54658 64.6103 9.26464C64.756 9.4833 65.0059 9.88939 65.1413 10.1081C67.9943 14.8145 68.5774 20.8225 66.7552 26.0079C65.4016 29.1629 65.1829 29.4544 66.5157 26.0079C68.7648 19.042 66.7969 10.9931 61.5282 5.91182Z" fill="white"/>
<path opacity="0.9524" d="M61.674 6.02601C60.7473 4.97435 63.5795 7.58788 64.6415 9.34759C64.7769 9.56625 65.0268 9.97234 65.1622 10.191C67.9423 14.8662 68.5254 20.7701 66.7761 25.9034C66.547 26.5386 65.9431 27.8506 65.6411 28.4545C65.8494 27.7985 66.4221 26.4241 66.5887 25.893C68.8065 19.0104 66.8698 11.0552 61.674 6.02601Z" fill="white"/>
<path d="M64.3917 9.0355C68.2859 14.6062 68.8378 22.301 65.6828 28.3402C67.8798 23.6338 68.2235 17.4175 66.0889 12.5237C65.0997 10.1496 63.642 7.9526 61.8094 6.14083C60.8931 5.23494 62.9339 6.88011 64.3917 9.0355Z" fill="white"/>
</g>
<path d="M48.6584 27.9134C53.0289 27.9134 56.5718 24.3704 56.5718 19.9999C56.5718 15.6294 53.0289 12.0864 48.6584 12.0864C44.2879 12.0864 40.7449 15.6294 40.7449 19.9999C40.7449 24.3704 44.2879 27.9134 48.6584 27.9134Z" fill="#2C3E50"/>
<path d="M55.1631 13.7082L39.8758 17.8042L42.1502 26.2927L57.4374 22.1966L55.1631 13.7082Z" fill="white"/>
<path d="M55.0308 17.0327C54.6976 16.3247 54.885 15.5229 55.4161 15.0127C55.6868 14.7628 55.718 14.3463 55.5619 14.0131L54.7601 12.3055C54.5518 11.8682 54.0312 11.6703 53.5939 11.8786L39.2559 18.5634C38.8186 18.7716 38.6208 19.2922 38.829 19.7296L39.6308 21.4372C39.787 21.7704 40.1306 21.9995 40.4846 21.9578C41.2135 21.8745 41.9527 22.2598 42.2755 22.9574C42.6087 23.6655 42.4213 24.4672 41.8903 24.9775C41.6195 25.2274 41.5883 25.6439 41.7445 25.9771L42.5463 27.6847C42.7545 28.122 43.2751 28.3199 43.7125 28.1116L58.0504 21.4268C58.4878 21.2186 58.6856 20.6979 58.4774 20.2606L57.6756 18.553C57.5194 18.2198 57.1758 17.9907 56.8218 18.0323C56.0929 18.1156 55.364 17.7304 55.0308 17.0327Z" fill="#529BDD"/>
<path d="M55.4473 18.1778C55.2495 17.4281 55.5618 16.6575 56.1762 16.2515C56.4781 16.0536 56.5927 15.6475 56.499 15.2935L56.0096 13.4713C55.8846 13.0028 55.4056 12.7216 54.9371 12.8466L39.6516 16.9387C39.183 17.0636 38.9019 17.5426 39.0268 18.0112L39.5162 19.8334C39.6099 20.1874 39.9015 20.4789 40.2659 20.4998C41.0052 20.5414 41.6612 21.0516 41.859 21.8013C42.0568 22.551 41.7445 23.3215 41.1301 23.7276C40.8282 23.9255 40.7136 24.3315 40.8073 24.6856L41.2967 26.5078C41.4217 26.9763 41.9007 27.2575 42.3692 27.1325L57.6547 23.0404C58.1233 22.9154 58.4044 22.4365 58.2795 21.9679L57.7901 20.1457C57.6964 19.7917 57.4048 19.5002 57.0404 19.4793C56.3115 19.4377 55.6555 18.9275 55.4473 18.1778Z" fill="#003383"/>
<path d="M46.3364 17.886C47.1798 17.6569 47.8254 18.1567 48.0544 19.0002C48.3252 20.0206 47.8254 20.739 47.1069 20.9369C46.3572 21.1347 45.6179 20.7286 45.368 19.8019C45.1285 18.9273 45.493 18.1151 46.3364 17.886ZM46.4717 18.5316C46.1281 18.6253 46.0865 19.0626 46.2218 19.5624C46.3572 20.0831 46.6383 20.4058 46.9715 20.3121C47.2943 20.2288 47.3672 19.8436 47.2214 19.2917C47.0757 18.7815 46.8362 18.4275 46.4717 18.5316ZM47.7108 22.9881L49.179 17.1363L49.7933 16.9697L48.3252 22.8111L47.7108 22.9881ZM50.4389 18.9897C51.2823 18.7607 51.9279 19.2605 52.1465 20.1039C52.4173 21.1243 51.9175 21.8532 51.199 22.0406C50.4597 22.2384 49.71 21.8324 49.4705 20.9161C49.2414 20.0206 49.5955 19.2084 50.4389 18.9897ZM50.5742 19.6249C50.2306 19.7186 50.189 20.1559 50.3139 20.6453C50.4493 21.166 50.7304 21.4887 51.0532 21.395C51.376 21.3117 51.4489 20.9265 51.3031 20.3746C51.1678 19.8748 50.9283 19.5312 50.5742 19.6249Z" fill="white"/>
<defs>
<linearGradient id="paint0_linear_1403_54007" x1="18.7688" y1="36.995" x2="18.7688" y2="3.00597" gradientUnits="userSpaceOnUse">
<stop stop-color="#CFCFD1"/>
<stop offset="0.2565" stop-color="#DCDCDE"/>
<stop offset="0.6633" stop-color="#EBEBED"/>
<stop offset="1" stop-color="#F0F0F2"/>
</linearGradient>
<linearGradient id="paint1_linear_1403_54007" x1="1.24317" y1="24.1861" x2="12.1512" y2="3.83733" gradientUnits="userSpaceOnUse">
<stop/>
<stop offset="0.0403" stop-color="#1D1D1D"/>
<stop offset="0.1434" stop-color="#606060"/>
<stop offset="0.2412" stop-color="#999999"/>
<stop offset="0.3308" stop-color="#C5C5C5"/>
<stop offset="0.4107" stop-color="#E5E5E5"/>
<stop offset="0.4778" stop-color="#F8F8F8"/>
<stop offset="0.5241" stop-color="white"/>
<stop offset="0.5672" stop-color="#F9F9F9"/>
<stop offset="0.6273" stop-color="#E6E6E6"/>
<stop offset="0.6974" stop-color="#C9C9C9"/>
<stop offset="0.7752" stop-color="#9F9F9F"/>
<stop offset="0.8591" stop-color="#6A6A6A"/>
<stop offset="0.9469" stop-color="#2A2A2A"/>
<stop offset="1"/>
</linearGradient>
<linearGradient id="paint2_linear_1403_54007" x1="78.5479" y1="36.7908" x2="78.5479" y2="3.28456" gradientUnits="userSpaceOnUse">
<stop stop-color="#CFCFD1"/>
<stop offset="0.2565" stop-color="#DCDCDE"/>
<stop offset="0.6633" stop-color="#EBEBED"/>
<stop offset="1" stop-color="#F0F0F2"/>
</linearGradient>
<linearGradient id="paint3_linear_1403_54007" x1="95.0255" y1="30.3229" x2="89.4158" y2="3.93097" gradientUnits="userSpaceOnUse">
<stop/>
<stop offset="0.0427" stop-color="#343434"/>
<stop offset="0.0882" stop-color="#636363"/>
<stop offset="0.1365" stop-color="#8D8D8D"/>
<stop offset="0.1869" stop-color="#B0B0B0"/>
<stop offset="0.2397" stop-color="#CDCDCD"/>
<stop offset="0.2959" stop-color="#E3E3E3"/>
<stop offset="0.357" stop-color="#F3F3F3"/>
<stop offset="0.4268" stop-color="#FCFCFC"/>
<stop offset="0.5241" stop-color="white"/>
<stop offset="0.5944" stop-color="#FCFCFC"/>
<stop offset="0.6556" stop-color="#F1F1F1"/>
<stop offset="0.7134" stop-color="#DFDFDF"/>
<stop offset="0.7691" stop-color="#C6C6C6"/>
<stop offset="0.8233" stop-color="#A5A5A5"/>
<stop offset="0.8765" stop-color="#7D7D7D"/>
<stop offset="0.9287" stop-color="#4E4E4E"/>
<stop offset="0.979" stop-color="#191919"/>
<stop offset="1"/>
</linearGradient>
<linearGradient id="paint4_linear_1403_54007" x1="48.6583" y1="40.0008" x2="48.6583" y2="-0.00124938" gradientUnits="userSpaceOnUse">
<stop stop-color="#CFCFD1"/>
<stop offset="0.2565" stop-color="#DCDCDE"/>
<stop offset="0.6633" stop-color="#EBEBED"/>
<stop offset="1" stop-color="#F0F0F2"/>
</linearGradient>
<linearGradient id="paint5_linear_1403_54007" x1="27.4797" y1="24.8633" x2="40.5025" y2="0.569507" gradientUnits="userSpaceOnUse">
<stop/>
<stop offset="0.0403" stop-color="#1D1D1D"/>
<stop offset="0.1434" stop-color="#606060"/>
<stop offset="0.2412" stop-color="#999999"/>
<stop offset="0.3308" stop-color="#C5C5C5"/>
<stop offset="0.4107" stop-color="#E5E5E5"/>
<stop offset="0.4778" stop-color="#F8F8F8"/>
<stop offset="0.5241" stop-color="white"/>
<stop offset="0.5672" stop-color="#F9F9F9"/>
<stop offset="0.6273" stop-color="#E6E6E6"/>
<stop offset="0.6974" stop-color="#C9C9C9"/>
<stop offset="0.7752" stop-color="#9F9F9F"/>
<stop offset="0.8591" stop-color="#6A6A6A"/>
<stop offset="0.9469" stop-color="#2A2A2A"/>
<stop offset="1"/>
</linearGradient>
<linearGradient id="paint6_linear_1403_54007" x1="68.0752" y1="32.1448" x2="61.3779" y2="0.636307" gradientUnits="userSpaceOnUse">
<stop/>
<stop offset="0.0427" stop-color="#343434"/>
<stop offset="0.0882" stop-color="#636363"/>
<stop offset="0.1365" stop-color="#8D8D8D"/>
<stop offset="0.1869" stop-color="#B0B0B0"/>
<stop offset="0.2397" stop-color="#CDCDCD"/>
<stop offset="0.2959" stop-color="#E3E3E3"/>
<stop offset="0.357" stop-color="#F3F3F3"/>
<stop offset="0.4268" stop-color="#FCFCFC"/>
<stop offset="0.5241" stop-color="white"/>
<stop offset="0.5944" stop-color="#FCFCFC"/>
<stop offset="0.6556" stop-color="#F1F1F1"/>
<stop offset="0.7134" stop-color="#DFDFDF"/>
<stop offset="0.7691" stop-color="#C6C6C6"/>
<stop offset="0.8233" stop-color="#A5A5A5"/>
<stop offset="0.8765" stop-color="#7D7D7D"/>
<stop offset="0.9287" stop-color="#4E4E4E"/>
<stop offset="0.979" stop-color="#191919"/>
<stop offset="1"/>
</linearGradient>
</defs>
</svg>
