<svg width="64" height="64" viewBox="0 0 64 64" fill="none" xmlns="http://www.w3.org/2000/svg">
<path d="M40.25 50.125C45.764 50.125 50.25 54.611 50.25 60.125C50.25 60.8153 50.8097 61.375 51.5 61.375C52.1903 61.375 52.75 60.8153 52.75 60.125C52.75 54.611 57.236 50.125 62.75 50.125C63.4403 50.125 64 49.5653 64 48.875C64 48.1847 63.4403 47.625 62.75 47.625C57.236 47.625 52.75 43.139 52.75 37.625C52.75 36.9348 52.1903 36.375 51.5 36.375C50.8097 36.375 50.25 36.9348 50.25 37.625C50.25 43.139 45.764 47.625 40.25 47.625C39.5598 47.625 39 48.1847 39 48.875C39 49.5653 39.5598 50.125 40.25 50.125ZM51.5 43.0714C52.727 45.5956 54.7792 47.6479 57.3036 48.875C54.7794 50.102 52.7271 52.1542 51.5 54.6786C50.273 52.1544 48.2208 50.1021 45.6964 48.875C48.2208 47.648 50.273 45.5958 51.5 43.0714Z" fill="#1A36A8"/>
<path d="M1.25 12.625C4.69625 12.625 7.5 15.4288 7.5 18.875C7.5 19.5653 8.05962 20.125 8.75 20.125C9.44038 20.125 10 19.5653 10 18.875C10 15.4288 12.8038 12.625 16.25 12.625C16.9404 12.625 17.5 12.0653 17.5 11.375C17.5 10.6847 16.9404 10.125 16.25 10.125C12.8038 10.125 10 7.32125 10 3.875C10 3.18475 9.44038 2.625 8.75 2.625C8.05962 2.625 7.5 3.18475 7.5 3.875C7.5 7.32125 4.69625 10.125 1.25 10.125C0.559625 10.125 0 10.6847 0 11.375C0 12.0653 0.559625 12.625 1.25 12.625ZM8.75 8.378C9.48913 9.60425 10.5208 10.636 11.7469 11.375C10.5206 12.114 9.489 13.1458 8.75 14.372C8.01087 13.1458 6.97925 12.114 5.75313 11.375C6.97925 10.636 8.01087 9.60425 8.75 8.378Z" fill="#1A36A8"/>
<path d="M34.875 38C35.5654 38 36.125 37.4404 36.125 36.75C36.125 36.0596 35.5654 35.5 34.875 35.5C34.1846 35.5 33.625 36.0596 33.625 36.75C33.625 37.4404 34.1846 38 34.875 38Z" fill="#1A36A8"/>
<path d="M38.2098 33.8993C38.5619 34.4929 39.329 34.6886 39.9226 34.3363C43.1874 32.399 46.9314 31.375 50.75 31.375C51.4403 31.375 52 30.8153 52 30.125C52 29.4347 51.4403 28.875 50.75 28.875C39.0327 28.875 29.5 19.3422 29.5 7.625C29.5 6.93475 28.9404 6.375 28.25 6.375C27.5596 6.375 27 6.93475 27 7.625C27 19.3422 17.4672 28.875 5.75 28.875C5.05963 28.875 4.5 29.4347 4.5 30.125C4.5 30.8153 5.05963 31.375 5.75 31.375C17.4672 31.375 27 40.9077 27 52.625C27 53.3153 27.5596 53.875 28.25 53.875C28.9404 53.875 29.5 53.3153 29.5 52.625C29.5 48.8064 30.524 45.0624 32.4613 41.7976C32.8135 41.2039 32.6179 40.437 32.0243 40.0848C31.4301 39.7321 30.6635 39.9281 30.3114 40.5218C29.4659 41.9465 28.7761 43.4524 28.2491 45.0131C25.88 38.0286 20.3441 32.4935 13.3594 30.125C20.3449 27.7563 25.8813 22.2199 28.25 15.2344C30.6185 22.2191 36.1536 27.755 43.138 30.1241C41.5774 30.6511 40.0715 31.3409 38.6466 32.1864C38.0531 32.5387 37.8574 33.3055 38.2098 33.8993Z" fill="#1A36A8"/>
</svg>
