<svg width="18" height="24" viewBox="0 0 18 24" fill="none" xmlns="http://www.w3.org/2000/svg">
<path d="M17.9107 19.1441C17.605 17.6789 16.4634 16.4943 15.0014 16.1262C14.0014 15.8752 12.9965 16.0017 12.1156 16.4826L10.9873 13.9314L15.3052 3.5692C15.4351 3.25721 15.5005 2.92857 15.5005 2.59215C15.5005 1.74111 15.0776 0.951088 14.3696 0.478924L13.7778 0.084384C13.6547 0.00188538 13.5014 -0.0215517 13.3608 0.0204007C13.2192 0.0614156 13.103 0.162992 13.0434 0.298224L9.0004 9.43931L4.95727 0.298271C4.89769 0.163039 4.78149 0.0614625 4.63988 0.0204476C4.49828 -0.0215517 4.34495 0.00188538 4.22289 0.0844309L3.63111 0.478971C2.92307 0.951088 2.50022 1.74111 2.50022 2.59215C2.50022 2.92857 2.56565 3.25716 2.69554 3.5692L7.01331 13.9323L5.88407 16.4831C5.30301 16.1657 4.6614 16.0002 4.00024 16.0002C1.79415 16.0002 0.000137329 17.7945 0.000137329 20.0001C0.000137329 22.2056 1.79411 24 4.00024 24C6.20633 24 8.00034 22.2056 8.00034 20.0001C8.00034 18.521 8.48436 17.4398 8.9997 16.7005C9.50069 17.4176 9.96863 18.4444 9.99845 19.8575C10.0453 22.0694 11.7104 23.8862 13.7876 23.9946C13.8598 23.998 13.9311 24 14.0015 24C15.1743 24 16.272 23.4971 17.0396 22.6011C17.854 21.6505 18.1714 20.3902 17.9107 19.1441ZM4.0001 22.0001C2.89757 22.0001 2.00012 21.1031 2.00012 20.0001C2.00012 18.897 2.89757 18.0001 4.0001 18.0001C5.10263 18.0001 6.00008 18.897 6.00008 20.0001C6.00008 21.1031 5.10263 22.0001 4.0001 22.0001ZM8.99998 15.0002C8.44822 15.0002 8.00001 14.5515 8.00001 14.0002C8.00001 13.449 8.44827 13.0002 8.99998 13.0002C9.55173 13.0002 9.99995 13.449 9.99995 14.0002C9.99995 14.5515 9.55173 15.0002 8.99998 15.0002ZM13.9999 22.0001C12.8974 22.0001 11.9999 21.1031 11.9999 20.0001C11.9999 18.897 12.8974 18.0001 13.9999 18.0001C15.1024 18.0001 15.9999 18.897 15.9999 20.0001C15.9999 21.1031 15.1024 22.0001 13.9999 22.0001Z" fill="#003383"/>
</svg>
