<svg width="280" height="20" viewBox="0 0 280 20" fill="none" xmlns="http://www.w3.org/2000/svg">
<g clip-path="url(#clip0_717_70098)">
<path d="M237.822 5.12189C237.846 5.10303 237.863 5.07402 237.871 5.04471C237.831 5.07285 237.822 5.10216 237.822 5.12189Z" fill="#C12A21"/>
<path d="M216.165 4.71245L216.413 4.67456C216.333 4.6718 216.245 4.68735 216.165 4.71245Z" fill="#C12A21"/>
<path d="M250.799 5.34706C250.791 5.35412 250.775 5.35369 250.767 5.36075L251.682 5.38543L250.799 5.34706Z" fill="#C12A21"/>
<path d="M169.968 4.88463L170.257 4.87675C170.161 4.8822 170.064 4.87918 169.968 4.88463Z" fill="#C12A21"/>
<path d="M197.344 4.77202C197.223 4.80512 197.102 4.81959 196.974 4.82447C197.102 4.84753 197.231 4.82402 197.344 4.77202Z" fill="#C12A21"/>
<path d="M257.651 7.1757L257.282 7.04834C257.281 7.1055 257.418 7.15795 257.651 7.1757Z" fill="#C12A21"/>
<path d="M270.804 6.83534C270.796 6.82529 270.78 6.81496 270.772 6.80491C270.756 6.82386 270.772 6.83419 270.804 6.83534Z" fill="#C12A21"/>
<path d="M265.67 6.30308C265.558 6.30843 265.429 6.3224 265.3 6.34555C265.453 6.34156 265.654 6.34838 265.67 6.30308Z" fill="#C12A21"/>
<path d="M265.123 6.37424L265.3 6.35268C265.203 6.34941 265.123 6.35587 265.123 6.37424Z" fill="#C12A21"/>
<path d="M2.28118 12.1412C1.8868 12.1745 1.49203 12.2549 1.11303 12.3735L2.28118 12.1412Z" fill="#C12A21"/>
<path d="M128.153 5.96761L128.233 5.922C128.153 5.92884 128.137 5.94765 128.153 5.96761Z" fill="#C12A21"/>
<path d="M1.84064 13.2146L1.55949 13.2143C1.64783 13.2169 1.7442 13.2197 1.84064 13.2146Z" fill="#C12A21"/>
<path d="M250.682 7.47074C250.303 7.57337 249.525 7.43284 249.532 7.53926C249.926 7.52562 250.496 7.61507 250.682 7.47074Z" fill="#C12A21"/>
<path d="M119.404 10.7013L119.156 10.7105C119.276 10.7058 119.348 10.7081 119.404 10.7013Z" fill="#C12A21"/>
<path d="M1.84072 13.2083L2.17033 13.2103C2.13834 13.1907 2.10634 13.1711 2.06623 13.1605C1.98563 13.1855 1.91313 13.2015 1.84072 13.2083Z" fill="#C12A21"/>
<path d="M84.6127 7.4713L84.6288 7.47186L84.7175 7.44654L84.6127 7.4713Z" fill="#C12A21"/>
<path d="M82.3008 7.35803L82.7915 7.31092C82.6228 7.30524 82.4619 7.31801 82.3008 7.35803Z" fill="#C12A21"/>
<path d="M1.11288 12.3987L0.46022 12.5363C0.677643 12.5062 0.895223 12.4572 1.11288 12.3987Z" fill="#C12A21"/>
<path d="M57.4158 8.58077L57.6403 8.56121C57.5682 8.5588 57.4881 8.56514 57.4158 8.58077Z" fill="#C12A21"/>
<path d="M199.102 4.80316L199.302 4.82832C199.327 4.80161 199.311 4.78272 199.102 4.80316Z" fill="#C12A21"/>
<path d="M182.848 8.08189C182.535 8.07108 182.229 8.11645 181.93 8.22732C182.244 8.22881 182.558 8.18372 182.848 8.08189Z" fill="#C12A21"/>
<path d="M179.963 8.21826L180.075 8.2306C180.035 8.2293 180.003 8.21956 179.963 8.21826Z" fill="#C12A21"/>
<path d="M198.439 8.12985L198.439 8.11995C198.431 8.11963 198.43 8.12953 198.43 8.12953L198.439 8.12985Z" fill="#C12A21"/>
<path d="M194.782 8.20192C194.702 8.18096 194.614 8.15972 194.526 8.15674C194.614 8.1871 194.694 8.19894 194.782 8.20192Z" fill="#C12A21"/>
<path d="M170.863 8.75394L170.847 8.74365L170.863 8.75394Z" fill="#C12A21"/>
<path d="M136.409 10.3589C139.864 10.2513 144.342 10.0199 147.781 10.0421C148.739 9.85931 149.72 9.76675 150.7 9.76373L150.826 10.0281L151.735 9.93335C152.104 10.0096 151.035 9.98554 151.693 10.0787L152.032 9.90975C152.104 10.0015 154.378 9.94789 152.849 10.1542L156.393 10.1226C157.18 10.1219 156.845 9.90013 157.712 9.95884C157.888 10.0374 157.406 10.0148 157.478 10.1065C160.088 10.2747 160.472 9.56977 162.898 9.66732L162.688 9.70172C163.099 9.62453 163.886 9.63198 163.895 9.59152C163.576 9.32949 163.459 9.73311 162.722 9.58873C162.78 9.3625 163.639 9.46167 163.584 9.28903C164.05 9.31936 164.516 9.2927 164.983 9.22534C165.833 9.36497 167.039 9.25477 167.68 9.42881C168.253 9.25877 168.84 9.15435 169.435 9.12343C170.076 9.29746 169.289 9.29001 170.156 9.35686L170.294 9.23074C171.001 9.24391 170.896 9.28146 170.871 9.34585C171.394 9.26391 171.925 9.23105 172.455 9.24703L171.923 9.37757C172.631 9.32562 172.912 9.34224 173.9 9.35574C173.883 9.42852 173.49 9.42479 173.201 9.40794C173.737 9.5951 174.109 9.32134 174.398 9.33819C174.319 9.27879 173.636 9.25821 173.966 9.12975C174.456 9.15266 174.997 8.9491 175.349 9.09814L174.817 9.22868C175.373 9.10701 175.952 9.06746 176.522 9.10907C176.457 9.11528 176.489 9.14881 176.465 9.18064C177.39 9.08638 178.33 9.08215 179.261 9.16722L179.052 9.20163C179.494 9.15797 179.728 9.04289 179.969 9.05015C179.343 8.97428 179.512 8.93867 179.457 8.81487C180.283 9.02703 180.705 8.55936 182.054 8.68144C182.037 8.75421 181.715 8.85035 181.338 8.77385C180.949 9.05527 180.498 9.23707 180.015 9.28767C180.522 9.2378 181.125 9.19898 180.995 9.29279L181.15 9.08574C181.455 9.07867 181.704 9.09431 181.937 9.08505C182.067 8.95869 181.313 8.87894 182.021 8.78629C182.825 8.71282 182.452 8.99473 182.574 8.90068C183.683 8.81199 183.026 8.67818 184.094 8.74294C183.965 8.77163 183.828 8.78379 183.692 8.77968C184.454 8.85966 185.572 8.73052 185.795 8.9815C185.674 9.07555 185.52 9.11979 185.376 9.09101L185.385 9.05055C184.547 9.23701 186.084 8.99836 185.825 9.22667C185.762 9.09449 186.838 9.12694 187.32 9.14961L187.161 8.99824C188.764 8.54988 187.078 9.29701 188.669 9.23913C189.682 9.1394 188.284 9.19495 188.903 9.09149C189.545 9.17598 190.196 9.21188 190.847 9.19079C191.127 9.24811 191.697 9.33042 191.752 9.50306C192.483 9.52509 193.214 9.49829 193.946 9.4145C192.903 9.26906 192.916 9.59515 191.697 9.37112L192.036 9.21035C192.879 9.21949 193.949 9.13773 194.535 9.19611C194.415 9.15992 194.367 9.11777 194.439 9.08738C195.332 8.97588 196.241 8.9137 197.149 8.9085C197.308 9.05987 196.625 9.03115 196.127 9.04869C196.777 9.10901 197.428 9.12862 198.079 9.10753C198.142 9.23971 197.292 9.10008 197.162 9.22645L198.456 9.18404C198.448 9.19194 198.456 9.20032 198.456 9.20846C198.642 8.9861 199.444 9.2301 200.232 9.16429C201.316 9.15628 202.386 9.00126 203.418 8.69037C203.699 8.74768 203.778 8.80709 203.665 8.86068C203.208 8.76547 203.288 8.84116 203.127 8.89329C203.762 8.87172 204.515 9.11427 204.16 9.2013C205.165 9.13388 203.8 9.08458 204.411 9.01344L205.785 9.03042C205.617 8.91952 205.135 8.88871 205.843 8.8042C206.446 8.77352 206.735 8.79851 207.514 8.80572C207.401 8.85931 207.762 8.97603 207.175 8.96649C207.577 9.02744 207.987 9.00723 208.373 8.90489C207.515 8.79758 209.78 8.80888 209.139 8.63485L209.998 8.74216C209.805 8.73635 209.78 8.81702 209.491 8.79203C209.739 8.96234 210.191 8.74797 210.488 8.73251C210.874 8.74413 211.259 8.78832 211.644 8.85692C211.998 8.81059 212.359 8.83777 212.704 8.93773C213.106 8.90913 212.737 8.82473 212.85 8.77114L214.224 8.79627C214.295 8.89613 214.413 9.15211 214.212 9.18675C214.727 9.10457 214.391 8.90717 215.178 8.92276C214.735 9.10481 216.214 9.06796 215.569 9.28466C216.379 9.41494 217.198 9.44777 218.002 9.38245C218.438 9.24086 217.24 9.29432 217.281 9.14901C219.266 9.11114 219.383 8.69938 220.836 8.77577L220.459 8.73183C220.909 8.72097 221.36 8.66126 221.795 8.55224C221.544 8.73196 222.834 9.05585 224.321 9.02738C224.442 8.93333 223.487 8.84754 223.73 8.70014L224.718 8.68108C224.79 8.69954 224.677 8.72871 224.557 8.7495C225.441 8.68659 226.209 9.00288 226.469 8.78271L227.374 9.06242L227.013 8.9457C227.448 8.86109 227.89 8.81743 228.341 8.79843C228.984 8.71198 229.643 8.74811 230.284 8.90587C230.108 8.82728 229.668 8.65116 230.463 8.62629C230.46 8.92747 232.141 8.75016 232.116 8.9041C232.437 8.90564 233.015 9.00448 233.048 8.88334L232.998 9.06911C233.073 8.81081 234.246 8.83802 235.146 8.80002C234.942 9.15213 236.134 8.7891 236.541 9.11078C236.712 8.87166 238.141 9.03686 238.295 8.83796C238.986 8.83436 238.92 9.06035 239.096 9.13894L239.418 9.05094C239.77 9.16742 241.072 9.19851 241.85 9.28712L242.567 9.08074L242.831 9.17827C242.944 9.12468 243.547 9.10214 243.17 9.0175L243.556 9.03726C243.59 8.81031 244.103 8.98047 244.883 8.88999C245.068 8.92812 245.019 8.98365 244.85 9.01113C245.235 9.02275 245.074 9.13187 245.29 9.21167C245.009 9.14621 246.692 8.81423 245.64 8.69297C245.569 8.60125 246.18 8.53825 246.565 8.58244L246.796 8.79296L247.256 8.57884C247.706 8.5924 248.156 8.64666 248.597 8.7251C248.098 8.73451 247.492 9.10707 248.778 9.1214C248.319 9.1483 247.869 9.19986 247.426 9.29236C247.691 9.30849 247.828 9.32889 247.409 9.40584C248.414 9.35471 247.748 9.28577 248.736 9.26671C248.678 9.45224 248.959 9.51769 249.826 9.59269L249.176 9.45097C249.217 9.42776 249.257 9.41269 249.297 9.39762C249.048 9.37383 248.985 9.33934 248.929 9.27252C249.122 9.27833 250.08 9.0548 250.24 9.17361C249.238 8.86657 251.977 8.97357 251.344 8.79163C251.634 8.72709 251.939 8.74443 252.219 8.83431C251.39 8.96403 252.844 9.0567 252.706 9.18283C253.012 9.13505 252.057 9.03297 252.467 8.97206C252.853 8.98368 253.23 9.03576 253.598 9.14458L253.389 9.17899L254.151 9.27525C254.273 9.1812 253.414 9.09831 254.113 9.07054C254.298 9.11681 255.005 9.08113 254.98 9.15367C254.642 9.27374 254.889 9.45219 254.286 9.46659C254.784 9.46533 256.367 9.48047 255.726 9.29015L256.321 9.30807C255.952 9.22367 254.909 9.05381 256.098 9.05709L256.089 9.10568L256.918 8.9841L257.279 9.09268C257.271 9.0436 257.4 9.00677 257.705 9.01597C257.785 9.07538 258.074 9.10037 258.049 9.17291C258.941 9.18351 258.87 9.08364 258.983 9.03819C259.481 9.03693 259.665 9.07506 259.431 9.182C260.21 9.1892 260.989 9.24525 261.768 9.33386C262.684 9.27192 261.583 9.28759 262.115 9.17333C262.899 9.51453 265.126 9.36996 266.613 9.35777C266.206 9.06052 267.022 9.33756 267.29 9.07693C266.968 9.15678 268.702 9.33119 267.4 9.3815L268.195 9.37291C268.74 9.54404 266.877 9.46345 267.702 9.69189C268.539 9.57869 269.383 9.52271 270.226 9.53186C269.871 9.72471 271.038 9.48305 270.771 9.69485C270.506 9.74384 270.24 9.76027 269.967 9.74389L270.152 9.79017C272.103 9.88971 270.716 9.56291 271.746 9.44738C272.935 9.45066 272.684 9.63038 272.756 9.7221C273.125 9.75766 273.486 9.75227 273.857 9.69829C273.132 9.80674 272.516 9.54389 272.847 9.42357C273.536 9.58278 274.251 9.57177 274.936 9.39699C273.235 9.11773 273.755 9.3614 272.167 9.06111C271.95 9.12783 271.98 9.3323 271.025 9.23022C271.628 9.14256 270.986 9.11505 270.817 9.07741C271.001 9.19694 270.15 9.11429 269.86 9.15441C269.596 9.04874 270.433 8.89484 269.462 8.82484L269.274 9.10418C268.897 9.05209 269.437 8.90551 268.625 8.95432C269.06 8.82087 268.491 8.72228 269.592 8.70661C268.284 8.43922 267.59 8.79284 266.569 8.86791C266.674 8.85478 266.682 8.81432 266.787 8.80119C266.489 8.85735 266.183 8.88071 265.878 8.86337C265.212 8.78629 266.409 8.74911 266.233 8.67052L265.149 8.65411C265.125 8.64524 265.125 8.6371 265.125 8.6371C264.908 8.68754 264.683 8.68076 264.466 8.61724C264.788 8.53739 264.918 8.44358 265.135 8.37686L264.001 8.54622C264.122 8.46031 263.063 8.36323 263.875 8.31442L262.187 8.31241L262.045 8.12083C261.643 8.14942 261.626 8.1815 262.116 8.21255C261.538 8.15441 259.558 8.48557 259.867 8.12033C258.54 8.24318 258.067 8.17191 256.467 8.22955C257.698 8.08751 255.056 7.97528 256.358 7.92497C255.844 7.90133 255.329 7.93468 254.83 8.04177C254.269 7.95155 254.519 7.77184 255.131 7.71698L254.415 7.78497L254.431 7.74475L253.812 7.84007C253.154 7.73067 253.677 7.64873 252.994 7.61187L252.848 7.77845L252.383 7.67487C252.559 7.75345 252.149 7.78181 251.659 7.79146L251.667 7.751L251.064 7.77354C251.66 7.67749 250.518 7.73265 250.785 7.6104C250.271 7.5949 250.263 7.59466 249.33 7.61541L249.49 7.73422C248.276 7.81975 249.435 7.56158 248.455 7.54018L248.518 7.67236C247.107 7.43437 246.123 7.763 245.072 7.60918C245.675 7.58664 245.516 7.43527 245.507 7.46759C244.607 7.50559 243.137 7.445 242.212 7.59623C241.788 7.34734 241.308 7.22699 240.833 7.24526C240.142 7.24886 240.038 7.26199 239.812 7.36917C239.153 7.38188 238.494 7.3376 237.836 7.24448C237.683 7.35384 237.226 7.2098 236.864 7.30472L236.784 7.24532L236.847 7.3775C235.653 7.06466 234.829 7.51209 233.618 7.2476L233.827 7.21319L233.321 7.25492C233.241 7.19552 233.442 7.16087 233.467 7.08833L231.105 7.03342L231.57 7.13701C231.112 7.20461 230.638 7.21474 230.172 7.18442C231.114 6.99297 229.385 7.16883 229.233 7.01771L229.74 6.96784C229.049 6.97144 229.049 6.97143 229.104 7.10337C228.204 7.14137 228.488 6.84866 227.659 6.98653L228.253 6.9963C228.429 7.07489 228.003 7.17602 227.609 7.1723C227.513 7.15311 227.24 7.0879 227.538 7.07243C226.83 7.11625 225.77 7.04358 225.456 7.09112C225.071 7.04694 225.201 6.95313 225.402 6.91848C223.89 7.02762 224.719 6.88976 223.208 6.99076L223.232 6.91822L222.693 7.03224L221.947 6.87134L222.211 6.96887C221.753 7.00391 221.287 7.00615 220.829 6.98421L221.063 6.87727C219.665 6.93282 219.442 6.68183 218.115 6.8291C218.027 6.81016 218.228 6.77551 218.333 6.75424C217.102 6.92069 217.395 6.54682 216.163 6.75398C216.236 6.71546 216.1 6.67064 216.148 6.63953L215.585 6.70398L215.627 6.55867L215.167 6.77279L214.815 6.62376L214.597 6.69048C213.997 6.40369 213.144 6.61409 212.318 6.39379L212.461 6.58537C210.385 6.95432 207.699 6.33595 205.182 6.52065L205.224 6.37534L204.186 6.5476C203.624 6.43297 204.516 6.41915 204.34 6.34056C203.231 6.42111 203.88 6.56282 202.594 6.60548C201.936 6.50422 202.82 6.4983 203.134 6.44262C201.856 6.5425 200.57 6.56888 199.285 6.51386C199.269 6.52965 199.212 6.56052 199.26 6.57011C198.456 6.63544 197.388 6.57067 196.496 6.57636C196.513 6.51172 196.738 6.49408 196.955 6.48434C196.61 6.4495 196.264 6.45537 195.926 6.49404L196.257 6.36559C195.542 6.4173 194.819 6.39551 194.104 6.30069C194.184 6.3601 194.159 6.47333 193.565 6.46355C193.237 6.23384 191.957 6.56165 191.01 6.43539C191.123 6.3818 191.814 6.37007 191.621 6.36425C191.18 6.33466 190.737 6.37832 190.302 6.4792L190.432 6.3854L188.229 6.51441C187.902 6.2847 186.148 6.54938 186.294 6.3828C185.507 6.37535 186.96 6.48429 185.963 6.51125C185.699 6.41372 185.063 6.56553 185.105 6.41208L185.209 6.39081L184.51 6.4023L184.945 6.25257C184.35 6.2835 183.907 6.43298 183.882 6.54622C183.336 6.53789 182.79 6.497 182.244 6.40728L182.453 6.37287C180.862 6.43889 179.806 5.98364 178.558 6.23915C178.462 6.21997 178.478 6.17975 178.671 6.18556L177.683 6.18834L177.917 6.07326L176.292 6.25227L176.309 6.17949C175.232 6.15518 173.553 6.20226 172.162 6.23363L172.372 6.19922C170.86 6.32464 170.91 6.13887 169.808 6.21966C169.841 6.20435 169.881 6.18928 169.921 6.19049L168.925 6.20117L169.142 6.1263C168.588 6.15843 168.041 6.13383 167.488 6.06014C167.062 6.10429 166.643 6.18938 166.24 6.31565C165.155 6.3318 165.976 6.21812 165.301 6.16522C164.642 6.21863 163.983 6.23947 163.316 6.22751L163.333 6.15474C162.835 6.17228 162.529 6.2282 161.838 6.23994L162.047 6.20553C160.92 6.37514 160.635 6.00011 159.756 6.33189C159.282 6.2769 158.382 6.33118 158.424 6.17773C157.016 6.29002 155.923 6.33849 154.532 6.4187C154.302 6.17561 154.235 6.43416 153.385 6.30267L153.448 6.43485C151.471 6.47296 149.192 6.16813 147.014 6.24089L146.951 6.10871L146.515 6.25844C144.17 6.22029 141.133 6.19388 139.26 6.21072C138.432 6.34859 137.595 6.42109 136.752 6.42008L136.856 6.39881C135.168 6.49448 133.375 6.57887 131.528 6.52317C131.641 6.46958 131.457 6.43145 131.658 6.38866C131.167 6.47158 130.669 6.48098 130.179 6.40923L130.644 6.50468C130.129 6.60314 129.599 6.57902 129.094 6.43352L128.265 6.58767C128.209 6.57783 128.121 6.55889 128.113 6.53422L127.968 6.60313L127.52 6.4349C126.965 6.46704 126.418 6.55639 125.878 6.70297C125.798 6.64357 125.019 6.61194 125.622 6.57312L122.585 6.56299L123.059 6.61798C123.122 6.75016 122.213 6.8449 121.739 6.78991C122.351 6.67807 121.781 6.6039 121.517 6.50637C121.106 6.58356 121.877 6.61494 121.668 6.69005C121.048 6.79351 120.413 6.82322 119.779 6.78781L120.085 6.73189C119.385 6.79222 119.05 6.56227 118.359 6.58215C117.739 6.69374 117.274 6.60644 117.408 6.83034C116.508 6.89276 117.056 6.6813 116.767 6.66444C116.155 6.76814 115.529 6.74926 114.919 6.61689C114.434 6.96053 112.486 6.53538 112.314 6.8152L111.568 6.67058C111.552 6.74336 111.405 6.91808 110.81 6.95714C110.241 6.88297 110.37 6.74846 110.202 6.67826L109.83 6.96016C106.562 6.71509 102.277 6.98489 98.6956 6.79549C97.104 6.87779 95.1017 7.04542 93.2458 7.03833L93.447 6.99554L91.5994 6.95613L92.9483 7.05379C92.5462 7.09052 92.2323 7.15434 91.8466 7.159C89.4293 7.03727 87.0188 7.04603 84.607 7.18503C83.0048 7.53571 83.5249 6.92442 81.9797 7.18725C82.1085 7.15856 82.1572 7.11118 82.278 7.07411C80.6135 7.21121 79.713 7.28177 78.0477 7.50027C78.2275 7.17999 76.9628 7.52456 77.101 7.35774L76.9631 7.492C76.5861 7.42364 75.7104 7.41353 75.8319 7.31948L75.099 7.49281L75.028 7.36038C74.0476 7.37154 71.9571 7.52837 71.4293 7.26818C69.0165 7.52115 65.1918 7.54427 62.1545 7.55856C61.4946 7.66895 60.8271 7.73025 60.1522 7.72619L59.4064 7.58157C58.7141 7.71541 58.0145 7.78388 57.3074 7.77885C57.3076 7.76257 57.3399 7.74726 57.3801 7.74033C56.6893 7.72765 55.9978 7.78008 55.3139 7.8816C54.5264 7.89043 53.7637 7.82673 53.9981 7.67909C53.9314 7.93764 52.3349 7.68595 52.3349 7.68595C52.3349 7.68595 42.2745 7.78165 30.9826 8.10893C19.6826 8.44411 7.16702 9.01949 2.28114 9.93887C1.91017 10.0824 0.904406 10.2312 1.321 10.3578C0.556751 10.4569 0.140783 10.2652 0.018971 10.3999C1.08751 10.4077 -0.201259 10.7434 0.842405 10.8319L0.214942 10.9107C0.109585 11.0052 1.04399 10.7565 0.929903 10.9241L1.06084 10.6756C1.39851 10.6532 1.73556 10.696 2.06411 10.7873C2.62926 10.5031 3.26523 10.3757 3.90743 10.4357L3.60188 10.4591C4.49418 10.4127 4.15495 10.5979 4.34749 10.6281L4.1466 10.6302L4.90898 10.7265C4.33907 10.6686 3.40481 10.901 3.89526 10.8669C4.96364 10.891 3.61451 10.8177 4.4105 10.7603C4.90898 10.7265 4.7711 10.8607 4.75425 10.9417L5.63852 10.895C5.61333 11.0083 5.05184 10.9099 5.42047 11.0106L6.53082 10.8487C6.75315 11.1241 7.73778 10.6652 8.26566 10.9172C7.46132 11.007 8.34512 11.0092 8.21567 11.103L10.1849 11.024C10.3694 11.0539 9.66968 11.1306 9.9672 11.107C10.2402 11.1233 10.5137 11.0909 10.7716 11.0091C10.9477 11.0795 12.2425 10.9557 12.2004 11.1499C13.5414 11.231 12.7493 10.8896 14.002 10.9599C14.1697 11.0708 13.0132 11.0196 13.5747 11.118L14.8772 11.027C14.6669 11.1672 14.4092 11.2327 14.1523 11.2087C17.6551 11.241 19.5701 11.7954 22.7542 11.5494C23.211 11.6691 22.4318 11.6537 22.1175 11.7501C24.4259 11.5021 25.3857 11.9545 27.355 11.8754L27.3882 11.7624C30.1495 12.0329 33.4466 11.7415 36.5635 11.7947L36.1865 11.7264C36.7178 11.6203 37.2648 11.5553 37.8035 11.5146C37.8834 11.5658 37.4476 11.7644 38.3402 11.6936C38.1477 11.6552 37.7703 11.6276 37.8834 11.5658C40.565 11.7769 46.1912 11.572 50.5778 11.6065C56.5017 11.3698 62.9448 11.4501 68.7638 11.2509C67.8797 11.2813 68.244 10.991 68.9104 11.0437C70.7623 11.474 72.0775 10.8949 73.963 11.1715C77.3478 10.9397 80.3895 11.3001 83.5352 10.8738L83.5982 11.006C83.9677 11.0172 84.3295 10.9955 84.6916 10.9413L84.6831 10.9817C85.8559 11.0089 87.2636 10.8478 87.938 10.9007L87.9716 10.747C88.6628 10.719 88.3401 10.8558 89.0481 10.7551L89.0314 10.8278L89.8524 10.6734C89.7856 10.932 91.813 10.6593 92.3744 10.7658C93.2749 10.7033 94.9716 10.5591 96.3373 10.584C97.3325 10.6954 98.3364 10.7419 99.3328 10.7313C101.406 10.6635 104.372 10.5738 107.015 10.5802L106.961 10.4157L107.652 10.3958C107.644 10.4362 107.74 10.4473 107.635 10.4686C108.18 10.656 109.227 10.3863 109.78 10.4925C109.428 10.3435 109.298 10.478 108.905 10.4824C108.335 10.4082 108.875 10.2372 109.637 10.3091L109.621 10.3493L110.136 10.2508C110.199 10.383 110.673 10.438 110.744 10.5623C113.01 10.4922 114.555 10.2456 116.893 10.2672C116.659 10.4149 118.573 10.2039 118.112 10.4668C119.52 10.3546 117.873 10.2642 118.51 10.0717C118.904 10.0754 119.314 9.99824 119.386 10.09C119.2 10.1576 119.714 10.2383 119.392 10.2693L120.332 10.2406C120.42 10.2596 120.219 10.2942 120.115 10.3155C122.028 10.1452 123.512 10.4423 125.225 10.266C125.347 10.1719 124.542 10.2454 124.664 10.1514C126.385 9.9427 126.197 10.2953 127.805 10.1484L127.475 10.2768C127.99 10.1295 128.537 10.089 129.075 10.1622C129.234 10.3136 128.35 10.2951 127.94 10.3723C128.526 10.3737 130.013 10.3126 129.557 10.1849C130.007 10.1577 130.456 10.1957 130.905 10.2907C130.914 10.2502 130.247 10.1976 130.658 10.1204C131.621 10.1901 133.1 10.1696 134.273 10.1723C134.265 10.2128 134.344 10.2641 134.248 10.2856C135.198 10.0862 135.106 10.4255 136.409 10.3589Z" fill="#C12A21"/>
<path d="M198.92 8.15838L198.446 8.1328C198.446 8.16994 198.429 8.21581 198.204 8.2545L198.92 8.15838Z" fill="#C12A21"/>
<path d="M176.465 8.44589C176.409 8.45346 176.353 8.47059 176.296 8.49726C176.409 8.48212 176.441 8.46415 176.465 8.44589Z" fill="#C12A21"/>
<path d="M171.014 8.88417C171.401 8.84029 171.055 8.79922 170.862 8.75398C170.854 8.79209 170.861 8.83076 171.014 8.88417Z" fill="#C12A21"/>
<path d="M211.628 7.48289C211.548 7.49945 211.499 7.5269 211.507 7.55638C211.62 7.53124 211.644 7.50292 211.628 7.48289Z" fill="#C12A21"/>
<path d="M246.787 7.45513L246.65 7.42236C246.698 7.44273 246.738 7.45347 246.787 7.45513Z" fill="#C12A21"/>
<path d="M244.839 7.16911C244.702 7.16465 244.573 7.1781 244.445 7.19154C244.581 7.19601 244.71 7.19138 244.839 7.16911Z" fill="#C12A21"/>
<path d="M203.112 7.67479C202.991 7.67992 202.862 7.69404 202.741 7.72697C202.87 7.73138 202.991 7.70772 203.112 7.67479Z" fill="#C12A21"/>
<path d="M244.042 7.24179L243.553 7.21754C243.544 7.2259 243.544 7.23452 243.544 7.25175L244.042 7.24179Z" fill="#C12A21"/>
<path d="M247.405 7.48194C247.212 7.47611 246.955 7.46834 246.786 7.45508C246.995 7.49404 247.204 7.50035 247.405 7.48194Z" fill="#C12A21"/>
<path d="M224.532 7.14834L224.476 7.15573C224.107 7.21769 224.34 7.18837 224.532 7.14834Z" fill="#C12A21"/>
<path d="M241.893 7.54347L241.829 7.53187L241.684 7.57376L241.893 7.54347Z" fill="#C12A21"/>
<path d="M249.524 7.55569C249.444 7.55292 249.363 7.5688 249.283 7.58469L249.564 7.61307C249.532 7.58397 249.532 7.5653 249.524 7.55569Z" fill="#C12A21"/>
<path d="M231.896 7.35744C232.033 7.29415 232.082 7.24716 232.09 7.21822C231.929 7.22219 231.824 7.24766 231.896 7.35744Z" fill="#C12A21"/>
<g opacity="0.26">
<g opacity="0.26">
<g opacity="0.26">
<g opacity="0.26">
<path opacity="0.26" d="M237.822 5.12185C237.846 5.10302 237.863 5.07403 237.871 5.04475C237.831 5.07285 237.822 5.10213 237.822 5.12185Z" fill="#C12A21"/>
<path opacity="0.26" d="M216.165 4.7123L216.413 4.67471C216.333 4.6719 216.245 4.68733 216.165 4.7123Z" fill="#C12A21"/>
<path opacity="0.26" d="M250.799 5.34706C250.791 5.35403 250.775 5.35359 250.767 5.36056L251.682 5.38543L250.799 5.34706Z" fill="#C12A21"/>
<path opacity="0.26" d="M169.968 4.8845L170.257 4.87687C170.161 4.88222 170.064 4.87916 169.968 4.8845Z" fill="#C12A21"/>
<path opacity="0.26" d="M197.344 4.77224C197.223 4.80515 197.102 4.81949 196.974 4.82427C197.102 4.84735 197.231 4.824 197.344 4.77224Z" fill="#C12A21"/>
<path opacity="0.26" d="M257.651 7.1757L257.282 7.04834C257.281 7.10538 257.418 7.15782 257.651 7.1757Z" fill="#C12A21"/>
<path opacity="0.26" d="M270.804 6.83534C270.796 6.8253 270.78 6.81496 270.772 6.80492C270.756 6.82383 270.772 6.83417 270.804 6.83534Z" fill="#C12A21"/>
<path opacity="0.26" d="M265.67 6.30329C265.558 6.30854 265.429 6.32237 265.3 6.34534C265.453 6.34148 265.654 6.34841 265.67 6.30329Z" fill="#C12A21"/>
<path opacity="0.26" d="M265.123 6.37413L265.3 6.35278C265.203 6.34945 265.123 6.35583 265.123 6.37413Z" fill="#C12A21"/>
<path opacity="0.26" d="M2.28116 12.1419C1.88678 12.1749 1.49201 12.2548 1.11301 12.3728L2.28116 12.1419Z" fill="#C12A21"/>
<path opacity="0.26" d="M128.153 5.96756L128.233 5.92206C128.153 5.92883 128.137 5.94761 128.153 5.96756Z" fill="#C12A21"/>
<path opacity="0.26" d="M1.84064 13.2147L1.55949 13.2142C1.64783 13.2168 1.7442 13.2196 1.84064 13.2147Z" fill="#C12A21"/>
<path opacity="0.26" d="M250.682 7.47131C250.303 7.57314 249.525 7.43284 249.532 7.53869C249.926 7.52539 250.496 7.61474 250.682 7.47131Z" fill="#C12A21"/>
<path opacity="0.26" d="M119.404 10.7014L119.156 10.7104C119.276 10.7058 119.348 10.7081 119.404 10.7014Z" fill="#C12A21"/>
<path opacity="0.26" d="M1.84073 13.2081L2.17035 13.2103C2.13835 13.1908 2.10635 13.1713 2.06624 13.1607C1.98563 13.1855 1.91314 13.2014 1.84073 13.2081Z" fill="#C12A21"/>
<path opacity="0.26" d="M84.6127 7.47123L84.6288 7.47181L84.7175 7.4466L84.6127 7.47123Z" fill="#C12A21"/>
<path opacity="0.26" d="M82.3008 7.35776L82.7915 7.31119C82.6228 7.30542 82.4619 7.31802 82.3008 7.35776Z" fill="#C12A21"/>
<path opacity="0.26" d="M1.11291 12.3991L0.460247 12.5359C0.677673 12.506 0.895252 12.4573 1.11291 12.3991Z" fill="#C12A21"/>
<path opacity="0.26" d="M57.4158 8.58065L57.6403 8.56133C57.5682 8.55888 57.4881 8.56514 57.4158 8.58065Z" fill="#C12A21"/>
<path opacity="0.26" d="M199.102 4.80311L199.302 4.82831C199.327 4.80173 199.311 4.7829 199.102 4.80311Z" fill="#C12A21"/>
<path opacity="0.26" d="M182.848 8.08244C182.535 8.07144 182.229 8.11645 181.93 8.22677C182.244 8.22848 182.558 8.18374 182.848 8.08244Z" fill="#C12A21"/>
<path opacity="0.26" d="M179.963 8.21826L180.075 8.2306C180.035 8.22928 180.003 8.21958 179.963 8.21826Z" fill="#C12A21"/>
<path opacity="0.26" d="M198.439 8.12985L198.439 8.11996C198.431 8.11963 198.43 8.12952 198.43 8.12952L198.439 8.12985Z" fill="#C12A21"/>
<path opacity="0.26" d="M194.782 8.20192C194.702 8.18098 194.614 8.15977 194.526 8.15674C194.614 8.18705 194.694 8.19889 194.782 8.20192Z" fill="#C12A21"/>
<path opacity="0.26" d="M170.863 8.75393L170.847 8.74365L170.863 8.75393Z" fill="#C12A21"/>
<path opacity="0.26" d="M136.409 10.3522C139.865 10.2478 144.342 10.0211 147.781 10.0453C148.739 9.86464 149.72 9.77349 150.7 9.7711L150.826 10.0332L151.735 9.93988C152.104 10.0157 151.035 9.99119 151.693 10.0839L152.032 9.91666C152.104 10.0076 154.378 9.95592 152.85 10.1595L156.393 10.1304C157.181 10.1302 156.845 9.91009 157.712 9.96883C157.888 10.0468 157.407 10.0241 157.478 10.115C160.088 10.2834 160.472 9.58484 162.898 9.68303L162.688 9.71701C163.099 9.64074 163.886 9.64861 163.895 9.60851C163.576 9.34857 163.459 9.7486 162.722 9.60502C162.78 9.3808 163.639 9.47964 163.584 9.30847C164.05 9.33882 164.516 9.31268 164.983 9.2462C165.833 9.38513 167.039 9.27663 167.68 9.44955C168.253 9.28135 168.84 9.1782 169.435 9.14791C170.076 9.32082 169.289 9.31295 170.156 9.37975L170.294 9.25481C171.001 9.2683 170.896 9.30546 170.871 9.36928C171.394 9.28837 171.925 9.25613 172.455 9.2723L171.923 9.40137C172.631 9.35031 172.912 9.36695 173.9 9.38095C173.883 9.45308 173.49 9.44914 173.201 9.43225C173.737 9.61812 174.109 9.34697 174.398 9.36386C174.319 9.30492 173.636 9.2841 173.966 9.15697C174.456 9.17998 174.997 8.97853 175.349 9.12648L174.817 9.25556C175.373 9.13529 175.952 9.09644 176.522 9.13804C176.457 9.14415 176.489 9.17741 176.465 9.20895C177.39 9.11609 178.33 9.11247 179.261 9.19737L179.052 9.23135C179.494 9.18834 179.728 9.07441 179.969 9.08176C179.343 9.00616 179.512 8.97096 179.457 8.84821C180.283 9.05903 180.705 8.59569 182.054 8.71754C182.037 8.78967 181.715 8.88477 181.338 8.80871C180.949 9.08744 180.498 9.26738 180.015 9.31723C180.522 9.26811 181.125 9.23 180.995 9.32291L181.15 9.11777C181.455 9.11094 181.704 9.1266 181.937 9.11757C182.067 8.99238 181.313 8.91287 182.02 8.82146C182.825 8.74913 182.452 9.02835 182.574 8.93519C183.683 8.84796 183.026 8.71491 184.094 8.77977C183.965 8.80812 183.828 8.8201 183.692 8.81593C184.454 8.89569 185.572 8.76836 185.795 9.01729C185.674 9.11044 185.52 9.1542 185.376 9.12559L185.385 9.08549C184.547 9.26981 186.084 9.03418 185.825 9.26034C185.762 9.12928 186.838 9.1621 187.32 9.18487L187.161 9.03473C188.764 8.59126 187.078 9.33084 188.669 9.27444C189.682 9.1762 188.284 9.23041 188.903 9.12823C189.545 9.21238 190.196 9.24837 190.847 9.22786C191.128 9.28485 191.697 9.3668 191.752 9.53796C192.483 9.56026 193.214 9.53414 193.946 9.45153C192.903 9.30672 192.916 9.62997 191.697 9.40714L192.036 9.24798C192.879 9.25757 193.949 9.17718 194.535 9.23541C194.415 9.19946 194.367 9.15764 194.439 9.12757C195.332 9.01759 196.241 8.95651 197.149 8.95192C197.308 9.10206 196.625 9.07317 196.127 9.09026C196.777 9.15044 197.428 9.17029 198.079 9.14979C198.142 9.28085 197.292 9.14192 197.162 9.2671L198.456 9.22585C198.448 9.23368 198.456 9.24199 198.456 9.25006C198.642 9.02976 199.444 9.27212 200.232 9.20737C201.316 9.2001 202.386 9.04709 203.418 8.73954C203.699 8.79653 203.778 8.85546 203.665 8.90852C203.208 8.81386 203.288 8.88894 203.127 8.94052C203.762 8.91953 204.515 9.16042 204.16 9.24647C205.165 9.18026 203.8 9.13055 204.411 9.06041L205.785 9.07809C205.617 8.96805 205.135 8.93721 205.843 8.85387C206.446 8.82383 206.735 8.84879 207.514 8.85641C207.401 8.90947 207.762 9.02539 207.176 9.01557C207.577 9.07624 207.987 9.05645 208.373 8.95525C207.515 8.84834 209.78 8.86094 209.139 8.68803L209.998 8.79493C209.805 8.78905 209.78 8.86901 209.491 8.84405C209.739 9.01303 210.191 8.80081 210.488 8.78567C210.874 8.79743 211.259 8.84146 211.644 8.90971C211.998 8.864 212.359 8.89116 212.704 8.99046C213.106 8.96236 212.737 8.87847 212.85 8.82542L214.224 8.85117C214.295 8.9502 214.413 9.20402 214.212 9.23824C214.727 9.15709 214.391 8.96121 215.178 8.97715C214.735 9.15734 216.214 9.12172 215.569 9.33613C216.379 9.46577 217.198 9.49882 218.002 9.43456C218.438 9.29448 217.24 9.34674 217.281 9.20272C219.266 9.1664 219.383 8.7583 220.836 8.83492L220.459 8.79113C220.909 8.78064 221.36 8.72174 221.795 8.61393C221.544 8.79192 222.834 9.11378 224.321 9.08648C224.442 8.99333 223.487 8.90769 223.73 8.76173L224.718 8.74344C224.79 8.76179 224.677 8.79063 224.557 8.81117C225.441 8.74935 226.209 9.06336 226.469 8.84526L227.374 9.12309L227.013 9.00717C227.448 8.92357 227.89 8.88056 228.341 8.862C228.984 8.7767 229.643 8.81292 230.284 8.9697C230.108 8.89169 229.668 8.71683 230.463 8.69267C230.461 8.99122 232.141 8.81649 232.116 8.96907C232.437 8.9708 233.015 9.06913 233.048 8.94907L232.998 9.13319C233.073 8.87718 234.246 8.90488 235.146 8.86776C234.942 9.21668 236.134 8.85755 236.541 9.17667C236.712 8.93974 238.141 9.10439 238.295 8.90731C238.986 8.90417 238.92 9.12815 239.096 9.20616L239.418 9.11913C239.77 9.23481 241.072 9.26642 241.85 9.35474L242.567 9.15061L242.832 9.24745C242.945 9.1944 243.547 9.17242 243.171 9.08829L243.556 9.10812C243.59 8.88316 244.103 9.05215 244.883 8.96295C245.068 9.00086 245.019 9.05587 244.85 9.08301C245.235 9.09476 245.074 9.20283 245.29 9.28207C245.009 9.21701 246.692 8.88896 245.64 8.76811C245.569 8.67714 246.18 8.61507 246.565 8.65911L246.796 8.86794L247.256 8.65597C247.706 8.66969 248.156 8.72375 248.597 8.80178C248.099 8.8108 247.492 9.17974 248.778 9.19473C248.32 9.22111 247.869 9.27195 247.426 9.36337C247.691 9.37952 247.828 9.39983 247.409 9.47585C248.414 9.42578 247.748 9.35703 248.736 9.33875C248.678 9.52262 248.959 9.58768 249.826 9.66255L249.176 9.52167C249.217 9.49869 249.257 9.48378 249.298 9.46886C249.049 9.44513 248.985 9.4109 248.929 9.34463C249.122 9.35051 250.08 9.12952 250.24 9.24738C249.238 8.94241 251.977 9.05016 251.344 8.86942C251.634 8.80562 251.939 8.823 252.219 8.91226C251.391 9.04034 252.844 9.1331 252.706 9.25804C253.012 9.21086 252.057 9.10909 252.467 9.04896C252.853 9.06072 253.23 9.11258 253.598 9.22068L253.389 9.25465L254.152 9.35055C254.273 9.25739 253.414 9.1747 254.113 9.1476C254.298 9.19358 255.005 9.15865 254.98 9.23054C254.642 9.34935 254.889 9.5264 254.286 9.5403C254.785 9.53935 256.367 9.55534 255.726 9.36629L256.321 9.38442C255.952 9.30053 254.909 9.1315 256.098 9.13548L256.09 9.18365L256.918 9.06364L257.279 9.1715C257.271 9.12283 257.4 9.08641 257.705 9.09572C257.785 9.15465 258.074 9.17961 258.049 9.2515C258.941 9.26255 258.87 9.16352 258.983 9.11853C259.481 9.11758 259.665 9.15549 259.431 9.26136C260.211 9.26898 260.989 9.32502 261.768 9.41333C262.685 9.3525 261.584 9.36735 262.115 9.25442C262.899 9.59312 265.126 9.45118 266.613 9.44002C266.206 9.14511 267.023 9.42024 267.29 9.16204C266.968 9.241 268.702 9.41495 267.4 9.46403L268.195 9.456C268.74 9.62597 266.877 9.54493 267.702 9.77189C268.539 9.6602 269.383 9.60523 270.227 9.61481C269.871 9.80576 271.039 9.56693 270.772 9.77671C270.506 9.82511 270.241 9.84124 269.968 9.82484L270.152 9.87082C272.103 9.97069 270.717 9.64589 271.746 9.53201C272.935 9.53599 272.684 9.71398 272.756 9.80495C273.125 9.84042 273.487 9.83531 273.857 9.78202C273.133 9.88908 272.516 9.62814 272.847 9.50908C273.537 9.66733 274.252 9.65685 274.936 9.48402C273.236 9.20615 273.756 9.44801 272.168 9.14936C271.95 9.21537 271.98 9.41807 271.025 9.3163C271.628 9.22977 270.986 9.20211 270.817 9.16469C271.001 9.28329 270.15 9.20084 269.861 9.24043C269.596 9.13552 270.434 8.98348 269.462 8.91349L269.275 9.19027C268.897 9.13841 269.437 8.99344 268.625 9.04132C269.06 8.90931 268.491 8.81122 269.592 8.79637C268.285 8.5305 267.59 8.88062 266.569 8.9544C266.674 8.94145 266.682 8.90135 266.787 8.88839C266.489 8.94388 266.183 8.96685 265.878 8.94947C265.212 8.87265 266.41 8.83653 266.233 8.75852L265.149 8.74159C265.125 8.73279 265.125 8.72472 265.125 8.72472C264.908 8.77459 264.683 8.76773 264.466 8.70463C264.788 8.62567 264.918 8.53276 265.135 8.46675L264.001 8.63394C264.122 8.54885 263.063 8.45196 263.875 8.40408L262.187 8.40105L262.045 8.21105C261.643 8.23915 261.626 8.27093 262.116 8.30202C261.538 8.24403 259.558 8.57109 259.867 8.20922C258.54 8.33018 258.067 8.25924 256.467 8.31539C257.698 8.17535 255.056 8.06248 256.358 8.0134C255.844 7.98965 255.329 8.02239 254.83 8.12824C254.269 8.03847 254.519 7.86047 255.13 7.80647L254.415 7.87343L254.431 7.83357L253.812 7.92767C253.154 7.81883 253.677 7.73792 252.994 7.70096L252.848 7.866L252.383 7.76303C252.559 7.84104 252.149 7.8689 251.659 7.87816L251.667 7.83806L251.064 7.86003C251.66 7.76519 250.518 7.81917 250.785 7.69814C250.271 7.68246 250.263 7.68222 249.33 7.70222L249.49 7.82008C248.276 7.90413 249.435 7.64892 248.455 7.6271L248.518 7.75817C247.106 7.52139 246.123 7.84655 245.072 7.69342C245.675 7.67144 245.516 7.5213 245.507 7.55333C244.607 7.59045 243.137 7.52948 242.212 7.67883C241.788 7.43184 241.307 7.31224 240.833 7.33007C240.142 7.3332 240.037 7.34616 239.811 7.45227C239.153 7.46445 238.494 7.42016 237.836 7.32745C237.682 7.43576 237.226 7.29269 236.863 7.38657L236.784 7.32763L236.847 7.4587C235.652 7.14785 234.829 7.59087 233.618 7.32794L233.827 7.29397L233.32 7.33502C233.241 7.27608 233.442 7.24186 233.467 7.16997L231.105 7.11409L231.57 7.21706C231.111 7.28379 230.637 7.29354 230.172 7.26319C231.113 7.07399 229.384 7.24725 229.233 7.09736L229.74 7.04824C229.049 7.05138 229.049 7.05138 229.104 7.1822C228.203 7.21931 228.487 6.92933 227.659 7.06548L228.253 7.07554C228.429 7.15355 228.002 7.25353 227.609 7.2496C227.512 7.23052 227.24 7.16571 227.537 7.15056C226.83 7.19356 225.77 7.12088 225.456 7.16781C225.071 7.12377 225.2 7.03086 225.401 6.99664C223.89 7.1039 224.719 6.96775 223.207 7.06694L223.232 6.99505L222.693 7.10774L221.947 6.94779L222.211 7.04463C221.753 7.07908 221.287 7.08101 220.829 7.05898L221.063 6.95311C219.665 7.00732 219.442 6.75838 218.115 6.90355C218.027 6.88472 218.228 6.8505 218.332 6.82948C217.102 6.99372 217.394 6.62329 216.163 6.82789C216.236 6.78975 216.1 6.74524 216.148 6.71443L215.585 6.77797L215.627 6.63395L215.167 6.84592L214.814 6.69797L214.597 6.76398C213.997 6.47932 213.143 6.68736 212.318 6.46847L212.461 6.65847C210.384 7.02293 207.698 6.4083 205.182 6.58983L205.223 6.44581L204.185 6.61594C203.624 6.50196 204.516 6.48881 204.34 6.4108C203.23 6.48996 203.88 6.63084 202.594 6.67233C201.936 6.57155 202.82 6.56622 203.134 6.51123C201.855 6.60945 200.569 6.63481 199.284 6.57947C199.268 6.59512 199.212 6.62568 199.26 6.63522C198.456 6.69948 197.388 6.63463 196.496 6.63971C196.512 6.57565 196.738 6.5583 196.955 6.54877C196.609 6.51403 196.264 6.51964 195.926 6.55776L196.257 6.43063C195.541 6.48145 194.818 6.4594 194.104 6.36498C194.184 6.42391 194.159 6.53614 193.564 6.52609C193.237 6.29818 191.956 6.62233 191.009 6.4966C191.122 6.44354 191.813 6.43234 191.621 6.42646C191.179 6.39684 190.737 6.43985 190.302 6.53959L190.431 6.44668L188.229 6.57322C187.901 6.34531 186.147 6.6066 186.293 6.44156C185.506 6.43369 186.959 6.54258 185.963 6.56869C185.699 6.47184 185.062 6.62194 185.104 6.46985L185.209 6.44883L184.51 6.45979L184.945 6.31164C184.35 6.34193 183.907 6.48984 183.881 6.60207C183.335 6.59348 182.789 6.55261 182.244 6.46333L182.453 6.42936C180.861 6.49382 179.805 6.04189 178.557 6.29441C178.461 6.27533 178.478 6.23547 178.67 6.24135L177.682 6.2435L177.916 6.12956L176.291 6.30601L176.308 6.23388C175.232 6.20912 173.552 6.25475 172.162 6.28499L172.371 6.25102C170.859 6.37441 170.909 6.19029 169.808 6.2697C169.84 6.25454 169.88 6.23963 169.92 6.24085L168.924 6.25082L169.142 6.17674C168.587 6.20826 168.041 6.18353 167.487 6.11014C167.061 6.15364 166.642 6.23773 166.239 6.36266C165.155 6.378 165.975 6.26581 165.301 6.21296C164.641 6.26549 163.982 6.28575 163.316 6.27349L163.332 6.20136C162.834 6.21844 162.528 6.27369 161.837 6.2849L162.046 6.25092C160.92 6.41835 160.634 6.04642 159.755 6.37476C159.282 6.31996 158.381 6.37321 158.423 6.22113C157.016 6.33157 155.923 6.37894 154.532 6.4576C154.301 6.21649 154.234 6.47274 153.384 6.34188L153.447 6.47294C151.47 6.50951 149.191 6.20593 147.013 6.27672L146.95 6.14565L146.515 6.2938C144.169 6.25455 141.132 6.2265 139.26 6.24204C138.431 6.37819 137.595 6.44954 136.751 6.44803L136.856 6.42701C135.167 6.5208 133.375 6.60335 131.527 6.54701C131.64 6.49395 131.456 6.45604 131.657 6.41375C131.166 6.49564 130.668 6.50465 130.179 6.43323L130.644 6.52813C130.129 6.62542 129.599 6.60118 129.094 6.45664L128.265 6.60893C128.209 6.59914 128.12 6.58031 128.113 6.55586L127.967 6.62407L127.519 6.45704C126.964 6.48855 126.417 6.57679 125.877 6.72176C125.798 6.66283 125.018 6.63099 125.621 6.59288L122.584 6.58097L123.058 6.63577C123.121 6.76684 122.212 6.86019 121.739 6.80539C122.35 6.69491 121.781 6.62103 121.516 6.52418C121.106 6.60045 121.877 6.63204 121.667 6.70636C121.048 6.80853 120.413 6.83759 119.778 6.8021L120.084 6.74686C119.384 6.80624 119.049 6.57808 118.358 6.59736C117.738 6.7076 117.273 6.62077 117.408 6.8428C116.507 6.90413 117.055 6.69485 116.766 6.67796C116.155 6.78038 115.528 6.76127 114.919 6.62969C114.433 6.97003 112.485 6.54739 112.314 6.82466L111.568 6.68084C111.551 6.75297 111.405 6.92609 110.81 6.96444C110.24 6.89056 110.37 6.75731 110.202 6.68761L109.83 6.96683C106.562 6.72188 102.277 6.9867 98.695 6.79675C97.1034 6.87735 95.1011 7.04228 93.2452 7.03411L93.4464 6.99182L91.5988 6.95161L92.9477 7.04925C92.5457 7.08542 92.2317 7.14848 91.846 7.15286C89.4287 7.03071 87.0182 7.03791 84.6065 7.17421C83.0043 7.52085 83.5242 6.91521 81.9791 7.1748C82.1079 7.14644 82.1566 7.0995 82.2774 7.06283C80.613 7.1977 79.7124 7.2671 78.0472 7.48267C78.227 7.16529 76.9623 7.50608 77.1004 7.34079L76.9626 7.4738C76.5856 7.40581 75.7099 7.39524 75.8313 7.30209L75.0985 7.47345L75.0274 7.34214C74.0471 7.3526 71.9566 7.50677 71.4287 7.24853C69.016 7.4978 65.1912 7.51837 62.154 7.53067C61.4941 7.63968 60.8266 7.70004 60.1517 7.6956L59.4059 7.55178C58.7136 7.68403 58.0139 7.75148 57.3069 7.74606C57.3071 7.72992 57.3394 7.71476 57.3796 7.70792C56.6887 7.69492 55.9973 7.74647 55.3134 7.84668C54.5259 7.85495 53.7632 7.79134 53.9976 7.64513C53.9309 7.90138 52.3343 7.6509 52.3343 7.6509C52.3343 7.6509 42.2739 7.73958 30.9821 8.05705C19.6821 8.38235 7.16665 8.94501 2.28094 9.85337C1.90999 9.99541 0.904254 10.1423 1.32087 10.268C0.556641 10.3658 0.140636 10.1755 0.0188497 10.309C1.08739 10.3174 -0.201314 10.6494 0.842369 10.7377L0.21492 10.8154C0.109581 10.9091 1.04394 10.6631 0.929885 10.8292L1.06077 10.5829C1.39844 10.561 1.7355 10.6035 2.06407 10.6943C2.62917 10.4128 3.26511 10.287 3.90732 10.3469L3.60178 10.3699C4.49407 10.3244 4.15487 10.5078 4.34742 10.5379L4.14653 10.5398L4.90893 10.6357C4.33901 10.578 3.4048 10.8078 3.89523 10.7743C4.96363 10.7988 3.61448 10.7254 4.41046 10.669C4.90893 10.6357 4.77108 10.7687 4.75425 10.8489L5.63851 10.8033C5.61334 10.9155 5.05183 10.8177 5.42048 10.9177L6.53079 10.7578C6.75318 11.031 7.73773 10.5767 8.26565 10.8269C7.46134 10.9154 8.34513 10.9181 8.2157 11.011L10.1849 10.9339C10.3695 10.9637 9.66972 11.0392 9.96723 11.016C10.2403 11.0324 10.5137 11.0004 10.7716 10.9195C10.9477 10.9894 12.2425 10.8675 12.2005 11.0599C13.5415 11.1412 12.7493 10.8022 14.002 10.8727C14.1697 10.9827 13.0132 10.9313 13.5747 11.0292L14.8772 10.9397C14.667 11.0786 14.4093 11.1434 14.1524 11.1194C17.6552 11.1536 19.5703 11.7044 22.7544 11.4625C23.2112 11.5813 22.432 11.5657 22.1177 11.661C24.426 11.4166 25.3859 11.8656 27.3552 11.7884L27.3884 11.6765C30.1498 11.9463 33.4468 11.6594 36.5637 11.7141L36.1867 11.6462C36.718 11.5413 37.265 11.4773 37.8037 11.4372C37.8836 11.488 37.4478 11.6846 38.3404 11.615C38.1479 11.5768 37.7705 11.5492 37.8836 11.488C40.5652 11.699 46.1914 11.4993 50.5781 11.5362C56.5019 11.3052 62.945 11.3887 68.764 11.1949C67.8799 11.2244 68.2442 10.9369 68.9105 10.9895C70.7625 11.4173 72.0776 10.844 73.9632 11.1194C77.348 10.8917 80.3898 11.2508 83.5353 10.8302L83.5984 10.9613C83.9679 10.9725 84.3296 10.9513 84.6917 10.8978L84.6833 10.9379C85.8561 10.9656 87.2637 10.8067 87.9381 10.8595L87.9717 10.7072C88.663 10.6799 88.3403 10.8153 89.0483 10.7158L89.0315 10.788L89.8525 10.6354C89.7858 10.8917 91.8131 10.6226 92.3746 10.7285C93.275 10.6672 94.9717 10.5252 96.3374 10.5507C97.3326 10.6618 98.3365 10.7085 99.3329 10.6986C101.407 10.6327 104.372 10.5455 107.016 10.5535L106.961 10.3904L107.652 10.3711C107.644 10.4112 107.74 10.4223 107.635 10.4433C108.18 10.6294 109.227 10.3627 109.78 10.4683C109.428 10.3204 109.298 10.4536 108.905 10.4578C108.335 10.3839 108.875 10.2147 109.637 10.2864L109.621 10.3263L110.136 10.229C110.199 10.36 110.673 10.4148 110.744 10.5381C113.01 10.47 114.555 10.2265 116.893 10.2494C116.659 10.3956 118.573 10.1876 118.113 10.448C119.52 10.3376 117.873 10.247 118.51 10.0566C118.904 10.0605 119.314 9.98424 119.386 10.0752C119.2 10.1422 119.714 10.2224 119.392 10.253L120.332 10.2252C120.42 10.244 120.219 10.2782 120.115 10.2992C122.029 10.1316 123.512 10.4271 125.225 10.2533C125.347 10.1602 124.542 10.2325 124.664 10.1393C126.385 9.93354 126.197 10.2829 127.805 10.1383L127.475 10.2654C127.99 10.1197 128.537 10.0799 129.075 10.1528C129.234 10.3029 128.35 10.2841 127.94 10.3603C128.526 10.3621 130.013 10.3025 129.557 10.1756C130.007 10.1489 130.456 10.1869 130.906 10.2813C130.914 10.2412 130.248 10.1886 130.658 10.1123C131.622 10.182 133.1 10.1625 134.273 10.166C134.265 10.2061 134.345 10.257 134.248 10.2783C135.198 10.0812 135.106 10.4175 136.409 10.3522Z" fill="#C12A21"/>
<path opacity="0.26" d="M198.92 8.15877L198.446 8.13294C198.446 8.16996 198.429 8.21567 198.204 8.25407L198.92 8.15877Z" fill="#C12A21"/>
<path opacity="0.26" d="M176.465 8.446C176.409 8.45352 176.353 8.47057 176.296 8.49715C176.409 8.48212 176.441 8.46421 176.465 8.446Z" fill="#C12A21"/>
<path opacity="0.26" d="M171.014 8.88406C171.401 8.84053 171.055 8.79929 170.862 8.75398C170.854 8.79201 170.861 8.83063 171.014 8.88406Z" fill="#C12A21"/>
<path opacity="0.26" d="M211.628 7.48297C211.548 7.49946 211.499 7.52684 211.507 7.55629C211.62 7.53127 211.644 7.503 211.628 7.48297Z" fill="#C12A21"/>
<path opacity="0.26" d="M246.787 7.45513L246.65 7.42236C246.698 7.4427 246.738 7.45344 246.787 7.45513Z" fill="#C12A21"/>
<path opacity="0.26" d="M244.839 7.1693C244.702 7.16477 244.573 7.17806 244.445 7.19135C244.581 7.19588 244.71 7.19137 244.839 7.1693Z" fill="#C12A21"/>
<path opacity="0.26" d="M203.112 7.67501C202.991 7.68004 202.862 7.69402 202.741 7.72675C202.87 7.73124 202.991 7.70774 203.112 7.67501Z" fill="#C12A21"/>
<path opacity="0.26" d="M244.042 7.24196L243.553 7.21755C243.544 7.22585 243.544 7.23441 243.544 7.25153L244.042 7.24196Z" fill="#C12A21"/>
<path opacity="0.26" d="M247.405 7.48209C247.212 7.47619 246.955 7.46833 246.786 7.45508C246.995 7.49383 247.204 7.50022 247.405 7.48209Z" fill="#C12A21"/>
<path opacity="0.26" d="M224.532 7.14849L224.476 7.15582C224.107 7.21733 224.34 7.18827 224.532 7.14849Z" fill="#C12A21"/>
<path opacity="0.26" d="M241.893 7.54358L241.829 7.53196L241.684 7.57363L241.893 7.54358Z" fill="#C12A21"/>
<path opacity="0.26" d="M249.524 7.55584C249.444 7.55301 249.363 7.5688 249.283 7.58458L249.564 7.61307C249.532 7.58403 249.532 7.56542 249.524 7.55584Z" fill="#C12A21"/>
<path opacity="0.26" d="M231.896 7.3573C232.033 7.29418 232.082 7.24728 232.09 7.21838C231.929 7.22222 231.824 7.24759 231.896 7.3573Z" fill="#C12A21"/>
</g>
</g>
</g>
</g>
<path d="M42.2999 10.8172C42.2757 10.836 42.2594 10.8651 42.2511 10.9043C42.2915 10.8662 42.3077 10.8471 42.2999 10.8172Z" fill="#C12A21"/>
<path d="M63.9483 10.7083L63.6996 10.7461C63.7877 10.7492 63.8679 10.7426 63.9483 10.7083Z" fill="#C12A21"/>
<path d="M29.3329 11.065C29.341 11.0572 29.357 11.0577 29.3651 11.0499L28.4573 11.055L29.3329 11.065Z" fill="#C12A21"/>
<path d="M110.115 10.415L109.826 10.4145C109.922 10.4173 110.019 10.42 110.115 10.415Z" fill="#C12A21"/>
<path d="M82.7564 10.4586C82.8773 10.4255 82.9981 10.4018 83.1267 10.4062C82.9982 10.3831 82.8694 10.4066 82.7564 10.4586Z" fill="#C12A21"/>
<path d="M22.4288 9.56982L22.8059 9.67742C22.7983 9.62994 22.662 9.57797 22.4288 9.56982Z" fill="#C12A21"/>
<path d="M9.28918 10.6782C9.29707 10.6881 9.31292 10.6983 9.32089 10.6986C9.34486 10.6898 9.32901 10.6796 9.28918 10.6782Z" fill="#C12A21"/>
<path d="M14.4429 10.9116C14.5556 10.8968 14.6844 10.8733 14.8133 10.8497C14.6605 10.8538 14.4593 10.8655 14.4429 10.9116Z" fill="#C12A21"/>
<path d="M14.9898 10.8108L14.8133 10.8421C14.9095 10.8361 14.9897 10.8295 14.9898 10.8108Z" fill="#C12A21"/>
<path d="M277.799 10.4302C278.104 10.4406 278.41 10.4051 278.708 10.3233L277.799 10.4302Z" fill="#C12A21"/>
<path d="M151.919 10.1298L151.839 10.1755C151.919 10.1589 151.927 10.1495 151.919 10.1298Z" fill="#C12A21"/>
<path d="M278.271 9.41504L278.526 9.45027C278.439 9.42952 278.359 9.41795 278.271 9.41504Z" fill="#C12A21"/>
<path d="M29.394 8.93511C29.7727 8.82085 30.5514 8.93768 30.5443 8.82861C30.1422 8.85139 29.564 8.78664 29.394 8.93511Z" fill="#C12A21"/>
<path d="M160.745 5.63777L160.993 5.63716C160.873 5.63364 160.801 5.63153 160.745 5.63777Z" fill="#C12A21"/>
<path d="M278.271 9.42635L277.974 9.37891C277.998 9.39834 278.03 9.41805 278.062 9.43776C278.134 9.42165 278.198 9.42386 278.271 9.42635Z" fill="#C12A21"/>
<path d="M195.447 10.1711L195.43 10.1705L195.342 10.186L195.447 10.1711Z" fill="#C12A21"/>
<path d="M197.749 10.3735L197.259 10.4018C197.427 10.4163 197.588 10.4127 197.749 10.3735Z" fill="#C12A21"/>
<path d="M278.708 10.3045L279.239 10.2397C279.062 10.2429 278.885 10.2737 278.708 10.3045Z" fill="#C12A21"/>
<path d="M222.641 10.3471L222.417 10.3572C222.497 10.3598 222.569 10.3621 222.641 10.3471Z" fill="#C12A21"/>
<path d="M80.9971 10.4279L80.797 10.4026C80.7727 10.4387 80.7886 10.4485 80.9971 10.4279Z" fill="#C12A21"/>
<path d="M97.2443 7.11882C97.5577 7.1296 97.8637 7.08437 98.162 6.98315C97.8484 6.98167 97.5425 7.02689 97.2443 7.11882Z" fill="#C12A21"/>
<path d="M100.138 7.00257L100.025 6.99023C100.065 7.00024 100.098 7.00127 100.138 7.00257Z" fill="#C12A21"/>
<path d="M81.6456 7.11084L81.6455 7.12074C81.6544 7.12106 81.6544 7.11116 81.6544 7.11116L81.6456 7.11084Z" fill="#C12A21"/>
<path d="M85.3094 7.01904C85.3893 7.04001 85.4772 7.06125 85.5653 7.06423C85.4775 7.03386 85.3895 7.02175 85.3094 7.01904Z" fill="#C12A21"/>
<path d="M109.244 6.547C109.244 6.547 109.236 6.54672 109.244 6.547L109.26 6.55723L109.244 6.547Z" fill="#C12A21"/>
<path d="M143.722 6.15014C140.259 6.16712 135.775 6.3339 132.337 6.26585C131.371 6.42507 130.39 6.50589 129.41 6.4854L129.292 6.23255L128.383 6.30766C128.015 6.22686 129.083 6.26548 128.425 6.16854L128.086 6.32246C128.015 6.23465 125.741 6.24698 127.269 6.08061L123.726 6.0641C122.939 6.04918 123.274 6.26933 122.407 6.20532C122.231 6.13009 122.721 6.15981 122.642 6.06398C120.032 5.86395 119.64 6.53861 117.215 6.40626L117.424 6.37332C117.014 6.43943 116.227 6.4323 116.218 6.46324C116.537 6.72189 116.654 6.32769 117.391 6.4815C117.333 6.69808 116.466 6.59511 116.521 6.76039C116.055 6.73136 115.589 6.74908 115.122 6.81357C114.28 6.68013 113.066 6.76981 112.425 6.6032C111.853 6.76598 111.265 6.86595 110.663 6.88753C110.021 6.72091 110.809 6.72805 109.942 6.66404L109.804 6.79259C109.089 6.77195 109.202 6.73623 109.227 6.68238C108.704 6.75303 108.173 6.78449 107.643 6.76919L108.174 6.65201C107.467 6.70175 107.178 6.67782 106.198 6.66512C106.215 6.59545 106.608 6.59901 106.905 6.62318C106.369 6.4362 105.997 6.69829 105.708 6.68215C105.787 6.73902 106.47 6.75873 106.139 6.8817C105.65 6.85977 105.101 7.04663 104.757 6.90418L105.289 6.78699C104.725 6.89546 104.155 6.93355 103.584 6.89371C103.649 6.88777 103.617 6.85567 103.641 6.82519C102.717 6.90764 101.777 6.91169 100.846 6.82245L101.055 6.78951C100.613 6.83131 100.378 6.94149 100.137 6.93453C100.763 7.00717 100.594 7.04126 100.649 7.15978C99.824 6.94887 99.4017 7.39661 98.0533 7.27194C98.07 7.20227 98.3922 7.11802 98.7691 7.19126C99.1574 6.92184 99.6171 6.75581 100.092 6.70714C99.5849 6.75488 98.9821 6.78426 99.1115 6.69445L98.9569 6.89266C98.6515 6.89944 98.4026 6.88446 98.1696 6.88553C98.0399 7.00651 98.7942 7.09065 98.0864 7.17156C97.2824 7.2341 97.6546 6.972 97.5332 7.05425C96.4238 7.13136 97.0812 7.26727 96.0134 7.19747C96.1422 7.17001 96.2789 7.15836 96.4153 7.1701C95.6449 7.09329 94.5351 7.20157 94.3044 6.96885C94.4258 6.87881 94.5789 6.83646 94.7313 6.86424L94.7228 6.90298C95.5601 6.73226 94.0235 6.94515 94.2826 6.73436C94.3457 6.86091 93.2694 6.82984 92.7795 6.8157L92.9387 6.96062C91.3355 7.39765 93.0219 6.67459 91.4225 6.73756C90.4092 6.84083 91.8077 6.77986 91.1881 6.87891C90.5462 6.79802 89.8957 6.77145 89.2447 6.79163C88.9641 6.73676 88.3945 6.65796 88.3398 6.50047C87.6089 6.47938 86.8775 6.51283 86.1456 6.59305C87.1887 6.72449 87.1757 6.4201 88.3948 6.62678L88.0557 6.7885C87.2122 6.77974 86.1348 6.86557 85.5569 6.80992C85.6771 6.83677 85.7249 6.88492 85.6523 6.91401C84.7593 7.02855 83.8509 7.08808 82.943 7.09306C82.7838 6.94815 83.4665 6.96785 83.9647 6.95884C83.3145 6.9011 82.6639 6.88232 82.0129 6.9103C81.9499 6.78376 82.8002 6.91744 82.93 6.78866L81.6361 6.82927C81.6442 6.82171 81.6363 6.81369 81.6363 6.80589C81.4574 7.019 80.6483 6.79296 79.8603 6.85597C78.7756 6.86364 77.7055 7.01984 76.6742 7.31748C76.3936 7.26261 76.3138 7.20574 76.4268 7.15443C76.8918 7.24581 76.8042 7.17312 76.9654 7.11541C76.3305 7.13606 75.5776 6.91165 75.9319 6.82833C74.927 6.89287 76.3004 6.94031 75.6811 7.00818L74.2997 6.96052C74.4673 7.06669 74.9492 7.0884 74.2413 7.1771C73.6384 7.20647 73.3494 7.19033 72.5701 7.18343C72.6831 7.13213 72.3147 7.02015 72.9092 7.02172C72.5081 6.96337 72.0981 6.99051 71.7115 7.0807C72.5702 7.17564 70.3046 7.1804 70.9536 7.34725L70.0949 7.2601C70.2877 7.25787 70.3125 7.18843 70.6016 7.20457C70.3542 7.04152 69.9021 7.25454 69.6046 7.27713C69.219 7.2738 68.8337 7.23929 68.4488 7.17361C68.0947 7.22576 67.7335 7.19974 67.3889 7.11184C66.9868 7.14701 67.3557 7.22001 67.2427 7.27132L65.8607 7.27821C65.7813 7.19016 65.6633 6.93731 65.8725 6.90437C65.3575 6.99084 65.6931 7.17203 64.9138 7.17292C65.3575 6.99084 63.8706 7.04927 64.5155 6.83402C63.7051 6.72488 62.8859 6.70124 62.0737 6.77913C61.6384 6.92248 62.8442 6.85594 62.7946 6.99482C60.8175 7.06249 60.7011 7.45669 59.2475 7.39914L59.6248 7.43342C59.1747 7.45161 58.7321 7.51679 58.2972 7.62896C58.54 7.44888 57.2494 7.16218 55.7626 7.21281C55.6412 7.30285 56.6045 7.37742 56.3621 7.51854L55.3816 7.5526C55.3094 7.54272 55.4142 7.50677 55.5429 7.4871C54.6585 7.55512 53.8821 7.26766 53.6309 7.47868L52.7175 7.22626L53.078 7.33021C52.6434 7.41121 52.2009 7.46859 51.7589 7.48702C51.1152 7.58537 50.4486 7.55833 49.8073 7.4151C49.9833 7.49033 50.4316 7.65138 49.6359 7.68299C49.6388 7.39464 47.9578 7.58778 47.9752 7.44797C47.6538 7.45428 47.0761 7.37524 47.0428 7.49901L47.0928 7.32116C47.026 7.56868 45.8449 7.58136 44.9445 7.63333C45.1408 7.2882 43.9559 7.67495 43.5412 7.37455C43.3781 7.6115 41.9412 7.49207 41.7946 7.69052C41.0955 7.70932 41.1618 7.50076 40.9858 7.42552L40.6635 7.51756C40.3111 7.41384 39.0095 7.42305 38.2308 7.3616L37.5136 7.57476L37.2413 7.48894C37.1283 7.54025 36.5334 7.58544 36.9023 7.65065L36.5168 7.63953C36.4904 7.86483 35.9697 7.70949 35.1893 7.81948C35.0049 7.78298 35.0536 7.72982 35.2226 7.70351C34.8369 7.70797 34.9988 7.58792 34.7826 7.51932C35.0632 7.57419 33.3965 7.93923 34.4481 8.02416C34.5276 8.1122 33.9163 8.1881 33.531 8.15359L33.2919 7.9596L32.8398 8.18041C32.3899 8.17522 31.9403 8.14665 31.4991 8.07935C31.9974 8.06255 32.5878 7.67424 31.3101 7.69972C31.7603 7.66594 32.211 7.5932 32.6538 7.49685C32.3887 7.49699 32.2523 7.47747 32.6629 7.38798C31.6659 7.46834 32.3322 7.51875 31.3436 7.56037C31.3936 7.38252 31.113 7.32765 30.2458 7.27923L30.8953 7.39932C30.8549 7.42154 30.8145 7.44376 30.7743 7.4504C31.0232 7.46538 31.0953 7.49084 31.1508 7.5626C30.9579 7.56483 30.0075 7.80244 29.8399 7.69626C30.8495 7.95927 28.1101 7.94256 28.7513 8.09359C28.4614 8.16317 28.1642 8.1546 27.8757 8.0839C28.6966 7.9361 27.2429 7.89414 27.3727 7.76537C27.0669 7.8189 28.0303 7.88569 27.6118 7.95936C27.2261 7.96382 26.849 7.91396 26.4723 7.82513L26.6736 7.78417L25.911 7.71539C25.7896 7.80542 26.6569 7.84605 25.9573 7.9116C25.7729 7.8751 25.0652 7.94042 25.09 7.87098C25.4207 7.74021 25.1732 7.58495 25.7682 7.53976C25.2698 7.56436 23.6946 7.62023 24.3358 7.77126L23.7412 7.77748C24.1182 7.84293 25.1615 7.951 23.9719 8.01021L23.9803 7.97147L23.1593 8.12707L22.7985 8.0465C22.8141 8.09372 22.6852 8.13677 22.3798 8.14355C22.2999 8.09447 22.0029 8.0781 22.0276 8.00866C21.1356 8.03748 21.215 8.12552 21.102 8.18462C20.6036 8.20921 20.4191 8.1805 20.6453 8.0623C19.8657 8.08657 19.0865 8.07967 18.3077 8.02601C17.3989 8.12451 18.5002 8.05496 17.9686 8.19552C17.1681 7.89958 14.9483 8.14732 13.4692 8.22156C13.8844 8.48299 13.0671 8.26452 12.8075 8.51427C13.1218 8.42201 11.3872 8.34076 12.6818 8.23001L11.886 8.2772C11.333 8.14431 13.1969 8.13575 12.3633 7.94798C11.5343 8.09555 10.6978 8.18834 9.85395 8.21855C10.1934 8.01787 9.04969 8.30447 9.30093 8.08566C9.5666 8.03096 9.83204 7.99965 10.1052 7.99974L9.92078 7.96323C7.9686 7.95366 9.36402 8.20441 8.35014 8.36223C7.16059 8.41365 7.40341 8.23357 7.33199 8.14576C6.95473 8.11148 6.58496 8.13199 6.22275 8.19949C6.93913 8.06426 7.57161 8.2852 7.24091 8.41597C6.54308 8.30228 5.82771 8.3362 5.15086 8.53494C6.86022 8.72459 6.33207 8.51446 7.9367 8.73227C8.15434 8.6606 8.1081 8.46438 9.06364 8.51535C8.46797 8.63068 9.11074 8.62584 9.27917 8.65409C9.08743 8.54722 9.93863 8.58738 10.2284 8.53338C10.5007 8.61919 9.67124 8.81352 10.6432 8.83378L10.8146 8.56589C11.1999 8.5926 10.6599 8.7641 11.4721 8.68621C11.0448 8.83757 11.6146 8.90079 10.5213 8.97057C11.8369 9.16445 12.5154 8.80207 13.529 8.67541C13.4243 8.69578 13.416 8.72672 13.3113 8.74708C13.6092 8.68552 13.9149 8.64758 14.2202 8.6408C14.8947 8.68365 13.6967 8.7738 13.8728 8.84124L14.9577 8.81019C14.9817 8.81868 14.9816 8.82648 14.9816 8.82648C15.1911 8.77016 15.4242 8.7613 15.6405 8.81431C15.3263 8.90658 15.1968 8.99639 14.9872 9.07609L16.114 8.86696C15.9926 8.957 17.0608 8.99562 16.2565 9.08154L17.9364 9.0053L18.0873 9.18116C18.4894 9.13819 18.4977 9.10725 18.0158 9.09335C18.594 9.11783 20.5504 8.71437 20.2655 9.08032C21.5849 8.90014 22.0584 8.94499 23.6585 8.81967C22.4353 9.01823 25.0788 8.99319 23.7761 9.1037C24.2903 9.10295 24.7971 9.03962 25.2964 8.92151C25.8662 8.98473 25.6234 9.16481 25.0119 9.2485L25.7279 9.15224L25.7195 9.19097L26.3393 9.07634C27.0052 9.16572 26.4821 9.25196 27.1648 9.27166L27.303 9.11195L27.7681 9.19553C27.5921 9.12809 27.9942 9.08513 28.4845 9.0681L28.476 9.10683L29.079 9.06967C28.4834 9.1772 29.6331 9.09345 29.3587 9.21806C29.8729 9.21731 29.8809 9.21754 30.8133 9.17429L30.6456 9.06811C31.8519 8.95482 30.7003 9.2256 31.6805 9.22271L31.6175 9.09616C33.0376 9.28526 34.0132 8.93925 35.0564 9.05511C34.4616 9.0925 34.6127 9.23718 34.6292 9.19868C35.5296 9.13892 36.9917 9.14994 37.9173 8.98177C38.3409 9.20447 38.8299 9.31213 39.3042 9.27905C40.0034 9.26025 40.1 9.23966 40.326 9.12925C40.9851 9.1015 41.6437 9.12051 42.3018 9.19407C42.4555 9.08937 42.9123 9.2039 43.2747 9.11302L43.3546 9.16209L43.2916 9.03555C44.494 9.29632 45.302 8.84413 46.5128 9.07396L46.3118 9.09154L46.8185 9.03601C46.8983 9.09288 46.6971 9.12605 46.6723 9.19549L49.0264 9.18548L48.5613 9.09411C49.02 9.0216 49.4861 9.00387 49.9599 9.02534C49.026 9.22445 50.7392 9.02445 50.8985 9.16936L50.3918 9.22489C51.0829 9.20586 51.0829 9.20586 51.0199 9.07932C51.9122 9.02712 51.6442 9.31561 52.4651 9.16781L51.8786 9.16647C51.7026 9.09123 52.1215 8.98639 52.5151 8.98996C52.6113 9.00832 52.892 9.0632 52.5865 9.07777C53.2941 9.02024 54.354 9.08201 54.6598 9.02847C55.0451 9.06298 54.9237 9.15302 54.7145 9.18596C56.2181 9.06565 55.3972 9.20566 56.9089 9.0778L56.8841 9.14724L57.3991 9.06077L58.1448 9.20701L57.8806 9.11364C58.339 9.0723 58.805 9.06237 59.2629 9.07558L59.0288 9.18576C60.4274 9.11699 60.65 9.34948 61.9772 9.1929C62.0654 9.21104 61.8642 9.24421 61.7596 9.26457C62.9905 9.08963 62.6977 9.44756 63.9291 9.23365C63.8564 9.27053 63.9925 9.31343 63.944 9.34322L64.5071 9.27372L64.4737 9.40527L64.9257 9.19226L65.2778 9.33494L65.4954 9.26327C66.1033 9.53027 66.949 9.32081 67.7826 9.51637L67.6397 9.34075C69.7085 8.94054 72.4022 9.50939 74.9106 9.33234L74.8691 9.47146L75.907 9.32212C76.4682 9.43187 75.5763 9.4451 75.7523 9.52034C76.8619 9.43543 76.2124 9.30755 77.4983 9.25892C78.1642 9.35609 77.2723 9.36932 76.9585 9.41483C78.2369 9.31921 79.5226 9.28616 80.8076 9.33105C80.8239 9.31593 80.8804 9.28638 80.8323 9.27719C81.6363 9.21465 82.7043 9.26886 83.5881 9.26319C83.5633 9.33263 83.3463 9.34196 83.1293 9.35129C83.4744 9.38463 83.8199 9.37902 84.1578 9.3342L83.8272 9.45718C84.5427 9.40767 85.2656 9.42074 85.9798 9.50372C85.9001 9.44685 85.9253 9.33844 86.5197 9.3478C86.8469 9.56772 88.1194 9.25366 89.0663 9.36674C88.9533 9.41805 88.2623 9.42928 88.455 9.43485C88.8966 9.46318 89.3389 9.42138 89.7658 9.31677L89.6443 9.40681L91.847 9.2755C92.1822 9.49565 93.9202 9.234 93.774 9.39348C94.5612 9.40062 93.1162 9.29654 94.1046 9.27051C94.3688 9.36388 95.0049 9.22633 94.9632 9.37324L94.8587 9.38581L95.5497 9.37458L95.1145 9.51013C95.7093 9.48053 96.1525 9.34521 96.1777 9.2368C96.724 9.24477 97.2698 9.29171 97.8153 9.37761L97.6061 9.41055C99.1974 9.35514 100.253 9.79877 101.501 9.56194C101.597 9.58031 101.581 9.61881 101.388 9.61325L102.376 9.62618L102.142 9.72856L103.767 9.56497L103.75 9.63465C104.826 9.66571 106.506 9.62844 107.888 9.61376L107.678 9.6467C109.19 9.54221 109.14 9.72006 110.241 9.64272C110.209 9.65737 110.169 9.6718 110.129 9.67064L111.125 9.66822L110.907 9.73989C111.462 9.70913 112.008 9.73268 112.561 9.81102C112.988 9.76876 113.406 9.68729 113.817 9.57443C114.902 9.56676 114.081 9.6678 114.756 9.72624C115.543 9.73337 115.673 9.61239 116.741 9.6744L116.724 9.74407C117.222 9.73506 117.528 9.68153 118.219 9.67809L118.01 9.71102C119.136 9.56424 119.421 9.93107 120.3 9.62123C120.774 9.68167 121.674 9.64529 121.632 9.7844C123.039 9.70028 124.132 9.66167 125.53 9.61628C125.761 9.84901 125.828 9.60148 126.678 9.74295L126.615 9.61641C128.591 9.61109 130.862 9.93387 133.039 9.89538L133.102 10.0219L133.538 9.88637C135.883 9.96186 138.919 10.0183 140.791 10.0412C141.62 9.92476 142.464 9.87117 143.307 9.89551L143.202 9.91588C144.898 9.85569 146.682 9.82143 148.529 9.91371C148.416 9.96502 148.6 10.0015 148.391 10.0345C148.882 9.96288 149.38 9.96946 149.869 10.0459L149.404 9.94677C149.919 9.86809 150.449 9.89898 150.954 10.0461L151.783 9.91408C151.839 9.9235 151.919 9.94919 151.935 9.96524L152.08 9.89928L152.52 10.0679C153.075 10.0449 153.63 9.97519 154.169 9.85045C154.249 9.90732 155.028 9.95318 154.425 9.98256L157.461 10.0624L156.988 10.002C156.925 9.87541 157.841 9.80832 158.307 9.86853C157.687 9.96757 158.257 10.0464 158.521 10.1398C158.931 10.0736 158.161 10.028 158.378 9.95634C159.006 9.87311 159.641 9.85246 160.267 9.90171L159.961 9.94745C160.668 9.90551 160.996 10.1332 161.687 10.122C162.306 10.0229 162.771 10.1299 162.637 9.90775C163.537 9.87137 162.989 10.0582 163.278 10.0822C163.889 9.99847 164.515 10.0321 165.125 10.1744C165.618 9.86128 167.55 10.3146 167.737 10.055L168.474 10.2166C168.499 10.1471 168.645 9.98764 169.24 9.96583C169.802 10.0522 169.672 10.1732 169.848 10.2484L170.228 9.98655C173.487 10.3145 177.778 10.1733 181.351 10.4479C182.942 10.4081 184.951 10.318 186.806 10.3871L186.597 10.42L188.444 10.5201L187.104 10.3801C187.506 10.3527 187.82 10.3072 188.213 10.3186C190.621 10.5206 193.039 10.5904 195.45 10.5352C197.067 10.2545 196.523 10.8235 198.076 10.6188C197.947 10.6463 197.89 10.6914 197.778 10.7193C199.449 10.6429 200.35 10.6065 202.022 10.4521C201.835 10.7507 203.107 10.46 202.961 10.6195L203.098 10.4987C203.467 10.5795 204.342 10.6204 204.221 10.7104L204.962 10.5681L205.025 10.6947C206.004 10.7229 208.102 10.6588 208.614 10.923C211.033 10.7745 214.856 10.9005 217.892 11.0037C218.56 10.9216 219.227 10.8941 219.901 10.9136L220.639 11.0752C221.339 10.9707 222.038 10.9441 222.745 10.9801C222.745 10.9956 222.712 11.0103 222.664 11.0167C223.355 11.0522 224.046 11.041 224.729 10.9672C225.517 10.9899 226.279 11.0898 226.036 11.2232C226.111 10.9759 227.699 11.2945 227.699 11.2945C227.699 11.2945 237.77 11.6788 249.071 11.9192C260.373 12.1596 272.904 12.3031 277.818 11.8135C278.1 11.7047 278.912 11.658 278.625 11.5016C278.858 11.4927 279.098 11.5152 279.323 11.5763C279.387 11.5937 279.451 11.6034 279.515 11.613C279.539 11.6137 279.563 11.6144 279.588 11.6073C279.596 11.6075 279.612 11.6002 279.62 11.6004L279.636 11.5931L279.644 11.5856C279.727 11.3151 279.802 11.0444 279.885 10.7662C279.81 11.0135 279.736 11.2686 279.669 11.5161C279.644 11.6089 279.652 11.5702 279.652 11.578L279.636 11.5775L279.62 11.5771L279.588 11.5761L279.524 11.5665C279.492 11.5578 279.46 11.5568 279.428 11.5403C279.38 11.5234 279.356 11.5071 279.34 11.491C279.316 11.4514 279.365 11.4138 279.405 11.376C279.494 11.2928 279.6 11.2023 279.167 11.1119L279.745 11.1052C279.883 11.0234 278.941 11.1677 279.119 11.0247L278.916 11.2449C278.619 11.2286 278.331 11.1657 278.059 11.0487C277.478 11.2814 276.843 11.3488 276.217 11.2528L276.522 11.246C275.631 11.2281 275.978 11.0822 275.793 11.0379L275.994 11.0437L275.248 10.9052C275.818 10.9996 276.759 10.8475 276.269 10.8411C275.21 10.7404 276.542 10.9036 275.746 10.9118C275.248 10.9052 275.394 10.7925 275.411 10.715L274.519 10.6971C274.552 10.5889 275.105 10.7218 274.745 10.6023L273.62 10.6789C273.413 10.4001 272.397 10.7684 271.894 10.4966C272.698 10.4574 271.823 10.401 271.952 10.319L269.976 10.2775C269.792 10.2332 270.499 10.2069 270.194 10.2136C269.921 10.1824 269.648 10.1979 269.382 10.2526C269.214 10.1776 267.912 10.2179 267.962 10.0401C266.622 9.88449 267.397 10.2499 266.146 10.1124C265.986 9.99865 267.134 10.1097 266.581 9.98464L265.287 9.98628C265.505 9.86006 265.771 9.81315 266.028 9.85175C262.527 9.6104 260.645 8.99482 257.439 9.05818C256.991 8.92051 257.761 8.98173 258.083 8.90528C255.76 9.01752 254.825 8.5384 252.849 8.50475L252.816 8.61293C250.064 8.2139 246.753 8.34439 243.646 8.12999L244.015 8.21079C243.476 8.28098 242.929 8.32756 242.382 8.33517C242.303 8.2783 242.754 8.11205 241.854 8.14063C242.039 8.18493 242.424 8.23502 242.311 8.27854C239.639 7.93638 233.999 7.89053 229.615 7.67044C223.678 7.62382 217.238 7.30542 211.406 7.2696C212.297 7.27974 211.917 7.53381 211.243 7.45979C209.408 6.97808 208.07 7.47732 206.193 7.14252C202.794 7.22371 199.761 6.79318 196.601 7.09173L196.538 6.96519C196.169 6.93894 195.807 6.94409 195.445 6.98821L195.453 6.94948C194.281 6.88446 192.866 6.99173 192.192 6.9177L192.15 7.05682C191.451 7.06003 191.79 6.94508 191.074 7.01017L191.091 6.94049L190.262 7.06469C190.345 6.81762 188.302 7.01591 187.741 6.89058C186.841 6.91917 185.137 7.00251 183.772 6.93193C182.777 6.79408 181.782 6.71857 180.778 6.70518C178.697 6.71528 175.732 6.71546 173.09 6.63919L173.136 6.80424L172.445 6.80768C172.454 6.76895 172.365 6.75081 172.462 6.73801C171.926 6.55103 170.871 6.77783 170.31 6.6525C170.662 6.80297 170.792 6.68199 171.185 6.69335C171.755 6.77995 171.215 6.92807 170.445 6.83568L170.461 6.79718L169.938 6.87563C169.883 6.74932 169.402 6.68085 169.347 6.55454C167.073 6.55907 165.528 6.75615 163.183 6.66508C163.426 6.52397 161.496 6.67874 161.964 6.44281C160.558 6.51914 162.195 6.64436 161.559 6.81308C161.165 6.80172 160.755 6.86783 160.684 6.78002C160.869 6.72301 160.364 6.63047 160.685 6.60857L159.745 6.62041C159.657 6.60228 159.866 6.56934 159.963 6.55653C158.049 6.6806 156.558 6.36473 154.846 6.49459C154.716 6.5844 155.528 6.52988 155.407 6.61213C153.678 6.7727 153.874 6.44316 152.266 6.55266L152.597 6.43747C152.073 6.56268 151.527 6.59367 150.989 6.5158C150.838 6.37112 151.713 6.40418 152.124 6.33807C151.537 6.32894 150.043 6.34817 150.499 6.48607C150.049 6.50426 149.6 6.46011 149.151 6.35361C149.143 6.39234 149.809 6.45834 149.398 6.51666C148.435 6.42649 146.957 6.41501 145.784 6.39675C145.793 6.35802 145.713 6.30894 145.818 6.28857C144.876 6.47186 144.975 6.14734 143.674 6.17213" fill="#C12A21"/>
<path d="M81.172 7.08221L81.6461 7.10781C81.6464 7.07064 81.6629 7.02474 81.8803 6.98575L81.172 7.08221Z" fill="#C12A21"/>
<path d="M103.642 6.80488C103.699 6.79731 103.755 6.78019 103.811 6.75351C103.691 6.76837 103.659 6.78634 103.642 6.80488Z" fill="#C12A21"/>
<path d="M109.093 6.41685C108.707 6.45114 109.052 6.5018 109.245 6.54704C109.254 6.50894 109.246 6.46067 109.093 6.41685Z" fill="#C12A21"/>
<path d="M68.4542 7.85747C68.535 7.84087 68.5836 7.81335 68.5759 7.77405C68.4627 7.809 68.4384 7.82763 68.4542 7.85747Z" fill="#C12A21"/>
<path d="M33.2833 8.81201L33.4273 8.83494C33.3793 8.82428 33.3314 8.81362 33.2833 8.81201Z" fill="#C12A21"/>
<path d="M35.2403 9.02791C35.377 9.02346 35.5056 9.01875 35.6344 8.99603C35.4978 8.99148 35.3691 9.00519 35.2403 9.02791Z" fill="#C12A21"/>
<path d="M76.9802 7.58585C77.1009 7.58072 77.2296 7.5666 77.3505 7.53367C77.2219 7.52926 77.1012 7.54366 76.9802 7.58585Z" fill="#C12A21"/>
<path d="M36.0368 8.9342L36.5269 8.94138C36.527 8.93257 36.5351 8.92402 36.5353 8.90639L36.0368 8.9342Z" fill="#C12A21"/>
<path d="M32.6569 8.81235C32.8497 8.80995 33.1068 8.80955 33.2754 8.82316C33.0749 8.78341 32.8661 8.77693 32.6569 8.81235Z" fill="#C12A21"/>
<path d="M55.5462 8.4406L55.6024 8.43313C55.9798 8.35202 55.739 8.39076 55.5462 8.4406Z" fill="#C12A21"/>
<path d="M38.1789 8.54362L38.243 8.54587L38.3877 8.49412L38.1789 8.54362Z" fill="#C12A21"/>
<path d="M30.5443 8.82057C30.6248 8.81401 30.7052 8.80745 30.7859 8.78223L30.5046 8.76318C30.5285 8.79201 30.5364 8.80162 30.5443 8.82057Z" fill="#C12A21"/>
<path d="M48.1809 8.36144C48.0437 8.43457 47.9951 8.48162 47.9868 8.5106C48.1476 8.50663 48.2523 8.47136 48.1809 8.36144Z" fill="#C12A21"/>
<g opacity="0.26">
<g opacity="0.26">
<g opacity="0.26">
<g opacity="0.26">
<path opacity="0.26" d="M42.3022 10.819C42.278 10.838 42.2617 10.8671 42.2533 10.9064C42.2938 10.8682 42.3021 10.8388 42.3022 10.819Z" fill="#C12A21"/>
<path opacity="0.26" d="M63.9426 10.7098L63.6939 10.7485C63.782 10.7514 63.8703 10.7355 63.9426 10.7098Z" fill="#C12A21"/>
<path opacity="0.26" d="M29.3271 11.0666C29.3352 11.0586 29.3513 11.059 29.3594 11.0511L28.4516 11.0577L29.3271 11.0666Z" fill="#C12A21"/>
<path opacity="0.26" d="M110.118 10.4173L109.828 10.4171C109.925 10.4198 110.021 10.4225 110.118 10.4173Z" fill="#C12A21"/>
<path opacity="0.26" d="M82.7506 10.4613C82.8715 10.4277 82.9924 10.4035 83.121 10.4078C82.9925 10.3847 82.8718 10.3996 82.7506 10.4613Z" fill="#C12A21"/>
<path opacity="0.26" d="M22.4312 9.57178L22.8082 9.67938C22.7926 9.63134 22.6643 9.57955 22.4312 9.57178Z" fill="#C12A21"/>
<path opacity="0.26" d="M9.29163 10.6704C9.29951 10.6804 9.31535 10.6906 9.32332 10.6908C9.34721 10.6917 9.3234 10.6812 9.29163 10.6704Z" fill="#C12A21"/>
<path opacity="0.26" d="M14.4451 10.9142C14.5578 10.8991 14.6867 10.8751 14.8156 10.8511C14.6547 10.8552 14.4616 10.8676 14.4451 10.9142Z" fill="#C12A21"/>
<path opacity="0.26" d="M14.9921 10.8125L14.8156 10.8443C14.9118 10.8381 14.992 10.8313 14.9921 10.8125Z" fill="#C12A21"/>
<path opacity="0.26" d="M277.801 10.4335C278.106 10.4434 278.412 10.407 278.71 10.324L277.801 10.4335Z" fill="#C12A21"/>
<path opacity="0.26" d="M151.913 10.1316L151.833 10.1775C151.913 10.1608 151.929 10.1419 151.913 10.1316Z" fill="#C12A21"/>
<path opacity="0.26" d="M278.273 9.41699L278.529 9.45223C278.441 9.43137 278.353 9.41954 278.273 9.41699Z" fill="#C12A21"/>
<path opacity="0.26" d="M29.3882 8.93866C29.767 8.82248 30.5456 8.93922 30.5385 8.82897C30.1364 8.85271 29.5664 8.78851 29.3882 8.93866Z" fill="#C12A21"/>
<path opacity="0.26" d="M160.747 5.63985L160.995 5.63878C160.875 5.62679 160.803 5.63308 160.747 5.63985Z" fill="#C12A21"/>
<path opacity="0.26" d="M278.273 9.41839L277.976 9.37109C278 9.39064 278.032 9.41045 278.064 9.43027C278.128 9.423 278.201 9.41601 278.273 9.41839Z" fill="#C12A21"/>
<path opacity="0.26" d="M195.449 10.1734L195.433 10.1728L195.344 10.1886L195.449 10.1734Z" fill="#C12A21"/>
<path opacity="0.26" d="M197.751 10.3753L197.261 10.4049C197.422 10.4189 197.59 10.4153 197.751 10.3753Z" fill="#C12A21"/>
<path opacity="0.26" d="M278.711 10.3077L279.242 10.2414C279.065 10.2449 278.888 10.267 278.711 10.3077Z" fill="#C12A21"/>
<path opacity="0.26" d="M222.643 10.3492L222.419 10.3599C222.491 10.3622 222.571 10.3647 222.643 10.3492Z" fill="#C12A21"/>
<path opacity="0.26" d="M80.9995 10.4296L80.7994 10.4046C80.7752 10.4316 80.791 10.4506 80.9995 10.4296Z" fill="#C12A21"/>
<path opacity="0.26" d="M97.2466 7.12265C97.56 7.13295 97.8659 7.0868 98.1643 6.98421C97.8508 6.97391 97.5449 7.02006 97.2466 7.12265Z" fill="#C12A21"/>
<path opacity="0.26" d="M100.132 7.00484L100.028 6.99268C100.06 7.00258 100.1 7.00384 100.132 7.00484Z" fill="#C12A21"/>
<path opacity="0.26" d="M81.648 7.10303L81.6479 7.11293C81.6568 7.11324 81.6569 7.10333 81.6569 7.10333L81.648 7.10303Z" fill="#C12A21"/>
<path opacity="0.26" d="M85.3119 7.01123C85.3918 7.03227 85.4797 7.05357 85.5678 7.05643C85.4799 7.03513 85.3919 7.02305 85.3119 7.01123Z" fill="#C12A21"/>
<path opacity="0.26" d="M109.247 6.53927C109.239 6.53899 109.239 6.54866 109.247 6.53927L109.263 6.54947L109.247 6.53927Z" fill="#C12A21"/>
<path opacity="0.26" d="M143.725 6.08653C140.262 6.10891 135.778 6.28658 132.34 6.2216C131.374 6.38649 130.393 6.47089 129.413 6.45125L129.295 6.19173L128.387 6.27017C128.018 6.18771 129.086 6.22586 128.428 6.12724L128.089 6.28579C128.018 6.19571 125.744 6.21161 127.272 6.03858L123.729 6.02667C122.942 6.01247 123.277 6.23808 122.41 6.17359C122.234 6.09657 122.724 6.1264 122.645 6.02809C120.036 5.82638 119.643 6.51982 117.218 6.38735L117.427 6.35322C117.017 6.4217 116.23 6.4155 116.221 6.44728C116.54 6.71247 116.657 6.30745 117.394 6.46436C117.336 6.68688 116.469 6.58237 116.524 6.75203C116.058 6.72288 115.592 6.74175 115.125 6.80864C114.283 6.67279 113.069 6.76663 112.428 6.59643C111.856 6.76442 111.268 6.86793 110.665 6.89095C110.024 6.72075 110.812 6.72696 109.945 6.66246L109.807 6.79467C109.092 6.7745 109.205 6.73766 109.229 6.68231C108.707 6.75562 108.176 6.78868 107.646 6.77373L108.177 6.65262C107.47 6.70471 107.181 6.68054 106.201 6.6689C106.218 6.59732 106.611 6.60042 106.908 6.62482C106.372 6.43355 106 6.70325 105.711 6.68709C105.79 6.74538 106.473 6.76465 106.142 6.89142C105.652 6.86959 105.104 7.06227 104.76 6.91647L105.292 6.79536C104.728 6.90756 104.157 6.94749 103.587 6.90739C103.652 6.9012 103.62 6.86828 103.644 6.83694C102.72 6.92293 101.78 6.92843 100.849 6.83811L101.058 6.80399C100.615 6.84755 100.381 6.96103 100.14 6.95423C100.766 7.02793 100.597 7.06319 100.652 7.18483C99.8268 6.9694 99.4044 7.42983 98.056 7.30372C98.0728 7.23214 98.395 7.14516 98.7718 7.21984C99.1603 6.94259 99.62 6.77142 100.095 6.72076C99.5879 6.77052 98.985 6.80154 99.1145 6.70912L98.9598 6.91291C98.6544 6.92031 98.4055 6.90528 98.1725 6.90671C98.0427 7.03114 98.797 7.11647 98.0892 7.20058C97.2851 7.26595 97.6574 6.99625 97.536 7.08089C96.4265 7.16167 97.0839 7.3003 96.0161 7.23014C96.1449 7.20176 96.2816 7.1896 96.4181 7.20146C95.6476 7.12368 94.5378 7.23647 94.3073 6.99779C94.4287 6.90514 94.5818 6.86143 94.7342 6.88975L94.6939 6.89662C95.5312 6.72009 93.9945 6.94093 94.2538 6.72408C94.3168 6.85395 93.2405 6.82358 92.7506 6.80976L92.9097 6.95835C91.3064 7.40948 92.9931 6.66449 91.3937 6.73144C90.3803 6.83894 91.7788 6.77433 91.1592 6.87693C90.5173 6.79477 89.8668 6.76841 89.2159 6.79007C88.9353 6.73412 88.3657 6.654 88.3111 6.49234C87.5802 6.47172 86.8488 6.50712 86.1168 6.59054C87.1599 6.72405 87.147 6.41146 88.366 6.62199L88.0269 6.78855C87.1834 6.78076 86.1059 6.87044 85.5281 6.81411C85.6483 6.84152 85.696 6.8909 85.6234 6.92088C84.7304 7.03978 83.8219 7.10222 82.914 7.10862C82.7549 6.96002 83.4375 6.97929 83.9357 6.96933C83.2856 6.91095 82.635 6.89259 81.984 6.92226C81.921 6.79239 82.7712 6.92846 82.9011 6.79603L81.6072 6.83957C81.6153 6.8318 81.6074 6.82357 81.6075 6.81556C81.4285 7.03468 80.6194 6.80369 79.8314 6.86952C78.779 6.87185 77.7008 7.03357 76.6773 7.34094C76.3967 7.28499 76.3169 7.22669 76.43 7.17384C76.895 7.26702 76.8074 7.1925 76.9687 7.133C76.3337 7.15511 75.5809 6.92572 75.9353 6.83964C74.9303 6.90736 76.3037 6.95412 75.6843 7.02471L74.3106 7.01797C74.4782 7.12677 74.96 7.14837 74.2521 7.24048C73.6492 7.27151 73.3602 7.25534 72.5809 7.24937C72.694 7.19651 72.3256 7.08204 72.9201 7.08281C72.519 7.02345 72.109 7.05191 71.7224 7.14508C72.581 7.24136 70.3154 7.24949 70.9644 7.41991L70.0896 7.33118C70.2824 7.32862 70.3073 7.25726 70.5963 7.27343C70.349 7.10633 69.8968 7.32574 69.5993 7.34937C69.2137 7.3465 68.8285 7.31161 68.4435 7.2447C68.0895 7.29876 67.7282 7.27255 67.3837 7.18277C66.9816 7.21946 67.3504 7.29392 67.2374 7.34677L65.8636 7.34803C65.7841 7.25773 65.6663 6.99821 65.8755 6.96409C65.3604 7.05363 65.696 7.23923 64.9167 7.24126C65.3604 7.05363 63.8735 7.11575 64.5185 6.89377C63.7082 6.78284 62.889 6.75972 62.0767 6.84088C61.6414 6.98872 62.8472 6.91866 62.7975 7.06137C60.8124 7.13345 60.6958 7.53846 59.2422 7.48143L59.6195 7.5161C59.1694 7.53542 58.7268 7.60299 58.2918 7.71881C58.5347 7.53352 57.2443 7.24092 55.7574 7.29504C55.636 7.38768 56.5993 7.4629 56.3568 7.60817L55.3763 7.64455C55.3041 7.63451 55.4089 7.59743 55.5376 7.57705C54.6532 7.64816 53.8769 7.35406 53.6256 7.57113L52.7124 7.31319L53.0728 7.41943C52.6381 7.50324 52.1957 7.56281 51.7536 7.58236C51.1098 7.68428 50.4433 7.65747 49.8021 7.51128C49.978 7.58829 50.4262 7.75306 49.6305 7.78664C49.6336 7.49051 47.9524 7.69126 47.97 7.54764C47.6485 7.55459 47.0709 7.47424 47.0375 7.60139L47.0876 7.41867C47.0207 7.67297 45.8395 7.68768 44.9392 7.74233C45.1356 7.38761 43.9506 7.78649 43.5359 7.47857C43.3728 7.72215 41.9359 7.60155 41.7892 7.80556C41.0901 7.82586 41.1565 7.61158 40.9806 7.53456L40.6583 7.62954C40.3059 7.52352 39.0042 7.53483 38.2256 7.47283L37.5083 7.69277L37.2361 7.60503C37.123 7.65788 36.528 7.70514 36.8969 7.77159L36.5113 7.76871C36.4849 8.00014 35.9643 7.84134 35.1838 7.95542C34.9994 7.91819 35.0482 7.86353 35.2172 7.83627C34.8315 7.8414 34.9934 7.71788 34.7772 7.64773C35.0579 7.70368 33.391 8.08096 34.4425 8.16668C34.5219 8.25698 33.9106 8.3358 33.5253 8.30091L33.2863 8.10203L32.8341 8.32944C32.3842 8.32476 31.9346 8.29606 31.4935 8.22757C31.9917 8.2096 32.5823 7.80996 31.3046 7.83795C31.7549 7.80262 32.2056 7.72728 32.6485 7.62769C32.3833 7.62821 32.247 7.60835 32.6576 7.51587C31.6606 7.59981 32.3269 7.65064 31.3382 7.6948C31.3883 7.51207 31.1077 7.45612 30.2405 7.40763L30.89 7.53004C30.8496 7.55291 30.8092 7.57579 30.769 7.58266C31.0179 7.59769 31.0899 7.62374 31.1454 7.69736C30.9526 7.69992 30.002 7.94531 29.8344 7.8365C30.844 8.10516 28.1045 8.09191 28.7457 8.2461C28.4557 8.31798 28.1585 8.30959 27.8701 8.23741C28.6911 8.08444 27.2374 8.04342 27.3673 7.91099C27.0614 7.96641 28.0248 8.03362 27.6062 8.10987C27.2206 8.115 26.8435 8.06433 26.4668 7.97365L26.6681 7.93129L25.9056 7.86174C25.7841 7.95438 26.6514 7.99487 25.9517 8.06319C25.7673 8.02596 25.0597 8.09406 25.0845 8.0227C25.4153 7.88793 25.1678 7.72884 25.7628 7.68158C25.2645 7.70755 23.6892 7.76717 24.3303 7.92136L23.7357 7.9286C24.1127 7.99528 25.1559 8.10478 23.9663 8.16728L23.9747 8.12749L23.1617 8.28868L22.801 8.20645C22.8165 8.25493 22.6875 8.29932 22.3822 8.30672C22.3024 8.25643 22.0053 8.24004 22.0301 8.16869C21.138 8.19956 21.2174 8.28986 21.1043 8.35072C20.606 8.37669 20.4215 8.34746 20.6477 8.22575C19.8681 8.25179 19.0889 8.24581 18.3102 8.19182C17.4013 8.29427 18.5027 8.22127 17.9709 8.36638C17.1706 8.06359 14.9506 8.32119 13.4716 8.39954C13.8866 8.66744 13.0694 8.44423 12.8017 8.70088C13.1162 8.58966 11.3736 8.50847 12.6763 8.39311L11.8804 8.44271C11.3355 8.30724 13.1915 8.29556 12.3579 8.10392C11.5289 8.25666 10.6923 8.35314 9.84845 8.38537C10.188 8.17879 9.04414 8.47476 9.2955 8.24968C9.56119 8.19313 9.82665 8.16059 10.0998 8.16029L9.90737 8.12284C7.9552 8.11579 9.35852 8.37154 8.34457 8.53508C7.15499 8.58957 7.39791 8.40429 7.31849 8.31398C6.95715 8.29578 6.58737 8.31737 6.22513 8.38721C6.94961 8.24753 7.57395 8.4733 7.24317 8.60808C6.54541 8.49231 5.83805 8.5284 5.1611 8.73346C6.87036 8.9258 6.34224 8.71875 7.94684 8.93216C8.16451 8.85824 8.11837 8.65679 9.07389 8.70777C8.47816 8.82706 9.12093 8.82118 9.28935 8.84995C9.10569 8.74069 9.95687 8.78072 10.2467 8.72485C10.5189 8.81259 9.68937 9.01335 10.6613 9.03277L10.8328 8.7574C11.2021 8.78383 10.67 8.96096 11.4744 8.87158C11.047 9.02764 11.6167 9.09175 10.5314 9.1652C11.8469 9.36245 12.5256 8.9893 13.5392 8.85779C13.4346 8.87885 13.4262 8.91064 13.3215 8.9317C13.6194 8.86806 13.9251 8.82865 14.2305 8.82125C14.9049 8.8643 13.7069 8.95859 13.8829 9.02761L14.9679 8.99417C14.9919 9.00286 14.9918 9.01086 14.9918 9.01086C15.2013 8.95272 15.4343 8.94329 15.6507 8.99743C15.3364 9.09264 15.2069 9.18505 14.9972 9.2672L16.1242 9.05082C16.0027 9.14346 17.0708 9.18161 16.2665 9.27099L17.9464 9.1903L18.0972 9.37069C18.4994 9.32599 18.5077 9.29421 18.0258 9.28061C18.604 9.30493 20.5606 8.88779 20.2755 9.26403C21.595 9.0771 22.0685 9.12248 23.6686 8.9915C22.4454 9.19716 25.0888 9.16768 23.7861 9.28303C24.3003 9.28153 24.8071 9.21577 25.3065 9.09376C25.8763 9.15787 25.6333 9.34316 25.0219 9.42998L25.7379 9.3301L25.7295 9.36989L26.3493 9.25128C27.0152 9.34212 26.4921 9.43144 27.1747 9.4507L27.313 9.28648L27.7781 9.37166C27.6021 9.30264 28.0042 9.25795 28.4945 9.23976L28.486 9.27955L29.089 9.24052C28.4933 9.35181 29.6431 9.26416 29.3686 9.39252C29.8828 9.39102 29.8908 9.39124 30.8232 9.3455L30.6556 9.23669C31.8619 9.11862 30.7102 9.39835 31.6904 9.39399L31.6275 9.26412C33.0475 9.4563 34.0232 9.09955 35.0665 9.21705C34.4715 9.2563 34.6227 9.40467 34.6391 9.36511C35.5396 9.30245 37.0017 9.31169 37.9273 9.13766C38.3508 9.36577 38.8398 9.47563 39.3141 9.44098C40.0133 9.42068 40.1099 9.39939 40.336 9.28568C40.9951 9.25624 41.6537 9.27483 42.3117 9.34944C42.4654 9.24169 42.9222 9.35866 43.2847 9.26481L43.3645 9.3151L43.3016 9.18523C44.5039 9.45133 45.3121 8.98577 46.5228 9.22008L46.3135 9.26221L46.8202 9.20446C46.9 9.26275 46.6988 9.2971 46.6739 9.36845L49.028 9.35482L48.563 9.26164C49.0217 9.18652 49.4879 9.16765 49.9616 9.18902C49.0276 9.39484 50.7409 9.18699 50.9001 9.33559L50.3934 9.39335C51.0845 9.37282 51.0845 9.37282 51.0216 9.24295C51.9139 9.18807 51.6457 9.48473 52.4668 9.33176L51.8803 9.33123C51.7043 9.25421 52.1232 9.14594 52.5168 9.14904C52.6131 9.16777 52.8937 9.22372 52.5882 9.23912C53.2958 9.17903 54.3557 9.24096 54.6615 9.18554C55.0468 9.22043 54.9253 9.31307 54.7161 9.3472C56.2197 9.2215 55.3988 9.36646 56.9105 9.23299L56.8857 9.30434L57.4008 9.2148L58.1464 9.36393L57.8823 9.26842C58.3406 9.22531 58.8067 9.21444 59.2645 9.22736L59.0304 9.34084C60.429 9.26823 60.6515 9.50668 61.9788 9.34398C62.067 9.36248 61.8658 9.39683 61.7611 9.4179C62.9922 9.23647 62.6992 9.60448 63.9307 9.38304C63.858 9.42102 63.9941 9.46489 63.9456 9.49555L64.5087 9.42337L64.467 9.57431L64.9191 9.35489L65.2711 9.50093L65.4888 9.42701C66.0966 9.70035 66.9423 9.48404 67.7758 9.68369L67.633 9.50353C69.702 9.08956 72.3955 9.66994 74.9039 9.48453L74.8623 9.62746L75.9003 9.47261C76.4615 9.58452 75.5696 9.59938 75.7456 9.6764C76.8551 9.58762 76.2057 9.45721 77.4917 9.40544C78.1575 9.50428 77.2656 9.51914 76.9518 9.56633C78.2302 9.4663 79.516 9.43053 80.801 9.4748C80.8172 9.45924 80.8737 9.42881 80.8256 9.41945C81.6297 9.35407 82.6976 9.40823 83.5814 9.40114C83.5566 9.4725 83.3396 9.48238 83.1226 9.49227C83.4677 9.52603 83.8132 9.51977 84.1511 9.47326L83.8204 9.60003C84.536 9.54817 85.2589 9.56056 85.9731 9.64476C85.8933 9.58647 85.9186 9.4751 86.513 9.48386C86.8401 9.70925 88.1127 9.3849 89.0596 9.49968C88.9466 9.55253 88.2555 9.56506 88.4483 9.5705C88.8898 9.59897 89.3322 9.55541 89.7591 9.44736L89.6376 9.54001L91.8403 9.40202C92.1754 9.62763 93.9135 9.35644 93.7672 9.52044C94.5545 9.52664 93.1095 9.42182 94.0979 9.39367C94.3621 9.48918 94.9982 9.34702 94.9565 9.49795L94.8519 9.51101L95.543 9.49849L95.1077 9.63832C95.7025 9.60707 96.1458 9.46746 96.1711 9.35609C96.7173 9.3635 97.2631 9.41093 97.8085 9.49837L97.5993 9.5325C99.1906 9.47332 100.246 9.92743 101.494 9.68243C101.59 9.70116 101.574 9.74072 101.381 9.73528L102.369 9.74715L102.135 9.85263L103.76 9.68231L103.743 9.75389C104.819 9.78426 106.499 9.74359 107.881 9.72654L107.672 9.76067C109.183 9.6512 109.133 9.83393 110.234 9.75293C110.202 9.76803 110.162 9.7829 110.122 9.78177L111.118 9.77786L110.9 9.85177C111.455 9.81939 112.001 9.8428 112.554 9.92247C112.981 9.87846 113.399 9.7942 113.81 9.6777C114.895 9.66827 114.074 9.77322 114.749 9.83227C115.536 9.83847 115.666 9.71404 116.734 9.7762L116.717 9.84778C117.215 9.83782 117.521 9.7824 118.212 9.77788L118.003 9.81201C119.129 9.65965 119.414 10.036 120.293 9.71652C120.767 9.77792 121.667 9.73927 121.625 9.8822C123.032 9.79381 124.125 9.7526 125.523 9.70399C125.754 9.94267 125.821 9.68836 126.671 9.83244L126.608 9.70257C128.584 9.69429 130.855 10.0225 133.032 9.97992L133.095 10.1098L133.531 9.96996C135.876 10.0441 138.912 10.0978 140.784 10.1186C141.612 9.99786 142.457 9.94162 143.3 9.96542L143.195 9.98648C144.891 9.92225 146.675 9.88452 148.522 9.97667C148.409 10.0295 148.593 10.0667 148.384 10.1009C148.875 10.0267 149.373 10.0327 149.862 10.1106L149.397 10.0094C149.912 9.92783 150.442 9.9588 150.947 10.1091L151.776 9.97241C151.832 9.982 151.912 10.0083 151.928 10.0247L152.073 9.95678L152.513 10.1293C153.068 10.1049 153.623 10.0325 154.162 9.90366C154.242 9.96195 155.021 10.0079 154.418 10.039L157.454 10.1166L156.981 10.0552C156.918 9.92537 157.834 9.85516 158.3 9.91633C157.68 10.0189 158.25 10.099 158.514 10.1946C158.924 10.1261 158.153 10.0803 158.371 10.0064C158.999 9.92003 159.634 9.89792 160.26 9.94761L159.954 9.99503C160.661 9.95094 160.988 10.1843 161.679 10.1718C162.299 10.0692 162.764 10.1784 162.63 9.95044C163.53 9.91179 162.982 10.1045 163.271 10.1286C163.882 10.0418 164.508 10.0755 165.117 10.2208C165.611 9.89846 167.542 10.3613 167.73 10.0944L168.467 10.2593C168.492 10.1879 168.638 10.0239 169.233 10.0007C169.794 10.0886 169.665 10.213 169.841 10.29L170.221 10.0205C173.479 10.3527 177.771 10.2016 181.343 10.4785C182.934 10.4353 184.944 10.3399 186.799 10.4083L186.59 10.4424L188.437 10.5425L187.096 10.4007C187.498 10.372 187.812 10.3248 188.206 10.3359C190.614 10.5399 193.031 10.6082 195.442 10.5481C197.06 10.2575 196.516 10.8426 198.068 10.6302C197.94 10.6586 197.883 10.705 197.77 10.7339C199.442 10.6529 200.342 10.6143 202.015 10.4533C201.827 10.7603 203.099 10.4599 202.953 10.6239L203.091 10.4997C203.46 10.5822 204.335 10.6229 204.213 10.7155L204.954 10.5683L205.017 10.6982C205.997 10.7258 208.094 10.6569 208.606 10.9275C211.026 10.7717 214.849 10.8955 217.884 10.9972C218.552 10.912 219.219 10.8828 219.894 10.9018L220.631 11.0667C221.331 10.9584 222.03 10.9301 222.737 10.966C222.737 10.982 222.705 10.9971 222.656 11.0038C223.347 11.0393 224.038 11.0267 224.722 10.95C225.509 10.9722 226.271 11.0737 226.029 11.211C226.103 10.9569 227.691 11.2819 227.691 11.2819C227.691 11.2819 237.762 11.6222 249.063 11.853C260.365 12.0838 272.896 12.2133 277.81 11.7034C278.092 11.5913 278.904 11.5422 278.617 11.3819C278.85 11.3725 279.091 11.3953 279.315 11.4577C279.379 11.4755 279.443 11.4853 279.507 11.4951C279.532 11.4958 279.556 11.4965 279.58 11.4892C279.588 11.4894 279.604 11.4819 279.612 11.4821L279.628 11.4745L279.636 11.4668C279.719 11.1889 279.795 10.9108 279.878 10.6249C279.803 10.879 279.728 11.1411 279.661 11.3954C279.636 11.4908 279.644 11.451 279.644 11.459L279.628 11.4585L279.612 11.4581L279.58 11.4572L279.516 11.4473C279.484 11.4384 279.452 11.4375 279.42 11.4206C279.372 11.4032 279.348 11.3866 279.332 11.3701C279.308 11.3294 279.357 11.2907 279.397 11.2519C279.487 11.1663 279.592 11.0732 279.159 10.9809L279.738 10.9732C279.875 10.8891 278.934 11.0386 279.112 10.8915L278.909 11.118C278.612 11.1016 278.323 11.0374 278.051 10.9177C277.47 11.1574 276.835 11.2276 276.209 11.1299L276.515 11.1225C275.623 11.1053 275.97 10.955 275.786 10.9098L275.986 10.9154L275.241 10.7743C275.81 10.8704 276.752 10.7129 276.262 10.707C275.202 10.6051 276.534 10.7708 275.739 10.7803C275.241 10.7743 275.387 10.6583 275.403 10.5787L274.512 10.5616C274.545 10.4504 275.098 10.5861 274.738 10.4639L273.612 10.5442C273.406 10.2582 272.39 10.6378 271.887 10.3594C272.691 10.3181 271.816 10.2613 271.945 10.1769L269.969 10.1372C269.785 10.092 270.492 10.0639 270.187 10.0713C269.914 10.0396 269.64 10.0559 269.375 10.1124C269.207 10.0356 267.905 10.0789 267.955 9.89621C266.615 9.73831 267.39 10.1125 266.138 9.97305C265.979 9.85647 267.127 9.96891 266.574 9.84123L265.28 9.84476C265.498 9.71481 265.764 9.66627 266.021 9.70553C262.52 9.46266 260.639 8.83314 257.433 8.90278C256.984 8.76203 257.755 8.82381 258.077 8.74483C255.754 8.86342 254.819 8.37269 252.843 8.34095L252.81 8.4521C250.058 8.04621 246.747 8.18495 243.64 7.96918L244.009 8.05164C243.47 8.1245 242.923 8.17311 242.376 8.18171C242.297 8.12342 242.748 7.95203 241.848 7.98267C242.033 8.0279 242.418 8.0788 242.305 8.12365C239.633 7.77606 233.994 7.73701 229.609 7.51723C223.673 7.47781 217.233 7.15999 211.4 7.13151C212.292 7.14066 211.912 7.40213 211.238 7.32707C209.403 6.83497 208.064 7.3496 206.188 7.00844C202.788 7.09666 199.756 6.65883 196.604 6.97017L196.541 6.8403C196.171 6.81387 195.81 6.81968 195.448 6.86551L195.456 6.82571C194.284 6.76061 192.869 6.87279 192.195 6.79773L192.153 6.94066C191.454 6.94496 191.793 6.82642 191.077 6.89429L191.094 6.82271L190.265 6.95143C190.348 6.69758 188.305 6.90414 187.744 6.77622C186.844 6.80687 185.14 6.89488 183.775 6.82434C182.78 6.68419 181.785 6.60806 180.781 6.59574C178.7 6.60908 175.735 6.61349 173.093 6.53893L173.139 6.70836L172.448 6.71288C172.457 6.67309 172.368 6.65459 172.465 6.6413C171.929 6.45004 170.874 6.68447 170.313 6.55655C170.665 6.71059 170.794 6.58616 171.188 6.59727C171.757 6.68539 171.218 6.83828 170.447 6.74449L170.464 6.70493L169.941 6.78624C169.886 6.65659 169.405 6.58697 169.35 6.45733C167.076 6.46522 165.531 6.66982 163.186 6.57963C163.429 6.43436 161.499 6.59607 161.968 6.3531C160.561 6.43349 162.198 6.55976 161.562 6.73394C161.168 6.72284 160.758 6.79132 160.687 6.70124C160.872 6.64242 160.367 6.54811 160.688 6.52516L159.748 6.53866C159.66 6.52016 159.869 6.48603 159.966 6.47275C158.052 6.60289 156.561 6.28061 154.849 6.41642C154.719 6.50884 155.531 6.45169 155.41 6.53633C153.681 6.70371 153.877 6.36499 152.269 6.47974L152.6 6.36097C152.076 6.4903 151.53 6.52291 150.992 6.4437C150.841 6.29533 151.717 6.32804 152.127 6.25956C151.541 6.25102 150.046 6.27289 150.502 6.41387C150.052 6.43319 149.603 6.38849 149.154 6.27975C149.146 6.31954 149.812 6.38637 149.402 6.44685C148.438 6.35562 146.96 6.34594 145.787 6.32886C145.796 6.28907 145.716 6.23878 145.821 6.21771C144.879 6.4073 144.979 6.07386 143.677 6.10118" fill="#C12A21"/>
<path opacity="0.26" d="M81.1742 7.08564L81.6484 7.1106C81.6487 7.07313 81.6652 7.02682 81.8826 6.98712L81.1742 7.08564Z" fill="#C12A21"/>
<path opacity="0.26" d="M103.637 6.80712C103.693 6.79941 103.749 6.7821 103.806 6.75518C103.693 6.77061 103.653 6.78846 103.637 6.80712Z" fill="#C12A21"/>
<path opacity="0.26" d="M109.096 6.40875C108.709 6.44389 109.055 6.49415 109.248 6.53923C109.256 6.51059 109.248 6.46211 109.096 6.40875Z" fill="#C12A21"/>
<path opacity="0.26" d="M68.4567 7.84988C68.5375 7.83308 68.5861 7.8054 68.5783 7.76601C68.4651 7.81104 68.4408 7.82977 68.4567 7.84988Z" fill="#C12A21"/>
<path opacity="0.26" d="M33.2857 8.81396L33.4297 8.8369C33.3737 8.82595 33.3337 8.81551 33.2857 8.81396Z" fill="#C12A21"/>
<path opacity="0.26" d="M35.2346 9.03039C35.3713 9.02566 35.4999 9.02066 35.6287 8.99745C35.5002 8.99334 35.3715 9.00744 35.2346 9.03039Z" fill="#C12A21"/>
<path opacity="0.26" d="M76.9826 7.58836C77.1032 7.58297 77.232 7.5685 77.3529 7.53507C77.2243 7.53086 77.1035 7.54559 76.9826 7.58836Z" fill="#C12A21"/>
<path opacity="0.26" d="M36.0393 8.92701L36.5294 8.93345C36.5295 8.92452 36.5376 8.91583 36.5377 8.89796L36.0393 8.92701Z" fill="#C12A21"/>
<path opacity="0.26" d="M32.6593 8.80597C32.8521 8.80328 33.1092 8.80247 33.2778 8.81575C33.0772 8.78484 32.8684 8.77872 32.6593 8.80597Z" fill="#C12A21"/>
<path opacity="0.26" d="M55.5487 8.43339L55.6048 8.42579C55.9821 8.35316 55.7414 8.38302 55.5487 8.43339Z" fill="#C12A21"/>
<path opacity="0.26" d="M38.1731 8.54592L38.2372 8.54806L38.3819 8.49574L38.1731 8.54592Z" fill="#C12A21"/>
<path opacity="0.26" d="M30.5386 8.81306C30.6188 8.80631 30.6989 8.79956 30.7793 8.77402L30.499 8.75537C30.5308 8.78461 30.5387 8.80367 30.5386 8.81306Z" fill="#C12A21"/>
<path opacity="0.26" d="M48.1752 8.36353C48.038 8.43708 47.9894 8.48432 47.9811 8.51338C48.1499 8.50937 48.2546 8.47384 48.1752 8.36353Z" fill="#C12A21"/>
</g>
</g>
</g>
</g>
</g>
<defs>
<clipPath id="clip0_717_70098">
<rect width="280" height="20" fill="white"/>
</clipPath>
</defs>
</svg>
