<svg width="208" height="15" viewBox="0 0 208 15" fill="none" xmlns="http://www.w3.org/2000/svg">
<g clip-path="url(#clip0_717_70134)">
<path d="M176.668 3.84138C176.686 3.82729 176.698 3.80557 176.705 3.78362C176.674 3.80464 176.668 3.82659 176.668 3.84138Z" fill="#003383"/>
<path d="M160.579 3.53409L160.765 3.50624C160.705 3.50407 160.639 3.51551 160.579 3.53409Z" fill="#003383"/>
<path d="M186.308 4.01043C186.302 4.01551 186.29 4.01518 186.284 4.02026L186.964 4.03919L186.308 4.01043Z" fill="#003383"/>
<path d="M126.262 3.66334L126.477 3.65794C126.405 3.66181 126.334 3.65946 126.262 3.66334Z" fill="#003383"/>
<path d="M146.598 3.57982C146.508 3.60427 146.419 3.61487 146.323 3.61831C146.419 3.63565 146.514 3.61834 146.598 3.57982Z" fill="#003383"/>
<path d="M191.398 5.38214L191.124 5.28662C191.123 5.32925 191.225 5.36857 191.398 5.38214Z" fill="#003383"/>
<path d="M201.169 5.12654C201.163 5.119 201.151 5.11123 201.145 5.1037C201.133 5.11786 201.145 5.12563 201.169 5.12654Z" fill="#003383"/>
<path d="M197.355 4.72809C197.272 4.73191 197.176 4.74211 197.08 4.75911C197.194 4.75636 197.343 4.76171 197.355 4.72809Z" fill="#003383"/>
<path d="M196.949 4.78075L197.08 4.76497C197.009 4.7624 196.949 4.76709 196.949 4.78075Z" fill="#003383"/>
<path d="M1.69456 9.10757C1.40158 9.13183 1.10832 9.19115 0.82679 9.27893L1.69456 9.10757Z" fill="#003383"/>
<path d="M95.1991 4.4759L95.2593 4.44189C95.1993 4.44687 95.1873 4.46093 95.1991 4.4759Z" fill="#003383"/>
<path d="M1.36736 9.91104L1.15851 9.91045C1.22413 9.91241 1.29572 9.91456 1.36736 9.91104Z" fill="#003383"/>
<path d="M186.221 5.60459C185.94 5.67991 185.362 5.57499 185.367 5.65364C185.659 5.6441 186.083 5.71099 186.221 5.60459Z" fill="#003383"/>
<path d="M88.7007 8.02621L88.5156 8.03271C88.6052 8.02936 88.6589 8.03116 88.7007 8.02621Z" fill="#003383"/>
<path d="M1.36735 9.90595L1.61222 9.90792C1.58844 9.89333 1.56467 9.87873 1.53487 9.87078C1.47499 9.88923 1.42114 9.90103 1.36735 9.90595Z" fill="#003383"/>
<path d="M62.8551 5.60322L62.867 5.60366L62.9329 5.58491L62.8551 5.60322Z" fill="#003383"/>
<path d="M61.1377 5.51786L61.5023 5.48361C61.3769 5.47917 61.2574 5.48841 61.1377 5.51786Z" fill="#003383"/>
<path d="M0.826725 9.30008L0.341891 9.4017C0.50341 9.37954 0.66504 9.34332 0.826725 9.30008Z" fill="#003383"/>
<path d="M42.6518 6.43561L42.8191 6.42142C42.7654 6.41952 42.7056 6.42412 42.6518 6.43561Z" fill="#003383"/>
<path d="M147.905 3.60241L148.054 3.6214C148.072 3.60158 148.06 3.58751 147.905 3.60241Z" fill="#003383"/>
<path d="M135.83 6.06288C135.597 6.0544 135.37 6.08771 135.148 6.16976C135.381 6.17131 135.615 6.13821 135.83 6.06288Z" fill="#003383"/>
<path d="M133.687 6.16406L133.77 6.17331C133.74 6.1723 133.716 6.16507 133.687 6.16406Z" fill="#003383"/>
<path d="M147.411 6.09744L147.412 6.09007C147.406 6.08984 147.405 6.09721 147.405 6.09721L147.411 6.09744Z" fill="#003383"/>
<path d="M144.696 6.15163C144.636 6.13593 144.571 6.12002 144.505 6.11768C144.571 6.14037 144.63 6.14929 144.696 6.15163Z" fill="#003383"/>
<path d="M126.926 6.56578L126.915 6.55811L126.926 6.56578Z" fill="#003383"/>
<path d="M101.332 7.75503C103.899 7.68098 107.226 7.51768 109.78 7.53849C110.492 7.40607 111.22 7.33968 111.949 7.33877L112.042 7.53225L112.717 7.46418C112.991 7.52043 112.198 7.50142 112.687 7.57038L112.938 7.44731C112.991 7.51448 114.681 7.47831 113.546 7.62717L116.178 7.60875C116.763 7.60929 116.514 7.44665 117.158 7.49073C117.289 7.54843 116.931 7.53122 116.984 7.59838C118.922 7.72486 119.208 7.20988 121.01 7.28442L120.854 7.3093C121.159 7.2534 121.744 7.25989 121.75 7.23031C121.513 7.03828 121.427 7.33327 120.879 7.22672C120.922 7.06137 121.56 7.13502 121.52 7.00871C121.866 7.0315 122.212 7.01263 122.559 6.96399C123.19 7.06722 124.086 6.98823 124.563 7.11634C124.988 6.99277 125.424 6.91718 125.866 6.89536C126.342 7.02347 125.757 7.01698 126.402 7.06701L126.504 6.97497C127.029 6.98553 126.951 7.01285 126.933 7.05991C127.321 7.00068 127.715 6.97736 128.109 6.98974L127.714 7.0845C128.24 7.04744 128.449 7.05997 129.183 7.07115C129.17 7.12434 128.878 7.1211 128.663 7.10839C129.062 7.24596 129.338 7.04627 129.553 7.05898C129.494 7.01543 128.987 6.99948 129.232 6.90599C129.596 6.92339 129.997 6.77525 130.259 6.8847L129.864 6.97945C130.277 6.89121 130.707 6.86306 131.13 6.89425C131.083 6.8987 131.106 6.92326 131.088 6.9465C131.775 6.8788 132.474 6.87696 133.165 6.94039L133.01 6.96528C133.338 6.93393 133.512 6.85009 133.691 6.85572C133.226 6.79942 133.352 6.7736 133.311 6.683C133.924 6.83923 134.238 6.49781 135.24 6.58887C135.227 6.64206 134.988 6.71193 134.708 6.65549C134.419 6.86077 134.084 6.99311 133.726 7.02947C134.102 6.99367 134.55 6.96608 134.454 7.03451L134.568 6.88331C134.795 6.87854 134.98 6.89031 135.153 6.88385C135.25 6.79162 134.689 6.73231 135.215 6.66549C135.813 6.61284 135.536 6.81849 135.626 6.74987C136.45 6.68649 135.962 6.58777 136.755 6.63654C136.66 6.65735 136.558 6.66606 136.457 6.66287C137.023 6.72237 137.854 6.62941 138.019 6.81324C137.929 6.88185 137.815 6.914 137.708 6.89276L137.714 6.86319C137.092 6.99843 138.234 6.82595 138.041 6.99256C137.994 6.89582 138.794 6.92097 139.152 6.93818L139.034 6.82729C140.224 6.50155 138.972 7.04565 140.154 7.00543C140.907 6.93384 139.868 6.97261 140.328 6.89778C140.805 6.96041 141.288 6.98752 141.772 6.97297C141.98 7.01525 142.404 7.07619 142.444 7.20251C142.987 7.21959 143.531 7.20095 144.074 7.14065C143.299 7.03292 143.309 7.27139 142.403 7.10595L142.655 6.98884C143.282 6.99664 144.076 6.93828 144.512 6.98174C144.422 6.95511 144.387 6.92423 144.441 6.90211C145.104 6.82175 145.779 6.77749 146.453 6.77489C146.572 6.88578 146.065 6.86388 145.694 6.87605C146.177 6.92101 146.661 6.93622 147.144 6.92166C147.191 7.0184 146.559 6.91517 146.463 7.0074L147.424 6.9781C147.418 6.98386 147.424 6.99 147.424 6.99596C147.563 6.83361 148.158 7.01309 148.744 6.96601C149.549 6.96159 150.344 6.84965 151.11 6.62368C151.319 6.66596 151.378 6.7095 151.294 6.74854C150.955 6.67832 151.014 6.73377 150.894 6.77168C151.366 6.75675 151.925 6.9351 151.662 6.99827C152.409 6.95031 151.394 6.91245 151.848 6.86124L152.869 6.87548C152.744 6.79415 152.386 6.77099 152.912 6.71013C153.36 6.68849 153.575 6.70715 154.154 6.71345C154.07 6.75249 154.337 6.83832 153.902 6.83057C154.2 6.87567 154.504 6.86143 154.792 6.78711C154.154 6.7075 155.837 6.71877 155.36 6.59066L155.998 6.67026C155.855 6.66576 155.837 6.72472 155.622 6.70606C155.806 6.83092 156.142 6.67477 156.363 6.66386C156.649 6.67287 156.935 6.70568 157.221 6.75636C157.484 6.72295 157.752 6.7433 158.008 6.81685C158.307 6.79647 158.033 6.73427 158.117 6.69523L159.137 6.71542C159.191 6.78854 159.278 6.97588 159.129 7.00094C159.511 6.94153 159.262 6.79674 159.847 6.80919C159.517 6.94172 160.616 6.91673 160.137 7.07433C160.739 7.17067 161.347 7.19577 161.945 7.14906C162.268 7.0461 161.378 7.08361 161.409 6.97741C162.884 6.95234 162.97 6.6514 164.05 6.70919L163.77 6.67656C164.104 6.66921 164.439 6.62615 164.762 6.547C164.575 6.67809 165.534 6.91664 166.639 6.89779C166.729 6.82918 166.019 6.76517 166.199 6.65771L166.933 6.64509C166.987 6.65868 166.903 6.67986 166.814 6.6949C167.47 6.65007 168.041 6.88238 168.234 6.72172L168.906 6.92745L168.639 6.84162C168.961 6.78033 169.29 6.74899 169.624 6.73569C170.102 6.67333 170.592 6.70062 171.068 6.81683C170.937 6.75913 170.61 6.62976 171.201 6.61263C171.199 6.83286 172.448 6.70543 172.429 6.81796C172.668 6.81951 173.097 6.89255 173.121 6.80402L173.084 6.93979C173.14 6.75101 174.011 6.77246 174.68 6.74586C174.528 7.00307 175.414 6.73919 175.716 6.97495C175.843 6.80032 176.905 6.92302 177.019 6.77778C177.533 6.77606 177.483 6.94122 177.614 6.99892L177.853 6.935C178.115 7.02064 179.082 7.0451 179.66 7.11092L180.193 6.96096L180.389 7.03263C180.473 6.9936 180.921 6.97791 180.641 6.91552L180.927 6.93048C180.953 6.76457 181.334 6.88967 181.913 6.82455C182.05 6.85267 182.014 6.89321 181.889 6.91308C182.175 6.92209 182.055 7.00167 182.215 7.06031C182.007 7.01207 183.257 6.77154 182.476 6.68148C182.423 6.61431 182.877 6.56906 183.163 6.60188L183.334 6.75613L183.676 6.60016C184.01 6.61067 184.344 6.65094 184.672 6.70889C184.302 6.71511 183.852 6.98674 184.806 6.99891C184.466 7.01798 184.132 7.05508 183.803 7.12214C183.999 7.13429 184.101 7.14938 183.79 7.2051C184.536 7.16904 184.041 7.11774 184.776 7.10512C184.733 7.24071 184.941 7.28894 185.585 7.34493L185.103 7.24044C185.133 7.22352 185.163 7.21255 185.193 7.20159C185.008 7.18387 184.96 7.15855 184.919 7.10962C185.062 7.11413 185.774 6.95194 185.892 7.03903C185.148 6.81319 187.183 6.89505 186.713 6.76118C186.928 6.71436 187.155 6.72745 187.363 6.79354C186.747 6.8873 187.827 6.95699 187.725 7.04903C187.952 7.0145 187.242 6.93859 187.547 6.89459C187.834 6.9036 188.114 6.94219 188.388 7.02225L188.232 7.04713L188.798 7.11853C188.889 7.04992 188.251 6.98817 188.77 6.96879C188.907 7.00287 189.432 6.97772 189.414 7.03072C189.163 7.11808 189.346 7.2489 188.899 7.25863C189.269 7.25836 190.444 7.27153 189.968 7.13151L190.41 7.1454C190.136 7.0832 189.361 6.95761 190.244 6.96158L190.238 6.9971L190.854 6.9093L191.122 6.98917C191.116 6.95327 191.212 6.92651 191.438 6.93364C191.498 6.97719 191.712 6.99585 191.694 7.04886C192.356 7.05779 192.303 6.98467 192.387 6.95158C192.757 6.95132 192.894 6.97944 192.721 7.05733C193.299 7.06363 193.878 7.10565 194.456 7.17147C195.137 7.1274 194.319 7.1374 194.714 7.05455C195.297 7.30508 196.951 7.20231 198.055 7.19537C197.753 6.97747 198.36 7.18114 198.559 6.9909C198.319 7.04887 199.607 7.1787 198.64 7.21377L199.231 7.20854C199.636 7.3344 198.252 7.27299 198.865 7.44113C199.486 7.35947 200.113 7.31965 200.74 7.32746C200.476 7.468 201.343 7.29284 201.145 7.44736C200.947 7.48283 200.75 7.49449 200.548 7.48216L200.685 7.51624C202.134 7.59161 201.104 7.35081 201.869 7.26769C202.752 7.27166 202.566 7.40275 202.619 7.46991C202.893 7.4964 203.162 7.49295 203.437 7.45396C202.899 7.53231 202.441 7.33928 202.687 7.25174C203.199 7.36907 203.73 7.36197 204.239 7.23507C202.975 7.02861 203.361 7.20748 202.182 6.98579C202.02 7.03429 202.043 7.18385 201.333 7.10795C201.781 7.04464 201.304 7.02367 201.179 6.99592C201.315 7.08357 200.683 7.02201 200.468 7.05097C200.272 6.97335 200.894 6.86192 200.172 6.80944L200.033 7.01346C199.753 6.97487 200.153 6.8684 199.55 6.90302C199.873 6.80601 199.45 6.73316 200.268 6.72316C199.297 6.5259 198.781 6.78357 198.023 6.83711C198.101 6.82764 198.107 6.79807 198.184 6.78861C197.963 6.82928 197.736 6.84595 197.51 6.83287C197.015 6.77562 197.904 6.75002 197.774 6.69232L196.968 6.67889C196.95 6.67237 196.95 6.66642 196.95 6.66642C196.789 6.70302 196.621 6.69776 196.461 6.65103C196.7 6.59306 196.796 6.52464 196.958 6.47613L196.115 6.59847C196.205 6.53581 195.418 6.46342 196.021 6.42881L194.768 6.4251L194.662 6.28482C194.363 6.3052 194.351 6.32863 194.715 6.35199C194.285 6.30871 192.815 6.54825 193.044 6.28157C192.058 6.36965 191.707 6.31691 190.519 6.35694C191.433 6.2547 189.47 6.16914 190.437 6.13407C190.055 6.11611 189.673 6.13981 189.302 6.21746C188.885 6.15075 189.071 6.01966 189.525 5.98036L188.994 6.02913L189.006 5.99974L188.546 6.06862C188.057 5.98775 188.446 5.92853 187.938 5.90067L187.83 6.02229L187.484 5.94593C187.615 6.00363 187.311 6.02382 186.946 6.03022L186.953 6.00065L186.505 6.01633C186.947 5.94689 186.099 5.98571 186.297 5.89667C185.915 5.88466 185.909 5.88447 185.217 5.89841L185.335 5.9855C184.433 6.04644 185.295 5.85918 184.567 5.84224L184.613 5.93898C183.565 5.76308 182.834 6.00209 182.053 5.88821C182.501 5.87253 182.383 5.76163 182.377 5.78526C181.708 5.81185 180.616 5.7656 179.929 5.87496C179.614 5.6924 179.257 5.60376 178.904 5.61649C178.391 5.61821 178.313 5.62767 178.146 5.70575C177.656 5.71417 177.167 5.68092 176.678 5.61196C176.564 5.69172 176.225 5.58578 175.955 5.65472L175.896 5.61118L175.943 5.70791C175.056 5.47757 174.444 5.80366 173.544 5.60865L173.7 5.58377L173.324 5.61361C173.264 5.57007 173.414 5.545 173.432 5.49199L171.678 5.44871L172.023 5.52507C171.683 5.5739 171.33 5.58068 170.984 5.55789C171.684 5.41914 170.4 5.54545 170.287 5.43474L170.664 5.39894C170.15 5.40066 170.15 5.40066 170.191 5.49721C169.522 5.52381 169.733 5.31014 169.118 5.40985L169.559 5.41779C169.69 5.47549 169.373 5.54888 169.08 5.54563C169.009 5.53147 168.806 5.48343 169.027 5.47251C168.502 5.50361 167.715 5.44908 167.481 5.48342C167.195 5.4506 167.291 5.38218 167.441 5.35711C166.318 5.43492 166.934 5.3352 165.811 5.40706L165.829 5.35405L165.429 5.43671L164.875 5.31807L165.071 5.38974C164.73 5.41475 164.384 5.41577 164.044 5.39912L164.218 5.32123C163.179 5.36 163.014 5.17617 162.028 5.2821C161.962 5.26813 162.112 5.24307 162.19 5.22765C161.275 5.34774 161.493 5.07474 160.578 5.22459C160.632 5.19652 160.531 5.16356 160.567 5.14088L160.149 5.18726L160.179 5.08106L159.838 5.23703L159.576 5.12758L159.415 5.17608C158.969 4.96558 158.335 5.1183 157.721 4.95611L157.828 5.09639C156.285 5.36344 154.29 4.90771 152.42 5.03943L152.451 4.93323L151.68 5.05782C151.263 4.97326 151.926 4.96433 151.795 4.90663C150.971 4.96406 151.453 5.06855 150.498 5.09804C150.009 5.02312 150.666 5.01996 150.899 4.97966C149.949 5.05101 148.994 5.06859 148.039 5.02666C148.027 5.03819 147.985 5.06068 148.021 5.06776C147.424 5.11447 146.63 5.06569 145.968 5.06867C145.98 5.02142 146.148 5.00882 146.309 5.00199C146.052 4.97606 145.796 4.97989 145.545 5.00772L145.79 4.91423C145.259 4.95109 144.722 4.9342 144.191 4.86393C144.25 4.90747 144.232 4.99024 143.79 4.9823C143.547 4.81389 142.596 5.0519 141.892 4.95833C141.976 4.91929 142.49 4.91162 142.346 4.90712C142.018 4.88489 141.69 4.91623 141.367 4.98943L141.463 4.921L139.827 5.01243C139.583 4.84402 138.28 5.03524 138.389 4.91362C137.804 4.90713 138.884 4.98872 138.143 5.00711C137.947 4.93545 137.475 5.04562 137.505 4.93346L137.583 4.91804L137.064 4.92552L137.387 4.81661C136.945 4.83844 136.616 4.94716 136.597 5.02993C136.191 5.02312 135.786 4.9925 135.381 4.92616L135.536 4.90128C134.354 4.94745 133.569 4.61315 132.642 4.79834C132.571 4.78419 132.583 4.7548 132.726 4.7593L131.992 4.76003L132.166 4.67618L130.959 4.80493L130.971 4.75174C130.172 4.73254 128.924 4.76474 127.891 4.78584L128.047 4.76096C126.924 4.85067 126.961 4.71489 126.142 4.77251C126.166 4.76135 126.196 4.75039 126.226 4.75133L125.486 4.75781L125.648 4.70336C125.236 4.72612 124.83 4.7074 124.419 4.65279C124.102 4.6845 123.791 4.74617 123.492 4.83798C122.686 4.84835 123.295 4.76631 122.794 4.72673C122.305 4.76491 121.815 4.77928 121.32 4.76965L121.332 4.71646C120.962 4.72863 120.735 4.76912 120.221 4.77678L120.377 4.7519C119.54 4.87443 119.328 4.59982 118.675 4.84126C118.323 4.80043 117.654 4.83893 117.685 4.72677C116.64 4.80702 115.828 4.84101 114.795 4.89783C114.623 4.71977 114.574 4.90874 113.942 4.81146L113.989 4.9082C112.52 4.93345 110.827 4.70753 109.209 4.75785L109.162 4.66112L108.839 4.77003C107.096 4.73903 104.84 4.71569 103.45 4.72553C102.834 4.82524 102.213 4.87715 101.586 4.8753L101.664 4.85988C100.41 4.92761 99.0781 4.98694 97.7056 4.94377C97.7896 4.90473 97.6525 4.8766 97.802 4.84558C97.4374 4.90556 97.0673 4.91178 96.7037 4.85866L97.0492 4.92907C96.6665 5.00039 96.2728 4.98205 95.8978 4.87499L95.2819 4.98661C95.2402 4.97934 95.1747 4.96537 95.1689 4.94733L95.061 4.99752L94.7279 4.87392C94.3158 4.89668 93.9093 4.96129 93.5084 5.06777C93.4492 5.02422 92.8704 5.00006 93.3183 4.97247L91.0622 4.96105L91.414 5.00188C91.4609 5.09862 90.7858 5.1667 90.434 5.12586C90.8884 5.04489 90.4651 4.9899 90.2688 4.91823C89.9639 4.97413 90.5366 4.9981 90.381 5.05274C89.9207 5.12757 89.4489 5.14846 88.9776 5.12173L89.2048 5.08124C88.6852 5.12443 88.436 4.95584 87.9226 4.96946C87.4623 5.05024 87.1167 4.98578 87.2166 5.14969C86.5477 5.19414 86.955 5.04024 86.7402 5.02753C86.2859 5.10255 85.8205 5.08791 85.3678 4.99031C85.0073 5.24095 83.5598 4.92749 83.4326 5.13188L82.8785 5.02513C82.866 5.07833 82.7574 5.2059 82.3155 5.23368C81.8922 5.17869 81.9886 5.0805 81.8637 5.02894L81.5873 5.23459C79.1597 5.05105 75.9765 5.24267 73.3158 5.09944C72.1335 5.15751 70.6461 5.27744 69.2674 5.26979L69.4169 5.23877L68.0444 5.2075L69.0465 5.2807C68.7478 5.30703 68.5146 5.35328 68.228 5.35618C66.4323 5.26397 64.6416 5.26718 62.8501 5.36563C61.6599 5.61994 62.0461 5.17363 60.8983 5.36377C60.994 5.34297 61.0301 5.30838 61.1199 5.28143C59.8835 5.37948 59.2145 5.42989 57.9775 5.58746C58.111 5.3535 57.1716 5.60379 57.2742 5.48198L57.1718 5.57998C56.8917 5.52949 56.2412 5.52094 56.3314 5.45232L55.7871 5.5781L55.7342 5.48117C55.006 5.48803 53.4531 5.59994 53.0609 5.40899C51.2686 5.59077 48.4273 5.60261 46.1711 5.60904C45.6809 5.68889 45.1851 5.73283 44.6837 5.72897L44.1296 5.62223C43.6154 5.71918 43.0957 5.76833 42.5705 5.76371C42.5706 5.75181 42.5946 5.74066 42.6245 5.73564C42.1112 5.72545 41.5976 5.76288 41.0895 5.83621C40.5046 5.84163 39.938 5.79403 40.1121 5.68638C40.0626 5.87535 38.8765 5.68919 38.8765 5.68919C38.8765 5.68919 31.4031 5.74586 23.0149 5.97023C14.6206 6.20036 5.3235 6.60454 1.69424 7.27035C1.4187 7.37481 0.671602 7.4823 0.981107 7.57539C0.413407 7.64685 0.104346 7.50614 0.0138953 7.60451C0.807674 7.61162 -0.149607 7.85539 0.625715 7.92146L0.159621 7.97825C0.0813819 8.04723 0.775447 7.86663 0.69074 7.989L0.787937 7.80748C1.03877 7.79155 1.28917 7.82325 1.53326 7.89047C1.95301 7.68337 2.4254 7.59106 2.90248 7.63583L2.67551 7.65251C3.33835 7.61977 3.0864 7.75475 3.22945 7.77711L3.08021 7.77837L3.64658 7.84977C3.2232 7.80668 2.52925 7.97538 2.89357 7.95112C3.68724 7.97013 2.685 7.91479 3.27629 7.87385C3.64658 7.84977 3.54419 7.94777 3.5317 8.00692L4.18858 7.97399C4.1699 8.05676 3.75276 7.9841 4.02663 8.05821L4.85141 7.94126C5.01665 8.14294 5.74797 7.8087 6.14018 7.9937C5.5427 8.05827 6.19924 8.06106 6.10309 8.12948L7.56596 8.07428C7.70303 8.09645 7.18323 8.15155 7.40424 8.13468C7.60706 8.14702 7.81022 8.12364 8.00177 8.06417C8.1326 8.11592 9.0944 8.02709 9.06323 8.16901C10.0594 8.23012 9.47088 7.97939 10.4015 8.03248C10.5261 8.11381 9.66696 8.07487 10.0841 8.14753L11.0516 8.0827C10.8955 8.18497 10.704 8.23253 10.5132 8.21462C13.1153 8.24289 14.5381 8.65084 16.9033 8.47517C17.2427 8.56325 16.6639 8.55099 16.4304 8.62105C18.1451 8.44278 18.8583 8.77483 20.3211 8.71962L20.3458 8.63704C22.3972 8.83851 24.8463 8.62976 27.1618 8.67283L26.8817 8.62234C27.2764 8.54544 27.6827 8.49868 28.0829 8.46959C28.1422 8.50718 27.8185 8.65181 28.4815 8.60121C28.3386 8.5729 28.0582 8.55217 28.1422 8.50718C30.1343 8.66511 34.3138 8.52269 37.5724 8.55375C41.9729 8.38852 46.7593 8.45572 51.0819 8.31781C50.4252 8.33883 50.6957 8.12704 51.1908 8.16643C52.5666 8.48359 53.5435 8.06181 54.9442 8.26663C57.4586 8.10161 59.7183 8.36917 62.0549 8.06162L62.1018 8.15836C62.3762 8.16699 62.645 8.15163 62.9139 8.11246L62.9077 8.14203C63.7789 8.16348 64.8246 8.04752 65.3256 8.0871L65.3505 7.97475C65.864 7.95518 65.6243 8.05482 66.1502 7.98205L66.1378 8.03524L66.7477 7.92344C66.6981 8.11241 68.2041 7.91567 68.6212 7.99428C69.2901 7.94983 70.5505 7.84658 71.565 7.86658C72.3043 7.94938 73.0501 7.98475 73.7903 7.97826C75.3307 7.93145 77.5337 7.86976 79.4974 7.87794L79.4567 7.75758L79.9701 7.74396C79.9639 7.77354 80.0354 7.78174 79.9577 7.79716C80.3623 7.93492 81.1401 7.73909 81.5512 7.81751C81.2896 7.70806 81.1932 7.80625 80.9007 7.80896C80.4774 7.75397 80.8785 7.62964 81.445 7.68318L81.4328 7.71257L81.8155 7.64125C81.8623 7.73799 82.2141 7.77882 82.2669 7.8698C83.9506 7.82154 85.0983 7.6433 86.835 7.6622C86.6609 7.76985 88.0829 7.6181 87.7409 7.80978C88.7861 7.72953 87.5632 7.66129 88.036 7.52136C88.3285 7.52461 88.6334 7.4687 88.6865 7.53587C88.5487 7.58512 88.9302 7.64475 88.6912 7.66701L89.3898 7.6473C89.4553 7.66127 89.3058 7.68634 89.2281 7.70176C90.6498 7.57976 91.752 7.79901 93.0245 7.67233C93.1147 7.60371 92.5173 7.65637 92.6075 7.58776C93.8862 7.43745 93.7465 7.69504 94.9412 7.58972L94.6957 7.68321C95.0787 7.57618 95.4848 7.54728 95.8842 7.60152C96.0025 7.71242 95.3461 7.69772 95.0412 7.75362C95.4769 7.75542 96.5815 7.71277 96.2422 7.61874C96.5766 7.59948 96.9106 7.62785 97.2442 7.69789C97.2504 7.66831 96.7554 7.62892 97.0603 7.57302C97.7761 7.62531 98.8744 7.61223 99.7459 7.61582C99.7396 7.64539 99.7989 7.68299 99.7272 7.69859C100.433 7.55407 100.365 7.80201 101.332 7.75503Z" fill="#003383"/>
<path d="M147.769 6.11994L147.417 6.10025C147.417 6.12786 147.404 6.16194 147.237 6.19039L147.769 6.11994Z" fill="#003383"/>
<path d="M131.089 6.33478C131.047 6.34034 131.005 6.35305 130.963 6.37288C131.047 6.36175 131.071 6.34837 131.089 6.33478Z" fill="#003383"/>
<path d="M127.039 6.6629C127.326 6.63069 127.069 6.59954 126.926 6.56549C126.92 6.59392 126.926 6.62281 127.039 6.6629Z" fill="#003383"/>
<path d="M157.21 5.61233C157.15 5.6246 157.114 5.64506 157.119 5.66711C157.203 5.64848 157.222 5.62734 157.21 5.61233Z" fill="#003383"/>
<path d="M183.327 5.59147L183.226 5.56689C183.262 5.58212 183.291 5.59016 183.327 5.59147Z" fill="#003383"/>
<path d="M181.88 5.37772C181.779 5.37423 181.683 5.38399 181.587 5.39375C181.689 5.39723 181.784 5.39399 181.88 5.37772Z" fill="#003383"/>
<path d="M150.883 5.75653C150.793 5.76017 150.698 5.77049 150.608 5.79479C150.703 5.79825 150.793 5.78083 150.883 5.75653Z" fill="#003383"/>
<path d="M181.289 5.43181L180.925 5.41329C180.919 5.41943 180.919 5.42578 180.918 5.43847L181.289 5.43181Z" fill="#003383"/>
<path d="M183.786 5.61178C183.643 5.60726 183.452 5.60123 183.327 5.59131C183.482 5.62009 183.637 5.62498 183.786 5.61178Z" fill="#003383"/>
<path d="M166.796 5.36182L166.754 5.36725C166.479 5.41286 166.652 5.39137 166.796 5.36182Z" fill="#003383"/>
<path d="M179.692 5.65772L179.645 5.64897L179.537 5.67998L179.692 5.65772Z" fill="#003383"/>
<path d="M185.361 5.66718C185.301 5.665 185.241 5.67671 185.181 5.68842L185.39 5.70993C185.367 5.68823 185.367 5.67434 185.361 5.66718Z" fill="#003383"/>
<path d="M172.266 5.51774C172.368 5.47059 172.404 5.43551 172.41 5.41386C172.29 5.41658 172.212 5.43549 172.266 5.51774Z" fill="#003383"/>
<g opacity="0.26">
<g opacity="0.26">
<g opacity="0.26">
<g opacity="0.26">
<path opacity="0.26" d="M176.668 3.84089C176.686 3.8268 176.698 3.80508 176.705 3.78313C176.674 3.80415 176.668 3.8261 176.668 3.84089Z" fill="#003383"/>
<path opacity="0.26" d="M160.579 3.53358L160.765 3.50577C160.705 3.5036 160.639 3.51502 160.579 3.53358Z" fill="#003383"/>
<path opacity="0.26" d="M186.308 4.00994C186.302 4.01502 186.29 4.01469 186.284 4.01977L186.964 4.0387L186.308 4.00994Z" fill="#003383"/>
<path opacity="0.26" d="M126.262 3.66284L126.477 3.65746C126.405 3.66133 126.334 3.65897 126.262 3.66284Z" fill="#003383"/>
<path opacity="0.26" d="M146.598 3.57937C146.508 3.60379 146.419 3.61436 146.323 3.61779C146.419 3.63513 146.514 3.61785 146.598 3.57937Z" fill="#003383"/>
<path opacity="0.26" d="M191.398 5.38165L191.124 5.28613C191.123 5.32875 191.224 5.36806 191.398 5.38165Z" fill="#003383"/>
<path opacity="0.26" d="M201.169 5.12605C201.163 5.11851 201.151 5.11075 201.145 5.10321C201.133 5.11736 201.145 5.12513 201.169 5.12605Z" fill="#003383"/>
<path opacity="0.26" d="M197.355 4.72764C197.271 4.73144 197.176 4.74161 197.08 4.75859C197.194 4.75586 197.343 4.76122 197.355 4.72764Z" fill="#003383"/>
<path opacity="0.26" d="M196.949 4.78025L197.08 4.7645C197.008 4.76192 196.949 4.76659 196.949 4.78025Z" fill="#003383"/>
<path opacity="0.26" d="M1.69452 9.10719C1.40155 9.1314 1.10829 9.19064 0.826753 9.27833L1.69452 9.10719Z" fill="#003383"/>
<path opacity="0.26" d="M95.1991 4.4754L95.2592 4.44141C95.1993 4.44638 95.1872 4.46043 95.1991 4.4754Z" fill="#003383"/>
<path opacity="0.26" d="M1.36733 9.91056L1.15848 9.90996C1.2241 9.91192 1.29569 9.91407 1.36733 9.91056Z" fill="#003383"/>
<path opacity="0.26" d="M186.221 5.60416C185.94 5.6794 185.361 5.5745 185.367 5.65309C185.659 5.64359 186.083 5.71047 186.221 5.60416Z" fill="#003383"/>
<path opacity="0.26" d="M88.7007 8.02573L88.5156 8.03221C88.6052 8.02887 88.6589 8.03067 88.7007 8.02573Z" fill="#003383"/>
<path opacity="0.26" d="M1.36735 9.90544L1.61222 9.90744C1.58845 9.89285 1.56468 9.87826 1.53488 9.87031C1.475 9.88874 1.42115 9.90052 1.36735 9.90544Z" fill="#003383"/>
<path opacity="0.26" d="M62.8551 5.60272L62.867 5.60317L62.9329 5.58443L62.8551 5.60272Z" fill="#003383"/>
<path opacity="0.26" d="M61.1377 5.51733L61.5022 5.48316C61.3769 5.4787 61.2574 5.48792 61.1377 5.51733Z" fill="#003383"/>
<path opacity="0.26" d="M0.826708 9.29966L0.341875 9.40114C0.503391 9.37902 0.665021 9.34285 0.826708 9.29966Z" fill="#003383"/>
<path opacity="0.26" d="M42.6518 6.43511L42.8191 6.42094C42.7654 6.41905 42.7056 6.42363 42.6518 6.43511Z" fill="#003383"/>
<path opacity="0.26" d="M147.905 3.60191L148.054 3.62092C148.072 3.60111 148.06 3.58705 147.905 3.60191Z" fill="#003383"/>
<path opacity="0.26" d="M135.83 6.06247C135.597 6.05396 135.37 6.08723 135.148 6.16919C135.381 6.17077 135.614 6.13773 135.83 6.06247Z" fill="#003383"/>
<path opacity="0.26" d="M133.687 6.16357L133.77 6.17282C133.74 6.17181 133.716 6.16459 133.687 6.16357Z" fill="#003383"/>
<path opacity="0.26" d="M147.411 6.09696L147.411 6.08959C147.405 6.08936 147.405 6.09672 147.405 6.09672L147.411 6.09696Z" fill="#003383"/>
<path opacity="0.26" d="M144.696 6.15114C144.636 6.13545 144.571 6.11954 144.505 6.11719C144.571 6.13988 144.63 6.14879 144.696 6.15114Z" fill="#003383"/>
<path opacity="0.26" d="M126.926 6.56529L126.915 6.55762L126.926 6.56529Z" fill="#003383"/>
<path opacity="0.26" d="M101.332 7.75419C103.899 7.68031 107.226 7.51726 109.78 7.53817C110.492 7.40587 111.22 7.33956 111.949 7.33868L112.042 7.53204L112.717 7.46404C112.991 7.52027 112.198 7.50123 112.686 7.57017L112.938 7.44719C112.991 7.51432 114.681 7.47825 113.545 7.62696L116.178 7.60868C116.763 7.60925 116.514 7.4467 117.158 7.49078C117.289 7.54845 116.931 7.53123 116.984 7.59835C118.922 7.72484 119.208 7.2102 121.01 7.28478L120.854 7.30963C121.159 7.25378 121.744 7.26029 121.75 7.23074C121.513 7.03882 121.427 7.33362 120.879 7.22711C120.922 7.06186 121.56 7.1355 121.52 7.00927C121.866 7.03206 122.212 7.01321 122.559 6.96462C123.19 7.06781 124.086 6.98892 124.563 7.11697C124.988 6.99349 125.424 6.91798 125.866 6.89619C126.342 7.02424 125.757 7.01772 126.401 7.06775L126.504 6.97577C127.029 6.98635 126.951 7.01365 126.933 7.06068C127.321 7.00151 127.715 6.97821 128.109 6.99061L127.714 7.08529C128.24 7.04828 128.449 7.0608 129.183 7.07201C129.17 7.12517 128.878 7.12192 128.663 7.10921C129.062 7.24671 129.338 7.04716 129.553 7.05987C129.494 7.01635 128.987 7.00038 129.232 6.90696C129.596 6.92437 129.997 6.77634 130.259 6.88573L129.864 6.98041C130.277 6.89225 130.707 6.86413 131.13 6.89531C131.083 6.89976 131.106 6.9243 131.088 6.94754C131.775 6.87991 132.474 6.8781 133.165 6.94153L133.01 6.96638C133.338 6.93508 133.512 6.8513 133.691 6.85693C133.226 6.80064 133.352 6.77484 133.311 6.6843C133.924 6.84047 134.238 6.49927 135.24 6.59032C135.227 6.64348 134.988 6.71329 134.708 6.65688C134.419 6.862 134.084 6.99425 133.725 7.03057C134.102 6.99481 134.55 6.96726 134.454 7.03564L134.568 6.88455C134.795 6.87979 134.98 6.89156 135.153 6.88511C135.25 6.79294 134.689 6.73364 135.215 6.6669C135.813 6.6143 135.536 6.8198 135.626 6.75124C136.451 6.68793 135.962 6.58925 136.755 6.63803C136.66 6.65882 136.558 6.66752 136.457 6.66433C137.023 6.72381 137.854 6.63096 138.019 6.81467C137.929 6.88323 137.815 6.91536 137.708 6.89413L137.714 6.86458C137.092 6.9997 138.234 6.82738 138.041 6.99388C137.994 6.8972 138.794 6.92237 139.152 6.93959L139.034 6.82876C140.225 6.50328 138.972 7.04697 140.154 7.00684C140.907 6.93533 139.868 6.97403 140.328 6.89927C140.805 6.96188 141.288 6.98899 141.772 6.97447C141.98 7.01673 142.404 7.07766 142.444 7.20389C142.987 7.22099 143.531 7.20239 144.074 7.14215C143.299 7.03446 143.309 7.27277 142.403 7.1074L142.655 6.99037C143.282 6.9982 144.076 6.93991 144.511 6.98336C144.422 6.95675 144.387 6.92588 144.441 6.90378C145.104 6.8235 145.779 6.7793 146.453 6.77673C146.572 6.88756 146.064 6.86565 145.694 6.87779C146.177 6.92275 146.661 6.93797 147.144 6.92344C147.191 7.02012 146.559 6.91693 146.463 7.0091L147.424 6.97986C147.418 6.98562 147.424 6.99175 147.424 6.9977C147.563 6.83547 148.158 7.01486 148.743 6.96784C149.549 6.96345 150.344 6.85162 151.11 6.62583C151.319 6.6681 151.378 6.71162 151.294 6.75062C150.955 6.68043 151.014 6.73585 150.894 6.77373C151.366 6.75883 151.925 6.93709 151.662 7.00021C152.408 6.95231 151.394 6.91443 151.848 6.86327L152.869 6.87755C152.744 6.79627 152.386 6.7731 152.912 6.71231C153.36 6.6907 153.575 6.70936 154.154 6.71569C154.07 6.7547 154.337 6.84048 153.902 6.83272C154.2 6.8778 154.504 6.86359 154.792 6.78932C154.154 6.70974 155.837 6.72107 155.36 6.59302L155.998 6.67261C155.855 6.6681 155.837 6.72702 155.622 6.70836C155.806 6.83316 156.142 6.67712 156.362 6.66622C156.649 6.67524 156.935 6.70805 157.221 6.75871C157.484 6.72533 157.752 6.74568 158.008 6.81919C158.307 6.79884 158.033 6.73667 158.117 6.69766L159.137 6.71788C159.19 6.79095 159.278 6.97818 159.129 7.00322C159.511 6.94386 159.262 6.79916 159.847 6.81162C159.517 6.94405 160.616 6.91913 160.137 7.07661C160.739 7.17291 161.347 7.19802 161.945 7.15137C162.268 7.0485 161.378 7.08594 161.409 6.97981C162.884 6.95482 162.97 6.65408 164.05 6.71188L163.77 6.67925C164.104 6.67193 164.439 6.62891 164.762 6.54983C164.575 6.68082 165.534 6.91926 166.638 6.90048C166.729 6.83191 166.019 6.76792 166.199 6.66053L166.933 6.64795C166.987 6.66153 166.903 6.6827 166.813 6.69773C167.47 6.65296 168.041 6.88514 168.234 6.72459L168.906 6.93022L168.639 6.84444C168.961 6.7832 169.29 6.75189 169.624 6.73862C170.102 6.67631 170.592 6.70362 171.068 6.81977C170.937 6.7621 170.61 6.6328 171.201 6.6157C171.199 6.8358 172.448 6.7085 172.429 6.82096C172.668 6.82252 173.097 6.89553 173.121 6.80706L173.084 6.94275C173.14 6.75409 174.011 6.77556 174.68 6.74901C174.528 7.00605 175.414 6.74238 175.716 6.978C175.843 6.80349 176.904 6.92616 177.019 6.78101C177.533 6.77932 177.483 6.94438 177.614 7.00205L177.853 6.93818C178.115 7.02377 179.082 7.04826 179.66 7.11407L180.193 6.96423L180.389 7.03586C180.473 6.99685 180.921 6.9812 180.641 6.91883L180.927 6.9338C180.953 6.76799 181.334 6.89304 181.913 6.82798C182.05 6.85609 182.014 6.89661 181.888 6.91645C182.175 6.92547 182.055 7.00499 182.215 7.0636C182.007 7.01539 183.257 6.77507 182.476 6.68503C182.423 6.6179 182.877 6.57269 183.163 6.60551L183.334 6.75967L183.676 6.60382C184.01 6.61433 184.344 6.6546 184.672 6.71252C184.302 6.71872 183.851 6.99015 184.806 7.00236C184.466 7.0214 184.131 7.05847 183.802 7.12547C183.999 7.13761 184.101 7.15271 183.79 7.20837C184.536 7.17237 184.041 7.12108 184.775 7.1085C184.732 7.244 184.941 7.29221 185.585 7.34819L185.102 7.24375C185.132 7.22684 185.162 7.21588 185.192 7.20493C185.008 7.18721 184.96 7.16191 184.919 7.11301C185.062 7.11752 185.774 6.95547 185.892 7.0425C185.148 6.81677 187.183 6.89868 186.713 6.76487C186.928 6.71809 187.155 6.73118 187.363 6.79724C186.747 6.89091 187.827 6.9606 187.725 7.05259C187.952 7.01808 187.242 6.94219 187.547 6.89824C187.833 6.90725 188.114 6.94583 188.387 7.02585L188.232 7.05071L188.798 7.12209C188.888 7.05352 188.25 6.99179 188.77 6.97244C188.907 7.0065 189.432 6.98139 189.414 7.03436C189.162 7.12165 189.346 7.25239 188.898 7.2621C189.268 7.26185 190.444 7.27506 189.968 7.13511L190.41 7.14902C190.136 7.08684 189.361 6.96129 190.244 6.9653L190.238 7.0008L190.854 6.91308L191.121 6.99291C191.116 6.95704 191.212 6.9303 191.438 6.93744C191.498 6.98096 191.712 6.99961 191.694 7.05259C192.356 7.06154 192.303 6.98847 192.387 6.95541C192.757 6.95516 192.894 6.98327 192.72 7.0611C193.299 7.06743 193.878 7.10944 194.456 7.17525C195.137 7.13124 194.319 7.14119 194.714 7.05841C195.296 7.30881 196.951 7.20619 198.055 7.1993C197.753 6.98152 198.36 7.18509 198.558 6.99499C198.319 7.05291 199.607 7.18271 198.64 7.21771L199.231 7.21251C199.635 7.33831 198.251 7.27688 198.864 7.44494C199.486 7.36335 200.113 7.32359 200.74 7.33142C200.476 7.47187 201.343 7.29686 201.144 7.45127C200.947 7.48671 200.75 7.49836 200.547 7.48602L200.684 7.52008C202.134 7.59547 201.104 7.35478 201.868 7.27175C202.752 7.27576 202.565 7.40675 202.619 7.47387C202.893 7.50036 203.161 7.49692 203.436 7.45797C202.898 7.53624 202.441 7.34332 202.686 7.25585C203.198 7.37313 203.73 7.36605 204.238 7.23925C202.975 7.03287 203.361 7.21164 202.182 6.99004C202.02 7.03851 202.042 7.18797 201.333 7.11208C201.781 7.04884 201.304 7.02786 201.179 7.00012C201.315 7.08772 200.683 7.02617 200.468 7.0551C200.272 6.97752 200.893 6.86619 200.172 6.81372L200.032 7.01759C199.752 6.97902 200.153 6.87264 199.55 6.9072C199.873 6.81027 199.45 6.73745 200.268 6.72749C199.297 6.53032 198.781 6.78779 198.023 6.84126C198.1 6.83181 198.107 6.80226 198.184 6.7928C197.963 6.83344 197.736 6.85009 197.509 6.83701C197.015 6.77978 197.904 6.75423 197.773 6.69656L196.968 6.6831C196.95 6.67658 196.95 6.67064 196.95 6.67064C196.788 6.7072 196.621 6.70194 196.461 6.65523C196.7 6.59731 196.796 6.52894 196.958 6.48047L196.115 6.6027C196.205 6.54008 195.418 6.4677 196.021 6.43313L194.768 6.42938L194.662 6.28918C194.363 6.30953 194.351 6.33295 194.715 6.3563C194.285 6.31304 192.815 6.55235 193.044 6.28586C192.058 6.37383 191.707 6.32111 190.519 6.36106C191.433 6.25893 189.47 6.17334 190.437 6.13834C190.055 6.12037 189.673 6.14403 189.302 6.22161C188.885 6.15493 189.071 6.02394 189.525 5.98468L188.994 6.03339L189.006 6.00402L188.546 6.07284C188.057 5.992 188.446 5.93283 187.939 5.90497L187.83 6.0265L187.484 5.95017C187.615 6.00784 187.311 6.028 186.946 6.03439L186.953 6.00484L186.505 6.02049C186.947 5.95111 186.099 5.98987 186.297 5.90089C185.915 5.88887 185.909 5.88868 185.217 5.90258L185.335 5.98962C184.433 6.05048 185.295 5.86339 184.567 5.84642L184.614 5.9431C183.565 5.76727 182.834 6.00609 182.053 5.89225C182.501 5.8766 182.383 5.76577 182.377 5.78937C181.708 5.81592 180.616 5.76965 179.929 5.87891C179.614 5.69645 179.257 5.60785 178.905 5.62056C178.391 5.62225 178.314 5.6317 178.146 5.70972C177.656 5.71811 177.167 5.68486 176.678 5.61592C176.564 5.69563 176.225 5.58975 175.956 5.65863L175.896 5.61511L175.943 5.71179C175.056 5.48155 174.444 5.8074 173.545 5.61248L173.7 5.58762L173.324 5.61742C173.265 5.5739 173.414 5.54886 173.432 5.49589L171.678 5.45256L172.023 5.52888C171.683 5.57766 171.331 5.58442 170.985 5.56163C171.684 5.423 170.4 5.54917 170.287 5.43853L170.664 5.40277C170.15 5.40446 170.15 5.40446 170.191 5.50096C169.523 5.5275 169.734 5.31399 169.118 5.41361L169.559 5.42156C169.69 5.47923 169.373 5.55255 169.081 5.54929C169.009 5.53514 168.807 5.48712 169.028 5.47622C168.502 5.50728 167.715 5.45274 167.482 5.48705C167.195 5.45424 167.292 5.38587 167.441 5.36082C166.318 5.43852 166.934 5.3389 165.811 5.41066L165.83 5.35769L165.429 5.44028L164.875 5.32168L165.071 5.39332C164.731 5.4183 164.385 5.4193 164.044 5.40264L164.218 5.32481C163.179 5.36351 163.014 5.17979 162.028 5.28561C161.963 5.27165 162.112 5.24661 162.19 5.2312C161.275 5.35117 161.493 5.07836 160.578 5.22807C160.632 5.20002 160.531 5.16708 160.567 5.14441L160.149 5.19075L160.18 5.08462L159.838 5.24047L159.576 5.13108L159.415 5.17954C158.969 4.96915 158.335 5.12175 157.722 4.95963L157.828 5.09983C156.285 5.36663 154.29 4.9111 152.421 5.04266L152.452 4.93652L151.68 5.061C151.263 4.97647 151.926 4.96758 151.795 4.90991C150.971 4.96727 151.454 5.07171 150.498 5.10114C150.01 5.02625 150.666 5.02312 150.899 4.98286C149.95 5.05411 148.994 5.07165 148.04 5.02969C148.028 5.04121 147.986 5.06369 148.022 5.07077C147.424 5.11742 146.631 5.06864 145.968 5.07158C145.981 5.02437 146.148 5.01178 146.309 5.00496C146.053 4.97904 145.796 4.98286 145.545 5.01066L145.791 4.91723C145.259 4.95405 144.722 4.93715 144.192 4.86689C144.251 4.91041 144.232 4.99312 143.791 4.98517C143.547 4.81686 142.596 5.05467 141.893 4.96112C141.977 4.92212 142.49 4.91448 142.347 4.90997C142.019 4.88774 141.69 4.91905 141.367 4.99218L141.463 4.92381L139.827 5.0151C139.584 4.84679 138.281 5.03783 138.389 4.91629C137.805 4.90978 138.884 4.99137 138.144 5.00971C137.948 4.93808 137.475 5.04816 137.506 4.93608L137.584 4.92067L137.064 4.92812L137.388 4.8193C136.946 4.84109 136.616 4.94972 136.598 5.03244C136.192 5.02561 135.786 4.995 135.381 4.92869L135.537 4.90383C134.354 4.94991 133.57 4.61579 132.643 4.80082C132.571 4.78667 132.583 4.7573 132.727 4.76181L131.992 4.7625L132.166 4.67872L130.959 4.80733L130.972 4.75417C130.172 4.73495 128.924 4.76707 127.892 4.78811L128.047 4.76325C126.924 4.85285 126.961 4.71716 126.143 4.77471C126.167 4.76356 126.197 4.7526 126.227 4.75354L125.487 4.75999L125.648 4.70558C125.236 4.72831 124.83 4.70958 124.419 4.65498C124.102 4.68667 123.792 4.74828 123.492 4.84001C122.686 4.85034 123.296 4.76838 122.795 4.72881C122.305 4.76694 121.816 4.78128 121.32 4.77163L121.333 4.71847C120.962 4.73062 120.735 4.77107 120.222 4.77871L120.377 4.75385C119.541 4.87626 119.328 4.60182 118.675 4.84308C118.324 4.80225 117.655 4.8407 117.686 4.72861C116.64 4.80876 115.828 4.8427 114.795 4.89943C114.624 4.72147 114.574 4.91032 113.942 4.81308L113.989 4.90976C112.521 4.93493 110.828 4.70907 109.21 4.75929L109.163 4.66261L108.84 4.77144C107.097 4.74038 104.841 4.71696 103.45 4.72673C102.834 4.82635 102.213 4.87819 101.587 4.87631L101.664 4.86091C100.41 4.92853 99.0786 4.98777 97.7062 4.94456C97.7901 4.90555 97.6531 4.87744 97.8026 4.84644C97.4379 4.90636 97.0678 4.91256 96.7042 4.85947L97.0498 4.92985C96.6671 5.0011 96.2733 4.98276 95.8983 4.87575L95.2825 4.98726C95.2408 4.98 95.1752 4.96604 95.1694 4.948L95.0615 4.99816L94.7284 4.87462C94.3164 4.89735 93.9099 4.9619 93.509 5.06829C93.4497 5.02477 92.8709 5.0006 93.3189 4.97305L91.0628 4.96152L91.4146 5.00235C91.4614 5.09903 90.7863 5.16703 90.4345 5.1262C90.8889 5.0453 90.4656 4.99033 90.2694 4.91869C89.9644 4.97455 90.5372 4.99853 90.3815 5.05313C89.9212 5.12789 89.4494 5.14874 88.9782 5.12201L89.2054 5.08156C88.6857 5.1247 88.4366 4.9562 87.9232 4.96979C87.4628 5.0505 87.1172 4.98607 87.2171 5.14987C86.5482 5.19426 86.9555 5.04048 86.7408 5.02777C86.2864 5.10272 85.821 5.08807 85.3683 4.99051C85.0078 5.24097 83.5604 4.92764 83.4331 5.1319L82.879 5.0252C82.8666 5.07836 82.7579 5.20584 82.316 5.23358C81.8927 5.17861 81.9891 5.08049 81.8643 5.02895L81.5878 5.23446C79.1603 5.05093 75.9771 5.24228 73.3164 5.09901C72.134 5.157 70.6466 5.27678 69.2679 5.26908L69.4174 5.23808L68.0449 5.20677L69.047 5.27997C68.7483 5.30627 68.5151 5.35248 68.2285 5.35536C66.4328 5.26313 64.6422 5.26625 62.8506 5.36456C61.6604 5.61865 62.0467 5.17264 60.8988 5.36262C60.9945 5.34183 61.0307 5.30727 61.1205 5.28034C59.884 5.37827 59.215 5.42861 57.978 5.58603C58.1115 5.35222 57.172 5.60231 57.2747 5.48058L57.1723 5.57851C56.8922 5.52805 56.2417 5.51947 56.3319 5.4509L55.7875 5.57657L55.7347 5.4797C55.0065 5.48653 53.4535 5.5983 53.0614 5.40744C51.2691 5.58903 48.4278 5.60074 46.1716 5.60706C45.6814 5.68683 45.1855 5.73072 44.6842 5.72684L44.1301 5.62014C43.6159 5.71701 43.0961 5.7661 42.5709 5.76147C42.5711 5.74957 42.595 5.73842 42.6249 5.73341C42.1117 5.72321 41.598 5.76059 41.09 5.83385C40.505 5.83923 39.9384 5.79164 40.1126 5.68407C40.063 5.87292 38.877 5.68683 38.877 5.68683C38.877 5.68683 31.4036 5.74311 23.0153 5.96696C14.6211 6.19656 5.32384 6.60005 1.69442 7.26527C1.41886 7.36966 0.671735 7.47704 0.981217 7.57009C0.4135 7.64147 0.104475 7.50083 0.0140001 7.59914C0.807776 7.60628 -0.149562 7.84985 0.625741 7.91591L0.159634 7.97264C0.0813787 8.04158 0.775486 7.86113 0.69075 7.98341L0.787991 7.80202C1.03883 7.78611 1.28921 7.8178 1.53329 7.88498C1.95309 7.67804 2.4255 7.58581 2.90257 7.63058L2.6756 7.64723C3.33845 7.61455 3.08647 7.74942 3.2295 7.77177L3.08027 7.77303L3.64662 7.84441C3.22325 7.80133 2.52926 7.96989 2.89358 7.94566C3.68724 7.96469 2.68502 7.90934 3.27632 7.86845C3.64662 7.84441 3.54421 7.94234 3.5317 8.00145L4.18858 7.96858C4.16988 8.05129 3.75277 7.97866 4.02662 8.05273L4.85143 7.93589C5.01662 8.13745 5.74801 7.80346 6.14017 7.98836C5.54268 8.05286 6.19922 8.05568 6.10306 8.12405L7.56593 8.06895C7.703 8.09112 7.18319 8.14616 7.4042 8.12931C7.60702 8.14165 7.81018 8.11829 8.00175 8.05887C8.13256 8.11059 9.09438 8.02187 9.06318 8.16369C10.0594 8.2248 9.47087 7.97422 10.4015 8.02731C10.5261 8.10859 9.66693 8.06964 10.084 8.14228L11.0516 8.07753C10.8954 8.17972 10.704 8.22725 10.5131 8.20934C13.1153 8.2377 14.5379 8.64546 16.9032 8.47001C17.2426 8.55805 16.6637 8.54578 16.4303 8.61578C18.145 8.4377 18.8581 8.76957 20.3209 8.71447L20.3456 8.63194C22.3969 8.83337 24.8461 8.62487 27.1616 8.66801L26.8815 8.61754C27.2762 8.54071 27.6825 8.494 28.0827 8.46495C28.142 8.50252 27.8183 8.64703 28.4813 8.5965C28.3384 8.5682 28.058 8.54748 28.142 8.50252C30.1341 8.66044 34.3136 8.5183 37.5722 8.54949C41.9728 8.38456 46.7591 8.45194 51.0818 8.31431C50.425 8.33529 50.6956 8.12365 51.1906 8.16303C52.5664 8.48006 53.5433 8.05859 54.944 8.26335C57.4585 8.09854 59.718 8.36604 62.0548 8.05879L62.1016 8.15546C62.3761 8.16411 62.6448 8.14877 62.9138 8.10963L62.9075 8.13919C63.7788 8.16066 64.8244 8.04483 65.3254 8.0844L65.3504 7.97213C65.8639 7.95259 65.6242 8.05215 66.1501 7.97946L66.1376 8.03262L66.7475 7.92091C66.698 8.10976 68.204 7.91321 68.621 7.99179C69.29 7.9474 70.5504 7.84427 71.5649 7.86431C72.3042 7.94709 73.0499 7.98247 73.7901 7.97602C75.3305 7.92931 77.5336 7.86776 79.4972 7.87602L79.4566 7.75574L79.97 7.74215C79.9638 7.77171 80.0353 7.77991 79.9576 7.79531C80.3622 7.93301 81.14 7.73733 81.5511 7.81573C81.2895 7.70634 81.193 7.80446 80.9005 7.80715C80.4773 7.75217 80.8784 7.62794 81.4449 7.68148L81.4327 7.71085L81.8154 7.63959C81.8622 7.73627 82.214 7.77709 82.2668 7.86801C83.9504 7.81986 85.0982 7.64178 86.8349 7.66076C86.6608 7.76833 88.0828 7.61674 87.7407 7.80828C88.786 7.72813 87.5631 7.65988 88.036 7.52006C88.3284 7.52332 88.6333 7.46746 88.6864 7.53459C88.5487 7.5838 88.9301 7.64341 88.6911 7.66564L89.3897 7.64598C89.4552 7.65995 89.3057 7.68499 89.228 7.70039C90.6497 7.57855 91.7518 7.7977 93.0244 7.67116C93.1146 7.60259 92.5172 7.65519 92.6074 7.58662C93.8861 7.43647 93.7464 7.69389 94.9411 7.58869L94.6955 7.68212C95.0786 7.57517 95.4847 7.5463 95.8841 7.60053C96.0024 7.71136 95.346 7.69664 95.041 7.7525C95.4767 7.75431 96.5814 7.71173 96.2421 7.61775C96.5765 7.59852 96.9105 7.62689 97.244 7.69689C97.2503 7.66734 96.7553 7.62795 97.0602 7.5721C97.776 7.62439 98.8743 7.61136 99.7457 7.61499C99.7395 7.64455 99.7988 7.68212 99.727 7.69771C100.433 7.55332 100.365 7.80109 101.332 7.75419Z" fill="#003383"/>
<path opacity="0.26" d="M147.769 6.11951L147.417 6.09978C147.417 6.12738 147.404 6.16143 147.237 6.18984L147.769 6.11951Z" fill="#003383"/>
<path opacity="0.26" d="M131.089 6.33431C131.047 6.33987 131.005 6.35256 130.963 6.37238C131.047 6.36126 131.071 6.34789 131.089 6.33431Z" fill="#003383"/>
<path opacity="0.26" d="M127.039 6.66239C127.326 6.63025 127.069 6.59906 126.926 6.565C126.92 6.59342 126.926 6.6223 127.039 6.66239Z" fill="#003383"/>
<path opacity="0.26" d="M157.21 5.61186C157.15 5.62411 157.114 5.64456 157.119 5.66661C157.203 5.64799 157.222 5.62686 157.21 5.61186Z" fill="#003383"/>
<path opacity="0.26" d="M183.327 5.59098L183.226 5.56641C183.262 5.58162 183.291 5.58967 183.327 5.59098Z" fill="#003383"/>
<path opacity="0.26" d="M181.88 5.37725C181.779 5.37376 181.683 5.3835 181.587 5.39324C181.689 5.39673 181.784 5.3935 181.88 5.37725Z" fill="#003383"/>
<path opacity="0.26" d="M150.883 5.75607C150.793 5.7597 150.698 5.76999 150.608 5.79427C150.703 5.79774 150.793 5.78035 150.883 5.75607Z" fill="#003383"/>
<path opacity="0.26" d="M181.289 5.43134L180.925 5.4128C180.919 5.41894 180.919 5.42528 180.919 5.43796L181.289 5.43134Z" fill="#003383"/>
<path opacity="0.26" d="M183.786 5.6113C183.643 5.60677 183.452 5.60074 183.327 5.59082C183.482 5.61959 183.637 5.62449 183.786 5.6113Z" fill="#003383"/>
<path opacity="0.26" d="M166.796 5.36136L166.754 5.36678C166.479 5.41232 166.652 5.39086 166.796 5.36136Z" fill="#003383"/>
<path opacity="0.26" d="M179.692 5.65773L179.645 5.64898L179.537 5.67996L179.692 5.65773Z" fill="#003383"/>
<path opacity="0.26" d="M185.361 5.66671C185.301 5.66453 185.241 5.67622 185.181 5.68791L185.39 5.70944C185.367 5.68775 185.367 5.67387 185.361 5.66671Z" fill="#003383"/>
<path opacity="0.26" d="M172.266 5.51723C172.368 5.47011 172.404 5.43504 172.41 5.4134C172.29 5.4161 172.212 5.43498 172.266 5.51723Z" fill="#003383"/>
</g>
</g>
</g>
</g>
<path d="M31.4232 8.11321C31.405 8.12731 31.3928 8.14905 31.3865 8.17842C31.4169 8.14998 31.429 8.13564 31.4232 8.11321Z" fill="#003383"/>
<path d="M47.5051 8.03163L47.3197 8.05948C47.3854 8.06186 47.4452 8.05712 47.5051 8.03163Z" fill="#003383"/>
<path d="M21.7901 8.2989C21.7961 8.29324 21.8081 8.29361 21.8141 8.28794L21.1397 8.29048L21.7901 8.2989Z" fill="#003383"/>
<path d="M81.7999 7.81159L81.5851 7.81081C81.6567 7.81295 81.7283 7.81509 81.7999 7.81159Z" fill="#003383"/>
<path d="M61.4761 7.84378C61.5659 7.81933 61.6557 7.80181 61.7512 7.80529C61.6558 7.78796 61.5601 7.80526 61.4761 7.84378Z" fill="#003383"/>
<path d="M16.6614 7.17773L16.9416 7.25843C16.9359 7.22305 16.8346 7.18413 16.6614 7.17773Z" fill="#003383"/>
<path d="M6.90052 8.00879C6.90644 8.01622 6.91835 8.02388 6.92433 8.0241C6.94233 8.01757 6.93042 8.00992 6.90052 8.00879Z" fill="#003383"/>
<path d="M10.7289 8.18353C10.8127 8.17268 10.9084 8.15532 11.0041 8.13796C10.8906 8.14077 10.7412 8.14921 10.7289 8.18353Z" fill="#003383"/>
<path d="M11.1358 8.10833L11.0042 8.13139C11.0759 8.12705 11.1357 8.12226 11.1358 8.10833Z" fill="#003383"/>
<path d="M206.365 7.8215C206.592 7.82963 206.819 7.80368 207.04 7.74343L206.365 7.8215Z" fill="#003383"/>
<path d="M112.855 7.59749L112.794 7.63154C112.854 7.61929 112.86 7.61225 112.855 7.59749Z" fill="#003383"/>
<path d="M206.715 7.06152L206.906 7.08801C206.841 7.0725 206.781 7.06381 206.715 7.06152Z" fill="#003383"/>
<path d="M21.8355 6.69982C22.1168 6.61565 22.6953 6.70334 22.69 6.62248C22.3913 6.6388 21.9618 6.59 21.8355 6.69982Z" fill="#003383"/>
<path d="M119.41 4.22842L119.595 4.2283C119.506 4.22557 119.452 4.22393 119.41 4.22842Z" fill="#003383"/>
<path d="M206.715 7.06988L206.495 7.03418C206.513 7.04867 206.536 7.06337 206.56 7.07807C206.614 7.06619 206.662 7.06793 206.715 7.06988Z" fill="#003383"/>
<path d="M145.189 7.62879L145.177 7.62836L145.111 7.63976L145.189 7.62879Z" fill="#003383"/>
<path d="M146.899 7.78066L146.535 7.8009C146.66 7.81181 146.78 7.80937 146.899 7.78066Z" fill="#003383"/>
<path d="M207.04 7.72799L207.435 7.68066C207.304 7.68277 207.172 7.70538 207.04 7.72799Z" fill="#003383"/>
<path d="M165.391 7.76103L165.224 7.76822C165.284 7.77024 165.337 7.77206 165.391 7.76103Z" fill="#003383"/>
<path d="M60.1699 7.82108L60.0207 7.80198C60.0026 7.82877 60.0144 7.83606 60.1699 7.82108Z" fill="#003383"/>
<path d="M72.2385 5.33815C72.4714 5.34661 72.6987 5.31341 72.9203 5.23857C72.6874 5.23703 72.4601 5.27022 72.2385 5.33815Z" fill="#003383"/>
<path d="M74.388 5.25242L74.3045 5.24316C74.3343 5.2506 74.3582 5.2514 74.388 5.25242Z" fill="#003383"/>
<path d="M60.651 5.3335L60.6509 5.34087C60.6569 5.3411 60.657 5.33373 60.657 5.33373L60.651 5.3335Z" fill="#003383"/>
<path d="M63.3727 5.26416C63.4323 5.27986 63.4978 5.29577 63.5635 5.29812C63.498 5.27542 63.4324 5.26629 63.3727 5.26416Z" fill="#003383"/>
<path d="M81.153 4.91025C81.153 4.91025 81.1472 4.91003 81.153 4.91025L81.1645 4.91788L81.153 4.91025Z" fill="#003383"/>
<path d="M106.764 4.67915C104.192 4.68701 100.86 4.80246 98.3065 4.74852C97.5892 4.86303 96.8605 4.92053 96.1325 4.90436L96.0448 4.72034L95.3698 4.77378C95.0959 4.71455 95.8894 4.74402 95.4007 4.67268L95.1489 4.78416C95.0958 4.72022 93.4068 4.72623 94.5419 4.60724L91.9101 4.59064C91.3253 4.57876 91.5744 4.73928 90.9303 4.69161C90.7995 4.63668 91.1633 4.65893 91.1043 4.58914C89.1661 4.44031 88.8748 4.93037 87.0734 4.83098L87.2288 4.8073C86.924 4.85484 86.3391 4.84863 86.3329 4.87112C86.5698 5.05961 86.6562 4.77312 87.2042 4.88592C87.1608 5.04333 86.517 4.96733 86.5576 5.08758C86.2117 5.06586 85.8654 5.07815 85.5188 5.12443C84.8931 5.02631 83.9912 5.08995 83.515 4.96796C83.0901 5.08558 82.6537 5.15752 82.2059 5.17242C81.7296 5.05044 82.3145 5.05665 81.6704 5.00899L81.568 5.10227C81.037 5.08634 81.1208 5.06052 81.1391 5.02139C80.7506 5.07209 80.3565 5.09427 79.9627 5.08246L80.3575 4.99794C79.8319 5.03319 79.6172 5.01541 78.8892 5.00491C78.9016 4.95427 79.1941 4.95737 79.4147 4.97533C79.0162 4.83867 78.7398 5.02877 78.525 5.01666C78.5843 5.05811 79.0915 5.07333 78.8459 5.16232C78.482 5.14573 78.0748 5.28089 77.8192 5.17686L78.2139 5.09235C77.7954 5.17048 77.3714 5.19744 76.9479 5.16773C76.9957 5.1635 76.9721 5.14011 76.9902 5.11798C76.3033 5.17673 75.605 5.17846 74.9133 5.11236L75.0687 5.08868C74.7401 5.1185 74.5663 5.19831 74.3873 5.19294C74.8523 5.24657 74.7267 5.27114 74.7676 5.35739C74.1544 5.20296 73.8409 5.52798 72.8391 5.43557C72.8516 5.38493 73.0909 5.3241 73.3709 5.37784C73.6593 5.18244 74.0006 5.06231 74.3531 5.02754C73.9768 5.06159 73.529 5.08217 73.6251 5.01703L73.5103 5.16096C73.2834 5.16549 73.0985 5.15428 72.9254 5.15476C72.8291 5.24256 73.3895 5.30471 72.8637 5.36263C72.2664 5.40706 72.5429 5.21696 72.4527 5.27661C71.6286 5.33124 72.117 5.43092 71.3237 5.37878C71.4194 5.35898 71.521 5.35069 71.6223 5.3594C71.05 5.30255 70.2256 5.37984 70.0542 5.21032C70.1443 5.14501 70.258 5.11441 70.3712 5.13481L70.365 5.16297C70.9869 5.03992 69.8454 5.19273 70.0379 5.03979C70.0848 5.13189 69.2853 5.1079 68.9213 5.09699L69.0396 5.20256C67.8488 5.51827 69.1014 4.99469 67.9133 5.0384C67.1605 5.11218 68.1994 5.06966 67.7392 5.14088C67.2623 5.08123 66.7791 5.06106 66.2955 5.07489C66.087 5.03463 65.6638 4.97659 65.6232 4.86201C65.0802 4.84572 64.5369 4.8691 63.9932 4.92647C64.7681 5.02341 64.7584 4.80206 65.664 4.95393L65.4122 5.07107C64.7856 5.06361 63.9853 5.12462 63.556 5.0834C63.6453 5.10309 63.6808 5.13816 63.6268 5.15922C62.9636 5.24134 62.2887 5.28345 61.6143 5.28589C61.496 5.18031 62.0031 5.19553 62.3732 5.18963C61.8902 5.1468 61.4069 5.1323 60.9233 5.1518C60.8765 5.0597 61.5081 5.15801 61.6045 5.06454L60.6434 5.09239C60.6494 5.0869 60.6435 5.08105 60.6435 5.07539C60.5107 5.23011 59.9096 5.06471 59.3242 5.1095C58.5185 5.11366 57.7236 5.22586 56.9575 5.44094C56.749 5.40067 56.6898 5.35922 56.7737 5.32206C57.1192 5.38911 57.0541 5.33614 57.1738 5.29439C56.7022 5.30858 56.1428 5.14442 56.406 5.0843C55.6595 5.12993 56.6797 5.1662 56.2197 5.21475L55.1935 5.1783C55.3181 5.25572 55.676 5.27213 55.1502 5.33571C54.7024 5.35628 54.4876 5.34417 53.9088 5.33814C53.9927 5.30098 53.719 5.21908 54.1606 5.221C53.8626 5.17805 53.558 5.19725 53.2709 5.26232C53.9088 5.33248 52.2258 5.333 52.708 5.45516L52.07 5.39068C52.2133 5.38931 52.2317 5.33884 52.4464 5.35095C52.2626 5.23208 51.9268 5.38638 51.7058 5.40242C51.4194 5.3995 51.1332 5.37391 50.8472 5.32565C50.5842 5.36311 50.3158 5.34372 50.0598 5.27936C49.7612 5.30441 50.0352 5.35797 49.9512 5.39513L48.9247 5.39835C48.8656 5.33423 48.7779 5.15021 48.9333 5.12653C48.5507 5.18874 48.8001 5.32092 48.2212 5.32056C48.5507 5.18874 47.4462 5.22929 47.9252 5.07362C47.3232 4.99321 46.7146 4.97495 46.1113 5.03054C45.788 5.1342 46.6837 5.08739 46.6469 5.18831C45.1782 5.23494 45.0918 5.52143 44.012 5.4777L44.2923 5.50311C43.9579 5.51575 43.6292 5.56257 43.3061 5.64357C43.4865 5.51295 42.5276 5.3028 41.4232 5.33769C41.333 5.403 42.0487 5.45848 41.8686 5.56077L41.1402 5.58427C41.0866 5.57699 41.1644 5.55098 41.2601 5.53685C40.6031 5.58516 40.0262 5.37513 39.8397 5.52825L39.1611 5.34351L39.429 5.41957C39.1061 5.4779 38.7774 5.51905 38.4491 5.53188C37.9709 5.60255 37.4757 5.58203 36.9993 5.47705C37.1301 5.53198 37.4631 5.64967 36.8721 5.67162C36.8741 5.46196 35.6254 5.60021 35.6383 5.49857C35.3996 5.50274 34.9704 5.44452 34.9457 5.53447L34.9828 5.40522C34.9332 5.58511 34.0558 5.5928 33.387 5.62942C33.5327 5.37872 32.6526 5.6584 32.3444 5.43943C32.2234 5.61152 31.1559 5.52281 31.0471 5.66692C30.5277 5.67968 30.577 5.52812 30.4462 5.47318L30.2068 5.53968C29.945 5.46381 28.9781 5.46881 28.3996 5.42312L27.8669 5.57718L27.6646 5.51443C27.5807 5.55159 27.1387 5.58368 27.4128 5.63158L27.1264 5.62299C27.1069 5.78678 26.72 5.67315 26.1404 5.75212C26.0033 5.72533 26.0395 5.68674 26.1651 5.66783C25.8786 5.67058 25.9988 5.58349 25.8381 5.53333C26.0466 5.57359 24.8086 5.83687 25.5898 5.89998C25.6489 5.9641 25.1947 6.01849 24.9085 5.9929L24.7309 5.85154L24.3951 6.01151C24.0609 6.00715 23.7269 5.9858 23.3991 5.93629C23.7693 5.92472 24.2077 5.64313 23.2586 5.66C23.593 5.63602 23.9278 5.58371 24.2567 5.51423C24.0598 5.51399 23.9585 5.49961 24.2635 5.43508C23.5228 5.49221 24.0178 5.52973 23.2835 5.55872C23.3205 5.42946 23.112 5.3892 22.4678 5.35287L22.9504 5.44103C22.9204 5.45713 22.8904 5.47324 22.8605 5.47801C23.0454 5.48923 23.0989 5.50784 23.1402 5.56009C22.997 5.56146 22.291 5.733 22.1664 5.65558C22.9165 5.84812 20.8815 5.83242 21.3579 5.94307C21.1425 5.99329 20.9218 5.98667 20.7074 5.93489C21.3172 5.82849 20.2373 5.79609 20.3337 5.70262C20.1065 5.74115 20.8223 5.79096 20.5114 5.84399C20.2249 5.84673 19.9447 5.80999 19.6649 5.74491L19.8144 5.71538L19.2479 5.66438C19.1577 5.72969 19.802 5.76036 19.2823 5.80712C19.1453 5.78033 18.6196 5.82692 18.638 5.77645C18.8836 5.6818 18.6997 5.56858 19.1417 5.5365C18.7715 5.55373 17.6013 5.59231 18.0777 5.70296L17.636 5.70672C17.9161 5.7548 18.6912 5.83473 17.8074 5.87624L17.8137 5.84808L17.2038 5.96016L16.9358 5.9011C16.9474 5.93546 16.8516 5.9666 16.6248 5.97113C16.5655 5.93534 16.3448 5.92305 16.3632 5.87259C15.7005 5.89239 15.7595 5.95651 15.6756 5.99933C15.3054 6.01657 15.1683 5.99545 15.3362 5.9098C14.7572 5.92644 14.1783 5.92041 13.5998 5.88038C12.9247 5.95082 13.7428 5.90168 13.3479 6.00319C12.7532 5.78697 11.1042 5.96422 10.0055 6.01629C10.314 6.20692 9.70683 6.047 9.51406 6.22827C9.74748 6.16159 8.45894 6.10026 9.42061 6.02141L8.82942 6.05469C8.41857 5.95734 9.80324 5.95354 9.1839 5.81593C8.56812 5.92215 7.94677 5.98854 7.3199 6.00941C7.572 5.86393 6.72247 6.07084 6.90905 5.91206C7.10639 5.87263 7.30356 5.85021 7.50648 5.85063L7.36947 5.82384C5.91928 5.81435 6.95594 5.99849 6.20283 6.11193C5.31917 6.14777 5.4995 6.01715 5.44642 5.95321C5.16616 5.92779 4.89148 5.94223 4.62243 5.99084C5.15456 5.89344 5.62447 6.05491 5.37884 6.14956C4.86042 6.06599 4.32901 6.08973 3.82626 6.23336C5.09612 6.37348 4.70373 6.22 5.8958 6.38046C6.05745 6.32863 6.02305 6.18589 6.7329 6.22419C6.29043 6.30728 6.76791 6.3046 6.89304 6.32536C6.75057 6.2474 7.38291 6.2777 7.59815 6.23881C7.80045 6.30156 7.18434 6.44179 7.90634 6.45778L8.03359 6.26321C8.31987 6.28314 7.91878 6.40714 8.52212 6.35155C8.20472 6.46107 8.62801 6.50777 7.81584 6.55709C8.79323 6.69978 9.29715 6.43716 10.05 6.34638C9.97231 6.36105 9.96612 6.38354 9.88839 6.39821C10.1097 6.35383 10.3367 6.32664 10.5636 6.32211C11.0646 6.35414 10.1747 6.41813 10.3055 6.4674L11.1114 6.44624C11.1293 6.45244 11.1292 6.45811 11.1292 6.45811C11.2848 6.41743 11.4579 6.41128 11.6187 6.45012C11.3853 6.5168 11.2891 6.58193 11.1334 6.63961L11.9704 6.48901C11.8802 6.55432 12.6737 6.58379 12.0763 6.64523L13.3242 6.59197L13.4363 6.72004C13.735 6.68932 13.7412 6.66683 13.3832 6.65609C13.8128 6.67465 15.2659 6.38382 15.0544 6.64954C16.0345 6.52024 16.3863 6.55346 17.5749 6.46442C16.6663 6.60721 18.63 6.59243 17.6623 6.6711C18.0443 6.67122 18.4208 6.62583 18.7916 6.5406C19.2149 6.58731 19.0346 6.71793 18.5804 6.77799L19.1123 6.70893L19.106 6.73708L19.5664 6.65453C20.0611 6.72039 19.6725 6.78242 20.1797 6.79763L20.2823 6.68168L20.6279 6.74306C20.497 6.69379 20.7958 6.66307 21.1599 6.65132L21.1537 6.67948L21.6016 6.65323C21.1592 6.73065 22.0132 6.67125 21.8094 6.7615C22.1914 6.76162 22.1973 6.7618 22.8899 6.73156L22.7654 6.65414C23.6614 6.57332 22.806 6.76872 23.5342 6.76789L23.4873 6.6758C24.5423 6.81514 25.267 6.56481 26.042 6.65041C25.6001 6.67683 25.7124 6.78222 25.7246 6.75425C26.3935 6.71197 27.4796 6.72187 28.1672 6.6008C28.4819 6.76328 28.8452 6.84219 29.1975 6.81876C29.7169 6.806 29.7887 6.79114 29.9566 6.71116C30.4461 6.69184 30.9354 6.70651 31.4243 6.76086C31.5384 6.68492 31.8778 6.76879 32.147 6.70318L32.2063 6.73897L32.1595 6.64687C33.0528 6.83805 33.6529 6.51029 34.5524 6.67898L34.4031 6.69151L34.7795 6.65179C34.8388 6.69324 34.6893 6.7171 34.6709 6.76756L36.4197 6.76334L36.0742 6.69629C36.4149 6.64416 36.7612 6.63188 37.1131 6.64811C36.4194 6.79167 37.692 6.64847 37.8104 6.75405L37.434 6.79377C37.9474 6.78083 37.9474 6.78083 37.9005 6.68873C38.5634 6.65194 38.3644 6.86136 38.9742 6.75495L38.5385 6.75322C38.4077 6.69828 38.7188 6.62259 39.0112 6.62569C39.0827 6.63918 39.2912 6.67944 39.0643 6.68964C39.5899 6.64872 40.3773 6.69502 40.6045 6.65648C40.8907 6.68208 40.8005 6.74739 40.6451 6.77107C41.762 6.68554 41.1523 6.78628 42.2752 6.69527L42.2568 6.74573L42.6394 6.68352L43.1934 6.79083L42.9971 6.72259C43.3376 6.69313 43.6838 6.68651 44.0239 6.69671L43.85 6.77652C44.889 6.72833 45.0544 6.89767 46.0403 6.78554C46.1058 6.79885 45.9564 6.8227 45.8786 6.83738C46.793 6.71177 46.5756 6.97165 47.4903 6.81771C47.4363 6.84443 47.5374 6.8758 47.5014 6.89739L47.9197 6.84759L47.8949 6.94321L48.2306 6.7889L48.4922 6.89311L48.6538 6.84128C49.1055 7.03621 49.7337 6.88501 50.3529 7.02828L50.2468 6.9004C51.7835 6.61207 53.7847 7.02921 55.648 6.90372L55.6172 7.00482L56.3881 6.89758C56.8051 6.97811 56.1426 6.98658 56.2733 7.04151C57.0975 6.98122 56.615 6.88739 57.5703 6.85369C58.0649 6.92521 57.4024 6.93368 57.1693 6.96636C58.1189 6.89849 59.0741 6.87613 60.0287 6.91044C60.0407 6.89946 60.0827 6.87805 60.0469 6.87131C60.6442 6.82688 61.4376 6.86768 62.0941 6.8647C62.0757 6.91516 61.9145 6.92166 61.7533 6.92817C62.0097 6.95286 62.2664 6.94922 62.5173 6.91708L62.2718 7.00607C62.8033 6.971 63.3403 6.98144 63.8709 7.0427C63.8116 7.00125 63.8303 6.92246 64.2719 6.93003C64.515 7.09037 65.4602 6.86366 66.1637 6.94711C66.0797 6.98427 65.5664 6.99154 65.7096 6.99584C66.0376 7.01701 66.3662 6.98719 66.6832 6.91168L66.5931 6.97699L68.2293 6.88437C68.4784 7.04489 69.7694 6.85689 69.6608 6.97266C70.2456 6.97887 69.1721 6.90132 69.9064 6.88367C70.1027 6.95191 70.5751 6.85272 70.5442 6.95949L70.4666 6.9685L70.9799 6.96122L70.6566 7.05922C71.0985 7.03847 71.4277 6.94065 71.4464 6.86185C71.8522 6.86836 72.2577 6.9032 72.6629 6.96636L72.5075 6.99004C73.6896 6.95182 74.4742 7.27577 75.401 7.10519C75.4725 7.11867 75.4602 7.14664 75.317 7.14235L76.051 7.15303L75.8772 7.22717L77.084 7.11033L77.0715 7.16097C77.871 7.18495 79.1187 7.16003 80.1453 7.15115L79.9899 7.17483C81.1126 7.10082 81.0755 7.23007 81.8937 7.17526C81.8698 7.18588 81.8398 7.19632 81.81 7.19542L82.55 7.19495L82.3884 7.24678C82.8004 7.22514 83.2061 7.24297 83.6173 7.30066C83.9339 7.27048 84.2449 7.21179 84.5501 7.13025C85.3558 7.12608 84.7463 7.19849 85.2472 7.24186C85.8321 7.24806 85.9284 7.16026 86.7217 7.20673L86.7093 7.25738C87.0794 7.25147 87.3066 7.21294 87.8199 7.21134L87.6645 7.23502C88.501 7.12974 88.7133 7.39685 89.366 7.1727C89.7177 7.21726 90.3864 7.19197 90.3556 7.29307C91.4006 7.23373 92.2125 7.20708 93.2513 7.17589C93.4227 7.34541 93.4723 7.16551 94.1039 7.26948L94.057 7.17739C95.5252 7.17609 97.2119 7.41373 98.8296 7.38858L98.8764 7.48067L99.1996 7.38267C100.942 7.4406 103.197 7.4856 104.588 7.50463C105.203 7.42107 105.83 7.3832 106.457 7.402L106.379 7.41667C107.639 7.3751 108.964 7.35251 110.336 7.42201C110.252 7.45917 110.389 7.48595 110.234 7.50963C110.598 7.45822 110.968 7.46365 111.332 7.5199L110.986 7.44718C111.369 7.39064 111.763 7.41379 112.137 7.5214L112.753 7.4265C112.795 7.43342 112.854 7.45221 112.866 7.4639L112.974 7.41612L113.301 7.5393C113.713 7.52332 114.125 7.47333 114.526 7.38333C114.585 7.42479 115.164 7.45915 114.716 7.47972L116.972 7.54171L116.62 7.49715C116.573 7.40506 117.254 7.35746 117.6 7.40184C117.139 7.47306 117.563 7.5311 117.759 7.59934C118.064 7.5518 117.491 7.51762 117.653 7.46579C118.119 7.40608 118.59 7.39189 119.056 7.42852L118.828 7.46138C119.354 7.4318 119.597 7.5978 120.11 7.59053C120.571 7.51931 120.916 7.59769 120.816 7.43599C121.485 7.4107 121.078 7.54586 121.292 7.56364C121.747 7.50358 122.212 7.52887 122.664 7.63314C123.031 7.40606 124.466 7.73819 124.605 7.54965L125.153 7.66811C125.171 7.61765 125.28 7.50187 125.722 7.48679C126.139 7.55031 126.042 7.63811 126.173 7.69305L126.455 7.50314C128.876 7.7458 132.064 7.64872 134.718 7.85303C135.9 7.82614 137.393 7.76322 138.771 7.8159L138.615 7.83958L139.987 7.91475L138.992 7.81119C139.29 7.79181 139.523 7.75912 139.816 7.7679C141.605 7.91792 143.401 7.9718 145.192 7.93483C146.393 7.73281 145.989 8.14581 147.143 7.99903C147.047 8.01883 147.005 8.05157 146.921 8.07173C148.163 8.0183 148.832 7.99302 150.074 7.88292C149.935 8.09979 150.88 7.89008 150.771 8.00585L150.874 7.91823C151.147 7.97747 151.798 8.00831 151.708 8.07362L152.258 7.97109L152.304 8.06319C153.032 8.08502 154.591 8.04108 154.971 8.23386C156.768 8.12907 159.608 8.22561 161.863 8.3046C162.359 8.24579 162.855 8.22664 163.356 8.24168L163.904 8.36014C164.424 8.28505 164.943 8.26663 165.468 8.29371C165.468 8.30504 165.444 8.31566 165.408 8.32025C165.921 8.34698 166.435 8.3397 166.942 8.28692C167.527 8.30446 168.093 8.37813 167.913 8.47476C167.969 8.29504 169.148 8.52881 169.148 8.52881C169.148 8.52881 176.63 8.82126 185.025 9.01076C193.421 9.20027 202.73 9.32083 206.38 8.97121C206.59 8.89247 207.193 8.85955 206.979 8.74545C207.152 8.7393 207.331 8.75601 207.498 8.80068C207.545 8.81345 207.593 8.82055 207.641 8.82764C207.659 8.82818 207.676 8.82872 207.694 8.82359C207.7 8.82377 207.712 8.81846 207.718 8.81864L207.73 8.81333L207.736 8.80784C207.798 8.6113 207.854 8.41459 207.915 8.21238C207.86 8.3921 207.804 8.57748 207.755 8.75738C207.736 8.82484 207.742 8.79669 207.742 8.80235L207.73 8.802L207.718 8.80164L207.695 8.80092L207.647 8.79382C207.623 8.78744 207.599 8.78673 207.575 8.77468C207.54 8.76227 207.522 8.7504 207.51 8.73871C207.493 8.70984 207.529 8.68258 207.559 8.65514C207.625 8.59478 207.703 8.52911 207.382 8.46278L207.811 8.45867C207.913 8.39938 207.214 8.5031 207.346 8.39937L207.196 8.55923C206.975 8.54694 206.761 8.50083 206.558 8.41541C206.127 8.58385 205.655 8.63205 205.19 8.56142L205.417 8.55689C204.755 8.54269 205.012 8.43705 204.875 8.4046L205.025 8.40908L204.471 8.30743C204.894 8.37681 205.593 8.26742 205.229 8.26217C204.442 8.18754 205.431 8.30792 204.841 8.31287C204.471 8.30743 204.579 8.22566 204.591 8.16935L203.929 8.15515C203.954 8.07654 204.364 8.17388 204.097 8.0865L203.261 8.14077C203.108 7.93779 202.353 8.20423 201.979 8.00596C202.576 7.97852 201.926 7.93635 202.022 7.87688L200.554 7.84418C200.417 7.81173 200.942 7.79348 200.716 7.79802C200.513 7.77493 200.31 7.78585 200.113 7.82527C199.988 7.77051 199.021 7.79818 199.058 7.66893C198.062 7.55404 198.638 7.82073 197.708 7.71914C197.59 7.63623 198.442 7.71849 198.032 7.62681L197.071 7.62632C197.233 7.53482 197.43 7.50107 197.621 7.52946C195.02 7.34942 193.622 6.89937 191.24 6.94129C190.907 6.8406 191.48 6.88611 191.719 6.83094C189.993 6.90954 189.299 6.55994 187.831 6.53291L187.806 6.61153C185.762 6.31781 183.302 6.40839 180.994 6.24846L181.268 6.30769C180.867 6.35803 180.461 6.39119 180.055 6.39602C179.996 6.35457 180.332 6.23426 179.663 6.25388C179.8 6.28633 180.086 6.32325 180.002 6.35474C178.017 6.10248 173.828 6.06183 170.571 5.8961C166.161 5.85449 161.376 5.61461 157.044 5.581C157.706 5.58953 157.424 5.77378 156.923 5.71908C155.56 5.36643 154.566 5.72771 153.171 5.48183C150.646 5.53645 148.393 5.21947 146.046 5.43245L145.999 5.34035C145.725 5.32079 145.456 5.32406 145.187 5.35568L145.193 5.32752C144.322 5.27872 143.271 5.35489 142.771 5.30018L142.74 5.40129C142.22 5.40271 142.472 5.31957 141.94 5.36597L141.953 5.31533L141.337 5.40456C141.399 5.22502 139.881 5.36655 139.464 5.27469C138.796 5.29431 137.53 5.35269 136.516 5.2996C135.777 5.19807 135.037 5.14188 134.291 5.13084C132.745 5.13548 130.543 5.13176 128.58 5.07288L128.615 5.19295L128.102 5.19455C128.108 5.1664 128.042 5.1531 128.114 5.14391C127.715 5.00726 126.932 5.1708 126.515 5.07894C126.777 5.18882 126.873 5.10102 127.165 5.10979C127.589 5.17349 127.188 5.2805 126.615 5.21232L126.628 5.18434L126.239 5.24071C126.198 5.14879 125.841 5.09838 125.8 5.00647C124.111 5.00681 122.963 5.14811 121.221 5.07884C121.401 4.97655 119.968 5.08659 120.316 4.91564C119.271 4.96932 120.487 5.06249 120.015 5.18435C119.722 5.17558 119.417 5.22312 119.364 5.15917C119.502 5.11796 119.127 5.05002 119.366 5.03451L118.667 5.0419C118.602 5.0286 118.757 5.00492 118.829 4.99574C117.408 5.08347 116.3 4.85185 115.028 4.94405C114.931 5.00919 115.535 4.9706 115.445 5.03025C114.16 5.14476 114.306 4.90539 113.111 4.98293L113.357 4.8996C112.968 4.98996 112.562 5.01179 112.163 4.95447C112.05 4.84907 112.701 4.87425 113.006 4.82671C112.57 4.81931 111.46 4.83135 111.799 4.93222C111.465 4.94486 111.131 4.91217 110.797 4.83415C110.791 4.8623 111.286 4.91116 110.981 4.95303C110.265 4.88622 109.167 4.87595 108.296 4.86115C108.302 4.83299 108.243 4.79721 108.321 4.78253C107.621 4.91459 107.695 4.67874 106.728 4.69508" fill="#003383"/>
<path d="M60.2991 5.311L60.6514 5.3307C60.6516 5.30307 60.6639 5.26896 60.8254 5.24027L60.2991 5.311Z" fill="#003383"/>
<path d="M76.9915 5.10384C77.0334 5.09827 77.0754 5.08557 77.1174 5.06573C77.0276 5.07665 77.0036 5.09002 76.9915 5.10384Z" fill="#003383"/>
<path d="M81.0408 4.81299C80.7535 4.83803 81.0104 4.87635 81.1537 4.9104C81.1599 4.88197 81.1542 4.84592 81.0408 4.81299Z" fill="#003383"/>
<path d="M50.8517 5.89294C50.9117 5.88063 50.9478 5.86012 50.9421 5.83071C50.858 5.85669 50.8399 5.87059 50.8517 5.89294Z" fill="#003383"/>
<path d="M24.7248 6.60938L24.8321 6.62661C24.7964 6.61862 24.7606 6.61064 24.7248 6.60938Z" fill="#003383"/>
<path d="M26.1785 6.77063C26.2801 6.76753 26.3756 6.76421 26.4713 6.74757C26.3698 6.74401 26.2742 6.75399 26.1785 6.77063Z" fill="#003383"/>
<path d="M57.1854 5.68932C57.275 5.68568 57.3706 5.67536 57.4604 5.65106C57.3649 5.6476 57.2752 5.65813 57.1854 5.68932Z" fill="#003383"/>
<path d="M26.7702 6.70003L27.1343 6.70601C27.1344 6.6995 27.1404 6.69319 27.1405 6.68017L26.7702 6.70003Z" fill="#003383"/>
<path d="M24.2594 6.60886C24.4026 6.60736 24.5936 6.60741 24.7189 6.61763C24.5699 6.58818 24.4148 6.58314 24.2594 6.60886Z" fill="#003383"/>
<path d="M41.2629 6.3303L41.3048 6.32482C41.5861 6.26489 41.4066 6.29342 41.2629 6.3303Z" fill="#003383"/>
<path d="M28.3614 6.40761L28.4092 6.40939L28.5171 6.37099L28.3614 6.40761Z" fill="#003383"/>
<path d="M22.6901 6.6155C22.7498 6.61074 22.8096 6.60597 22.8695 6.58732L22.6605 6.57275C22.6783 6.59424 22.6842 6.6014 22.6901 6.6155Z" fill="#003383"/>
<path d="M35.792 6.2716C35.6897 6.32613 35.6535 6.36126 35.6473 6.38294C35.7672 6.38021 35.8453 6.35398 35.792 6.2716Z" fill="#003383"/>
<g opacity="0.26">
<g opacity="0.26">
<g opacity="0.26">
<g opacity="0.26">
<path opacity="0.26" d="M31.425 8.11456C31.4068 8.12875 31.3946 8.15057 31.3883 8.18002C31.4187 8.15142 31.4249 8.12939 31.425 8.11456Z" fill="#003383"/>
<path opacity="0.26" d="M47.501 8.03263L47.3156 8.06141C47.3812 8.06363 47.447 8.05183 47.501 8.03263Z" fill="#003383"/>
<path opacity="0.26" d="M21.7859 8.29991C21.792 8.29399 21.8039 8.29434 21.8099 8.28843L21.1355 8.29293L21.7859 8.29991Z" fill="#003383"/>
<path opacity="0.26" d="M81.8017 7.81278L81.5869 7.81255C81.6585 7.81459 81.7301 7.81664 81.8017 7.81278Z" fill="#003383"/>
<path opacity="0.26" d="M61.472 7.84584C61.5618 7.82078 61.6515 7.80274 61.7471 7.80598C61.6517 7.78869 61.562 7.7997 61.472 7.84584Z" fill="#003383"/>
<path opacity="0.26" d="M16.6632 7.17871L16.9433 7.25941C16.9317 7.22346 16.8364 7.18465 16.6632 7.17871Z" fill="#003383"/>
<path opacity="0.26" d="M6.90245 8.00293C6.90836 8.0104 6.92026 8.01808 6.92624 8.01829C6.94418 8.01891 6.9263 8.01103 6.90245 8.00293Z" fill="#003383"/>
<path opacity="0.26" d="M10.7308 8.18521C10.8145 8.17397 10.9102 8.1561 11.0059 8.13823C10.8864 8.14122 10.743 8.15042 10.7308 8.18521Z" fill="#003383"/>
<path opacity="0.26" d="M11.1376 8.10945L11.0059 8.13319C11.0777 8.12858 11.1374 8.12356 11.1376 8.10945Z" fill="#003383"/>
<path opacity="0.26" d="M206.367 7.8246C206.594 7.83218 206.821 7.80513 207.042 7.74326L206.367 7.8246Z" fill="#003383"/>
<path opacity="0.26" d="M112.85 7.59878L112.79 7.63316C112.85 7.62067 112.862 7.6065 112.85 7.59878Z" fill="#003383"/>
<path opacity="0.26" d="M206.717 7.06299L206.908 7.08947C206.842 7.07383 206.777 7.06493 206.717 7.06299Z" fill="#003383"/>
<path opacity="0.26" d="M21.8313 6.70327C22.1127 6.61671 22.691 6.7043 22.6858 6.62196C22.3871 6.63948 21.9637 6.59125 21.8313 6.70327Z" fill="#003383"/>
<path opacity="0.26" d="M119.412 4.22959L119.597 4.22893C119.508 4.21992 119.454 4.22457 119.412 4.22959Z" fill="#003383"/>
<path opacity="0.26" d="M206.717 7.06384L206.497 7.02832C206.514 7.04295 206.538 7.05778 206.562 7.07261C206.61 7.06721 206.664 7.06202 206.717 7.06384Z" fill="#003383"/>
<path opacity="0.26" d="M145.191 7.62957L145.179 7.62917L145.113 7.64093L145.191 7.62957Z" fill="#003383"/>
<path opacity="0.26" d="M146.901 7.78134L146.537 7.8031C146.656 7.81369 146.781 7.81104 146.901 7.78134Z" fill="#003383"/>
<path opacity="0.26" d="M207.042 7.73041L207.437 7.68116C207.305 7.6837 207.174 7.70012 207.042 7.73041Z" fill="#003383"/>
<path opacity="0.26" d="M165.393 7.76167L165.226 7.76953C165.279 7.77124 165.339 7.77314 165.393 7.76167Z" fill="#003383"/>
<path opacity="0.26" d="M60.1716 7.82228L60.0225 7.80343C60.0044 7.82362 60.0162 7.83788 60.1716 7.82228Z" fill="#003383"/>
<path opacity="0.26" d="M72.2403 5.34133C72.4732 5.3492 72.7004 5.31486 72.9221 5.23833C72.6892 5.23046 72.462 5.26479 72.2403 5.34133Z" fill="#003383"/>
<path opacity="0.26" d="M74.3838 5.25326L74.3063 5.24414C74.3301 5.25154 74.3599 5.2525 74.3838 5.25326Z" fill="#003383"/>
<path opacity="0.26" d="M60.6529 5.32715L60.6528 5.33454C60.6588 5.33475 60.6589 5.32736 60.6589 5.32736L60.6529 5.32715Z" fill="#003383"/>
<path opacity="0.26" d="M63.3746 5.2583C63.4342 5.27409 63.4997 5.29007 63.5654 5.29226C63.4998 5.27627 63.4342 5.26719 63.3746 5.2583Z" fill="#003383"/>
<path opacity="0.26" d="M81.1549 4.90445C81.149 4.90424 81.1489 4.91149 81.1549 4.90445L81.1668 4.91212L81.1549 4.90445Z" fill="#003383"/>
<path opacity="0.26" d="M106.768 4.57948C104.196 4.59466 100.864 4.72456 98.3106 4.67497C97.5932 4.79683 96.8644 4.859 96.1365 4.84404L96.049 4.65158L95.374 4.70937C95.1001 4.64808 95.8935 4.6768 95.4049 4.60341L95.153 4.72083C95.1 4.65402 93.4109 4.66487 94.5462 4.53721L91.9144 4.52693C91.3296 4.51608 91.5785 4.68349 90.9345 4.63532C90.8038 4.57815 91.1676 4.60046 91.1087 4.52754C89.1706 4.37693 88.8787 4.89089 87.0774 4.79168L87.2329 4.76647C86.928 4.81707 86.3431 4.81215 86.3369 4.83571C86.5736 5.03245 86.6603 4.73222 87.2081 4.84885C87.1646 5.01381 86.5209 4.93596 86.5613 5.06178C86.2154 5.03997 85.8691 5.05377 85.5224 5.10318C84.8969 5.00211 83.9949 5.07119 83.5188 4.94474C83.0938 5.06906 82.6573 5.14556 82.2095 5.16238C81.7334 5.03593 82.3182 5.04085 81.6742 4.99268L81.5717 5.09065C81.0407 5.0754 81.1245 5.04813 81.1429 5.00711C80.7544 5.06124 80.3602 5.08554 79.9664 5.07423L80.3613 4.98466C79.8357 5.02299 79.621 5.00496 78.893 4.99593C78.9055 4.94287 79.1979 4.94533 79.4185 4.96353C79.0202 4.82151 78.7435 5.02131 78.5288 5.00921C78.588 5.05246 79.0952 5.06703 78.8495 5.16088C78.4856 5.14449 78.0783 5.28713 77.8228 5.17888L78.2176 5.08931C77.799 5.17227 77.3749 5.20164 76.9515 5.17168C76.9993 5.16711 76.9757 5.14269 76.9938 5.11947C76.3068 5.18284 75.6085 5.18654 74.9169 5.11919L75.0724 5.09398C74.7438 5.12609 74.5698 5.21013 74.3908 5.205C74.8558 5.25989 74.7302 5.28597 74.771 5.37617C74.158 5.21612 73.844 5.55731 72.8424 5.46326C72.8549 5.41019 73.0943 5.34584 73.3742 5.40136C73.6628 5.19596 74.0043 5.06925 74.3569 5.03188C73.9805 5.06856 73.5326 5.09132 73.6288 5.02285L73.5139 5.17388C73.287 5.17924 73.1021 5.16799 72.929 5.16896C72.8326 5.26116 73.3929 5.32473 72.8671 5.3868C72.2697 5.43494 72.5464 5.23514 72.4562 5.29784C71.632 5.35727 72.1203 5.46033 71.3271 5.40788C71.4228 5.38688 71.5243 5.37793 71.6257 5.38677C71.0534 5.32879 70.2289 5.41196 70.0577 5.23491C70.1479 5.16627 70.2617 5.13392 70.3748 5.15498L70.3449 5.16006C70.967 5.02952 69.8254 5.19262 70.018 5.03196C70.0648 5.12827 69.2653 5.10531 68.9013 5.09486L69.0195 5.2051C67.8284 5.53891 69.0815 4.98726 67.8934 5.03624C67.1405 5.11553 68.1795 5.0682 67.7191 5.14402C67.2423 5.08284 66.7591 5.06303 66.2755 5.07883C66.0671 5.03723 65.644 4.97759 65.6035 4.85772C65.0605 4.84213 64.5172 4.86808 63.9734 4.92963C64.7482 5.02904 64.7387 4.79727 65.6442 4.95386L65.3923 5.07721C64.7657 5.07109 63.9653 5.13714 63.536 5.09514C63.6253 5.11551 63.6607 5.15214 63.6068 5.17434C62.9434 5.26213 62.2685 5.30805 61.5941 5.31242C61.4759 5.20219 61.983 5.21675 62.3531 5.20957C61.8702 5.16602 61.3869 5.15215 60.9032 5.17387C60.8565 5.07756 61.4881 5.1788 61.5846 5.08066L60.6234 5.11242C60.6294 5.10666 60.6235 5.10055 60.6236 5.09462C60.4906 5.257 59.8896 5.08541 59.3042 5.1339C58.5224 5.13519 57.7214 5.25465 56.961 5.48212C56.7526 5.44052 56.6934 5.39727 56.7773 5.35813C57.1228 5.42741 57.0577 5.37212 57.1775 5.32807C56.7059 5.34421 56.1467 5.17382 56.4099 5.11015C55.6634 5.15995 56.6836 5.19517 56.2235 5.24726L55.203 5.2417C55.3275 5.32244 55.6854 5.33865 55.1595 5.40665C54.7116 5.4294 54.4969 5.4173 53.918 5.41255C54.002 5.37342 53.7284 5.28839 54.17 5.2892C53.8721 5.24503 53.5675 5.26597 53.2803 5.33489C53.9181 5.40662 52.235 5.41172 52.7171 5.53834L52.0673 5.47219C52.2106 5.47037 52.229 5.41748 52.4437 5.42958C52.26 5.30559 51.9241 5.46808 51.7031 5.48548C51.4167 5.48319 51.1305 5.45717 50.8445 5.40741C50.5815 5.44734 50.3131 5.42776 50.0572 5.36106C49.7585 5.3881 50.0325 5.44345 49.9485 5.48259L48.928 5.48296C48.869 5.41598 48.7815 5.22352 48.9369 5.19831C48.5543 5.26448 48.8035 5.40222 48.2246 5.40341C48.5543 5.26448 47.4497 5.30993 47.9289 5.14562C47.327 5.06304 46.7184 5.04557 46.115 5.10541C45.7916 5.21484 46.6873 5.16339 46.6504 5.26918C45.1757 5.3218 45.089 5.62204 44.0092 5.57916L44.2895 5.60501C43.9551 5.61916 43.6263 5.66907 43.3031 5.75477C43.4836 5.61749 42.5251 5.40003 41.4205 5.43954C41.3303 5.50818 42.0459 5.56434 41.8657 5.67194L41.1373 5.69852C41.0837 5.69104 41.1615 5.6636 41.2572 5.64854C40.6002 5.7009 40.0236 5.48253 39.8368 5.64337L39.1585 5.45176L39.4262 5.53067C39.1033 5.59263 38.7746 5.63661 38.4462 5.65093C37.968 5.72623 37.4728 5.70608 36.9965 5.59743C37.1272 5.6546 37.4601 5.77694 36.869 5.80152C36.8713 5.58196 35.6224 5.73011 35.6355 5.62365C35.3967 5.62866 34.9677 5.56886 34.9428 5.66311L34.98 5.52766C34.9303 5.71618 34.0529 5.7266 33.384 5.76675C33.53 5.50383 32.6496 5.79908 32.3417 5.57062C32.2204 5.75115 31.1531 5.66114 31.044 5.81234C30.5247 5.82711 30.5741 5.66826 30.4434 5.61109L30.2039 5.68138C29.9422 5.60263 28.9752 5.61048 28.3968 5.5642L27.8639 5.72697L27.6617 5.6618C27.5777 5.70094 27.1357 5.73574 27.4098 5.78516L27.1233 5.78287C27.1036 5.95444 26.7169 5.83649 26.1371 5.92075C26.0001 5.89307 26.0364 5.85257 26.1619 5.83243C25.8754 5.83607 25.9957 5.74456 25.8351 5.69246C26.0436 5.73406 24.8052 6.0131 25.5864 6.07707C25.6454 6.14406 25.1912 6.20225 24.905 6.17622L24.7275 6.02867L24.3915 6.19709C24.0573 6.19343 23.7233 6.17197 23.3956 6.12101C23.7658 6.1079 24.2046 5.81184 23.2555 5.83208C23.5899 5.80606 23.9247 5.75038 24.2538 5.67673C24.0568 5.67701 23.9555 5.66223 24.2606 5.59383C23.5199 5.65566 24.0149 5.69362 23.2804 5.72595C23.3177 5.5905 23.1092 5.5489 22.4651 5.5126L22.9475 5.60361C22.9175 5.62056 22.8875 5.6375 22.8576 5.64258C23.0425 5.65382 23.096 5.67317 23.1372 5.72777C22.9939 5.72959 22.2878 5.91113 22.1633 5.8304C22.9132 6.03 20.8782 6.01905 21.3544 6.13363C21.139 6.18681 20.9182 6.18047 20.704 6.12683C21.3139 6.01376 20.234 5.98275 20.3305 5.88461C20.1033 5.92558 20.8189 5.9758 20.508 6.03217C20.2215 6.03581 19.9414 5.99809 19.6616 5.9307L19.8111 5.89938L19.2447 5.8475C19.1545 5.91614 19.7987 5.94651 19.279 5.99688C19.142 5.9692 18.6163 6.0194 18.6347 5.96651C18.8805 5.86672 18.6967 5.74867 19.1387 5.71387C18.7685 5.73292 17.5983 5.77649 18.0745 5.89107L17.6328 5.89619C17.9128 5.94578 18.6878 6.02739 17.804 6.07324L17.8103 6.04375L17.2063 6.16292L16.9384 6.10181C16.9499 6.13776 16.8541 6.17062 16.6272 6.17598C16.5679 6.13866 16.3472 6.12639 16.3657 6.0735C15.703 6.09602 15.762 6.163 15.678 6.20808C15.3077 6.22713 15.1707 6.20538 15.3388 6.11524C14.7596 6.13422 14.1808 6.12948 13.6023 6.08912C12.9271 6.16471 13.7453 6.11104 13.3503 6.21841C12.7558 5.99359 11.1066 6.18367 10.0079 6.24115C10.3162 6.43995 9.70916 6.27413 9.5102 6.46429C9.74383 6.38196 8.44939 6.32106 9.41712 6.23606L8.82589 6.27251C8.42112 6.17185 9.79984 6.16395 9.18066 6.02152C8.56475 6.13442 7.94332 6.20562 7.31642 6.22917C7.56869 6.07615 6.71891 6.29511 6.90568 6.12834C7.10307 6.08652 7.30027 6.0625 7.50319 6.06239L7.36025 6.03455C5.91006 6.02852 6.95247 6.21872 6.19922 6.33955C5.31552 6.37947 5.49601 6.24219 5.43703 6.17521C5.16861 6.16156 4.89391 6.17742 4.6248 6.22905C5.16302 6.12579 5.62677 6.29343 5.38102 6.39322C4.8627 6.30711 4.33723 6.33357 3.83431 6.48533C5.10401 6.62863 4.71173 6.47491 5.90368 6.63378C6.06539 6.57907 6.03116 6.42969 6.74096 6.46788C6.29839 6.55608 6.77588 6.55198 6.90099 6.57338C6.76458 6.4923 7.39688 6.52233 7.61217 6.48102C7.8144 6.54619 7.19811 6.69469 7.9201 6.70949L8.04758 6.5054C8.32191 6.52514 7.92663 6.65625 8.52414 6.59031C8.20661 6.70584 8.62984 6.75361 7.82357 6.80762C8.8008 6.95439 9.30503 6.67802 10.058 6.58093C9.98029 6.5965 9.97407 6.62007 9.89632 6.63564C10.1176 6.58858 10.3447 6.55948 10.5716 6.55412C11.0726 6.58632 10.1826 6.65573 10.3133 6.70697L11.1193 6.68263C11.1371 6.68908 11.1371 6.69501 11.1371 6.69501C11.2927 6.65199 11.4658 6.64509 11.6265 6.68532C11.3931 6.75578 11.2968 6.82425 11.141 6.88507L11.9782 6.7251C11.888 6.79374 12.6815 6.82245 12.084 6.8884L13.3319 6.82926L13.4439 6.96306C13.7426 6.93009 13.7489 6.90652 13.3909 6.89625C13.8204 6.91451 15.2739 6.60604 15.0621 6.88487C16.0423 6.74682 16.3941 6.78066 17.5827 6.6842C16.674 6.83618 18.6377 6.8154 17.67 6.90039C18.0519 6.89949 18.4284 6.85094 18.7994 6.76069C19.2227 6.80845 19.0422 6.94573 18.5879 7.00985L19.1198 6.93609L19.1136 6.96559L19.574 6.8779C20.0687 6.94552 19.6801 7.01153 20.1872 7.02609L20.2899 6.90439L20.6354 6.96773C20.5047 6.91649 20.8034 6.88352 21.1676 6.87023L21.1613 6.89973L21.6092 6.87104C21.1667 6.95331 22.0208 6.8888 21.8169 6.98385C22.1989 6.98295 22.2049 6.98312 22.8975 6.94958L22.773 6.86884C23.6692 6.7818 22.8136 6.98872 23.5417 6.98589L23.495 6.88957C24.5498 7.03264 25.2747 6.76854 26.0497 6.85608C25.6077 6.88494 25.72 6.99501 25.7322 6.96568C26.4011 6.91959 27.4872 6.92704 28.1749 6.79839C28.4894 6.96768 28.8526 7.04934 29.205 7.02384C29.7244 7.00908 29.7962 6.99333 29.9642 6.90912C30.4538 6.88756 30.943 6.90161 31.4318 6.9572C31.5461 6.87738 31.8853 6.96428 32.1546 6.89485L32.2139 6.93217L32.1672 6.83585C33.0603 7.03363 33.6608 6.6888 34.5601 6.86301L34.4046 6.89416L34.7811 6.85155C34.8403 6.8948 34.6908 6.92018 34.6723 6.97307L36.4211 6.96393L36.0757 6.89465C36.4164 6.83915 36.7627 6.82535 37.1147 6.84139C36.4208 6.9936 37.6936 6.8402 37.8118 6.95044L37.4354 6.99305C37.9488 6.97811 37.9488 6.97811 37.9021 6.8818C38.5649 6.84148 38.3657 7.06131 38.9756 6.94824L38.5399 6.9476C38.4093 6.89043 38.7204 6.81033 39.0129 6.81279C39.0843 6.82671 39.2928 6.86831 39.0659 6.8796C39.5915 6.83534 40.3788 6.88169 40.606 6.84073C40.8922 6.86675 40.802 6.93539 40.6466 6.9606C41.7636 6.86803 41.1537 6.97516 42.2767 6.87682L42.2583 6.92972L42.6409 6.86354L43.1948 6.97441L42.9986 6.90349C43.3391 6.87171 43.6853 6.86385 44.0254 6.87361L43.8515 6.95765C44.8905 6.90439 45.0557 7.08127 46.0417 6.96118C46.1072 6.97494 45.9577 7.00032 45.88 7.0159C46.7945 6.88189 46.5768 7.15462 47.4917 6.99094C47.4376 7.01907 47.5388 7.05165 47.5027 7.07436L47.921 7.02108L47.89 7.13297L48.2259 6.97048L48.4874 7.07889L48.6491 7.02418C49.1005 7.22708 49.7289 7.06705 50.348 7.21541L50.242 7.08178C51.779 6.77571 53.7798 7.20711 55.6432 7.07067L55.6123 7.17662L56.3834 7.06224C56.8003 7.14544 56.1377 7.15609 56.2684 7.21327C57.0927 7.1479 56.6103 7.05095 57.5656 7.01308C58.0602 7.08664 57.3976 7.0973 57.1645 7.13215C58.1142 7.05851 59.0693 7.03252 60.0239 7.06586C60.0359 7.05434 60.078 7.0318 60.0422 7.02484C60.6395 6.9767 61.4329 7.01728 62.0894 7.01239C62.071 7.06528 61.9097 7.07252 61.7485 7.07977C62.0049 7.10493 62.2616 7.10043 62.5126 7.06609L62.2669 7.15994C62.7985 7.12178 63.3355 7.13127 63.866 7.19398C63.8068 7.15073 63.8255 7.06817 64.2671 7.07492C64.51 7.24216 65.4555 7.0022 66.1589 7.08768C66.0749 7.12682 65.5616 7.13583 65.7047 7.13994C66.0328 7.16123 66.3613 7.12911 66.6785 7.04918L66.5883 7.11782L68.2246 7.01641C68.4735 7.18382 69.7647 6.98347 69.656 7.10499C70.2408 7.10992 69.1674 7.03161 69.9017 7.01114C70.0979 7.08207 70.5705 6.97692 70.5395 7.08881L70.4618 7.09845L70.9751 7.08945L70.6517 7.19294C71.0936 7.17002 71.423 7.06669 71.4417 6.98413C71.8475 6.98985 72.253 7.02523 72.6581 7.09029L72.5027 7.1155C73.6848 7.07228 74.469 7.40939 75.396 7.22826C75.4675 7.24218 75.4552 7.27151 75.312 7.26739L76.046 7.2766L75.8721 7.3547L77.079 7.22909L77.0665 7.28216C77.866 7.30511 79.1136 7.27564 80.1403 7.26357L79.9849 7.28878C81.1077 7.20825 81.0705 7.3437 81.8887 7.28409C81.8647 7.29527 81.8348 7.30629 81.805 7.30543L82.545 7.30294L82.3833 7.35765C82.7954 7.33387 83.201 7.35145 83.6122 7.41074C83.9288 7.37828 84.2398 7.31598 84.5451 7.22978C85.3509 7.22323 84.7413 7.3007 85.2422 7.34476C85.827 7.34968 85.9234 7.25748 86.7167 7.304L86.7042 7.35706C87.0743 7.34988 87.3015 7.30892 87.8148 7.30585L87.6594 7.33107C88.4961 7.21857 88.708 7.4977 89.361 7.26121C89.7127 7.30692 90.3814 7.27864 90.3504 7.38459C91.3955 7.31963 92.2075 7.28952 93.2464 7.25406C93.4176 7.43111 93.4673 7.24259 94.0988 7.34976L94.0521 7.25345C95.5203 7.24812 97.2067 7.49242 98.8243 7.4617L98.8711 7.55801L99.1944 7.45452C100.937 7.51047 103.192 7.55149 104.582 7.56767C105.198 7.47851 105.825 7.43715 106.452 7.45514L106.374 7.47072C107.634 7.42379 108.959 7.39654 110.331 7.46562C110.247 7.50475 110.384 7.53243 110.228 7.55765C110.593 7.50282 110.963 7.50751 111.326 7.56543L110.981 7.49022C111.364 7.42998 111.757 7.45315 112.132 7.56482L112.748 7.46379C112.79 7.47092 112.849 7.49044 112.861 7.50265L112.969 7.45232L113.296 7.58042C113.708 7.56257 114.12 7.50912 114.521 7.41379C114.58 7.45704 115.159 7.49146 114.711 7.51421L116.966 7.57303L116.615 7.52732C116.568 7.43101 117.249 7.37933 117.594 7.42487C117.134 7.50069 117.557 7.56032 117.753 7.63125C118.058 7.58065 117.486 7.5464 117.647 7.49169C118.114 7.42791 118.585 7.41177 119.05 7.44887L118.823 7.4839C119.349 7.4515 119.592 7.62467 120.105 7.61567C120.565 7.53985 120.911 7.621 120.811 7.45193C121.48 7.42365 121.072 7.56628 121.287 7.58432C121.741 7.5202 122.207 7.54542 122.659 7.65339C123.026 7.41461 124.46 7.75853 124.6 7.56071L125.147 7.68328C125.166 7.63039 125.275 7.50886 125.716 7.49187C126.133 7.55727 126.037 7.64947 126.168 7.70664L126.45 7.50701C128.871 7.75458 132.059 7.6443 134.712 7.85108C135.894 7.81973 137.387 7.74981 138.765 7.80125L138.61 7.82646L139.982 7.90147L138.986 7.79572C139.285 7.77461 139.518 7.73976 139.81 7.74815C141.599 7.90042 143.395 7.95198 145.186 7.90843C146.388 7.69364 145.983 8.12721 147.137 7.97039C147.041 7.99138 146.999 8.02578 146.915 8.04712C148.157 7.98781 148.826 7.95953 150.068 7.84088C149.929 8.06836 150.874 7.8462 150.765 7.96773L150.868 7.8757C151.142 7.93699 151.792 7.96753 151.702 8.03616L152.252 7.92731L152.299 8.02362C153.027 8.04452 154.585 7.99429 154.965 8.19514C156.762 8.08056 159.602 8.17397 161.857 8.25059C162.353 8.18767 162.849 8.16628 163.35 8.18067L163.898 8.30324C164.418 8.2232 164.937 8.2025 165.462 8.22945C165.462 8.24131 165.438 8.2525 165.402 8.2574C165.915 8.284 166.428 8.275 166.936 8.21835C167.521 8.23514 168.087 8.31076 167.907 8.41243C167.963 8.22408 169.142 8.46569 169.142 8.46569C169.142 8.46569 176.623 8.72205 185.019 8.8978C193.414 9.07356 202.723 9.17465 206.373 8.79867C206.583 8.71566 207.186 8.67955 206.973 8.56064C207.146 8.55374 207.325 8.57075 207.491 8.61708C207.539 8.63032 207.587 8.63763 207.634 8.64493C207.652 8.64545 207.67 8.64596 207.688 8.64054C207.694 8.64071 207.706 8.63512 207.712 8.63529L207.724 8.6297L207.73 8.62394C207.792 8.41796 207.848 8.21182 207.91 7.99991C207.854 8.18825 207.798 8.38253 207.748 8.57105C207.73 8.64174 207.736 8.61224 207.736 8.61817L207.724 8.61783L207.712 8.61749L207.688 8.6168L207.641 8.6095C207.617 8.60288 207.593 8.60219 207.569 8.58964C207.534 8.57675 207.516 8.56436 207.504 8.55215C207.486 8.52197 207.523 8.49333 207.553 8.46452C207.619 8.40113 207.697 8.33215 207.376 8.26356L207.806 8.25809C207.908 8.19573 207.208 8.30623 207.341 8.19726L207.19 8.36506C206.969 8.35278 206.755 8.30508 206.553 8.21618C206.121 8.39373 205.649 8.44547 205.184 8.37277L205.411 8.36741C204.749 8.35433 205.007 8.24302 204.87 8.20941L205.019 8.21369L204.465 8.10875C204.888 8.18025 205.587 8.06382 205.223 8.0593C204.436 7.98328 205.426 8.10666 204.835 8.11344C204.465 8.10875 204.573 8.02283 204.586 7.96383L203.924 7.95075C203.948 7.86836 204.359 7.96919 204.091 7.87841L203.255 7.9375C203.102 7.72536 202.347 8.0064 201.974 7.79979C202.571 7.76945 201.921 7.72704 202.017 7.66451L200.549 7.63423C200.412 7.60062 200.937 7.5801 200.711 7.58545C200.508 7.56183 200.305 7.57381 200.107 7.61562C199.983 7.55862 199.016 7.59021 199.053 7.45476C198.057 7.33714 198.633 7.61485 197.703 7.51098C197.585 7.42448 198.438 7.50832 198.027 7.41342L197.066 7.41551C197.228 7.31926 197.425 7.28338 197.616 7.31259C195.016 7.13109 193.618 6.66359 191.236 6.71392C190.903 6.60939 191.476 6.6555 191.715 6.59708C189.989 6.68405 189.295 6.31984 187.827 6.2955L187.802 6.37789C185.758 6.07584 183.299 6.17735 180.991 6.01611L181.264 6.07739C180.864 6.13119 180.458 6.16701 180.052 6.17316C179.993 6.12991 180.328 6.00303 179.66 6.02538C179.797 6.05899 180.083 6.09688 179.999 6.13009C178.014 5.87129 173.825 5.84004 170.568 5.6753C166.158 5.64364 161.374 5.40538 157.041 5.38189C157.704 5.38903 157.421 5.58273 156.92 5.52681C155.558 5.16121 154.563 5.54221 153.169 5.28851C150.644 5.35253 148.391 5.02668 146.049 5.25622L146.003 5.15991C145.728 5.14016 145.46 5.14432 145.191 5.17815L145.197 5.14865C144.326 5.0999 143.275 5.1825 142.774 5.12657L142.743 5.23252C142.224 5.23542 142.476 5.14767 141.944 5.1977L141.956 5.14464L141.341 5.23974C141.402 5.05157 139.885 5.20387 139.468 5.10881C138.799 5.13116 137.534 5.19572 136.52 5.14286C135.781 5.03854 135.041 4.9817 134.295 4.97215C132.749 4.98119 130.547 4.98325 128.584 4.92689L128.619 5.05253L128.105 5.0556C128.112 5.0261 128.046 5.01235 128.118 5.00253C127.72 4.86051 126.936 5.03389 126.519 4.93882C126.78 5.05317 126.877 4.96097 127.169 4.96936C127.592 5.03493 127.191 5.14807 126.619 5.07822L126.631 5.04889L126.243 5.10896C126.202 5.01282 125.844 4.961 125.804 4.86486C124.115 4.86979 122.967 5.02085 121.225 4.95302C121.405 4.84542 119.972 4.96452 120.32 4.78457C119.275 4.8436 120.491 4.93789 120.018 5.06677C119.726 5.05837 119.421 5.10897 119.368 5.04216C119.506 4.99863 119.131 4.9285 119.37 4.91161L118.671 4.92124C118.606 4.90749 118.761 4.88227 118.833 4.87246C117.411 4.96817 116.304 4.72862 115.032 4.82861C114.935 4.89708 115.539 4.85504 115.448 4.91774C114.164 5.04113 114.31 4.79008 113.115 4.8745L113.361 4.78658C112.972 4.88225 112.566 4.90621 112.167 4.84726C112.055 4.73719 112.705 4.7618 113.01 4.7112C112.574 4.70463 111.464 4.72023 111.803 4.82494C111.469 4.83908 111.135 4.80576 110.801 4.72496C110.795 4.75445 111.29 4.80428 110.985 4.84894C110.27 4.78092 109.172 4.77313 108.3 4.75999C108.307 4.73049 108.247 4.69317 108.325 4.6776C107.625 4.81777 107.7 4.5706 106.733 4.59032" fill="#003383"/>
<path opacity="0.26" d="M60.3009 5.31369L60.6531 5.3326C60.6534 5.30459 60.6656 5.26998 60.8272 5.24041L60.3009 5.31369Z" fill="#003383"/>
<path opacity="0.26" d="M76.9873 5.10517C77.0292 5.09942 77.0712 5.08649 77.1132 5.06636C77.0294 5.07785 76.9994 5.0912 76.9873 5.10517Z" fill="#003383"/>
<path opacity="0.26" d="M81.0427 4.80628C80.7555 4.83239 81.0123 4.8702 81.1555 4.90406C81.1616 4.88261 81.156 4.84632 81.0427 4.80628Z" fill="#003383"/>
<path opacity="0.26" d="M50.8536 5.88735C50.9136 5.8748 50.9497 5.85409 50.944 5.82457C50.8599 5.85825 50.8418 5.87227 50.8536 5.88735Z" fill="#003383"/>
<path opacity="0.26" d="M24.7266 6.61035L24.8339 6.62758C24.7922 6.61936 24.7624 6.61153 24.7266 6.61035Z" fill="#003383"/>
<path opacity="0.26" d="M26.1744 6.77276C26.2759 6.76929 26.3714 6.76563 26.4671 6.74837C26.3716 6.74524 26.276 6.7557 26.1744 6.77276Z" fill="#003383"/>
<path opacity="0.26" d="M57.1871 5.69098C57.2767 5.68702 57.3724 5.67627 57.4622 5.65135C57.3667 5.64813 57.277 5.65908 57.1871 5.69098Z" fill="#003383"/>
<path opacity="0.26" d="M26.7721 6.69495L27.1362 6.7C27.1363 6.69334 27.1423 6.68687 27.1424 6.67353L26.7721 6.69495Z" fill="#003383"/>
<path opacity="0.26" d="M24.2613 6.60393C24.4045 6.60203 24.5955 6.60155 24.7207 6.61151C24.5717 6.58843 24.4166 6.58378 24.2613 6.60393Z" fill="#003383"/>
<path opacity="0.26" d="M41.2648 6.32472L41.3067 6.31907C41.5879 6.26491 41.4085 6.28712 41.2648 6.32472Z" fill="#003383"/>
<path opacity="0.26" d="M28.3572 6.40901L28.405 6.41065L28.5129 6.37155L28.3572 6.40901Z" fill="#003383"/>
<path opacity="0.26" d="M22.686 6.60961C22.7458 6.60461 22.8055 6.5996 22.8654 6.58053L22.6565 6.56641C22.6802 6.58831 22.686 6.60258 22.686 6.60961Z" fill="#003383"/>
<path opacity="0.26" d="M35.7879 6.27264C35.6856 6.32769 35.6494 6.36306 35.6432 6.38484C35.769 6.38194 35.847 6.35537 35.7879 6.27264Z" fill="#003383"/>
</g>
</g>
</g>
</g>
</g>
<defs>
<clipPath id="clip0_717_70134">
<rect width="208" height="15" fill="white"/>
</clipPath>
</defs>
</svg>
