<svg width="247" height="21" viewBox="0 0 247 21" fill="none" xmlns="http://www.w3.org/2000/svg">
<g clip-path="url(#clip0_717_70175)">
<path d="M209.793 5.3775C209.815 5.35831 209.829 5.32842 209.837 5.29808C209.801 5.32664 209.793 5.35698 209.793 5.3775Z" fill="#F2304B"/>
<path d="M190.688 4.94482L190.908 4.91183C190.837 4.90783 190.759 4.92158 190.688 4.94482Z" fill="#F2304B"/>
<path d="M221.241 5.61434C221.234 5.61956 221.22 5.61903 221.212 5.62425L222.02 5.65448L221.241 5.61434Z" fill="#F2304B"/>
<path d="M149.936 5.12585L150.191 5.12316C150.106 5.12656 150.021 5.12245 149.936 5.12585Z" fill="#F2304B"/>
<path d="M174.085 5.01604C173.979 5.04645 173.872 5.05865 173.759 5.06133C173.872 5.08598 173.986 5.06507 174.085 5.01604Z" fill="#F2304B"/>
<path d="M227.285 7.5346L226.959 7.40088C226.959 7.45814 227.079 7.51295 227.285 7.5346Z" fill="#F2304B"/>
<path d="M238.888 7.17726C238.881 7.16677 238.867 7.15585 238.859 7.14536C238.845 7.16459 238.859 7.17551 238.888 7.17726Z" fill="#F2304B"/>
<path d="M234.359 6.62297C234.26 6.62632 234.146 6.63772 234.033 6.65794C234.168 6.65654 234.345 6.66632 234.359 6.62297Z" fill="#F2304B"/>
<path d="M233.876 6.69071L234.033 6.67271C233.948 6.668 233.877 6.67294 233.876 6.69071Z" fill="#F2304B"/>
<path d="M2.01227 12.7649C1.66418 12.7914 1.31595 12.8644 0.981794 12.9755L2.01227 12.7649Z" fill="#F2304B"/>
<path d="M113.049 6.26474L113.12 6.21946C113.049 6.22506 113.035 6.24404 113.049 6.26474Z" fill="#F2304B"/>
<path d="M1.62371 13.8771L1.37569 13.873C1.45363 13.8763 1.53865 13.8798 1.62371 13.8771Z" fill="#F2304B"/>
<path d="M221.137 7.8573C220.804 7.94657 220.116 7.80432 220.123 7.90305C220.471 7.89649 220.974 7.98819 221.137 7.8573Z" fill="#F2304B"/>
<path d="M105.332 11.2389L105.112 11.2436C105.219 11.2411 105.282 11.2442 105.332 11.2389Z" fill="#F2304B"/>
<path d="M1.62372 13.8639L1.91467 13.8712C1.88635 13.8516 1.85803 13.8321 1.82258 13.8212C1.75153 13.8441 1.68761 13.8585 1.62372 13.8639Z" fill="#F2304B"/>
<path d="M74.6404 7.84326L74.6546 7.84409L74.7329 7.82032L74.6404 7.84326Z" fill="#F2304B"/>
<path d="M72.601 7.71978L73.0339 7.68266C72.885 7.67458 72.7431 7.68419 72.601 7.71978Z" fill="#F2304B"/>
<path d="M0.981725 13.0279L0.405985 13.1536C0.597848 13.1273 0.789772 13.0823 0.981725 13.0279Z" fill="#F2304B"/>
<path d="M50.649 9.00713L50.8476 8.99213C50.7838 8.98869 50.7128 8.99344 50.649 9.00713Z" fill="#F2304B"/>
<path d="M175.637 5.04195L175.814 5.06948C175.835 5.04408 175.821 5.02558 175.637 5.04195Z" fill="#F2304B"/>
<path d="M161.298 8.49895C161.022 8.48327 160.752 8.5227 160.489 8.62635C160.765 8.63291 161.042 8.59388 161.298 8.49895Z" fill="#F2304B"/>
<path d="M158.753 8.62939L158.852 8.64235C158.817 8.64055 158.788 8.63119 158.753 8.62939Z" fill="#F2304B"/>
<path d="M175.051 8.53603L175.051 8.52583C175.044 8.52539 175.044 8.53559 175.044 8.53559L175.051 8.53603Z" fill="#F2304B"/>
<path d="M171.827 8.61199C171.756 8.59056 171.678 8.56873 171.6 8.56445C171.678 8.59505 171.748 8.60771 171.827 8.61199Z" fill="#F2304B"/>
<path d="M150.725 9.19141L150.711 9.18066L150.725 9.19141Z" fill="#F2304B"/>
<path d="M120.334 10.7244C123.383 10.6823 127.332 10.5495 130.366 10.6172C131.21 10.4756 132.075 10.411 132.94 10.4224L133.052 10.6485L133.853 10.581C134.179 10.651 133.236 10.6154 133.817 10.7038L134.116 10.5652C134.179 10.6441 136.185 10.6309 134.838 10.7843L137.964 10.8079C138.658 10.8185 138.362 10.6255 139.127 10.6876C139.282 10.7568 138.857 10.7307 138.921 10.8096C141.223 10.9894 141.56 10.3966 143.7 10.5138L143.515 10.5401C143.877 10.4804 144.572 10.4979 144.579 10.4637C144.297 10.2368 144.196 10.5777 143.544 10.4447C143.595 10.2535 144.353 10.3498 144.304 10.2026C144.715 10.2349 145.126 10.2189 145.538 10.1684C146.288 10.299 147.352 10.2226 147.918 10.3794C148.422 10.2432 148.94 10.1629 149.465 10.1451C150.031 10.3019 149.337 10.2844 150.102 10.3535L150.223 10.2484C150.847 10.2696 150.754 10.3 150.733 10.3543C151.194 10.2922 151.662 10.2718 152.13 10.2929L151.661 10.3962C152.285 10.3621 152.533 10.3802 153.405 10.4057C153.39 10.4673 153.043 10.4585 152.788 10.4401C153.262 10.6066 153.589 10.3795 153.844 10.3979C153.774 10.3464 153.171 10.3192 153.463 10.2149C153.895 10.2413 154.371 10.0762 154.682 10.2077L154.213 10.3109C154.703 10.2156 155.214 10.1902 155.717 10.2336C155.66 10.238 155.688 10.2669 155.667 10.2936C156.482 10.2267 157.312 10.2365 158.133 10.3219L157.949 10.3481C158.339 10.3173 158.545 10.223 158.758 10.2326C158.205 10.1593 158.354 10.1315 158.305 10.0256C159.034 10.2174 159.405 9.82652 160.595 9.94929C160.581 10.0108 160.297 10.0878 159.964 10.0175C159.622 10.2509 159.225 10.3987 158.799 10.4348C159.246 10.3997 159.778 10.3753 159.664 10.4531L159.8 10.2796C160.069 10.2779 160.289 10.2947 160.494 10.2902C160.608 10.1848 159.942 10.1064 160.566 10.0378C161.275 9.98688 160.948 10.2208 161.055 10.1427C162.033 10.0832 161.453 9.96033 162.395 10.0305C162.282 10.053 162.161 10.0614 162.041 10.0559C162.714 10.1346 163.7 10.0409 163.897 10.2571C163.79 10.3352 163.655 10.3706 163.528 10.3441L163.535 10.3099C162.797 10.4562 164.152 10.2755 163.924 10.4656C163.868 10.3525 164.818 10.3953 165.243 10.4214L165.102 10.2907C166.514 9.93297 165.03 10.5431 166.433 10.5166C167.327 10.4463 166.093 10.4736 166.64 10.3946C167.206 10.4754 167.78 10.5151 168.354 10.5065C168.602 10.5591 169.105 10.6371 169.154 10.7844C169.799 10.8134 170.444 10.8011 171.089 10.7404C170.169 10.6021 170.181 10.8791 169.105 10.6716L169.403 10.54C170.148 10.5597 171.091 10.5055 171.608 10.5634C171.502 10.531 171.459 10.4945 171.523 10.4698C172.31 10.3878 173.112 10.348 173.913 10.3564C174.054 10.4872 173.451 10.4531 173.012 10.4609C173.586 10.5213 174.16 10.5472 174.734 10.5386C174.79 10.6516 174.039 10.5211 173.925 10.6265L175.067 10.6088C175.06 10.6154 175.067 10.6227 175.067 10.6296C175.231 10.4435 175.938 10.662 176.633 10.6173C177.59 10.6259 178.534 10.5096 179.442 10.2604C179.69 10.313 179.761 10.3646 179.661 10.4084C179.258 10.3211 179.328 10.3865 179.186 10.4285C179.746 10.4192 180.412 10.6357 180.099 10.7045C180.986 10.6616 179.781 10.6004 180.32 10.5487L181.532 10.5826C181.383 10.4861 180.958 10.4531 181.582 10.3914C182.114 10.374 182.369 10.3993 183.057 10.4165C182.957 10.4603 183.276 10.5645 182.758 10.5481C183.113 10.6055 183.474 10.5942 183.815 10.5128C183.057 10.4096 185.056 10.4513 184.489 10.2945L185.247 10.3978C185.077 10.3901 185.056 10.4582 184.801 10.4329C185.019 10.581 185.417 10.4055 185.68 10.3966C186.02 10.4119 186.36 10.4549 186.7 10.5186C187.012 10.4843 187.331 10.5125 187.635 10.6022C187.99 10.5837 187.664 10.5068 187.763 10.4629L188.975 10.5038C189.039 10.5895 189.144 10.8084 188.967 10.835C189.421 10.7726 189.124 10.6003 189.818 10.6247C189.428 10.7729 190.732 10.7626 190.164 10.9374C190.879 11.0594 191.602 11.0989 192.311 11.0549C192.695 10.9409 191.638 10.9693 191.674 10.8466C193.425 10.8426 193.526 10.4948 194.809 10.5803L194.476 10.5377C194.873 10.5348 195.27 10.4906 195.653 10.4042C195.433 10.5532 196.573 10.8464 197.884 10.8433C197.991 10.7653 197.148 10.6789 197.361 10.5572L198.233 10.5551C198.297 10.5718 198.197 10.5949 198.091 10.6109C198.871 10.57 199.55 10.8494 199.778 10.6662L200.577 10.9164L200.259 10.8123C200.642 10.7466 201.032 10.7159 201.429 10.7061C201.997 10.6419 202.578 10.6819 203.144 10.8249C202.988 10.7557 202.599 10.6 203.301 10.5902C203.3 10.8458 204.782 10.7192 204.76 10.8494C205.044 10.8553 205.554 10.9474 205.582 10.8451L205.539 11.002C205.604 10.7839 206.639 10.8236 207.433 10.8042C207.254 11.1001 208.305 10.8089 208.665 11.0877C208.815 10.8872 210.076 11.0477 210.211 10.8811C210.821 10.8879 210.763 11.0787 210.919 11.1479L211.203 11.0778C211.514 11.1817 212.662 11.2265 213.349 11.3128L213.981 11.1478L214.214 11.2344C214.314 11.1905 214.846 11.1799 214.513 11.1027L214.853 11.125C214.882 10.9329 215.335 11.0846 216.023 11.0189C216.186 11.0538 216.143 11.1003 215.994 11.1212C216.334 11.1365 216.192 11.2268 216.383 11.2976C216.135 11.2381 217.618 10.9803 216.69 10.8624C216.627 10.7835 217.166 10.7388 217.506 10.7817L217.711 10.9637L218.115 10.7885C218.512 10.8064 218.909 10.8588 219.299 10.9317C218.859 10.9326 218.326 11.2402 219.46 11.2706C219.056 11.2869 218.659 11.3243 218.268 11.3965C218.502 11.4139 218.623 11.4332 218.254 11.4925C219.14 11.4634 218.552 11.3954 219.424 11.3933C219.373 11.5499 219.621 11.6095 220.386 11.6854L219.813 11.5559C219.848 11.5368 219.884 11.5246 219.919 11.5124C219.7 11.4887 219.643 11.4585 219.594 11.401C219.764 11.4086 220.608 11.2326 220.75 11.3356C219.865 11.0609 222.282 11.1906 221.722 11.0272C221.978 10.9765 222.247 10.9956 222.495 11.0758C221.764 11.1741 223.047 11.2734 222.926 11.3785C223.195 11.3423 222.352 11.2421 222.714 11.1962C223.054 11.2116 223.387 11.2611 223.713 11.3587L223.528 11.385L224.201 11.4775C224.308 11.3994 223.55 11.3168 224.167 11.3032C224.329 11.3451 224.953 11.3249 224.932 11.3861C224.633 11.4832 224.852 11.6381 224.321 11.6418C224.76 11.6478 226.157 11.6831 225.59 11.5125L226.115 11.5362C225.789 11.4593 224.868 11.3003 225.917 11.32L225.91 11.3611L226.641 11.2697L226.959 11.367C226.952 11.3252 227.066 11.2958 227.335 11.3079C227.406 11.3595 227.661 11.3848 227.639 11.446C228.426 11.4677 228.363 11.3819 228.462 11.3449C228.902 11.3509 229.064 11.3859 228.858 11.4733C229.546 11.4905 230.233 11.5492 230.92 11.6354C231.729 11.5959 230.758 11.5935 231.226 11.5041C231.919 11.8048 233.883 11.7138 235.194 11.7245C234.834 11.4665 235.556 11.7132 235.791 11.4958C235.507 11.559 237.037 11.7317 235.889 11.7559L236.591 11.7599C237.072 11.9129 235.428 11.818 236.157 12.0236C236.895 11.9394 237.639 11.9039 238.383 11.9236C238.071 12.0822 239.099 11.8937 238.865 12.0697C238.63 12.1075 238.396 12.1177 238.155 12.0999L238.318 12.1418C240.04 12.254 238.815 11.9569 239.723 11.8735C240.772 11.8932 240.552 12.0422 240.615 12.121C240.941 12.1564 241.26 12.157 241.586 12.1164C240.948 12.1982 240.403 11.9664 240.694 11.869C241.303 12.0139 241.934 12.0147 242.537 11.8761C241.036 11.6149 241.496 11.8291 240.094 11.5517C239.902 11.6052 239.929 11.7792 239.086 11.679C239.618 11.6132 239.051 11.5807 238.903 11.5463C239.065 11.6504 238.314 11.5682 238.059 11.5981C237.825 11.5047 238.563 11.3859 237.706 11.3127L237.542 11.5471C237.209 11.4976 237.684 11.3808 236.968 11.4107C237.352 11.3037 236.849 11.2119 237.82 11.2142C236.666 10.9687 236.055 11.259 235.154 11.3082C235.246 11.2985 235.253 11.2643 235.346 11.2547C235.083 11.2981 234.814 11.3136 234.544 11.2945C233.956 11.2196 235.013 11.2051 234.857 11.1359L233.9 11.1066C233.879 11.0987 233.879 11.0918 233.879 11.0918C233.688 11.1315 233.489 11.1226 233.298 11.0656C233.582 11.0024 233.696 10.9246 233.887 10.8711L232.887 10.9987C232.994 10.9275 232.059 10.8301 232.775 10.8002L231.286 10.7745L231.16 10.6099C230.805 10.6284 230.791 10.6554 231.223 10.6887C230.713 10.6312 228.968 10.8841 229.239 10.5785C228.069 10.6639 227.651 10.5967 226.24 10.6229C227.325 10.5199 224.994 10.3871 226.142 10.3629C225.689 10.3355 225.235 10.3565 224.795 10.4403C224.299 10.3558 224.52 10.2068 225.059 10.1689L224.427 10.2165L224.442 10.1826L223.896 10.2547C223.315 10.1525 223.776 10.0904 223.174 10.0494L223.045 10.1887L222.635 10.0941C222.79 10.1633 222.429 10.1816 221.996 10.1828L222.003 10.1486L221.472 10.1592C221.997 10.0861 220.99 10.1167 221.224 10.0167C220.771 9.99628 220.764 9.99596 219.941 10.0003L220.083 10.1034C219.012 10.1588 220.034 9.95613 219.169 9.92404L219.225 10.0371C217.979 9.81509 217.113 10.08 216.185 9.93454C216.716 9.92397 216.575 9.79325 216.568 9.82056C215.774 9.84002 214.477 9.76772 213.661 9.88292C213.287 9.66567 212.862 9.5567 212.444 9.56547C211.834 9.55871 211.742 9.56837 211.543 9.65612C210.962 9.65754 210.381 9.61061 209.8 9.52224C209.665 9.61287 209.261 9.48413 208.942 9.55954L208.871 9.508L208.928 9.62107C207.873 9.3386 207.148 9.70662 206.079 9.46496L206.263 9.43873L205.816 9.46695C205.746 9.4154 205.923 9.38885 205.945 9.32765L203.861 9.2475L204.272 9.34201C203.867 9.39287 203.449 9.39473 203.038 9.36238C203.868 9.21328 202.344 9.33796 202.21 9.20756L202.656 9.17244C202.047 9.16567 202.047 9.16567 202.096 9.27843C201.302 9.29789 201.551 9.05351 200.82 9.15873L201.345 9.17548C201.501 9.24467 201.124 9.32444 200.777 9.31568C200.692 9.29803 200.451 9.23881 200.714 9.22992C200.09 9.25705 199.155 9.18033 198.878 9.21621C198.538 9.17324 198.652 9.09547 198.829 9.06892C197.496 9.14007 198.227 9.03485 196.894 9.09909L196.915 9.03788L196.44 9.12699L195.781 8.97984L196.015 9.06637C195.611 9.08959 195.2 9.08487 194.796 9.05974L195.002 8.97231C193.768 8.99958 193.571 8.78342 192.401 8.88955C192.323 8.87222 192.5 8.84567 192.592 8.82911C191.507 8.95289 191.764 8.63975 190.678 8.79807C190.742 8.76641 190.622 8.72644 190.665 8.70073L190.168 8.74743L190.204 8.62469L189.799 8.79988L189.488 8.66839L189.297 8.72193C188.766 8.47002 188.014 8.63645 187.285 8.43775L187.412 8.60237C185.581 8.886 183.209 8.32305 180.99 8.44404L181.026 8.32131L180.111 8.45276C179.615 8.3475 180.402 8.34844 180.247 8.27925C179.268 8.33184 179.842 8.46134 178.707 8.47927C178.127 8.38399 178.906 8.39152 179.183 8.34873C178.055 8.41533 176.921 8.41945 175.787 8.3545C175.773 8.36768 175.723 8.39307 175.766 8.40189C175.057 8.44591 174.114 8.37577 173.328 8.36793C173.342 8.31331 173.541 8.30153 173.732 8.29635C173.427 8.26188 173.123 8.26196 172.825 8.28997L173.116 8.18566C172.485 8.21938 171.847 8.19061 171.217 8.1C171.287 8.15155 171.265 8.24729 170.741 8.23055C170.451 8.03094 169.323 8.29095 168.487 8.17035C168.586 8.12648 169.196 8.12633 169.026 8.11866C168.636 8.08727 168.246 8.11804 167.863 8.19748L167.977 8.11971L166.034 8.19791C165.745 7.99831 164.198 8.19802 164.327 8.05872C163.632 8.04121 164.914 8.15432 164.035 8.16304C163.802 8.07651 163.241 8.19631 163.277 8.06667L163.37 8.05011L162.753 8.04993L163.136 7.92904C162.612 7.94684 162.221 8.0674 162.199 8.16315C161.717 8.14832 161.236 8.10586 160.754 8.02196L160.938 7.99574C159.535 8.02916 158.601 7.62779 157.501 7.82691C157.416 7.80926 157.431 7.77536 157.601 7.78304L156.729 7.77135L156.935 7.67701L155.502 7.80585L155.517 7.74433C154.567 7.70841 153.086 7.72449 151.859 7.73137L152.044 7.70514C150.711 7.79011 150.754 7.63316 149.782 7.68607C149.811 7.67354 149.846 7.66132 149.882 7.66292L149.003 7.65782L149.195 7.59738C148.705 7.61677 148.223 7.58813 147.735 7.51772C147.359 7.54913 146.99 7.6154 146.635 7.71685C145.678 7.71514 146.401 7.63032 145.806 7.57584C145.225 7.6118 144.644 7.62013 144.055 7.60051L144.07 7.53898C143.63 7.54679 143.361 7.58991 142.751 7.59005L142.935 7.56382C141.942 7.69176 141.689 7.36942 140.915 7.63851C140.497 7.58511 139.703 7.61839 139.739 7.48875C138.498 7.56405 137.534 7.58966 136.307 7.63798C136.103 7.4284 136.045 7.64687 135.294 7.5232L135.35 7.63627C133.606 7.64053 131.595 7.34945 129.673 7.38026L129.617 7.26719L129.234 7.38807C127.164 7.32238 124.485 7.25682 122.834 7.24452C122.103 7.34974 121.365 7.39939 120.621 7.38655L120.713 7.36999C119.225 7.4272 117.643 7.47335 116.013 7.39984C116.113 7.35596 115.95 7.32098 116.127 7.28753C115.695 7.35092 115.255 7.35182 114.823 7.28398L115.234 7.37159C114.78 7.44783 114.312 7.41983 113.866 7.28918L113.135 7.40822C113.086 7.39907 113.008 7.38174 113.001 7.3607L112.873 7.41712L112.477 7.26798C111.988 7.28737 111.505 7.35543 111.03 7.47216C110.959 7.42061 110.272 7.3827 110.804 7.35832L108.124 7.30658L108.542 7.35998C108.598 7.47305 107.797 7.54054 107.379 7.48715C107.918 7.40092 107.415 7.32988 107.182 7.24335C106.82 7.30303 107.5 7.34062 107.316 7.40139C106.769 7.48039 106.209 7.49658 105.65 7.45751L105.919 7.4144C105.302 7.45567 105.005 7.25575 104.396 7.2628C103.85 7.3487 103.439 7.268 103.558 7.45993C102.764 7.50011 103.247 7.32844 102.992 7.31003C102.453 7.38935 101.9 7.36442 101.362 7.24343C100.935 7.52817 99.2146 7.13968 99.0646 7.37472L98.406 7.24139C98.3915 7.30291 98.2632 7.44912 97.7385 7.47382C97.2355 7.40278 97.3495 7.29047 97.201 7.2285L96.8737 7.46246C93.9899 7.20804 90.2108 7.37615 87.0503 7.16452C85.6465 7.21176 83.8808 7.32558 82.2435 7.29319L82.4209 7.25974L80.7908 7.20004L81.9812 7.30209C81.6266 7.32755 81.3499 7.37725 81.0097 7.37572C78.8767 7.23808 76.7502 7.21127 74.6232 7.29497C73.2111 7.56982 73.6674 7.05842 72.3054 7.25953C72.4189 7.23702 72.4616 7.19749 72.5681 7.16775C71.1003 7.26045 70.3061 7.30754 68.8379 7.46932C68.9953 7.20006 67.8809 7.47453 68.0022 7.33491L67.8811 7.4469C67.5482 7.38353 66.7757 7.3625 66.8824 7.28441L66.2366 7.4211L66.1734 7.30771C65.3086 7.30325 63.465 7.40665 62.9983 7.17833C60.8708 7.35874 57.4968 7.32403 54.8174 7.29301C54.2357 7.37732 53.6471 7.41986 53.0517 7.40683L52.3932 7.2735C51.783 7.37725 51.166 7.42542 50.5423 7.41111C50.5424 7.3973 50.5708 7.38476 50.6063 7.37945C49.9968 7.35887 49.387 7.39355 48.784 7.46999C48.0893 7.4663 47.4163 7.4014 47.6225 7.27943C47.5646 7.49791 46.1552 7.26162 46.1552 7.26162C46.1552 7.26162 37.2805 7.19992 27.3203 7.31726C17.3529 7.44119 6.31424 7.7517 2.00772 8.46255C1.68104 8.57909 0.794368 8.6911 1.16239 8.80442C0.488586 8.87766 0.12085 8.70908 0.0139347 8.82171C0.956617 8.8435 -0.178957 9.1101 0.742106 9.2L0.188888 9.25795C0.096326 9.33669 0.91964 9.13892 0.819669 9.27949L0.934173 9.07048C1.23197 9.05628 1.52948 9.09733 1.81969 9.17951C2.31711 8.94631 2.87763 8.84723 3.44441 8.90733L3.17496 8.92282C3.96195 8.89613 3.66343 9.04848 3.83341 9.07687L3.6562 9.07579L4.32915 9.16832C3.82615 9.11109 3.0029 9.29505 3.43543 9.2731C4.37804 9.3087 3.18756 9.22738 3.88953 9.18995C4.32915 9.16832 4.20806 9.28031 4.19352 9.34874L4.97342 9.32173C4.95166 9.41748 4.45592 9.32603 4.78153 9.41671L5.7604 9.29505C5.95766 9.53193 6.82442 9.15649 7.29113 9.3779C6.58192 9.44264 7.3616 9.45707 7.24778 9.53485L8.98471 9.49573C9.14761 9.5238 8.53061 9.57888 8.79297 9.56308C9.03389 9.58085 9.27503 9.55718 9.50221 9.49143C9.65784 9.55372 10.7996 9.46703 10.7633 9.63121C11.9466 9.71912 11.2464 9.41809 12.3518 9.49558C12.5002 9.59209 11.4797 9.53225 11.9755 9.6237L13.1241 9.56496C12.9392 9.68098 12.7121 9.73292 12.4854 9.70887C15.5757 9.78606 17.2673 10.2838 20.0753 10.1203C20.4788 10.2283 19.7913 10.2042 19.5144 10.2815C21.5498 10.1038 22.3984 10.5014 24.1353 10.4623L24.1642 10.3668C26.6013 10.6356 29.5087 10.4351 32.2586 10.5246L31.9258 10.4612C32.3941 10.3787 32.8763 10.3314 33.3514 10.3045C33.4221 10.3491 33.0384 10.5114 33.8255 10.464C33.6556 10.4287 33.3226 10.3999 33.4221 10.3491C35.7886 10.5664 40.7511 10.4724 44.6211 10.564C49.846 10.4473 55.5303 10.6069 60.663 10.5206C59.8832 10.5337 60.2034 10.2926 60.7915 10.3467C62.427 10.7383 63.5849 10.2654 65.2493 10.527C68.2345 10.3784 70.9193 10.7275 73.6926 10.4104L73.7487 10.5234C74.0747 10.5381 74.3938 10.5249 74.713 10.484L74.7057 10.5182C75.7404 10.558 76.9816 10.4412 77.5767 10.4957L77.6058 10.3658C78.2155 10.3518 77.9313 10.4633 78.5555 10.3879L78.541 10.4494L79.2647 10.33C79.2069 10.5485 80.9943 10.3459 81.49 10.4442C82.2841 10.404 83.7803 10.3057 84.9852 10.3462C85.8636 10.4549 86.7494 10.5087 87.6284 10.5138C89.4574 10.4857 92.0733 10.4517 94.4053 10.4947L94.3564 10.3543L94.9661 10.3472C94.9588 10.3815 95.0438 10.3922 94.9516 10.4088C95.4327 10.5756 96.3554 10.3615 96.844 10.4596C96.5327 10.3281 96.4188 10.4404 96.0714 10.4386C95.5685 10.3675 96.0441 10.2301 96.7172 10.3019L96.7028 10.3358L97.1569 10.2595C97.213 10.3726 97.631 10.426 97.6942 10.5325C99.6934 10.5052 101.055 10.3179 103.118 10.3694C102.912 10.4914 104.6 10.3395 104.194 10.5562C105.435 10.4809 103.983 10.3808 104.543 10.2265C104.891 10.2352 105.253 10.1755 105.316 10.2544C105.153 10.3092 105.606 10.3849 105.322 10.4067L106.152 10.3957C106.23 10.413 106.052 10.4396 105.96 10.4562C107.648 10.3388 108.958 10.6121 110.468 10.4868C110.575 10.4087 109.866 10.4596 109.973 10.3815C111.49 10.2289 111.326 10.5254 112.744 10.4236L112.453 10.5279C112.907 10.4102 113.389 10.3836 113.864 10.4534C114.005 10.5841 113.225 10.5558 112.864 10.6155C113.381 10.625 114.693 10.5944 114.289 10.4794C114.686 10.4628 115.083 10.5014 115.479 10.5884C115.487 10.5542 114.899 10.5 115.26 10.4403C116.111 10.5132 117.415 10.5168 118.45 10.5358C118.443 10.57 118.513 10.6147 118.428 10.6316C119.265 10.4759 119.186 10.7625 120.334 10.7244Z" fill="#F2304B"/>
<path d="M175.476 8.57537L175.057 8.54275C175.057 8.57896 175.043 8.62342 174.844 8.6575L175.476 8.57537Z" fill="#F2304B"/>
<path d="M155.668 8.87064C155.618 8.87731 155.568 8.8936 155.518 8.9195C155.618 8.90615 155.646 8.88861 155.668 8.87064Z" fill="#F2304B"/>
<path d="M150.859 9.32551C151.2 9.28768 150.895 9.24042 150.724 9.19152C150.717 9.22985 150.724 9.26903 150.859 9.32551Z" fill="#F2304B"/>
<path d="M186.687 7.85859C186.615 7.87419 186.572 7.90147 186.579 7.93179C186.679 7.90797 186.701 7.87938 186.687 7.85859Z" fill="#F2304B"/>
<path d="M217.701 7.82787L217.581 7.79346C217.623 7.81424 217.659 7.82544 217.701 7.82787Z" fill="#F2304B"/>
<path d="M215.983 7.53211C215.862 7.52588 215.749 7.53633 215.635 7.54677C215.756 7.553 215.869 7.55071 215.983 7.53211Z" fill="#F2304B"/>
<path d="M179.173 8.06373C179.067 8.06677 178.953 8.07843 178.847 8.10851C178.96 8.11488 179.067 8.09381 179.173 8.06373Z" fill="#F2304B"/>
<path d="M215.28 7.6077L214.848 7.57848C214.841 7.58589 214.841 7.59366 214.841 7.60919L215.28 7.6077Z" fill="#F2304B"/>
<path d="M218.246 7.85931C218.076 7.8516 217.85 7.84133 217.701 7.82764C217.885 7.86377 218.069 7.87212 218.246 7.85931Z" fill="#F2304B"/>
<path d="M198.07 7.50926L198.02 7.51561C197.694 7.57046 197.9 7.54546 198.07 7.50926Z" fill="#F2304B"/>
<path d="M213.385 7.92318L213.328 7.91066L213.2 7.94966L213.385 7.92318Z" fill="#F2304B"/>
<path d="M220.116 7.9369C220.045 7.93287 219.974 7.94713 219.903 7.9614L220.151 7.9938C220.123 7.96474 220.123 7.94645 220.116 7.9369Z" fill="#F2304B"/>
<path d="M204.565 7.72208C204.687 7.65946 204.73 7.61206 204.737 7.5825C204.594 7.5838 204.501 7.60816 204.565 7.72208Z" fill="#F2304B"/>
<g opacity="0.26">
<g opacity="0.26">
<g opacity="0.26">
<g opacity="0.26">
<path opacity="0.26" d="M209.793 5.37696C209.815 5.35781 209.829 5.32796 209.837 5.29765C209.801 5.32614 209.793 5.35645 209.793 5.37696Z" fill="#F2304B"/>
<path opacity="0.26" d="M190.688 4.94411L190.908 4.91157C190.837 4.90749 190.759 4.92108 190.688 4.94411Z" fill="#F2304B"/>
<path opacity="0.26" d="M221.241 5.61435C221.234 5.61948 221.22 5.61894 221.212 5.62407L222.02 5.65448L221.241 5.61435Z" fill="#F2304B"/>
<path opacity="0.26" d="M149.936 5.1257L150.191 5.12331C150.106 5.12658 150.021 5.12242 149.936 5.1257Z" fill="#F2304B"/>
<path opacity="0.26" d="M174.086 5.01588C173.979 5.04601 173.872 5.05801 173.759 5.06054C173.872 5.08521 173.986 5.06455 174.086 5.01588Z" fill="#F2304B"/>
<path opacity="0.26" d="M227.285 7.5346L226.959 7.40088C226.959 7.45795 227.079 7.51275 227.285 7.5346Z" fill="#F2304B"/>
<path opacity="0.26" d="M238.888 7.17677C238.881 7.16629 238.867 7.15536 238.859 7.14488C238.845 7.16406 238.859 7.17499 238.888 7.17677Z" fill="#F2304B"/>
<path opacity="0.26" d="M234.359 6.62328C234.26 6.62649 234.146 6.63767 234.033 6.65763C234.168 6.65642 234.345 6.66636 234.359 6.62328Z" fill="#F2304B"/>
<path opacity="0.26" d="M233.876 6.69007L234.033 6.67238C233.948 6.66757 233.877 6.67241 233.876 6.69007Z" fill="#F2304B"/>
<path opacity="0.26" d="M2.01223 12.766C1.66415 12.7919 1.31592 12.8642 0.981759 12.9743L2.01223 12.766Z" fill="#F2304B"/>
<path opacity="0.26" d="M113.049 6.26465L113.12 6.21956C113.049 6.22505 113.035 6.24397 113.049 6.26465Z" fill="#F2304B"/>
<path opacity="0.26" d="M1.62371 13.8772L1.37569 13.8729C1.45363 13.8762 1.53865 13.8798 1.62371 13.8772Z" fill="#F2304B"/>
<path opacity="0.26" d="M221.137 7.85808C220.804 7.94625 220.116 7.80432 220.123 7.90227C220.471 7.89617 220.974 7.98773 221.137 7.85808Z" fill="#F2304B"/>
<path opacity="0.26" d="M105.332 11.2391L105.112 11.2434C105.219 11.2411 105.282 11.2443 105.332 11.2391Z" fill="#F2304B"/>
<path opacity="0.26" d="M1.62377 13.8636L1.91472 13.8712C1.8864 13.8517 1.85808 13.8323 1.82264 13.8214C1.75159 13.8441 1.68766 13.8583 1.62377 13.8636Z" fill="#F2304B"/>
<path opacity="0.26" d="M74.6404 7.84316L74.6546 7.844L74.7328 7.82042L74.6404 7.84316Z" fill="#F2304B"/>
<path opacity="0.26" d="M72.601 7.71891L73.0339 7.68256C72.885 7.67434 72.743 7.68372 72.601 7.71891Z" fill="#F2304B"/>
<path opacity="0.26" d="M0.981704 13.0285L0.405964 13.153C0.597825 13.127 0.789749 13.0824 0.981704 13.0285Z" fill="#F2304B"/>
<path opacity="0.26" d="M50.649 9.00647L50.8477 8.99181C50.7839 8.98832 50.7129 8.99295 50.649 9.00647Z" fill="#F2304B"/>
<path opacity="0.26" d="M175.637 5.04188L175.814 5.06947C175.835 5.04425 175.821 5.02583 175.637 5.04188Z" fill="#F2304B"/>
<path opacity="0.26" d="M161.298 8.49928C161.022 8.48333 160.752 8.52222 160.489 8.62504C160.765 8.63192 161.042 8.59344 161.298 8.49928Z" fill="#F2304B"/>
<path opacity="0.26" d="M158.753 8.62891L158.852 8.64186C158.817 8.64004 158.788 8.63072 158.753 8.62891Z" fill="#F2304B"/>
<path opacity="0.26" d="M175.051 8.53603L175.051 8.52584C175.044 8.52539 175.044 8.53558 175.044 8.53558L175.051 8.53603Z" fill="#F2304B"/>
<path opacity="0.26" d="M171.827 8.61199C171.756 8.5906 171.678 8.56881 171.6 8.56445C171.678 8.59496 171.749 8.60764 171.827 8.61199Z" fill="#F2304B"/>
<path opacity="0.26" d="M150.725 9.19141L150.711 9.18066L150.725 9.19141Z" fill="#F2304B"/>
<path opacity="0.26" d="M120.334 10.7161C123.383 10.6776 127.332 10.5504 130.366 10.6205C131.21 10.4815 132.075 10.4186 132.94 10.4307L133.052 10.6542L133.853 10.5883C134.179 10.6578 133.236 10.6216 133.817 10.7095L134.116 10.573C134.179 10.6509 136.185 10.64 134.838 10.7901L137.964 10.8166C138.658 10.8278 138.362 10.6368 139.127 10.699C139.282 10.7675 138.857 10.7413 138.921 10.8193C141.223 10.9993 141.56 10.4141 143.7 10.5321L143.515 10.5578C143.877 10.4992 144.572 10.5172 144.579 10.4834C144.297 10.259 144.196 10.5956 143.544 10.4636C143.595 10.2748 144.353 10.3707 144.304 10.2252C144.715 10.2576 145.126 10.2422 145.538 10.1927C146.288 10.3225 147.352 10.2481 147.918 10.4036C148.422 10.2696 148.94 10.1908 149.465 10.1738C150.031 10.3292 149.337 10.3112 150.102 10.3802L150.223 10.2766C150.847 10.2982 150.754 10.3281 150.733 10.3817C151.194 10.3208 151.662 10.3012 152.13 10.3225L151.661 10.424C152.285 10.391 152.533 10.4091 153.405 10.4352C153.39 10.496 153.043 10.487 152.788 10.4685C153.262 10.6334 153.589 10.4095 153.844 10.428C153.774 10.377 153.171 10.3495 153.463 10.2468C153.895 10.2733 154.371 10.1107 154.682 10.2409L154.214 10.3424C154.703 10.2487 155.214 10.2242 155.717 10.2676C155.66 10.2718 155.688 10.3004 155.667 10.3268C156.482 10.2616 157.312 10.2721 158.134 10.3573L157.949 10.383C158.339 10.353 158.545 10.26 158.758 10.2697C158.205 10.1968 158.354 10.1694 158.305 10.0648C159.034 10.255 159.405 9.86927 160.595 9.99176C160.581 10.0525 160.297 10.1283 159.964 10.0585C159.623 10.2886 159.225 10.4343 158.799 10.4695C159.246 10.4353 159.778 10.4117 159.664 10.4884L159.8 10.3172C160.069 10.3158 160.289 10.3327 160.494 10.3284C160.608 10.2244 159.942 10.1463 160.566 10.0792C161.276 10.0296 160.948 10.2603 161.055 10.1833C162.034 10.1256 161.453 10.0035 162.395 10.0738C162.282 10.0959 162.161 10.1041 162.041 10.0986C162.714 10.177 163.7 10.0855 163.897 10.2992C163.79 10.3762 163.655 10.411 163.528 10.3847L163.535 10.3509C162.797 10.4947 164.152 10.3176 163.924 10.5052C163.868 10.3934 164.818 10.4367 165.243 10.4629L165.102 10.3336C166.514 9.98171 165.03 10.5828 166.433 10.5581C167.327 10.4896 166.093 10.5153 166.64 10.4378C167.206 10.5183 167.78 10.5581 168.354 10.5501C168.602 10.6023 169.105 10.6799 169.154 10.8254C169.799 10.8548 170.444 10.8432 171.089 10.7839C170.169 10.6464 170.181 10.92 169.105 10.714L169.403 10.5843C170.148 10.6045 171.091 10.552 171.608 10.6097C171.502 10.5775 171.459 10.5415 171.523 10.5171C172.311 10.437 173.112 10.3984 173.913 10.4076C174.054 10.5369 173.451 10.5026 173.012 10.5099C173.586 10.5701 174.16 10.5963 174.734 10.5883C174.79 10.7001 174.039 10.5703 173.926 10.6743L175.067 10.6581C175.06 10.6646 175.067 10.6718 175.067 10.6786C175.231 10.495 175.938 10.7115 176.633 10.6681C177.59 10.6776 178.534 10.5636 179.442 10.3184C179.69 10.3706 179.761 10.4216 179.661 10.4649C179.258 10.3782 179.328 10.4429 179.186 10.4842C179.746 10.4756 180.412 10.6901 180.099 10.7578C180.986 10.7163 179.781 10.6546 180.32 10.6041L181.532 10.6388C181.384 10.5433 180.958 10.5103 181.583 10.45C182.114 10.4333 182.369 10.4586 183.057 10.4763C182.957 10.5195 183.276 10.6228 182.758 10.606C183.113 10.6631 183.474 10.6523 183.815 10.5723C183.057 10.4695 185.056 10.5128 184.489 10.3573L185.247 10.4601C185.077 10.4524 185.056 10.5196 184.801 10.4943C185.02 10.6408 185.417 10.4679 185.68 10.4593C186.02 10.4748 186.36 10.5176 186.7 10.5809C187.012 10.5473 187.331 10.5755 187.635 10.6645C187.99 10.6465 187.664 10.5702 187.763 10.527L188.975 10.5686C189.039 10.6534 189.144 10.8697 188.967 10.8958C189.421 10.8346 189.124 10.6641 189.818 10.6889C189.428 10.8349 190.732 10.8261 190.164 10.9981C190.879 11.1194 191.602 11.1592 192.311 11.1164C192.695 11.0042 191.638 11.0312 191.674 10.91C193.425 10.9079 193.526 10.5644 194.809 10.6502L194.476 10.6077C194.873 10.6053 195.27 10.562 195.654 10.4771C195.433 10.624 196.573 10.9148 197.884 10.9132C197.991 10.8361 197.148 10.75 197.361 10.63L198.233 10.6288C198.297 10.6454 198.197 10.6681 198.091 10.6837C198.871 10.6442 199.55 10.9208 199.778 10.7401L200.577 10.9881L200.259 10.8849C200.642 10.8205 201.032 10.7905 201.429 10.7813C201.997 10.7184 202.578 10.7586 203.144 10.9004C202.988 10.8319 202.599 10.6777 203.301 10.6687C203.3 10.9211 204.782 10.7976 204.76 10.9263C205.044 10.9324 205.554 11.0238 205.582 10.9228L205.539 11.0778C205.604 10.8624 206.639 10.9027 207.433 10.8843C207.254 11.1764 208.305 10.8899 208.665 11.1656C208.815 10.9677 210.076 11.1276 210.211 10.9631C210.821 10.9704 210.763 11.1589 210.919 11.2274L211.203 11.1584C211.514 11.2614 212.662 11.3069 213.349 11.3928L213.981 11.2305L214.214 11.3162C214.314 11.2729 214.846 11.2631 214.513 11.1865L214.853 11.2088C214.882 11.0191 215.335 11.1694 216.023 11.1052C216.186 11.1399 216.143 11.1857 215.994 11.2062C216.334 11.2217 216.192 11.3108 216.383 11.3809C216.135 11.3218 217.618 11.0687 216.69 10.9513C216.627 10.8734 217.166 10.8297 217.506 10.8725L217.711 11.0524L218.116 10.8798C218.512 10.8979 218.909 10.9501 219.299 11.0224C218.859 11.0229 218.326 11.3261 219.46 11.3573C219.056 11.373 218.659 11.4095 218.268 11.4805C218.502 11.4979 218.623 11.5171 218.254 11.5753C219.14 11.5475 218.552 11.4797 219.424 11.4785C219.373 11.6332 219.621 11.6923 220.386 11.7681L219.813 11.6396C219.848 11.6207 219.884 11.6087 219.919 11.5967C219.7 11.573 219.643 11.5431 219.594 11.4863C219.764 11.494 220.608 11.321 220.75 11.4229C219.865 11.1506 222.282 11.2812 221.722 11.1192C221.978 11.0694 222.247 11.0885 222.495 11.1681C221.764 11.2644 223.047 11.3638 222.926 11.4675C223.195 11.432 222.352 11.3322 222.714 11.2873C223.054 11.3028 223.387 11.352 223.713 11.4488L223.528 11.4745L224.201 11.5666C224.308 11.4896 223.55 11.4072 224.167 11.3944C224.329 11.4359 224.953 11.4166 224.932 11.477C224.633 11.5726 224.852 11.7259 224.321 11.729C224.76 11.7354 226.156 11.7717 225.59 11.6026L226.115 11.6265C225.789 11.5502 224.868 11.3923 225.917 11.4128L225.91 11.4534L226.641 11.3638L226.959 11.4603C226.952 11.419 227.066 11.39 227.335 11.4023C227.406 11.4533 227.661 11.4786 227.639 11.539C228.426 11.5612 228.363 11.4764 228.462 11.44C228.902 11.4464 229.064 11.4811 228.858 11.5673C229.546 11.585 230.233 11.6436 230.92 11.7295C231.729 11.6913 230.757 11.688 231.226 11.6001C231.919 11.8978 233.883 11.8099 235.194 11.8219C234.834 11.5666 235.556 11.8111 235.791 11.5966C235.507 11.6587 237.037 11.8308 235.889 11.8536L236.591 11.8582C237.072 12.0098 235.428 11.9144 236.157 12.1183C236.894 12.0359 237.639 12.0016 238.383 12.0218C238.07 12.1782 239.099 11.9931 238.864 12.1666C238.63 12.2037 238.396 12.2135 238.155 12.1957L238.318 12.2373C240.04 12.3499 238.815 12.0552 239.723 11.9737C240.772 11.9942 240.552 12.1411 240.615 12.2191C240.941 12.2544 241.26 12.2553 241.586 12.2156C240.948 12.2957 240.403 12.0661 240.694 11.9702C241.303 12.114 241.934 12.1154 242.537 11.9791C241.036 11.7196 241.496 11.9316 240.094 11.6562C239.902 11.7089 239.929 11.8807 239.086 11.7809C239.618 11.7164 239.051 11.6838 238.903 11.6497C239.065 11.7526 238.314 11.6706 238.059 11.7C237.825 11.6074 238.563 11.4909 237.706 11.4177L237.542 11.6491C237.209 11.5998 237.684 11.485 236.968 11.5138C237.352 11.4084 236.849 11.3172 237.82 11.3205C236.666 11.0769 236.055 11.3629 235.154 11.4106C235.246 11.4012 235.253 11.3674 235.346 11.3579C235.083 11.4006 234.814 11.4156 234.544 11.3965C233.956 11.3219 235.013 11.3086 234.857 11.2401L233.9 11.2102C233.879 11.2024 233.879 11.1955 233.879 11.1955C233.688 11.2346 233.489 11.2255 233.298 11.1691C233.582 11.1069 233.696 11.0302 233.887 10.9775L232.887 11.1026C232.994 11.0324 232.059 10.9351 232.775 10.9064L231.286 10.8795L231.16 10.7167C230.805 10.7347 230.791 10.7613 231.223 10.7947C230.713 10.7373 228.968 10.9854 229.239 10.6838C228.069 10.767 227.651 10.7001 226.24 10.7246C227.325 10.6239 224.994 10.4903 226.142 10.4676C225.689 10.4401 225.235 10.4604 224.795 10.5427C224.299 10.4587 224.52 10.3118 225.059 10.2749L224.428 10.3212L224.442 10.2877L223.896 10.3584C223.315 10.2569 223.776 10.196 223.174 10.1549L223.045 10.2923L222.635 10.1986C222.79 10.2671 222.429 10.2847 221.996 10.2855L222.004 10.2517L221.472 10.2616C221.997 10.19 220.99 10.2191 221.225 10.1206C220.771 10.1 220.764 10.0996 219.942 10.1031L220.083 10.2051C219.012 10.2587 220.034 10.0596 219.169 10.027L219.225 10.1387C217.979 9.91813 217.113 10.1789 216.185 10.0343C216.717 10.0244 216.576 9.89512 216.568 9.92209C215.774 9.94049 214.477 9.86774 213.662 9.9807C213.287 9.76572 212.862 9.65765 212.444 9.66588C211.834 9.65858 211.742 9.66802 211.543 9.7545C210.962 9.7553 210.381 9.70835 209.8 9.62046C209.665 9.70984 209.262 9.58227 208.942 9.65643L208.872 9.60544L208.928 9.71719C207.873 9.43709 207.148 9.79987 206.079 9.56006L206.263 9.53434L205.817 9.56175C205.746 9.51077 205.923 9.48473 205.945 9.42429L203.861 9.34298L204.272 9.43676C203.868 9.48658 203.449 9.48799 203.038 9.45561C203.869 9.30919 202.344 9.43078 202.21 9.30184L202.657 9.2676C202.047 9.2603 202.047 9.2603 202.096 9.37172C201.302 9.39013 201.551 9.14899 200.821 9.25218L201.345 9.26926C201.501 9.33777 201.125 9.41617 200.777 9.40717C200.692 9.38964 200.452 9.3309 200.714 9.32239C200.09 9.34855 199.155 9.2718 198.878 9.30696C198.538 9.26417 198.652 9.18746 198.829 9.16142C197.496 9.23033 198.227 9.12715 196.894 9.18923L196.916 9.1288L196.44 9.21632L195.782 9.0703L196.015 9.15601C195.611 9.17853 195.2 9.17345 194.796 9.14821L195.002 9.06206C193.768 9.08774 193.571 8.87401 192.401 8.97764C192.323 8.96044 192.5 8.9344 192.593 8.91813C191.507 9.03929 191.764 8.73024 190.679 8.88551C190.743 8.8543 190.622 8.8147 190.665 8.78935L190.169 8.83497L190.205 8.71377L189.8 8.8864L189.489 8.7562L189.297 8.80888C188.767 8.55951 188.014 8.72313 187.285 8.52612L187.412 8.68886C185.581 8.96713 183.21 8.40863 180.99 8.52587L181.026 8.40467L180.111 8.53358C179.616 8.4291 180.403 8.43083 180.247 8.36232C179.268 8.41327 179.842 8.54177 178.708 8.55832C178.127 8.46361 178.907 8.47185 179.183 8.42986C178.056 8.49449 176.922 8.4974 175.788 8.43208C175.774 8.44508 175.724 8.47011 175.766 8.47887C175.057 8.52162 174.115 8.45137 173.328 8.44281C173.342 8.38888 173.541 8.37745 173.732 8.37253C173.428 8.33817 173.123 8.33793 172.825 8.3653L173.116 8.26255C172.485 8.29521 171.847 8.26614 171.217 8.17599C171.288 8.22698 171.266 8.32153 170.741 8.30445C170.452 8.107 169.323 8.36267 168.487 8.24268C168.587 8.19945 169.197 8.19993 169.026 8.19218C168.637 8.16077 168.247 8.19077 167.863 8.26884L167.977 8.19214L166.035 8.26739C165.745 8.06993 164.199 8.26561 164.327 8.12814C163.632 8.11014 164.915 8.22318 164.036 8.23089C163.802 8.14518 163.242 8.26294 163.278 8.13492L163.37 8.11865L162.753 8.11785L163.137 7.99883C162.612 8.01587 162.222 8.13456 162.2 8.22911C161.718 8.21397 161.236 8.17154 160.754 8.08817L160.939 8.06245C159.535 8.09402 158.602 7.6966 157.502 7.89216C157.417 7.87464 157.431 7.84117 157.601 7.84892L156.729 7.83649L156.935 7.74351L155.503 7.86931L155.517 7.80855C154.568 7.77209 153.086 7.78646 151.86 7.79199L152.044 7.76628C150.711 7.84883 150.754 7.69385 149.783 7.74512C149.811 7.73276 149.847 7.72073 149.882 7.72235L149.003 7.71641L149.195 7.6569C148.706 7.67556 148.224 7.64677 147.735 7.57673C147.359 7.60737 146.99 7.67244 146.635 7.77228C145.678 7.76962 146.402 7.68657 145.807 7.63215C145.225 7.66707 144.644 7.6747 144.056 7.65472L144.07 7.59396C143.631 7.60122 143.361 7.64353 142.751 7.64305L142.936 7.61733C141.943 7.74268 141.689 7.42403 140.915 7.68903C140.497 7.63586 139.703 7.66791 139.739 7.53989C138.498 7.613 137.534 7.63731 136.308 7.68377C136.103 7.47654 136.045 7.69229 135.295 7.56936L135.351 7.68111C133.607 7.68352 131.595 7.39394 129.674 7.4224L129.618 7.31065L129.234 7.42966C127.165 7.36264 124.486 7.29514 122.834 7.28129C122.103 7.38448 121.366 7.43276 120.622 7.41931L120.714 7.40304C119.225 7.45803 117.644 7.50199 116.014 7.4277C116.113 7.38447 115.951 7.34975 116.128 7.31688C115.695 7.37906 115.256 7.3795 114.824 7.31204L115.234 7.399C114.78 7.47385 114.313 7.44571 113.867 7.3162L113.136 7.43303C113.086 7.42394 113.008 7.40675 113.001 7.38596L112.874 7.44155L112.477 7.29383C111.988 7.31248 111.506 7.37921 111.03 7.49403C110.96 7.44304 110.272 7.40488 110.804 7.38135L108.125 7.32749L108.543 7.38066C108.599 7.49241 107.797 7.55825 107.379 7.50508C107.919 7.42046 107.416 7.34977 107.182 7.26406C106.82 7.32264 107.501 7.36047 107.316 7.4203C106.77 7.49777 106.21 7.51319 105.65 7.47403L105.92 7.43172C105.303 7.47185 105.006 7.27407 104.396 7.28041C103.85 7.36471 103.439 7.28457 103.559 7.47427C102.765 7.51315 103.248 7.34407 102.992 7.32562C102.453 7.40342 101.901 7.37823 101.362 7.25816C100.936 7.53898 99.2151 7.15347 99.065 7.38549L98.4064 7.25311C98.3919 7.31387 98.2636 7.45816 97.7389 7.48201C97.236 7.41132 97.35 7.3005 97.2014 7.23914L96.8741 7.4699C93.9904 7.21564 90.2112 7.3778 87.0508 7.16553C85.647 7.21074 83.8813 7.32135 82.244 7.28768L82.4214 7.25482L80.7913 7.19418L81.9816 7.2962C81.6271 7.32099 81.3503 7.3698 81.0101 7.36794C78.8771 7.22978 76.7507 7.20112 74.6236 7.28161C73.2115 7.55166 73.6679 7.04697 72.3058 7.24423C72.4193 7.2221 72.4621 7.1831 72.5686 7.15384C71.1007 7.2439 70.3065 7.2896 68.8383 7.44789C68.9957 7.18209 67.8813 7.45205 68.0025 7.31426L67.8815 7.42476C67.5486 7.36182 66.7761 7.34026 66.8828 7.26323L66.237 7.39759L66.1738 7.28552C65.309 7.28023 63.4654 7.38047 62.9988 7.15447C60.8712 7.33048 57.4972 7.29273 54.8178 7.25934C54.2361 7.34202 53.6475 7.38344 53.0521 7.36995L52.3936 7.23757C51.7834 7.33943 51.1664 7.38638 50.5427 7.3716C50.5428 7.35796 50.5712 7.3456 50.6067 7.3404C49.9971 7.31944 49.3873 7.35307 48.7844 7.42796C48.0897 7.4236 47.4166 7.3588 47.6229 7.23853C47.565 7.45428 46.1556 7.21944 46.1556 7.21944C46.1556 7.21944 37.2809 7.14938 27.3206 7.25505C17.3533 7.36723 6.31452 7.66261 2.00789 8.36034C1.68119 8.47512 0.794506 8.58484 1.16251 8.69716C0.488697 8.76882 0.120984 8.60192 0.0140528 8.71306C0.956733 8.73555 -0.178881 8.99772 0.74217 9.08747L0.188942 9.14415C0.0963693 9.22182 0.919713 9.02731 0.819721 9.16607L0.934255 8.95973C1.23206 8.94601 1.52956 8.98686 1.81976 9.06833C2.31721 8.8385 2.87775 8.7412 3.44452 8.80116L3.17507 8.81618C3.96206 8.79062 3.66352 8.9408 3.8335 8.96902L3.65629 8.96777L4.32922 9.05986C3.82623 9.00281 3.00296 9.18367 3.43548 9.16244C4.37809 9.19857 3.18762 9.11702 3.8896 9.08077C4.32922 9.05986 4.20811 9.17035 4.19357 9.23794L4.97347 9.21206C4.95169 9.30661 4.45597 9.21577 4.78157 9.30568L5.76046 9.1865C5.95768 9.4207 6.8245 9.05074 7.29117 9.26991C6.58196 9.33313 7.36164 9.34819 7.2478 9.4249L8.98474 9.38804C9.14763 9.41594 8.53062 9.46971 8.79299 9.45437C9.03391 9.47218 9.27505 9.44904 9.50224 9.38433C9.65786 9.44602 10.7996 9.36156 10.7633 9.52369C11.9466 9.61175 11.2464 9.31368 12.3519 9.39136C12.5002 9.48684 11.4798 9.42668 11.9755 9.51752L13.1242 9.46068C12.9392 9.57509 12.7121 9.62616 12.4854 9.60218C15.5757 9.68159 17.2672 10.175 20.0752 10.0163C20.4787 10.1234 19.7912 10.0989 19.5143 10.175C21.5497 10.0016 22.3983 10.3952 24.1352 10.3583L24.1641 10.2641C26.6011 10.5321 29.5086 10.337 32.2585 10.4282L31.9257 10.3653C32.394 10.2843 32.8763 10.238 33.3514 10.2119C33.422 10.2561 33.0383 10.416 33.8254 10.37C33.6555 10.335 33.3225 10.3061 33.422 10.2561C35.7885 10.4731 40.751 10.3853 44.621 10.4798C49.846 10.3699 55.5303 10.5334 60.6629 10.4534C59.8831 10.4656 60.2034 10.2277 60.7915 10.2818C62.4269 10.6703 63.5848 10.2044 65.2493 10.4645C68.2344 10.3208 70.9192 10.6683 73.6925 10.3579L73.7486 10.4697C74.0746 10.4846 74.3937 10.4718 74.7129 10.4317L74.7056 10.4655C75.7404 10.5059 76.9815 10.3918 77.5767 10.4462L77.6057 10.3179C78.2154 10.3047 77.9313 10.4146 78.5555 10.3407L78.541 10.4015L79.2647 10.2843C79.2068 10.5001 80.9942 10.3017 81.4899 10.3994C82.2841 10.3605 83.7803 10.2649 84.9852 10.3062C85.8636 10.4144 86.7494 10.4685 87.6284 10.4744C89.4574 10.4486 92.0733 10.4176 94.4052 10.4625L94.3564 10.3238L94.966 10.3174C94.9588 10.3512 95.0438 10.3619 94.9515 10.3782C95.4327 10.5434 96.3554 10.333 96.8439 10.4303C96.5327 10.3001 96.4187 10.411 96.0714 10.4088C95.5685 10.3381 96.0441 10.2028 96.7172 10.2744L96.7028 10.3079L97.1569 10.233C97.213 10.3448 97.631 10.398 97.6942 10.5032C99.6934 10.4783 101.055 10.2947 103.118 10.3477C102.912 10.468 104.6 10.3197 104.194 10.5333C105.435 10.4602 103.983 10.3599 104.544 10.208C104.891 10.217 105.253 10.1584 105.316 10.2364C105.153 10.2903 105.606 10.3656 105.322 10.3868L106.152 10.3768C106.23 10.394 106.052 10.42 105.96 10.4363C107.648 10.3222 108.958 10.5934 110.468 10.4712C110.575 10.3941 109.866 10.4437 109.973 10.3667C111.49 10.2175 111.326 10.5102 112.744 10.4111L112.453 10.5138C112.907 10.3981 113.389 10.3723 113.864 10.4417C114.005 10.5709 113.225 10.5422 112.864 10.6008C113.381 10.6107 114.693 10.5818 114.289 10.4679C114.686 10.4518 115.083 10.4904 115.479 10.5767C115.487 10.5429 114.899 10.4888 115.26 10.4302C116.111 10.5031 117.415 10.508 118.45 10.5278C118.443 10.5616 118.513 10.6058 118.428 10.6224C119.265 10.4694 119.186 10.7524 120.334 10.7161Z" fill="#F2304B"/>
<path opacity="0.26" d="M175.476 8.57596L175.057 8.54296C175.057 8.57899 175.043 8.62321 174.844 8.65686L175.476 8.57596Z" fill="#F2304B"/>
<path opacity="0.26" d="M155.668 8.87081C155.618 8.8774 155.568 8.89357 155.518 8.91932C155.618 8.90615 155.646 8.8887 155.668 8.87081Z" fill="#F2304B"/>
<path opacity="0.26" d="M150.859 9.32532C151.2 9.28806 150.895 9.24052 150.724 9.19152C150.717 9.22974 150.724 9.26882 150.859 9.32532Z" fill="#F2304B"/>
<path opacity="0.26" d="M186.687 7.85873C186.615 7.8742 186.572 7.90138 186.579 7.93165C186.679 7.90801 186.701 7.8795 186.687 7.85873Z" fill="#F2304B"/>
<path opacity="0.26" d="M217.701 7.82738L217.581 7.79297C217.623 7.81371 217.659 7.82491 217.701 7.82738Z" fill="#F2304B"/>
<path opacity="0.26" d="M215.983 7.53237C215.862 7.52605 215.749 7.53628 215.635 7.54651C215.756 7.55283 215.869 7.55069 215.983 7.53237Z" fill="#F2304B"/>
<path opacity="0.26" d="M179.173 8.06356C179.067 8.06645 178.953 8.0779 178.847 8.1077C178.96 8.11418 179.067 8.09336 179.173 8.06356Z" fill="#F2304B"/>
<path opacity="0.26" d="M215.28 7.60743L214.848 7.57799C214.841 7.58533 214.841 7.59302 214.841 7.6084L215.28 7.60743Z" fill="#F2304B"/>
<path opacity="0.26" d="M218.246 7.85949C218.076 7.8517 217.849 7.84132 217.701 7.82764C217.885 7.86353 218.069 7.87197 218.246 7.85949Z" fill="#F2304B"/>
<path opacity="0.26" d="M198.07 7.50949L198.021 7.51575C197.694 7.56993 197.9 7.54531 198.07 7.50949Z" fill="#F2304B"/>
<path opacity="0.26" d="M213.385 7.92285L213.328 7.9103L213.2 7.94897L213.385 7.92285Z" fill="#F2304B"/>
<path opacity="0.26" d="M220.116 7.93712C220.045 7.93301 219.974 7.94712 219.903 7.96123L220.151 7.9938C220.123 7.96484 220.123 7.94663 220.116 7.93712Z" fill="#F2304B"/>
<path opacity="0.26" d="M204.565 7.72137C204.687 7.65902 204.73 7.61176 204.737 7.58225C204.594 7.58336 204.502 7.60755 204.565 7.72137Z" fill="#F2304B"/>
</g>
</g>
</g>
</g>
<path d="M37.315 11.3586C37.2933 11.3778 37.2788 11.4078 37.2715 11.4484C37.3077 11.4096 37.3221 11.3899 37.315 11.3586Z" fill="#F2304B"/>
<path d="M56.4123 11.2473L56.1922 11.2803C56.2702 11.2847 56.3412 11.2796 56.4123 11.2473Z" fill="#F2304B"/>
<path d="M25.8758 11.621C25.883 11.6147 25.8971 11.6153 25.9043 11.6089L25.1034 11.6005L25.8758 11.621Z" fill="#F2304B"/>
<path d="M97.1374 10.9379L96.8823 10.9335C96.9673 10.937 97.0523 10.9406 97.1374 10.9379Z" fill="#F2304B"/>
<path d="M73.0029 10.9766C73.1095 10.9462 73.216 10.9249 73.3296 10.9313C73.2161 10.9067 73.1024 10.9276 73.0029 10.9766Z" fill="#F2304B"/>
<path d="M19.785 10.0483L20.1185 10.1613C20.1116 10.1141 19.991 10.0603 19.785 10.0483Z" fill="#F2304B"/>
<path d="M8.19427 11.2119C8.20136 11.2221 8.21557 11.2328 8.22268 11.2332C8.24406 11.2247 8.22986 11.214 8.19427 11.2119Z" fill="#F2304B"/>
<path d="M12.7406 11.4517C12.84 11.4391 12.9537 11.418 13.0674 11.397C12.9325 11.3985 12.755 11.4067 12.7406 11.4517Z" fill="#F2304B"/>
<path d="M13.2237 11.3536L13.0674 11.3816C13.1527 11.3772 13.2237 11.3721 13.2237 11.3536Z" fill="#F2304B"/>
<path d="M245.058 10.9399C245.328 10.9548 245.598 10.9254 245.86 10.8514L245.058 10.9399Z" fill="#F2304B"/>
<path d="M134.015 10.6376L133.943 10.683C134.015 10.6674 134.022 10.6579 134.015 10.6376Z" fill="#F2304B"/>
<path d="M245.474 9.88574L245.701 9.92282C245.623 9.90197 245.552 9.88986 245.474 9.88574Z" fill="#F2304B"/>
<path d="M25.9296 9.36745C26.2634 9.26477 26.9511 9.38821 26.9444 9.28436C26.5896 9.29966 26.0791 9.22893 25.9296 9.36745Z" fill="#F2304B"/>
<path d="M141.8 5.91765L142.019 5.92059C141.913 5.91601 141.849 5.91327 141.8 5.91765Z" fill="#F2304B"/>
<path d="M245.475 9.89883L245.212 9.84766C245.234 9.86703 245.262 9.88681 245.29 9.90659C245.354 9.89202 245.411 9.89523 245.475 9.89883Z" fill="#F2304B"/>
<path d="M172.412 10.681L172.398 10.6802L172.319 10.6938L172.412 10.681Z" fill="#F2304B"/>
<path d="M174.443 10.8981L174.01 10.9168C174.159 10.9329 174.301 10.932 174.443 10.8981Z" fill="#F2304B"/>
<path d="M245.86 10.8128L246.329 10.7589C246.173 10.7591 246.017 10.786 245.86 10.8128Z" fill="#F2304B"/>
<path d="M196.402 10.867L196.203 10.8728C196.274 10.8764 196.338 10.8796 196.402 10.867Z" fill="#F2304B"/>
<path d="M71.4518 10.9506L71.2744 10.9228C71.253 10.9574 71.2672 10.9671 71.4518 10.9506Z" fill="#F2304B"/>
<path d="M85.7833 7.46234C86.06 7.47793 86.3299 7.43878 86.5928 7.34488C86.316 7.33835 86.0462 7.3775 85.7833 7.46234Z" fill="#F2304B"/>
<path d="M88.3358 7.35279L88.2366 7.33984C88.272 7.34957 88.3003 7.351 88.3358 7.35279Z" fill="#F2304B"/>
<path d="M72.023 7.4668L72.023 7.47699C72.0302 7.47744 72.0302 7.46724 72.0302 7.46724L72.023 7.4668Z" fill="#F2304B"/>
<path d="M75.2549 7.36963C75.3258 7.39106 75.4038 7.41289 75.4818 7.41717C75.4039 7.38657 75.3259 7.37352 75.2549 7.36963Z" fill="#F2304B"/>
<path d="M96.3691 6.87421C96.3691 6.87421 96.3622 6.87379 96.3691 6.87421L96.3828 6.88483L96.3691 6.87421Z" fill="#F2304B"/>
<path d="M126.772 7.15363C123.717 7.12029 119.762 7.19444 116.729 7.09254C115.878 7.20842 115.013 7.26058 114.148 7.23064L114.043 7.02413L113.242 7.07265C112.916 7.00215 113.859 7.04798 113.278 6.96048L112.98 7.08059C112.916 7.00846 110.91 6.98753 112.258 6.87349L109.132 6.81193C108.438 6.78912 108.735 6.97209 107.969 6.90843C107.814 6.84506 108.246 6.87582 108.176 6.79707C105.873 6.59949 105.53 7.14087 103.39 7.00064L103.575 6.97679C103.213 7.02478 102.518 7.00829 102.511 7.03325C102.793 7.24719 102.895 6.92933 103.546 7.064C103.495 7.23872 102.73 7.14349 102.779 7.27817C102.368 7.24831 101.957 7.25633 101.546 7.30224C100.802 7.18265 99.7315 7.23881 99.1653 7.09507C98.6614 7.2192 98.1435 7.29223 97.6119 7.30152C97.0457 7.15778 97.7402 7.17427 96.9751 7.11061L96.854 7.2129C96.2234 7.18646 96.3227 7.15904 96.3443 7.11574C95.8833 7.16588 95.4154 7.18416 94.9477 7.16455L95.416 7.07682C94.7921 7.1075 94.5371 7.08417 93.6725 7.06056C93.687 7.00432 94.0343 7.01257 94.2964 7.03619C93.8224 6.87737 93.4952 7.0847 93.2401 7.06769C93.3107 7.11486 93.913 7.14011 93.6218 7.23527C93.1896 7.21084 92.7068 7.3548 92.4027 7.23468L92.8711 7.14695C92.3744 7.22718 91.8711 7.25029 91.3681 7.21025C91.4248 7.20631 91.3966 7.17987 91.418 7.1555C90.6026 7.20973 89.7734 7.20023 88.9517 7.11525L89.1361 7.0914C88.7461 7.11926 88.5401 7.20536 88.3275 7.19645C88.8799 7.26382 88.7309 7.28915 88.78 7.38594C88.051 7.2038 87.6803 7.56089 86.4903 7.44152C86.5048 7.38529 86.7887 7.3214 87.1214 7.38588C87.4629 7.17283 87.8677 7.04454 88.2861 7.01155C87.8393 7.04335 87.3077 7.05895 87.4215 6.98793L87.2859 7.14646C87.0165 7.1478 86.7969 7.13227 86.5914 7.12997C86.4774 7.22624 87.1432 7.30469 86.5191 7.36062C85.8101 7.40037 86.1374 7.19304 86.0307 7.25804C85.0523 7.30544 85.6328 7.42451 84.6905 7.35343C84.804 7.33292 84.9246 7.32535 85.045 7.33671C84.365 7.26399 83.3865 7.33664 83.182 7.14492C83.2888 7.0736 83.4237 7.04136 83.5582 7.06595L83.5509 7.09723C84.2888 6.97027 82.9341 7.12189 83.1619 6.9546C83.218 7.058 82.2685 7.01819 81.8362 7.00007L81.9773 7.11967C80.5648 7.45202 82.0495 6.88901 80.6389 6.91829C79.7454 6.98819 80.9788 6.95781 80.4327 7.02964C79.8661 6.95536 79.2922 6.92498 78.718 6.93249C78.4702 6.8842 77.9674 6.81259 77.9185 6.68423C77.2737 6.65719 76.6286 6.67436 75.9833 6.7294C76.904 6.85011 76.8913 6.60327 77.9675 6.78734L77.6691 6.91377C76.925 6.8952 75.9749 6.9501 75.4649 6.89714C75.5711 6.92054 75.6134 6.96021 75.5494 6.98279C74.7622 7.06347 73.9611 7.09935 73.1602 7.09104C73.0192 6.97144 73.6215 6.99669 74.0609 6.99617C73.4871 6.94053 72.9132 6.91647 72.339 6.93029C72.2829 6.82688 73.0335 6.94678 73.1475 6.84419L72.0063 6.8595C72.0134 6.85348 72.0064 6.84687 72.0064 6.84055C71.8494 7.01081 71.1347 6.81664 70.4399 6.85698C69.4831 6.84844 68.5397 6.96046 67.6312 7.18763C67.3834 7.13935 67.3128 7.09218 67.4122 7.05214C67.8229 7.13251 67.7452 7.07242 67.8873 7.02784C67.3273 7.03594 66.6622 6.84385 66.9744 6.78115C66.0882 6.81978 67.2999 6.8769 66.7538 6.92348L65.5351 6.86606C65.6834 6.95439 66.1085 6.97853 65.4844 7.04078C64.9527 7.05638 64.6977 7.03937 64.0103 7.02318C64.1097 6.98314 63.7843 6.88739 64.3087 6.89675C63.9546 6.84401 63.593 6.86043 63.2524 6.92825C64.0103 7.01687 62.0117 6.98991 62.585 7.13395L61.827 7.05164C61.9971 7.05246 62.0187 6.99652 62.2738 7.01353C62.0549 6.87804 61.657 7.04451 61.3946 7.05878C61.0545 7.05083 60.7145 7.01763 60.3746 6.95917C60.0625 6.99661 59.7437 6.97061 59.4394 6.89469C59.0849 6.91772 59.4105 6.9819 59.3111 7.02194L58.092 7.00872C58.0216 6.9363 57.9165 6.72979 58.1009 6.70594C57.6469 6.76901 57.9437 6.9204 57.2563 6.91052C57.6469 6.76901 56.3355 6.79613 56.9035 6.63047C56.1882 6.53101 55.4655 6.50071 54.7493 6.55278C54.3659 6.66302 55.4293 6.6255 55.3861 6.73738C53.6423 6.76532 53.5412 7.08318 52.2587 7.01678L52.5916 7.04968C52.1947 7.0583 51.8046 7.1051 51.4213 7.19008C51.6348 7.04746 50.4952 6.79757 49.1838 6.81838C49.0771 6.88969 49.9271 6.96323 49.7139 7.07428L48.8491 7.08855C48.7853 7.07956 48.8776 7.05185 48.9911 7.03766C48.2112 7.08075 47.5251 6.83725 47.3044 7.00484L46.4977 6.78786L46.8161 6.877C46.433 6.93672 46.043 6.97721 45.6531 6.98613C45.0856 7.05707 44.4975 7.0261 43.9312 6.9013C44.0868 6.96467 44.4829 7.10127 43.7811 7.11606C43.7825 6.88243 42.3004 7.01608 42.3152 6.90302C42.0317 6.90376 41.5218 6.83186 41.4928 6.9317L41.5362 6.78825C41.4783 6.98793 40.4365 6.98214 39.6425 7.01201C39.8142 6.735 38.7705 7.03229 38.4034 6.78322C38.2606 6.97301 36.9925 6.85669 36.864 7.01551C36.2473 7.02123 36.305 6.85313 36.1495 6.78976L35.8656 6.85996C35.5542 6.77112 34.4061 6.76088 33.7189 6.70049L33.0871 6.86347L32.8466 6.79023C32.7471 6.83026 32.2224 6.85879 32.5481 6.91666L32.208 6.9024C32.1857 7.08462 31.7257 6.95165 31.0378 7.03017C30.8749 6.99808 30.9177 6.95567 31.0667 6.93665C30.7265 6.93502 30.8688 6.83993 30.6778 6.7814C30.9255 6.82968 29.4567 7.10283 30.3848 7.18595C30.4552 7.25838 29.9162 7.31157 29.5762 7.27836L29.3645 7.11791L28.9666 7.2907C28.5697 7.28037 28.173 7.25111 27.7835 7.19057C28.223 7.18373 28.7422 6.87708 27.6152 6.88036C28.0123 6.85911 28.4095 6.80629 28.7998 6.73423C28.5659 6.73074 28.4455 6.71306 28.8074 6.64613C27.9282 6.69769 28.5162 6.74761 27.6443 6.76789C27.6876 6.62445 27.4398 6.57616 26.6747 6.52513L27.2481 6.63128C27.2126 6.64874 27.1771 6.6662 27.1416 6.67103C27.3612 6.68655 27.4249 6.70817 27.4742 6.76707C27.304 6.76626 26.4666 6.94588 26.3183 6.85756C27.21 7.08442 24.7934 7.03362 25.3596 7.16473C25.1042 7.21717 24.842 7.20618 24.5872 7.14497C25.3108 7.03637 24.0282 6.98259 24.1422 6.88C23.8726 6.91923 24.7228 6.98645 24.3539 7.04045C24.0137 7.03882 23.6808 6.99329 23.3482 6.91618L23.5255 6.88572L22.8526 6.81961C22.7459 6.89093 23.5111 6.93564 22.8942 6.97925C22.7313 6.94716 22.1074 6.99047 22.129 6.93454C22.4202 6.83306 22.2012 6.70388 22.7259 6.67536C22.2863 6.68851 20.897 6.71236 21.4632 6.84347L20.9388 6.84042C21.2715 6.89859 22.1924 7.00035 21.1432 7.03215L21.1504 7.00088L20.4268 7.1158L20.1083 7.0456C20.1222 7.08408 20.0086 7.11721 19.7393 7.11855C19.6686 7.07769 19.4065 7.06039 19.4281 7.00445C18.6413 7.01567 18.7117 7.0881 18.6122 7.13445C18.1727 7.1476 18.0098 7.12183 18.2088 7.02912C17.5213 7.03818 16.8338 7.02199 16.1466 6.96792C15.3453 7.03537 16.3166 6.99399 15.8482 7.10067C15.1409 6.84996 13.1836 7.02053 11.8792 7.06057C12.2465 7.27807 11.5247 7.08992 11.2967 7.28878C11.5735 7.21828 10.0431 7.12885 11.1847 7.05671L10.4828 7.08413C9.99443 6.96891 11.6387 6.98733 10.9025 6.82383C10.1718 6.93214 9.43433 6.99596 8.69003 7.00896C8.98866 6.85095 7.98091 7.06765 8.20166 6.89375C8.4358 6.85304 8.66983 6.83127 8.91079 6.83506L8.74796 6.80297C7.02583 6.76866 8.25779 6.99084 7.36405 7.10494C6.3149 7.13042 6.52838 6.9878 6.46502 6.91567C6.13209 6.88276 5.80598 6.89435 5.48673 6.94412C6.11814 6.84428 6.67696 7.03192 6.38576 7.1334C5.76972 7.03178 5.1388 7.04953 4.54253 7.20137C6.05118 7.37831 5.58444 7.20085 7.00082 7.39918C7.19252 7.34406 7.15094 7.18443 7.99407 7.23872C7.46906 7.32408 8.03606 7.3289 8.18475 7.35409C8.01517 7.26487 8.76622 7.30899 9.02162 7.26918C9.26217 7.34242 8.53126 7.48861 9.3887 7.51825L9.53882 7.30349C9.87888 7.33038 9.40321 7.46202 10.1194 7.40994C9.74304 7.52679 10.2459 7.58577 9.28174 7.62745C10.4431 7.80246 11.0402 7.51802 11.9338 7.42917C11.8415 7.44425 11.8343 7.46921 11.7421 7.48429C12.0046 7.43846 12.2741 7.41186 12.5434 7.41052C13.1385 7.45442 12.0821 7.51118 12.2377 7.56823L13.1946 7.55782C13.2158 7.56503 13.2158 7.57135 13.2158 7.57135C13.4003 7.52856 13.6059 7.52454 13.797 7.57045C13.5202 7.64095 13.4063 7.71196 13.2217 7.7737L14.2149 7.61955C14.1082 7.69086 15.0506 7.73669 14.3414 7.79538L15.823 7.75645L15.9568 7.90101C16.3114 7.87166 16.3186 7.8467 15.8935 7.82888C16.4036 7.85658 18.1277 7.55624 17.8779 7.84892C19.0411 7.72085 19.459 7.76364 20.87 7.68385C19.7918 7.82811 22.1236 7.84378 20.9749 7.91562C21.4285 7.922 21.8753 7.87758 22.3153 7.78866C22.8181 7.84764 22.6047 7.99026 22.0656 8.04977L22.6969 7.9815L22.6896 8.01277L23.2358 7.92831C23.8236 8.0098 23.3626 8.07257 23.9649 8.09782L24.0861 7.97028L24.4968 8.04434C24.3412 7.98729 24.6958 7.95794 25.1282 7.95081L25.1209 7.98208L25.6526 7.96017C25.1276 8.03921 26.1415 7.98698 25.8999 8.08422C26.3535 8.09061 26.3606 8.0909 27.1829 8.06854L27.0346 7.98022C28.0982 7.90481 27.0835 8.10858 27.9481 8.11957L27.892 8.01616C29.1455 8.18872 30.0047 7.92159 30.9255 8.02967C30.4009 8.05188 30.5348 8.17118 30.5492 8.14021C31.3432 8.10403 32.6331 8.13284 33.4489 8.00916C33.8234 8.19539 34.2552 8.28928 34.6735 8.26892C35.2902 8.2632 35.3754 8.24782 35.5743 8.16143C36.1556 8.14791 36.7367 8.17227 37.3175 8.24083C37.4526 8.15808 37.856 8.2571 38.1754 8.18838L38.246 8.22924L38.1899 8.12583C39.2518 8.35351 39.9626 7.99806 41.0317 8.20077L40.8544 8.21229L41.3012 8.17418C41.3718 8.22135 41.1945 8.24549 41.1729 8.30143L43.2494 8.32534L42.8388 8.24496C43.2431 8.19244 43.6543 8.18442 44.0723 8.20826C43.2493 8.35691 44.7598 8.21814 44.9008 8.33774L44.4541 8.37585C45.0637 8.36983 45.0637 8.36983 45.0076 8.26642C45.7945 8.23626 45.5592 8.46639 46.2828 8.35779L45.7655 8.34873C45.6099 8.28536 45.979 8.2061 46.3262 8.21434C46.4112 8.23054 46.659 8.27882 46.3896 8.28647C47.0135 8.24948 47.9487 8.31395 48.2183 8.27473C48.5583 8.30793 48.4516 8.37924 48.2672 8.40309C49.593 8.32605 48.8695 8.42834 50.2025 8.34529L50.1809 8.40122L50.6349 8.33815L51.2933 8.46681L51.0598 8.38755C51.464 8.36029 51.8751 8.35858 52.279 8.37551L52.0729 8.46161C53.3064 8.42491 53.5038 8.61634 54.6739 8.5075C54.7518 8.5234 54.5744 8.54754 54.4822 8.56262C55.5674 8.4376 55.3105 8.72367 56.3959 8.56707C56.3319 8.59597 56.4522 8.63259 56.4095 8.65607L56.906 8.60741L56.877 8.71356L57.2749 8.54709L57.586 8.6675L57.7777 8.61238C58.3151 8.83701 59.0602 8.67878 59.7964 8.84859L59.6696 8.70433C61.493 8.40815 63.8715 8.90577 66.0836 8.79642L66.0474 8.90859L66.9624 8.80169C67.458 8.89825 66.6712 8.89685 66.8268 8.96021C67.8052 8.9065 67.2318 8.79403 68.366 8.77212C68.9537 8.85992 68.167 8.85851 67.8904 8.89112C69.0177 8.83102 70.1518 8.82173 71.2855 8.87558C71.2998 8.86354 71.3495 8.84037 71.307 8.83227C72.0161 8.79253 72.9584 8.85098 73.738 8.85841C73.7164 8.91434 73.525 8.91895 73.3336 8.92356C73.6382 8.95528 73.943 8.95542 74.2409 8.9237L73.9497 9.01886C74.5807 8.98848 75.2185 9.0089 75.8488 9.08586C75.7782 9.03869 75.8 8.95118 76.3244 8.96685C76.6139 9.14952 77.7352 8.91232 78.571 9.01683C78.4715 9.05687 77.8619 9.05658 78.032 9.06371C78.4217 9.09268 78.8117 9.06482 79.1878 8.98585L79.081 9.05717L81.0236 8.98072C81.3201 9.16368 82.8522 8.97529 82.7239 9.10254C83.4184 9.11903 82.1432 9.01503 83.0151 9.00738C83.2485 9.08664 83.809 8.98383 83.7729 9.10231L83.6807 9.11108L84.2902 9.11137L83.9069 9.2153C84.4315 9.1994 84.8219 9.09577 84.8437 9.00826C85.3256 9.02215 85.8073 9.06761 86.2888 9.14464L86.1044 9.16849C87.5079 9.14523 88.4413 9.5191 89.5409 9.34415C89.6259 9.36035 89.6115 9.39132 89.4415 9.38419L90.3131 9.40811L90.1071 9.48789L91.5395 9.37742L91.525 9.43366C92.4745 9.47347 93.9559 9.46611 95.175 9.47301L94.9905 9.49686C96.3234 9.43274 96.2801 9.57619 97.2514 9.52849C97.2229 9.53993 97.1874 9.55107 97.152 9.54959L98.0308 9.56117L97.8391 9.61629C98.3283 9.59891 98.8101 9.62542 99.2987 9.69644C99.6746 9.66799 100.043 9.60767 100.405 9.52179C101.362 9.53033 100.639 9.60105 101.234 9.65758C101.928 9.67407 102.042 9.57779 102.985 9.64256L102.97 9.6988C103.41 9.69828 103.679 9.65905 104.289 9.66566L104.104 9.68951C105.097 9.58588 105.351 9.88702 106.125 9.6479C106.542 9.70331 107.336 9.68607 107.3 9.79824C108.541 9.74921 109.505 9.73279 110.738 9.71503C110.943 9.90676 111.001 9.70708 111.751 9.83329L111.695 9.72988C113.439 9.75246 115.443 10.0449 117.363 10.0433L117.42 10.1467L117.803 10.0428C119.872 10.1359 122.551 10.2229 124.202 10.2669C124.932 10.1838 125.677 10.1519 126.421 10.1831L126.329 10.1982C127.824 10.1725 129.398 10.169 131.027 10.2689C130.928 10.3089 131.091 10.341 130.906 10.3648C131.339 10.3135 131.778 10.3256 132.21 10.3943L131.8 10.3076C132.254 10.2508 132.721 10.2831 133.167 10.4091L133.898 10.3134C133.947 10.3218 134.018 10.3437 134.032 10.357L134.16 10.3055L134.549 10.4481C135.038 10.437 135.528 10.3881 136.003 10.2943C136.074 10.3415 136.761 10.3893 136.229 10.4049L138.908 10.5109L138.49 10.4554C138.434 10.352 139.242 10.3101 139.653 10.3653C139.107 10.4371 139.609 10.5087 139.843 10.588C140.205 10.54 139.524 10.4925 139.716 10.4374C140.269 10.3785 140.829 10.3704 141.382 10.4188L141.112 10.4517C141.736 10.4273 142.026 10.6163 142.635 10.6166C143.181 10.5448 143.592 10.6378 143.473 10.4559C144.266 10.4387 143.784 10.5827 144.039 10.606C144.578 10.5465 145.13 10.5823 145.668 10.7059C146.102 10.4588 147.808 10.8524 147.972 10.6446L148.623 10.7856C148.645 10.7297 148.773 10.6024 149.298 10.5928C149.794 10.6704 149.68 10.7667 149.835 10.8301L150.169 10.623C153.045 10.9331 156.831 10.8771 159.983 11.1482C161.386 11.1376 163.159 11.0919 164.795 11.1731L164.611 11.197L166.241 11.3032L165.058 11.1715C165.412 11.1548 165.689 11.1222 166.036 11.1367C168.161 11.3332 170.294 11.4226 172.421 11.4107C173.846 11.2052 173.369 11.6589 174.738 11.5142C174.624 11.5347 174.574 11.5705 174.475 11.5916C175.949 11.5524 176.743 11.5351 178.218 11.4328C178.054 11.6722 179.175 11.4539 179.047 11.5812L179.168 11.4852C179.493 11.5557 180.266 11.6007 180.159 11.672L180.812 11.5668L180.868 11.6702C181.732 11.7064 183.582 11.6829 184.035 11.904C186.168 11.8166 189.541 11.9707 192.22 12.0956C192.808 12.0382 193.397 12.025 193.992 12.0499L194.643 12.1909C195.26 12.1157 195.877 12.1037 196.501 12.1425C196.5 12.1551 196.472 12.1665 196.43 12.1711C197.039 12.2092 197.648 12.2095 198.251 12.159C198.946 12.1881 199.618 12.2795 199.405 12.3842C199.47 12.1849 200.872 12.4647 200.872 12.4647C200.872 12.4647 209.757 12.913 219.728 13.2616C229.698 13.6102 240.753 13.8969 245.086 13.5669C245.335 13.4826 246.051 13.4558 245.796 13.3251C246.002 13.3211 246.214 13.3427 246.413 13.3952C246.469 13.4102 246.526 13.4189 246.582 13.4276C246.604 13.4285 246.625 13.4294 246.646 13.4239C246.653 13.4242 246.668 13.4185 246.675 13.4188L246.689 13.4131L246.696 13.4071C246.768 13.189 246.833 12.9707 246.905 12.7464C246.84 12.9458 246.775 13.1515 246.718 13.3511C246.696 13.426 246.703 13.3947 246.703 13.401L246.689 13.4005L246.675 13.3999L246.646 13.3987L246.59 13.39C246.561 13.3825 246.533 13.3813 246.505 13.3675C246.462 13.3531 246.441 13.3395 246.427 13.3263C246.406 13.2939 246.449 13.2641 246.484 13.234C246.563 13.1678 246.655 13.0959 246.273 13.0167L246.783 13.0192C246.904 12.9547 246.074 13.0589 246.231 12.9455L246.053 13.1211C245.791 13.1038 245.536 13.0489 245.295 12.9504C244.784 13.1311 244.224 13.1771 243.671 13.0908L243.941 13.0894C243.154 13.0628 243.46 12.9493 243.297 12.9109L243.474 12.9183L242.815 12.7959C243.318 12.8802 244.148 12.7697 243.716 12.7579C242.781 12.6619 243.957 12.8122 243.255 12.8081C242.815 12.7959 242.944 12.7066 242.958 12.644L242.172 12.6174C242.2 12.5302 242.689 12.6454 242.37 12.5436L241.378 12.5904C241.195 12.3617 240.3 12.6463 239.855 12.4192C240.564 12.3984 239.792 12.3407 239.905 12.276L238.162 12.2156C237.999 12.1772 238.623 12.1654 238.354 12.1668C238.113 12.1377 237.872 12.1466 237.638 12.1873C237.489 12.1242 236.341 12.1392 236.384 11.9958C235.202 11.8515 235.887 12.1581 234.782 12.0297C234.641 11.9353 235.654 12.041 235.166 11.9321L234.025 11.9158C234.217 11.8165 234.451 11.7821 234.677 11.8168C231.589 11.5736 229.926 11.0492 227.098 11.0569C226.702 10.9393 227.382 10.9994 227.666 10.9418C225.617 11.0012 224.79 10.6002 223.047 10.546L223.018 10.6332C220.589 10.2725 217.668 10.3332 214.927 10.1172L215.252 10.1877C214.777 10.2372 214.295 10.2675 213.813 10.2663C213.742 10.2191 214.14 10.0905 213.346 10.1014C213.509 10.1398 213.849 10.1857 213.75 10.2194C211.391 9.90576 206.416 9.79191 202.548 9.55392C197.31 9.43538 191.628 9.08977 186.483 8.98141C187.27 9.00176 186.935 9.20248 186.34 9.13332C184.72 8.718 183.541 9.10436 181.884 8.80753C178.886 8.82708 176.209 8.43695 173.422 8.6359L173.366 8.5325C173.04 8.5062 172.721 8.50546 172.402 8.53629L172.409 8.50502C171.375 8.43638 170.127 8.50406 169.532 8.4349L169.496 8.54707C168.879 8.54017 169.178 8.45162 168.547 8.49463L168.561 8.4384L167.831 8.52777C167.903 8.32869 166.102 8.46159 165.606 8.35239C164.812 8.36332 163.309 8.40767 162.105 8.33191C161.227 8.20667 160.348 8.13194 159.462 8.10743C157.627 8.08731 155.012 8.04713 152.68 7.94939L152.722 8.08377L152.112 8.07716C152.12 8.04588 152.042 8.02999 152.127 8.02093C151.653 7.86211 150.724 8.03155 150.228 7.92236C150.539 8.04909 150.653 7.95281 151 7.96737C151.503 8.04529 151.028 8.15799 150.348 8.07264L150.362 8.04166L149.901 8.09812C149.852 7.99501 149.427 7.93299 149.378 7.82988C147.372 7.80263 146.011 7.94132 143.942 7.83562C144.155 7.72457 142.453 7.82375 142.866 7.63892C141.625 7.68164 143.07 7.80539 142.509 7.93346C142.162 7.91891 141.8 7.9669 141.737 7.89477C141.9 7.85109 141.454 7.76923 141.738 7.75585L140.909 7.75266C140.831 7.73677 141.015 7.71292 141.1 7.70386C139.413 7.77837 138.096 7.50211 136.586 7.58406C136.472 7.65507 137.188 7.62194 137.082 7.68694C135.557 7.79354 135.729 7.52917 134.311 7.59603L134.602 7.50718C134.141 7.60153 133.659 7.61921 133.184 7.54879C133.05 7.42949 133.822 7.46819 134.184 7.4202C133.667 7.40482 132.349 7.40008 132.752 7.51804C132.355 7.52666 131.958 7.48476 131.562 7.39235C131.555 7.42363 132.143 7.48617 131.781 7.52785C130.931 7.44168 129.627 7.41227 128.592 7.38152C128.599 7.35025 128.529 7.30939 128.621 7.29431C127.791 7.43003 127.878 7.1684 126.729 7.17079" fill="#F2304B"/>
<path d="M71.6052 7.42742L72.0239 7.46009C72.024 7.42382 72.0383 7.3793 72.2301 7.34477L71.6052 7.42742Z" fill="#F2304B"/>
<path d="M91.4274 7.14264C91.4772 7.13597 91.527 7.11968 91.5769 7.09379C91.4702 7.10671 91.4417 7.12426 91.4274 7.14264Z" fill="#F2304B"/>
<path d="M96.2357 6.74015C95.8942 6.76829 96.1999 6.82524 96.3704 6.87414C96.3776 6.83581 96.3707 6.78695 96.2357 6.74015Z" fill="#F2304B"/>
<path d="M60.3864 8.24857C60.4578 8.2329 60.5007 8.20546 60.4937 8.16497C60.3937 8.19894 60.3722 8.21766 60.3864 8.24857Z" fill="#F2304B"/>
<path d="M29.3606 9.25244L29.4882 9.27657C29.4457 9.26565 29.4032 9.25474 29.3606 9.25244Z" fill="#F2304B"/>
<path d="M31.087 9.47459C31.2076 9.47254 31.3211 9.47011 31.4347 9.45069C31.3141 9.44425 31.2006 9.45517 31.087 9.47459Z" fill="#F2304B"/>
<path d="M67.9076 7.96007C68.0141 7.95703 68.1277 7.94537 68.2343 7.91529C68.1207 7.90892 68.0142 7.92097 67.9076 7.96007Z" fill="#F2304B"/>
<path d="M31.7896 9.37514L32.2221 9.38931C32.2222 9.38117 32.2293 9.37341 32.2294 9.35714L31.7896 9.37514Z" fill="#F2304B"/>
<path d="M28.808 9.24773C28.9781 9.24846 29.2049 9.25186 29.3537 9.26625C29.1767 9.22852 28.9924 9.21979 28.808 9.24773Z" fill="#F2304B"/>
<path d="M48.9997 8.85909L49.0494 8.8526C49.3835 8.77834 49.1703 8.8128 48.9997 8.85909Z" fill="#F2304B"/>
<path d="M33.6791 8.96777L33.736 8.97108L33.864 8.92189L33.6791 8.96777Z" fill="#F2304B"/>
<path d="M26.9445 9.25857C27.0155 9.25345 27.0865 9.24833 27.1576 9.22492L26.9092 9.20166C26.9304 9.23031 26.9374 9.23987 26.9445 9.25857Z" fill="#F2304B"/>
<path d="M42.503 8.78292C42.3814 8.85574 42.3384 8.90327 42.3312 8.93291C42.474 8.9316 42.5669 8.89715 42.503 8.78292Z" fill="#F2304B"/>
<g opacity="0.26">
<g opacity="0.26">
<g opacity="0.26">
<g opacity="0.26">
<path opacity="0.26" d="M37.3172 11.3613C37.2955 11.3807 37.281 11.4109 37.2736 11.4517C37.3098 11.4124 37.3171 11.3819 37.3172 11.3613Z" fill="#F2304B"/>
<path opacity="0.26" d="M56.4074 11.248L56.1872 11.2835C56.2653 11.2874 56.3434 11.2727 56.4074 11.248Z" fill="#F2304B"/>
<path opacity="0.26" d="M25.8708 11.6224C25.878 11.6155 25.8921 11.6161 25.8993 11.6091L25.0984 11.6052L25.8708 11.6224Z" fill="#F2304B"/>
<path opacity="0.26" d="M97.1395 10.9397L96.8844 10.9365C96.9694 10.9399 97.0544 10.9432 97.1395 10.9397Z" fill="#F2304B"/>
<path opacity="0.26" d="M72.998 10.9806C73.1046 10.9486 73.2111 10.926 73.3247 10.9317C73.2112 10.9072 73.1047 10.9205 72.998 10.9806Z" fill="#F2304B"/>
<path opacity="0.26" d="M19.7872 10.0508L20.1205 10.1638C20.1065 10.1152 19.9931 10.0615 19.7872 10.0508Z" fill="#F2304B"/>
<path opacity="0.26" d="M8.19659 11.2041C8.20367 11.2144 8.21785 11.2251 8.22496 11.2255C8.2463 11.2266 8.22501 11.2156 8.19659 11.2041Z" fill="#F2304B"/>
<path opacity="0.26" d="M12.7428 11.4565C12.8422 11.4428 12.9559 11.4204 13.0695 11.3981C12.9276 11.4002 12.7572 11.4103 12.7428 11.4565Z" fill="#F2304B"/>
<path opacity="0.26" d="M13.2258 11.3557L13.0695 11.3854C13.1547 11.3803 13.2258 11.3745 13.2258 11.3557Z" fill="#F2304B"/>
<path opacity="0.26" d="M245.06 10.9465C245.33 10.96 245.6 10.9278 245.863 10.8496L245.06 10.9465Z" fill="#F2304B"/>
<path opacity="0.26" d="M134.01 10.6396L133.939 10.6858C134.01 10.6696 134.024 10.6504 134.01 10.6396Z" fill="#F2304B"/>
<path opacity="0.26" d="M245.476 9.88818L245.703 9.92526C245.625 9.90406 245.547 9.89159 245.476 9.88818Z" fill="#F2304B"/>
<path opacity="0.26" d="M25.9247 9.3745C26.2586 9.26568 26.946 9.38885 26.9394 9.28122C26.5847 9.29958 26.0814 9.23016 25.9247 9.3745Z" fill="#F2304B"/>
<path opacity="0.26" d="M141.802 5.92051L142.021 5.92231C141.915 5.91006 141.851 5.91498 141.802 5.92051Z" fill="#F2304B"/>
<path opacity="0.26" d="M245.477 9.89053L245.215 9.83984C245.236 9.85959 245.264 9.8797 245.292 9.89981C245.349 9.89337 245.413 9.88728 245.477 9.89053Z" fill="#F2304B"/>
<path opacity="0.26" d="M172.414 10.6829L172.4 10.6822L172.322 10.6968L172.414 10.6829Z" fill="#F2304B"/>
<path opacity="0.26" d="M174.445 10.8985L174.012 10.9211C174.154 10.9365 174.303 10.935 174.445 10.8985Z" fill="#F2304B"/>
<path opacity="0.26" d="M245.863 10.8178L246.331 10.7588C246.175 10.7601 246.019 10.7798 245.863 10.8178Z" fill="#F2304B"/>
<path opacity="0.26" d="M196.404 10.8686L196.205 10.8761C196.269 10.879 196.34 10.8823 196.404 10.8686Z" fill="#F2304B"/>
<path opacity="0.26" d="M71.4538 10.9523L71.2766 10.9252C71.2552 10.9515 71.2693 10.9705 71.4538 10.9523Z" fill="#F2304B"/>
<path opacity="0.26" d="M85.7854 7.46928C86.0621 7.48333 86.332 7.44118 86.595 7.34282C86.3183 7.32877 86.0485 7.37093 85.7854 7.46928Z" fill="#F2304B"/>
<path opacity="0.26" d="M88.3308 7.35506L88.2387 7.34229C88.267 7.35207 88.3025 7.35373 88.3308 7.35506Z" fill="#F2304B"/>
<path opacity="0.26" d="M72.0253 7.4585L72.0252 7.46874C72.0324 7.46914 72.0324 7.45889 72.0324 7.45889L72.0253 7.4585Z" fill="#F2304B"/>
<path opacity="0.26" d="M75.2572 7.36182C75.328 7.38347 75.406 7.40548 75.484 7.40935C75.4061 7.38735 75.3281 7.37441 75.2572 7.36182Z" fill="#F2304B"/>
<path opacity="0.26" d="M96.3715 6.8665C96.3644 6.86612 96.3643 6.87602 96.3715 6.8665L96.3857 6.87716L96.3715 6.8665Z" fill="#F2304B"/>
<path opacity="0.26" d="M126.778 6.92957C123.723 6.91262 119.767 7.01911 116.734 6.92696C115.883 7.05927 115.018 7.1219 114.153 7.09467L114.049 6.86926L113.247 6.9275C112.922 6.85241 113.864 6.89655 113.284 6.80447L112.985 6.93788C112.922 6.85932 110.916 6.84923 112.264 6.71577L109.138 6.66837C108.444 6.64785 108.74 6.84625 107.975 6.78146C107.82 6.71309 108.252 6.74398 108.181 6.65823C105.879 6.45666 105.535 7.05154 103.396 6.91171L103.58 6.88442C103.218 6.93927 102.524 6.92567 102.516 6.95304C102.798 7.18544 102.9 6.83681 103.551 6.98008C103.5 7.17168 102.735 7.07232 102.784 7.21945C102.373 7.18939 101.962 7.2008 101.55 7.2537C100.807 7.12753 99.7364 7.19586 99.1704 7.04213C98.6663 7.18125 98.1483 7.26451 97.6166 7.27808C97.0506 7.12434 97.7451 7.13795 96.9801 7.07315L96.8589 7.18591C96.2282 7.161 96.3277 7.13035 96.3492 7.0828C95.8882 7.14065 95.4202 7.16365 94.9526 7.14518L95.421 7.04614C94.797 7.08372 94.542 7.05982 93.6775 7.03949C93.6921 6.97784 94.0393 6.98464 94.3014 7.00882C93.8277 6.83799 93.5001 7.06706 93.2451 7.05007C93.3156 7.10126 93.9179 7.12505 93.6266 7.23109C93.1944 7.2071 92.7113 7.3678 92.4074 7.23825L92.8759 7.13921C92.3791 7.23022 91.8757 7.25873 91.3728 7.21812C91.4295 7.21345 91.4014 7.18467 91.4228 7.15786C90.6073 7.22245 89.7781 7.21735 88.9565 7.12958L89.141 7.1023C88.7509 7.13529 88.5447 7.23086 88.3321 7.22247C88.8845 7.29269 88.7355 7.32137 88.7843 7.42702C88.0557 7.23229 87.6844 7.62558 86.4945 7.50252C86.5091 7.44086 86.7931 7.36911 87.1258 7.43757C87.4676 7.20214 87.8726 7.0591 88.291 7.02032C87.8442 7.05798 87.3125 7.07847 87.4264 6.99999L87.2906 7.17441C87.0212 7.1776 86.8016 7.16201 86.5961 7.1608C86.482 7.26693 87.1476 7.34854 86.5235 7.41377C85.8144 7.46182 86.142 7.23275 86.0352 7.30459C85.0567 7.36274 85.637 7.48939 84.6948 7.4176C84.8084 7.39442 84.9289 7.38536 85.0494 7.39703C84.3694 7.32177 83.3908 7.40757 83.1867 7.19898C83.2935 7.12023 83.4284 7.08407 83.5629 7.11013L83.5274 7.11564C84.2655 6.97193 82.9106 7.14659 83.1387 6.96199C83.1946 7.07483 82.2451 7.03732 81.8129 7.02025L81.9537 7.15028C80.5407 7.52316 82.0263 6.89731 80.6156 6.93838C79.722 7.02063 80.9555 6.97947 80.4092 7.06161C79.8427 6.98391 79.2688 6.95433 78.6947 6.96622C78.4469 6.91494 77.9442 6.83977 77.8956 6.69955C77.2508 6.67408 76.6056 6.697 75.9602 6.76139C76.8807 6.88765 76.8684 6.61749 77.9444 6.81212L77.6458 6.95244C76.9017 6.93688 75.9515 7.00306 75.4415 6.94834C75.5477 6.97328 75.5899 7.01643 75.526 7.04157C74.7386 7.13493 73.9374 7.17934 73.1365 7.17536C72.9956 7.04533 73.5979 7.06912 74.0374 7.06574C73.4637 7.0085 72.8897 6.98583 72.3155 7.00463C72.2596 6.89179 73.01 7.01824 73.1242 6.9052L71.9829 6.92926C71.99 6.92263 71.983 6.91544 71.983 6.90852C71.8258 7.09592 71.1114 6.88792 70.4165 6.93653C69.488 6.92751 68.5374 7.05591 67.6355 7.3107C67.3878 7.25942 67.3173 7.20823 67.4168 7.16376C67.8273 7.24913 67.7498 7.18383 67.8919 7.13413C67.3319 7.14658 66.667 6.94054 66.9794 6.8699C66.0931 6.91786 67.3047 6.97264 66.7586 7.02713L65.5467 7.00691C65.6949 7.10266 66.12 7.12637 65.4958 7.19851C64.9641 7.21899 64.7091 7.202 64.0217 7.18868C64.1212 7.14421 63.7959 7.04147 64.3203 7.04836C63.9663 6.99288 63.6047 7.01317 63.264 7.0896C64.0217 7.18177 62.0231 7.16505 62.5961 7.31906L61.8242 7.23325C61.9943 7.23305 62.016 7.17168 62.271 7.18867C62.0523 7.04174 61.6541 7.22653 61.3918 7.24383C61.0516 7.2373 60.7116 7.20313 60.3718 7.1413C60.0597 7.18429 59.7409 7.15787 59.4367 7.0767C59.0821 7.10419 59.4077 7.17236 59.3082 7.21683L58.0963 7.20353C58.0259 7.12469 57.9211 6.89929 58.1056 6.872C57.6515 6.94395 57.9481 7.10779 57.2606 7.10138C57.6515 6.94395 56.34 6.98203 56.9083 6.79704C56.1932 6.69273 55.4704 6.66418 54.7541 6.72578C54.3706 6.84892 55.434 6.80104 55.3907 6.92379C53.6397 6.96525 53.5381 7.31388 52.2557 7.2494L52.5886 7.28329C52.1916 7.29527 51.8014 7.349 51.418 7.44449C51.6317 7.28698 50.4924 7.0207 49.181 7.05187C49.0742 7.13063 49.9242 7.20569 49.7107 7.32864L48.8459 7.34979C48.7821 7.34036 48.8745 7.30943 48.988 7.29317C48.208 7.34534 47.5223 7.08315 47.3013 7.26803L46.4949 7.03565L46.8132 7.1312C46.43 7.19904 46.0398 7.24586 45.6499 7.25811C45.0824 7.33941 44.4943 7.30927 43.9282 7.17627C44.0837 7.24464 44.4796 7.39166 43.7777 7.41234C43.7795 7.15657 42.2971 7.31236 42.3121 7.18849C42.0286 7.19112 41.5188 7.11566 41.4897 7.22515L41.5333 7.06784C41.4751 7.2868 40.4332 7.28713 39.6391 7.32491C39.8113 7.02056 38.7672 7.3527 38.4004 7.08237C38.2573 7.29107 36.9894 7.17184 36.8606 7.34653C36.2439 7.35674 36.3019 7.17233 36.1464 7.10396L35.8624 7.18263C35.5512 7.08736 34.403 7.08349 33.7159 7.02178L33.0839 7.20425L32.8434 7.1256C32.7439 7.17007 32.2192 7.20466 32.5448 7.26593L32.2046 7.2594C32.182 7.45903 31.7223 7.31641 31.0341 7.40678C30.8714 7.37269 30.9142 7.32598 31.0632 7.30421C30.723 7.30459 30.8655 7.19959 30.6745 7.13673C30.9222 7.188 29.453 7.49644 30.3809 7.58149C30.4512 7.66033 29.9121 7.72201 29.5722 7.68784L29.3607 7.51354L28.9625 7.70524C28.5657 7.69648 28.1689 7.66698 27.7796 7.6032C28.2191 7.5929 28.7388 7.25387 27.6118 7.26467C28.0089 7.23886 28.4062 7.1785 28.7966 7.09712C28.5627 7.09479 28.4423 7.07621 28.8043 7.00062C27.925 7.06269 28.5129 7.11357 27.641 7.14136C27.6846 6.98404 27.4368 6.93277 26.6717 6.8818L27.2451 6.99434C27.2095 7.01368 27.1739 7.03302 27.1384 7.03853C27.358 7.05412 27.4217 7.07738 27.4709 7.14155C27.3007 7.14175 26.463 7.34375 26.3148 7.24801C27.2062 7.49066 24.7896 7.45051 25.3557 7.59042C25.1001 7.64947 24.8379 7.63911 24.5832 7.57373C25.307 7.4502 24.0245 7.39954 24.1387 7.2865C23.869 7.33117 24.7191 7.39932 24.3501 7.46081C24.0099 7.4612 23.6771 7.41348 23.3445 7.33119L23.522 7.29671L22.8491 7.22865C22.7422 7.3074 23.5074 7.35146 22.8904 7.40314C22.7276 7.36906 22.1036 7.42046 22.1253 7.35909C22.4166 7.24614 22.1979 7.10612 22.7226 7.07153C22.283 7.08874 20.8936 7.12374 21.4597 7.26365L20.9352 7.26367C21.2679 7.32522 22.1886 7.43073 21.1393 7.47226L21.1466 7.43798L20.4299 7.5687L20.1114 7.49389C20.1253 7.53593 20.0117 7.57292 19.7423 7.57611C19.6717 7.53184 19.4096 7.51457 19.4313 7.45319C18.6445 7.47051 18.7148 7.54935 18.6152 7.60073C18.1757 7.61794 18.0128 7.59077 18.212 7.488C17.5244 7.50233 16.837 7.489 16.1498 7.4342C15.3484 7.51317 16.3198 7.46165 15.8512 7.58143C15.1442 7.3115 13.1867 7.51075 11.8822 7.56294C12.2491 7.7987 11.5276 7.59733 11.2922 7.81621C11.5692 7.72344 10.0318 7.63505 11.1806 7.54905L10.4787 7.58356C9.99756 7.46083 11.6348 7.47019 10.8988 7.29591C10.168 7.41916 9.43032 7.49374 8.68599 7.51274C8.98486 7.33785 7.97675 7.58153 8.19778 7.38973C8.43199 7.34367 8.66605 7.31834 8.90702 7.32095L8.73715 7.28658C7.01502 7.26004 8.25376 7.49566 7.35982 7.6263C6.31061 7.66091 6.52431 7.50341 6.45397 7.42457C6.13516 7.40506 5.80903 7.41983 5.4897 7.47636C6.12836 7.3633 6.67982 7.56487 6.38845 7.67782C5.77256 7.57051 5.14868 7.59427 4.55216 7.76431C6.06057 7.94836 5.59405 7.76399 7.01021 7.96513C7.202 7.90357 7.16066 7.72907 8.00372 7.78311C7.47858 7.87992 8.04558 7.88157 8.19424 7.90819C8.03188 7.81189 8.78288 7.85538 9.03834 7.81016C9.27878 7.8888 8.54763 8.05353 9.40505 8.08048L9.55551 7.84441C9.88136 7.87112 9.41256 8.01855 10.1218 7.94976C9.74526 8.08009 10.2481 8.14144 9.29088 8.19352C10.452 8.37768 11.0495 8.06247 11.9433 7.95948C11.851 7.97658 11.8437 8.00395 11.7515 8.02105C12.0141 7.9692 12.2836 7.93836 12.553 7.93517C13.148 7.97942 12.0915 8.04831 12.247 8.10977L13.204 8.09226C13.2252 8.10001 13.2251 8.10693 13.2251 8.10693C13.4097 8.0589 13.6153 8.05319 13.8063 8.10223C13.5294 8.18118 13.4155 8.25965 13.2307 8.32841L14.2242 8.15331C14.1173 8.23206 15.0597 8.2762 14.3504 8.34499L15.8321 8.29289L15.9657 8.45028C16.3203 8.41589 16.3276 8.38852 15.9025 8.37172C16.4126 8.39879 18.1372 8.05896 17.8869 8.38097C19.0503 8.23332 19.4682 8.27749 20.8793 8.18111C19.8009 8.34594 22.1327 8.34817 20.9839 8.43417C21.4375 8.43825 21.8844 8.38676 22.3245 8.2866C22.8273 8.34795 22.6136 8.50546 22.0744 8.57405L22.7058 8.49527L22.6985 8.52956L23.2449 8.43359C23.8326 8.51904 23.3714 8.59071 23.9737 8.6145L24.0951 8.47409L24.5057 8.55254C24.3501 8.49108 24.7048 8.45669 25.1372 8.44611L25.1299 8.4804L25.6616 8.453C25.1365 8.54289 26.1505 8.47923 25.9088 8.58723C26.3624 8.59132 26.3694 8.5916 27.1918 8.56185L27.0436 8.46611C28.1074 8.37675 27.0923 8.60632 27.9569 8.61282L27.901 8.49998C29.1543 8.68086 30.0139 8.38292 30.9346 8.49535C30.4099 8.52303 30.5437 8.65277 30.5581 8.61877C31.3522 8.57408 32.642 8.59737 33.458 8.45674C33.8323 8.65822 34.264 8.75825 34.6823 8.73329C35.299 8.72308 35.3842 8.7057 35.5833 8.60984C36.1646 8.59132 36.7456 8.61427 37.3263 8.68561C37.4616 8.59415 37.8649 8.69998 38.1844 8.62271L38.255 8.66698L38.199 8.55414C39.2605 8.79659 39.972 8.40291 41.0408 8.61799L40.8562 8.65219L41.3031 8.60761C41.3736 8.6588 41.1962 8.68636 41.1745 8.74774L43.2511 8.76063L42.8406 8.67526C43.245 8.61518 43.6562 8.60376 44.0742 8.62719C43.2509 8.79519 44.7617 8.6336 44.9025 8.76363L44.4557 8.80821C45.0653 8.79772 45.0653 8.79772 45.0094 8.68488C45.7964 8.64682 45.5608 8.90027 46.2845 8.77674L45.7672 8.77013C45.6117 8.70176 45.9809 8.61262 46.3281 8.61942C46.4131 8.63661 46.6608 8.68788 46.3914 8.69798C47.0154 8.65349 47.9505 8.71809 48.2202 8.67342C48.5602 8.7076 48.4533 8.78635 48.2688 8.81364C49.5949 8.72081 48.8711 8.83743 50.2043 8.73797L50.1826 8.79935L50.6367 8.7274L51.2949 8.86403L51.0616 8.77875C51.4658 8.74632 51.877 8.74182 52.2808 8.75777L52.0746 8.85334C53.3082 8.80527 53.5053 9.01358 54.6756 8.88694C54.7534 8.90385 54.5761 8.93141 54.4838 8.94851C55.5692 8.8047 55.3119 9.11952 56.3975 8.94114C56.3335 8.97318 56.4537 9.0125 56.411 9.03848L56.9076 8.98203L56.8712 9.11197L57.2694 8.92718L57.5804 9.05701L57.7722 8.99544C58.3092 9.23792 59.0546 9.05993 59.7905 9.24112L59.664 9.084C61.4878 8.74809 63.8656 9.27764 66.0779 9.14376L66.0416 9.26679L66.9568 9.14391C67.4522 9.24646 66.6655 9.24995 66.8209 9.31832C67.7995 9.25326 67.2262 9.13381 68.3604 9.10255C68.9481 9.19491 68.1613 9.19841 67.8846 9.23588C69.0121 9.16287 70.1462 9.14544 71.2799 9.19714C71.2942 9.18387 71.3439 9.15818 71.3015 9.14959C72.0106 9.10154 72.9528 9.15951 73.7325 9.16265C73.7108 9.22402 73.5194 9.23029 73.328 9.23656C73.6325 9.26933 73.9373 9.26754 74.2352 9.23091L73.9439 9.33695C74.575 9.29965 75.2127 9.31793 75.843 9.39814C75.7724 9.34695 75.7944 9.25101 76.3188 9.26481C76.608 9.46293 77.7297 9.19609 78.5653 9.30516C78.4657 9.34963 77.8562 9.3532 78.0262 9.35992C78.4159 9.38914 78.8059 9.35615 79.1822 9.26729L79.0753 9.34605L81.018 9.24992C81.3143 9.44832 82.8467 9.23228 82.7182 9.37241C83.4127 9.38601 82.1376 9.28033 83.0095 9.26636C83.2428 9.35164 83.8035 9.2355 83.7672 9.36544L83.675 9.37563L84.2846 9.37205L83.901 9.48828C84.4257 9.46751 84.8163 9.35157 84.8382 9.25563C85.3201 9.26775 85.8017 9.31444 86.2831 9.39568L86.0987 9.42297C87.5023 9.38853 88.4351 9.79185 89.535 9.59329C89.62 9.61047 89.6056 9.64448 89.4355 9.63776L90.3071 9.65836L90.101 9.74702L91.5336 9.61692L91.519 9.67858C92.4685 9.71609 93.9499 9.69855 95.169 9.6983L94.9845 9.72559C96.3176 9.64687 96.274 9.80418 97.2454 9.74575C97.2169 9.75846 97.1814 9.77088 97.146 9.76949L98.0248 9.77654L97.833 9.83811C98.3222 9.81595 98.804 9.8419 99.2925 9.91651C99.6684 9.88296 100.037 9.81456 100.4 9.71823C101.356 9.72146 100.633 9.80351 101.228 9.86159C101.922 9.87519 102.036 9.76907 102.979 9.83395L102.964 9.8956C103.404 9.89222 103.673 9.84755 104.283 9.85089L104.098 9.87817C105.091 9.75837 105.344 10.0864 106.119 9.81969C106.536 9.87768 107.33 9.85373 107.294 9.97676C108.535 9.91514 109.499 9.89099 110.732 9.86366C110.937 10.0722 110.995 9.85328 111.745 9.98664L111.689 9.8738C113.433 9.88735 115.436 10.1947 117.357 10.1807L117.413 10.2935L117.797 10.1773C119.866 10.2659 122.544 10.3441 124.195 10.3817C124.926 10.2861 125.671 10.2463 126.415 10.2757L126.322 10.2928C127.818 10.2551 129.392 10.2412 131.021 10.3401C130.922 10.3846 131.084 10.4187 130.9 10.446C131.333 10.387 131.772 10.3975 132.204 10.4698L131.793 10.3776C132.248 10.3125 132.715 10.3448 133.161 10.48L133.891 10.3706C133.941 10.3794 134.012 10.403 134.026 10.4174L134.154 10.3602L134.543 10.5138C135.032 10.4986 135.521 10.4418 135.997 10.3362C136.067 10.3874 136.754 10.4353 136.223 10.4557L138.901 10.5546L138.483 10.4966C138.427 10.3838 139.236 10.3328 139.647 10.3905C139.1 10.4726 139.603 10.5478 139.836 10.6331C140.198 10.5782 139.518 10.5306 139.71 10.469C140.263 10.401 140.823 10.3885 141.376 10.438L141.106 10.4758C141.73 10.4451 142.019 10.6501 142.629 10.6466C143.175 10.5644 143.585 10.6636 143.466 10.4653C144.26 10.4413 143.777 10.602 144.032 10.6259C144.571 10.5573 145.124 10.593 145.662 10.7249C146.096 10.4516 147.801 10.8716 147.966 10.643L148.617 10.7932C148.638 10.7318 148.767 10.5917 149.292 10.5779C149.787 10.6597 149.673 10.7658 149.828 10.8342L150.163 10.6054C153.039 10.9264 156.824 10.8408 159.976 11.1175C161.38 11.0969 163.152 11.0355 164.789 11.114L164.604 11.1413L166.234 11.2471L165.051 11.1105C165.405 11.09 165.682 11.0525 166.029 11.0662C168.154 11.2677 170.287 11.3519 172.414 11.3253C173.84 11.0912 173.361 11.5909 174.731 11.4237C174.617 11.4469 174.567 11.4864 174.468 11.5102C175.942 11.4578 176.736 11.4338 178.211 11.3123C178.047 11.5755 179.168 11.3294 179.04 11.4695L179.161 11.3637C179.486 11.4388 180.258 11.4831 180.152 11.5618L180.805 11.4424L180.86 11.5553C181.725 11.5894 183.575 11.5519 184.027 11.791C186.161 11.6817 189.534 11.8288 192.212 11.9484C192.801 11.8818 193.389 11.8635 193.985 11.887L194.636 12.0372C195.253 11.9509 195.87 11.9338 196.493 11.9723C196.493 11.9861 196.464 11.9988 196.422 12.004C197.031 12.0419 197.641 12.0384 198.244 11.9792C198.938 12.0066 199.611 12.1024 199.397 12.2184C199.463 11.9997 200.864 12.2971 200.864 12.2971C200.864 12.2971 209.749 12.6965 219.719 13.0143C229.689 13.3321 240.745 13.5752 245.078 13.1863C245.327 13.0924 246.043 13.0584 245.788 12.917C245.994 12.9113 246.206 12.9335 246.405 12.9897C246.461 13.0058 246.518 13.015 246.574 13.0241C246.596 13.0249 246.617 13.0258 246.638 13.0197C246.645 13.02 246.66 13.0136 246.667 13.0139L246.681 13.0076L246.688 13.0009C246.76 12.7618 246.826 12.5224 246.898 12.2763C246.833 12.495 246.768 12.7206 246.71 12.9396C246.688 13.0217 246.695 12.9874 246.695 12.9943L246.681 12.9937L246.667 12.9932L246.638 12.9921L246.582 12.9829C246.553 12.9749 246.525 12.9738 246.497 12.9588C246.454 12.9433 246.433 12.9286 246.419 12.9143C246.398 12.8789 246.441 12.846 246.477 12.8128C246.555 12.7398 246.648 12.6605 246.266 12.5763L246.776 12.5757C246.897 12.5044 246.067 12.6238 246.224 12.4986L246.045 12.692C245.783 12.6748 245.528 12.6163 245.288 12.51C244.776 12.7111 244.216 12.765 243.664 12.674L243.933 12.6708C243.147 12.6467 243.452 12.5205 243.289 12.4795L243.467 12.4865L242.808 12.3567C243.311 12.4457 244.141 12.3195 243.709 12.3093C242.774 12.2102 243.949 12.3672 243.248 12.3672C242.808 12.3567 242.937 12.2581 242.951 12.1895L242.165 12.1654C242.194 12.0697 242.682 12.1927 242.364 12.0833L241.371 12.1409C241.188 11.8917 240.293 12.209 239.848 11.9632C240.557 11.9359 239.785 11.8778 239.899 11.8062L238.156 11.7512C237.993 11.7102 238.617 11.6933 238.348 11.6965C238.107 11.6662 237.866 11.6775 237.632 11.7235C237.483 11.6554 236.335 11.6792 236.378 11.5219C235.196 11.3715 235.881 11.7028 234.776 11.5693C234.635 11.4669 235.648 11.576 235.16 11.4599L234.019 11.4494C234.211 11.3395 234.445 11.3003 234.672 11.3369C231.583 11.0905 229.921 10.527 227.093 10.5535C226.697 10.4273 227.377 10.4887 227.661 10.4239C225.612 10.5019 224.786 10.0683 223.043 10.0201L223.014 10.1158C220.585 9.73637 217.664 9.82151 214.923 9.60258L215.248 9.67768C214.773 9.73496 214.291 9.77123 213.809 9.77293C213.739 9.72175 214.136 9.57843 213.342 9.59547C213.505 9.63647 213.845 9.68447 213.746 9.72203C211.388 9.39378 206.413 9.30098 202.544 9.06519C197.307 8.96894 191.625 8.62694 186.48 8.54124C187.267 8.55848 186.932 8.78036 186.337 8.70846C184.717 8.26416 183.538 8.69467 181.881 8.38031C178.883 8.42091 176.207 8.01094 173.427 8.24685L173.371 8.13401C173.045 8.10731 172.726 8.10854 172.407 8.14433L172.414 8.11004C171.38 8.04153 170.132 8.1236 169.537 8.0517L169.501 8.17473C168.884 8.17112 169.182 8.07227 168.551 8.1234L168.566 8.06174L167.835 8.16426C167.908 7.94585 166.106 8.10287 165.611 7.9865C164.817 8.00354 163.314 8.06171 162.11 7.98648C161.232 7.85499 160.353 7.7788 159.467 7.75764C157.632 7.74736 155.017 7.72011 152.685 7.62802L152.727 7.77487L152.117 7.77153C152.125 7.73725 152.047 7.72035 152.132 7.70988C151.658 7.53904 150.729 7.7305 150.233 7.61412C150.544 7.75087 150.658 7.64475 151.005 7.65846C151.508 7.74055 151.032 7.86696 150.353 7.77788L150.367 7.74387L149.906 7.80863C149.857 7.69607 149.432 7.63088 149.383 7.51832C147.378 7.50132 146.016 7.66187 143.947 7.5594C144.16 7.43646 142.458 7.55592 142.871 7.35095C141.63 7.40565 143.075 7.53188 142.514 7.67568C142.167 7.66196 141.805 7.71681 141.742 7.63825C141.905 7.58939 141.459 7.50263 141.743 7.48617L140.914 7.48799C140.836 7.47108 141.02 7.4438 141.106 7.43333C139.418 7.5257 138.102 7.2317 136.591 7.33107C136.477 7.40954 137.194 7.36869 137.087 7.44053C135.562 7.56699 135.734 7.27646 134.316 7.35873L134.607 7.25961C134.146 7.36584 133.664 7.38828 133.189 7.31423C133.056 7.18448 133.828 7.2219 134.19 7.16705C133.672 7.15353 132.354 7.15677 132.757 7.28333C132.36 7.2953 131.964 7.25198 131.567 7.15335C131.56 7.18763 132.148 7.25234 131.786 7.30028C130.936 7.21139 129.632 7.18754 128.598 7.1605C128.605 7.12621 128.534 7.08194 128.627 7.06484C127.796 7.21873 127.883 6.93176 126.735 6.94171" fill="#F2304B"/>
<path opacity="0.26" d="M71.6074 7.43309L72.0259 7.46368C72.0261 7.42642 72.0405 7.38057 72.2323 7.34373L71.6074 7.43309Z" fill="#F2304B"/>
<path opacity="0.26" d="M91.4225 7.14602C91.4723 7.13888 91.5221 7.12197 91.5719 7.09529C91.4724 7.10957 91.4368 7.12723 91.4225 7.14602Z" fill="#F2304B"/>
<path opacity="0.26" d="M96.238 6.73136C95.8967 6.76239 96.2021 6.81795 96.3725 6.86634C96.3798 6.83723 96.3729 6.78769 96.238 6.73136Z" fill="#F2304B"/>
<path opacity="0.26" d="M60.3887 8.24149C60.46 8.22516 60.5029 8.19719 60.496 8.15641C60.396 8.20149 60.3745 8.22052 60.3887 8.24149Z" fill="#F2304B"/>
<path opacity="0.26" d="M29.3627 9.25488L29.4903 9.27901C29.4407 9.26764 29.4053 9.25697 29.3627 9.25488Z" fill="#F2304B"/>
<path opacity="0.26" d="M31.0821 9.47872C31.2026 9.47574 31.3161 9.47242 31.4297 9.45144C31.3163 9.44593 31.2027 9.45808 31.0821 9.47872Z" fill="#F2304B"/>
<path opacity="0.26" d="M67.9097 7.96431C68.0161 7.96043 68.1297 7.94763 68.2363 7.91593C68.1228 7.91018 68.0163 7.92334 67.9097 7.96431Z" fill="#F2304B"/>
<path opacity="0.26" d="M31.7919 9.36928L32.2244 9.38114C32.2244 9.37261 32.2315 9.36442 32.2316 9.34738L31.7919 9.36928Z" fill="#F2304B"/>
<path opacity="0.26" d="M28.8102 9.24224C28.9803 9.24194 29.2071 9.24403 29.3559 9.25779C29.1789 9.22786 28.9946 9.22008 28.8102 9.24224Z" fill="#F2304B"/>
<path opacity="0.26" d="M49.0019 8.85262L49.0517 8.84568C49.3856 8.77737 49.1725 8.80439 49.0019 8.85262Z" fill="#F2304B"/>
<path opacity="0.26" d="M33.6742 8.97133L33.7311 8.9743L33.8591 8.92321L33.6742 8.97133Z" fill="#F2304B"/>
<path opacity="0.26" d="M26.9396 9.25147C27.0106 9.24572 27.0817 9.23996 27.1527 9.21544L26.9044 9.19336C26.9327 9.22296 26.9397 9.24209 26.9396 9.25147Z" fill="#F2304B"/>
<path opacity="0.26" d="M42.498 8.78418C42.3765 8.85844 42.3335 8.90664 42.3262 8.93656C42.476 8.93458 42.5688 8.89919 42.498 8.78418Z" fill="#F2304B"/>
</g>
</g>
</g>
</g>
</g>
<defs>
<clipPath id="clip0_717_70175">
<rect width="247" height="21" fill="white"/>
</clipPath>
</defs>
</svg>
