<svg width="472" height="34" viewBox="0 0 472 34" fill="none" xmlns="http://www.w3.org/2000/svg">
<g clip-path="url(#clip0_669_42665)">
<path d="M400.9 8.70733C400.942 8.67538 400.969 8.62615 400.983 8.57639C400.915 8.62405 400.901 8.67381 400.9 8.70733Z" fill="#D43E36"/>
<path d="M364.392 8.01053L364.812 7.94735C364.677 7.94244 364.527 7.9684 364.392 8.01053Z" fill="#D43E36"/>
<path d="M422.776 9.08988C422.762 9.10142 422.735 9.10067 422.722 9.11221L424.265 9.15508L422.776 9.08988Z" fill="#D43E36"/>
<path d="M286.517 8.30317L287.005 8.29088C286.842 8.29969 286.68 8.29436 286.517 8.30317Z" fill="#D43E36"/>
<path d="M332.665 8.11393C332.462 8.16938 332.258 8.19342 332.041 8.20126C332.258 8.24054 332.475 8.20129 332.665 8.11393Z" fill="#D43E36"/>
<path d="M434.326 12.1989L433.703 11.9824C433.703 12.0791 433.933 12.1682 434.326 12.1989Z" fill="#D43E36"/>
<path d="M456.498 11.6201C456.485 11.603 456.458 11.5854 456.444 11.5683C456.417 11.6004 456.444 11.618 456.498 11.6201Z" fill="#D43E36"/>
<path d="M447.844 10.7166C447.654 10.7252 447.437 10.7484 447.22 10.787C447.478 10.7807 447.817 10.7928 447.844 10.7166Z" fill="#D43E36"/>
<path d="M446.922 10.836L447.22 10.8002C447.058 10.7944 446.922 10.805 446.922 10.836Z" fill="#D43E36"/>
<path d="M3.84537 20.6434C3.18053 20.6985 2.51506 20.833 1.8762 21.0321L3.84537 20.6434Z" fill="#D43E36"/>
<path d="M216.029 10.1451L216.165 10.068C216.029 10.0793 216.002 10.1112 216.029 10.1451Z" fill="#D43E36"/>
<path d="M3.10287 22.4653L2.62893 22.464C2.77784 22.4685 2.94029 22.4733 3.10287 22.4653Z" fill="#D43E36"/>
<path d="M422.578 12.7032C421.94 12.8741 420.628 12.6363 420.64 12.8147C421.304 12.793 422.265 12.9446 422.578 12.7032Z" fill="#D43E36"/>
<path d="M201.282 18.1927L200.862 18.2075C201.066 18.1999 201.187 18.204 201.282 18.1927Z" fill="#D43E36"/>
<path d="M3.10285 22.4528L3.65851 22.4572C3.60457 22.4241 3.55062 22.391 3.483 22.373C3.34712 22.4149 3.22492 22.4416 3.10285 22.4528Z" fill="#D43E36"/>
<path d="M142.633 12.7009L142.66 12.7019L142.809 12.6593L142.633 12.7009Z" fill="#D43E36"/>
<path d="M138.736 12.5073L139.563 12.4296C139.278 12.4195 139.007 12.4405 138.736 12.5073Z" fill="#D43E36"/>
<path d="M1.87604 21.0795L0.775845 21.3099C1.14237 21.2597 1.50914 21.1775 1.87604 21.0795Z" fill="#D43E36"/>
<path d="M96.7867 14.5866L97.1664 14.5543C97.0445 14.5501 96.9089 14.5605 96.7867 14.5866Z" fill="#D43E36"/>
<path d="M335.63 8.16505L335.968 8.20809C336.009 8.16314 335.982 8.13124 335.63 8.16505Z" fill="#D43E36"/>
<path d="M308.23 13.7421C307.702 13.7229 307.186 13.7985 306.683 13.9846C307.211 13.9881 307.741 13.913 308.23 13.7421Z" fill="#D43E36"/>
<path d="M303.366 13.9712L303.555 13.9922C303.487 13.9899 303.433 13.9735 303.366 13.9712Z" fill="#D43E36"/>
<path d="M334.511 13.8208L334.511 13.8038C334.497 13.8032 334.497 13.8203 334.497 13.8203L334.511 13.8208Z" fill="#D43E36"/>
<path d="M328.348 13.9437C328.213 13.9081 328.064 13.872 327.915 13.8667C328.064 13.9182 328.199 13.9384 328.348 13.9437Z" fill="#D43E36"/>
<path d="M288.025 14.882L287.999 14.8643L288.025 14.882Z" fill="#D43E36"/>
<path d="M229.946 17.5797C235.772 17.4111 243.32 17.0397 249.116 17.0864C250.731 16.7858 252.385 16.6349 254.037 16.6327L254.25 17.0718L255.782 16.9172C256.404 17.0448 254.603 17.0018 255.712 17.1582L256.283 16.8789C256.404 17.0313 260.238 16.9489 257.661 17.2869L263.634 17.2446C264.962 17.2457 264.396 16.8766 265.858 16.9765C266.155 17.1075 265.343 17.0685 265.463 17.2209C269.862 17.5075 270.51 16.3387 274.599 16.5075L274.246 16.564C274.938 16.4371 276.265 16.4517 276.28 16.3845C275.742 15.9488 275.546 16.6183 274.302 16.3766C274.4 16.0013 275.848 16.1683 275.756 15.8817C276.541 15.9333 277.327 15.8904 278.114 15.7799C279.547 16.0141 281.581 15.8346 282.661 16.1253C283.626 15.8447 284.616 15.6731 285.619 15.6235C286.7 15.9142 285.372 15.8995 286.834 16.013L287.066 15.804C288.258 15.8279 288.081 15.8899 288.04 15.9967C288.921 15.8622 289.816 15.8092 290.709 15.8372L289.814 16.0524C291.006 15.9682 291.48 15.9965 293.146 16.0218C293.118 16.1425 292.454 16.1352 291.967 16.1064C292.871 16.4186 293.498 15.9653 293.986 15.9941C293.851 15.8953 292.7 15.8592 293.258 15.6469C294.083 15.6863 294.994 15.35 295.588 15.5984L294.692 15.8135C295.628 15.6132 296.604 15.5492 297.565 15.6199C297.457 15.63 297.51 15.6857 297.469 15.7385C299.028 15.5847 300.613 15.5804 302.183 15.7242L301.83 15.7807C302.576 15.7095 302.97 15.5192 303.376 15.5319C302.321 15.4042 302.606 15.3456 302.513 15.14C303.905 15.4945 304.617 14.7195 306.89 14.926C306.862 15.0467 306.319 15.2053 305.683 15.0773C305.029 15.5432 304.267 15.8436 303.454 15.9262C304.308 15.8449 305.325 15.7822 305.106 15.9375L305.367 15.5944C305.882 15.5835 306.301 15.6102 306.694 15.5955C306.913 15.3861 305.641 15.2516 306.834 15.0999C308.19 14.9802 307.563 15.447 307.767 15.2913C309.638 15.1473 308.529 14.9233 310.329 15.0338C310.112 15.0811 309.882 15.1009 309.652 15.0937C310.937 15.2286 312.822 15.0174 313.197 15.4346C312.992 15.5903 312.734 15.6633 312.491 15.6151L312.505 15.548C311.094 15.8551 313.684 15.4634 313.247 15.8416C313.141 15.622 314.956 15.6789 315.768 15.7179L315.499 15.4663C318.202 14.7268 315.359 15.9619 318.042 15.8704C319.75 15.7077 317.393 15.7959 318.437 15.626C319.519 15.7681 320.616 15.8295 321.713 15.7963C322.186 15.8923 323.147 16.0305 323.239 16.3172C324.471 16.3558 325.704 16.3134 326.938 16.1764C325.179 15.9321 325.201 16.4733 323.146 16.098L323.717 15.8322C325.139 15.8498 326.942 15.7171 327.93 15.8157C327.727 15.7553 327.647 15.6852 327.769 15.635C329.274 15.4525 330.806 15.3519 332.336 15.3458C332.605 15.5975 331.454 15.5479 330.614 15.5756C331.71 15.6775 332.807 15.7119 333.904 15.6788C334.011 15.8983 332.577 15.6642 332.358 15.8735L334.54 15.8068C334.526 15.8199 334.539 15.8338 334.539 15.8474C334.854 15.4789 336.205 15.8861 337.533 15.7791C339.362 15.7689 341.166 15.5147 342.904 15.0017C343.377 15.0976 343.512 15.1964 343.321 15.285C342.551 15.1257 342.685 15.2516 342.413 15.3376C343.484 15.3036 344.753 15.7083 344.156 15.8517C345.85 15.7427 343.548 15.657 344.579 15.5407L346.894 15.5728C346.612 15.3883 345.8 15.3357 346.993 15.1975C348.009 15.1483 348.496 15.1906 349.81 15.2048C349.62 15.2934 350.227 15.4882 349.239 15.4707C349.915 15.5729 350.606 15.5406 351.258 15.3718C349.81 15.1913 353.629 15.2165 352.549 14.9259L353.996 15.1064C353.671 15.0962 353.629 15.23 353.142 15.1877C353.559 15.4711 354.321 15.1166 354.823 15.0918C355.472 15.1122 356.122 15.1866 356.771 15.3015C357.368 15.2257 357.977 15.2718 358.558 15.4387C359.235 15.3924 358.614 15.2512 358.804 15.1626L361.12 15.2082C361.24 15.3742 361.439 15.7993 361.1 15.8563C361.968 15.7213 361.402 15.3928 362.729 15.4209C361.982 15.7218 364.474 15.6648 363.387 16.0226C364.753 16.2411 366.134 16.298 367.49 16.1918C368.223 15.9581 366.205 16.0434 366.275 15.8024C369.621 15.7452 369.817 15.0622 372.267 15.1931L371.631 15.1191C372.39 15.1023 373.149 15.0045 373.882 14.8248C373.459 15.1224 375.635 15.6636 378.141 15.6206C378.346 15.4648 376.735 15.3197 377.144 15.0758L378.81 15.047C378.932 15.0778 378.742 15.1259 378.538 15.1601C380.029 15.0582 381.324 15.5853 381.761 15.2207L383.287 15.6874L382.68 15.4927C383.412 15.3535 384.158 15.2823 384.917 15.2521C386.002 15.1104 387.112 15.1723 388.193 15.4359C387.896 15.305 387.154 15.0115 388.495 14.9724C388.491 15.4723 391.324 15.1828 391.281 15.4382C391.823 15.4417 392.796 15.6074 392.853 15.4064L392.768 15.7146C392.894 15.2861 394.871 15.3346 396.389 15.2741C396.045 15.8579 398.055 15.2588 398.741 15.7938C399.029 15.3975 401.437 15.6757 401.698 15.3461C402.862 15.3421 402.751 15.7169 403.047 15.8479L403.59 15.7027C404.185 15.897 406.378 15.9523 407.691 16.1016L408.899 15.7612L409.345 15.9238C409.535 15.8352 410.551 15.7995 409.916 15.6579L410.566 15.6918C410.624 15.3153 411.488 15.5991 412.803 15.4512C413.114 15.515 413.032 15.607 412.747 15.6521C413.397 15.6725 413.124 15.8532 413.489 15.9862C413.016 15.8768 415.852 15.3306 414.079 15.1264C413.959 14.974 414.989 14.8712 415.639 14.9456L416.028 15.2956L416.804 14.9416C417.562 14.9654 418.319 15.0567 419.063 15.1881C418.223 15.2023 417.202 15.8189 419.368 15.8463C418.596 15.8897 417.837 15.974 417.09 16.1262C417.537 16.1537 417.767 16.188 417.062 16.3145C418.755 16.2325 417.632 16.1162 419.298 16.0874C419.201 16.3951 419.674 16.5046 421.135 16.6315L420.041 16.3944C420.109 16.356 420.177 16.3311 420.245 16.3062C419.825 16.2661 419.717 16.2086 419.623 16.0976C419.948 16.1078 421.564 15.7395 421.833 15.9372C420.144 15.4248 424.761 15.6101 423.694 15.3064C424.183 15.2001 424.697 15.2297 425.17 15.3797C423.773 15.5926 426.223 15.7506 425.991 15.9595C426.506 15.8811 424.896 15.7089 425.588 15.609C426.238 15.6294 426.873 15.7169 427.495 15.8986L427.142 15.9551L428.427 16.117C428.632 15.9613 427.184 15.8213 428.363 15.7772C428.673 15.8545 429.866 15.7973 429.824 15.9176C429.253 16.1159 429.67 16.4128 428.654 16.4349C429.494 16.4343 432.162 16.4639 431.082 16.1462L432.084 16.1777C431.462 16.0365 429.704 15.7517 431.708 15.7605L431.694 15.8411L433.091 15.6417L433.699 15.8229C433.686 15.7414 433.903 15.6807 434.418 15.6968C434.552 15.7956 435.04 15.838 434.998 15.9583C436.501 15.9784 436.381 15.8125 436.571 15.7374C437.411 15.7367 437.722 15.8005 437.327 15.9773C438.641 15.9915 439.954 16.0867 441.266 16.236C442.811 16.1358 440.955 16.1587 441.851 15.9706C443.173 16.539 446.927 16.3055 449.433 16.2895C448.747 15.795 450.124 16.2571 450.575 15.8253C450.032 15.9569 452.955 16.2513 450.76 16.3311L452.101 16.3191C453.019 16.6047 449.878 16.4656 451.27 16.8471C452.68 16.6616 454.103 16.5711 455.525 16.5887C454.926 16.9077 456.894 16.51 456.444 16.8607C455.996 16.9413 455.549 16.9678 455.089 16.9399L455.399 17.0172C458.689 17.1879 456.351 16.6416 458.086 16.4528C460.091 16.4617 459.668 16.7592 459.789 16.9116C460.411 16.9717 461.021 16.9638 461.645 16.8753C460.424 17.0532 459.385 16.6152 459.942 16.4165C461.105 16.6826 462.31 16.6664 463.464 16.3783C460.597 15.91 461.474 16.3159 458.797 15.813C458.43 15.9231 458.481 16.2625 456.871 16.0904C457.888 15.9466 456.805 15.8991 456.521 15.8362C456.831 16.0351 455.396 15.8955 454.908 15.9612C454.463 15.7851 455.874 15.5321 454.236 15.4132L453.92 15.8762C453.284 15.7887 454.194 15.547 452.825 15.6257C453.559 15.4054 452.599 15.2402 454.455 15.2173C452.251 14.7698 451.081 15.3547 449.359 15.4764C449.536 15.4549 449.55 15.3878 449.726 15.3663C449.224 15.4586 448.709 15.4965 448.195 15.4669C447.072 15.3371 449.09 15.2788 448.794 15.1478L446.965 15.1175C446.925 15.1027 446.925 15.0892 446.925 15.0892C446.559 15.1723 446.179 15.1604 445.815 15.0544C446.358 14.9228 446.576 14.7675 446.943 14.6573L445.03 14.9352C445.235 14.793 443.448 14.6288 444.817 14.5501L441.973 14.542L441.732 14.2236C441.054 14.2699 441.027 14.3231 441.853 14.3761C440.878 14.2779 437.541 14.8219 438.062 14.2166C435.825 14.4167 435.027 14.2971 432.331 14.3882C434.405 14.1559 429.951 13.9622 432.146 13.8824C431.279 13.8417 430.412 13.8955 429.571 14.0718C428.624 13.9205 429.047 13.623 430.077 13.5337L428.87 13.6445L428.898 13.5778L427.854 13.7342C426.745 13.5508 427.626 13.4163 426.476 13.3532L426.229 13.6292L425.445 13.456C425.742 13.5869 425.051 13.6328 424.224 13.6474L424.239 13.5803L423.223 13.616C424.226 13.4583 422.302 13.5465 422.751 13.3444C421.884 13.3172 421.871 13.3168 420.299 13.3486L420.568 13.5462C418.522 13.6847 420.476 13.2596 418.824 13.2212L418.931 13.4408C416.55 13.0418 414.893 13.5844 413.121 13.3261C414.137 13.2904 413.869 13.0388 413.855 13.0924C412.337 13.1529 409.859 13.0481 408.299 13.2965C407.585 12.8822 406.775 12.6811 405.975 12.7101C404.81 12.7141 404.634 12.7356 404.253 12.9128C403.142 12.932 402.033 12.8566 400.923 12.7002C400.664 12.8813 399.894 12.6409 399.283 12.7974L399.149 12.6986L399.255 12.9182C397.242 12.3956 395.854 13.1358 393.813 12.6934L394.165 12.6369L393.311 12.7047C393.177 12.6059 393.516 12.5489 393.558 12.4286L389.577 12.3308L390.36 12.504C389.587 12.6149 388.788 12.6304 388.003 12.5787C389.591 12.2636 386.676 12.5506 386.421 12.2993L387.275 12.218C386.11 12.222 386.11 12.222 386.203 12.4411C384.685 12.5016 385.164 12.0167 383.767 12.2431L384.769 12.261C385.066 12.392 384.346 12.5586 383.683 12.5513C383.52 12.5192 383.061 12.4101 383.562 12.3853C382.37 12.456 380.583 12.3324 380.054 12.4104C379.405 12.336 379.623 12.1807 379.962 12.1237C377.414 12.3006 378.811 12.0741 376.263 12.2374L376.305 12.1171L375.396 12.3048L374.139 12.0357L374.584 12.1983C373.811 12.2551 373.026 12.2575 372.254 12.2198L372.649 12.043C370.291 12.1312 369.916 11.714 367.679 11.9546C367.53 11.9229 367.869 11.866 368.045 11.831C365.971 12.1038 366.464 11.4841 364.389 11.8244C364.511 11.7607 364.281 11.6859 364.363 11.6344L363.414 11.7398L363.484 11.4987L362.709 11.8528L362.115 11.6044L361.748 11.7146C360.737 11.2369 359.298 11.5836 357.906 11.2157L358.147 11.534C354.647 12.1404 350.119 11.1065 345.877 11.4059L345.947 11.1648L344.197 11.4477C343.251 11.2559 344.755 11.2355 344.458 11.1046C342.587 11.2351 343.682 11.4721 341.515 11.5393C340.406 11.3693 341.895 11.362 342.425 11.2705C340.269 11.4326 338.102 11.4728 335.936 11.3778C335.908 11.4039 335.813 11.455 335.894 11.4711C334.539 11.5772 332.738 11.4667 331.235 11.4735C331.263 11.3663 331.643 11.3377 332.008 11.3221C331.427 11.2633 330.844 11.2721 330.275 11.3353L330.832 11.1231C329.626 11.2069 328.407 11.1686 327.203 11.0092C327.338 11.108 327.295 11.2959 326.293 11.278C325.741 10.8958 323.583 11.4362 321.986 11.224C322.177 11.1353 323.342 11.1178 323.017 11.1076C322.272 11.0573 321.527 11.1285 320.794 11.2947L321.012 11.1393L317.299 11.3472C316.747 10.965 313.79 11.3993 314.037 11.1232C312.709 11.1086 315.159 11.2936 313.479 11.3355C313.034 11.1728 311.962 11.423 312.032 11.1684L312.208 11.1334L311.03 11.1505L311.763 10.9033C310.761 10.9529 310.013 11.1997 309.971 11.3876C309.05 11.3722 308.13 11.3028 307.21 11.1523L307.563 11.0958C304.88 11.2008 303.099 10.4423 300.996 10.8628C300.834 10.8307 300.861 10.764 301.186 10.7742L299.52 10.7759L299.915 10.5856L297.176 10.8781L297.204 10.7574C295.39 10.7139 292.558 10.7873 290.215 10.8354L290.567 10.7789C288.019 10.9827 288.103 10.6745 286.246 10.8055C286.301 10.7802 286.369 10.7553 286.437 10.7574L284.757 10.7723L285.124 10.6486C284.189 10.7004 283.268 10.658 282.335 10.5341C281.616 10.6062 280.91 10.7462 280.231 10.9546C278.403 10.9783 279.786 10.792 278.649 10.7023C277.537 10.789 276.427 10.8217 275.303 10.8L275.331 10.6793C274.491 10.707 273.975 10.7989 272.81 10.8164L273.163 10.7599C271.264 11.0382 270.782 10.415 269.301 10.9631C268.503 10.8705 266.985 10.958 267.055 10.7034C264.683 10.8858 262.84 10.9631 260.496 11.0922C260.107 10.6882 259.994 11.1171 258.561 10.8964L258.667 11.116C255.334 11.1736 251.493 10.6612 247.821 10.7757L247.715 10.5562L246.981 10.8034C243.027 10.7334 237.907 10.6809 234.751 10.7036C233.354 10.93 231.944 11.0479 230.522 11.0439L230.699 11.0088C227.853 11.1628 224.831 11.2977 221.717 11.2C221.907 11.1114 221.596 11.0476 221.936 10.9772C221.108 11.1134 220.268 11.1276 219.443 11.0071L220.227 11.1668C219.359 11.3288 218.465 11.2872 217.614 11.0443L216.217 11.2978C216.122 11.2813 215.973 11.2496 215.96 11.2087L215.715 11.3226L214.96 11.0421C214.025 11.0939 213.102 11.2406 212.192 11.4823C212.058 11.3835 210.745 11.3288 211.761 11.2661L206.641 11.2406L207.44 11.3332C207.546 11.5528 206.014 11.7074 205.216 11.6148C206.247 11.431 205.286 11.3062 204.841 11.1436C204.149 11.2706 205.449 11.3248 205.095 11.4489C204.051 11.6188 202.98 11.6663 201.911 11.6057L202.427 11.5138C201.247 11.6119 200.682 11.2294 199.517 11.2604C198.472 11.4438 197.688 11.2976 197.915 11.6696C196.397 11.7706 197.321 11.4212 196.834 11.3924C195.803 11.5628 194.747 11.5296 193.719 11.3082C192.901 11.8771 189.617 11.166 189.328 11.6299L188.071 11.3878C188.042 11.5085 187.796 11.7981 186.793 11.8612C185.832 11.7365 186.051 11.5136 185.768 11.3966L185.14 11.8634C179.632 11.4474 172.408 11.8829 166.371 11.5584C163.688 11.6904 160.313 11.9629 157.184 11.9459L157.523 11.8754L154.409 11.8047L156.683 11.9707C156.005 12.0305 155.476 12.1355 154.825 12.1421C150.75 11.9332 146.687 11.9409 142.622 12.1647C139.921 12.7421 140.797 11.7291 138.193 12.1609C138.41 12.1136 138.492 12.0351 138.695 11.974C135.89 12.1967 134.372 12.3113 131.565 12.6692C131.867 12.1381 129.736 12.7064 129.968 12.4299L129.736 12.6523C129.101 12.5378 127.624 12.5185 127.829 12.3628L126.594 12.6484L126.474 12.4284C124.821 12.4441 121.298 12.6984 120.408 12.2651C116.34 12.6781 109.893 12.7055 104.773 12.7206C103.661 12.9019 102.536 13.0017 101.398 12.9931L100.141 12.7509C98.9736 12.9711 97.7942 13.0827 96.6024 13.0724C96.6027 13.0453 96.6571 13.02 96.7249 13.0086C95.5603 12.9856 94.3947 13.0707 93.2418 13.2372C91.9144 13.2496 90.6286 13.1417 91.0237 12.8974C90.9113 13.3263 88.22 12.904 88.22 12.904C88.22 12.904 71.261 13.0341 52.2262 13.5451C33.1778 14.0691 12.0804 14.9884 3.84471 16.5002C3.21943 16.7374 1.52408 16.9815 2.22641 17.1927C0.938164 17.355 0.236848 17.0357 0.0315847 17.259C1.83285 17.2749 -0.339462 17.8284 1.41991 17.9782L0.362234 18.1071C0.184686 18.2637 1.7597 17.8537 1.56746 18.1314L1.78804 17.7195C2.35725 17.6833 2.92545 17.7551 3.47934 17.9076C4.43186 17.4375 5.50385 17.2279 6.58645 17.3295L6.07141 17.3673C7.57554 17.2929 7.0038 17.5993 7.32839 17.65L6.98975 17.6529L8.27496 17.8148C7.31421 17.7171 5.73946 18.1002 6.56619 18.045C8.3672 18.088 6.09291 17.9626 7.43468 17.8696C8.27496 17.8148 8.04261 18.0373 8.01426 18.1715L9.50486 18.0967C9.46246 18.2845 8.51589 18.1197 9.13736 18.2878L11.009 18.0222C11.3839 18.4799 13.0435 17.7212 13.9335 18.141C12.5777 18.2876 14.0675 18.2938 13.8493 18.4492L17.1689 18.3236C17.48 18.3739 16.3004 18.499 16.8019 18.4607C17.2622 18.4887 17.7232 18.4355 18.1579 18.3005C18.4547 18.418 20.6373 18.2162 20.5666 18.5383C22.8272 18.6767 21.4916 18.1078 23.6034 18.2281C23.8861 18.4127 21.9366 18.3245 22.8831 18.4893L25.0787 18.342C24.7244 18.5741 24.2899 18.6821 23.8569 18.6415C29.7617 18.7051 32.9901 19.6307 38.3575 19.2315C39.1277 19.4313 37.8141 19.4036 37.2844 19.5627C41.1754 19.1577 42.7937 19.9112 46.1133 19.7856L46.1692 19.5982C50.8242 20.055 56.3819 19.5807 61.6363 19.678L61.0007 19.5634C61.8963 19.3888 62.8183 19.2826 63.7265 19.2165C63.8611 19.3018 63.1266 19.6301 64.6311 19.5152C64.3067 19.4509 63.6705 19.4039 63.8611 19.3018C68.3816 19.6598 77.8658 19.3358 85.2604 19.4056C95.2462 19.0296 106.107 19.1812 115.917 18.8673C114.426 18.9151 115.04 18.4344 116.164 18.5237C119.286 19.2432 121.502 18.2858 124.681 18.7503C130.387 18.3753 135.514 18.9821 140.817 18.2836L140.923 18.5031C141.546 18.5227 142.156 18.4877 142.766 18.3988L142.752 18.4659C144.729 18.5144 147.102 18.251 148.239 18.3407L148.295 18.0858C149.461 18.0412 148.917 18.2674 150.11 18.1021L150.082 18.2229L151.466 17.969C151.353 18.3979 154.771 17.9511 155.717 18.1294C157.235 18.0284 160.095 17.7938 162.397 17.839C164.075 18.0267 165.767 18.1068 167.447 18.092C170.943 17.9854 175.942 17.8449 180.398 17.8631L180.306 17.59L181.471 17.5589C181.456 17.6261 181.619 17.6447 181.442 17.6797C182.361 17.9922 184.125 17.5476 185.058 17.7255C184.465 17.4772 184.246 17.7001 183.582 17.7063C182.622 17.5815 183.532 17.2993 184.817 17.4207L184.79 17.4874L185.658 17.3254C185.764 17.545 186.563 17.6376 186.683 17.8441C190.503 17.7342 193.108 17.3294 197.049 17.372C196.653 17.6163 199.88 17.2716 199.104 17.7067C201.476 17.5244 198.701 17.3697 199.774 17.0521C200.438 17.0594 201.13 16.9324 201.25 17.0849C200.937 17.1967 201.803 17.3319 201.261 17.3825L202.846 17.3376C202.995 17.3693 202.655 17.4262 202.479 17.4612C205.705 17.1841 208.206 17.6814 211.094 17.3937C211.299 17.2379 209.943 17.3576 210.148 17.2018C213.049 16.8604 212.732 17.4451 215.444 17.2058L214.886 17.418C215.755 17.175 216.677 17.1093 217.583 17.2324C217.852 17.484 216.362 17.4508 215.67 17.5778C216.659 17.5817 219.166 17.4847 218.396 17.2714C219.155 17.2276 219.912 17.2919 220.669 17.4508C220.684 17.3837 219.56 17.2944 220.252 17.1674C221.876 17.286 224.369 17.256 226.346 17.264C226.332 17.3311 226.467 17.4165 226.304 17.4519C227.905 17.1237 227.751 17.6865 229.946 17.5797Z" fill="#D43E36"/>
<path d="M335.322 13.8713L334.523 13.8267C334.523 13.8893 334.495 13.9666 334.115 14.0312L335.322 13.8713Z" fill="#D43E36"/>
<path d="M297.47 14.3588C297.375 14.3714 297.28 14.4002 297.185 14.4452C297.375 14.4199 297.43 14.3896 297.47 14.3588Z" fill="#D43E36"/>
<path d="M288.281 15.1028C288.933 15.0297 288.35 14.9591 288.025 14.882C288.01 14.9464 288.023 15.0119 288.281 15.1028Z" fill="#D43E36"/>
<path d="M356.745 12.7212C356.609 12.749 356.527 12.7954 356.54 12.8454C356.731 12.8031 356.772 12.7552 356.745 12.7212Z" fill="#D43E36"/>
<path d="M416.012 12.6739L415.782 12.6182C415.863 12.6527 415.931 12.6709 416.012 12.6739Z" fill="#D43E36"/>
<path d="M412.728 12.1887C412.498 12.1809 412.281 12.203 412.064 12.2252C412.294 12.233 412.511 12.2257 412.728 12.1887Z" fill="#D43E36"/>
<path d="M342.388 13.0484C342.185 13.0567 341.967 13.0801 341.764 13.1352C341.981 13.143 342.184 13.1035 342.388 13.0484Z" fill="#D43E36"/>
<path d="M411.386 12.3119L410.56 12.27C410.546 12.2839 410.546 12.2983 410.546 12.3271L411.386 12.3119Z" fill="#D43E36"/>
<path d="M417.054 12.7202C416.729 12.71 416.295 12.6963 416.011 12.6738C416.363 12.7391 416.715 12.7502 417.054 12.7202Z" fill="#D43E36"/>
<path d="M378.499 12.1532L378.404 12.1655C377.779 12.269 378.173 12.2202 378.499 12.1532Z" fill="#D43E36"/>
<path d="M407.764 12.8247L407.655 12.8048L407.411 12.8752L407.764 12.8247Z" fill="#D43E36"/>
<path d="M420.626 12.8458C420.491 12.8409 420.355 12.8675 420.219 12.894L420.693 12.9428C420.64 12.8936 420.64 12.8621 420.626 12.8458Z" fill="#D43E36"/>
<path d="M390.91 12.5067C391.142 12.3998 391.224 12.3203 391.238 12.2712C390.966 12.2774 390.789 12.3203 390.91 12.5067Z" fill="#D43E36"/>
<g opacity="0.26">
<g opacity="0.26">
<g opacity="0.26">
<g opacity="0.26">
<path opacity="0.26" d="M400.9 8.70732C400.942 8.67538 400.969 8.62615 400.983 8.5764C400.915 8.62405 400.901 8.6738 400.9 8.70732Z" fill="#D43E36"/>
<path opacity="0.26" d="M364.391 8.00999L364.812 7.94691C364.677 7.94198 364.527 7.96791 364.391 8.00999Z" fill="#D43E36"/>
<path opacity="0.26" d="M422.776 9.08939C422.762 9.10094 422.735 9.10019 422.722 9.11174L424.265 9.15459L422.776 9.08939Z" fill="#D43E36"/>
<path opacity="0.26" d="M286.517 8.30266L287.005 8.29041C286.842 8.2992 286.68 8.29387 286.517 8.30266Z" fill="#D43E36"/>
<path opacity="0.26" d="M332.665 8.11351C332.462 8.16891 332.258 8.1929 332.041 8.20071C332.258 8.24 332.475 8.20079 332.665 8.11351Z" fill="#D43E36"/>
<path opacity="0.26" d="M434.326 12.1989L433.703 11.9824C433.703 12.079 433.932 12.1682 434.326 12.1989Z" fill="#D43E36"/>
<path opacity="0.26" d="M456.498 11.6201C456.485 11.603 456.458 11.5854 456.444 11.5683C456.417 11.6004 456.444 11.618 456.498 11.6201Z" fill="#D43E36"/>
<path opacity="0.26" d="M447.844 10.7162C447.655 10.7248 447.438 10.7479 447.22 10.7864C447.478 10.7802 447.817 10.7923 447.844 10.7162Z" fill="#D43E36"/>
<path opacity="0.26" d="M446.922 10.8355L447.22 10.7998C447.058 10.7939 446.922 10.8045 446.922 10.8355Z" fill="#D43E36"/>
<path opacity="0.26" d="M3.84528 20.6432C3.18046 20.6981 2.515 20.8325 1.87612 21.0314L3.84528 20.6432Z" fill="#D43E36"/>
<path opacity="0.26" d="M216.029 10.1446L216.165 10.0675C216.029 10.0788 216.002 10.1107 216.029 10.1446Z" fill="#D43E36"/>
<path opacity="0.26" d="M3.1028 22.4648L2.62887 22.4635C2.77778 22.468 2.94022 22.4728 3.1028 22.4648Z" fill="#D43E36"/>
<path opacity="0.26" d="M422.578 12.7029C421.94 12.8736 420.628 12.6358 420.64 12.814C421.304 12.7924 422.265 12.944 422.578 12.7029Z" fill="#D43E36"/>
<path opacity="0.26" d="M201.282 18.1927L200.862 18.2075C201.066 18.1999 201.187 18.204 201.282 18.1927Z" fill="#D43E36"/>
<path opacity="0.26" d="M3.10286 22.4528L3.6585 22.4572C3.60456 22.4242 3.55063 22.3911 3.48301 22.3731C3.34713 22.4149 3.22493 22.4416 3.10286 22.4528Z" fill="#D43E36"/>
<path opacity="0.26" d="M142.633 12.7004L142.66 12.7014L142.809 12.6589L142.633 12.7004Z" fill="#D43E36"/>
<path opacity="0.26" d="M138.736 12.5073L139.563 12.4297C139.278 12.4196 139.007 12.4405 138.736 12.5073Z" fill="#D43E36"/>
<path opacity="0.26" d="M1.87601 21.0796L0.775808 21.3098C1.14232 21.2596 1.5091 21.1776 1.87601 21.0796Z" fill="#D43E36"/>
<path opacity="0.26" d="M96.7867 14.5865L97.1664 14.5544C97.0445 14.5501 96.9089 14.5605 96.7867 14.5865Z" fill="#D43E36"/>
<path opacity="0.26" d="M335.63 8.16503L335.968 8.20809C336.009 8.16318 335.982 8.13129 335.63 8.16503Z" fill="#D43E36"/>
<path opacity="0.26" d="M308.23 13.7418C307.701 13.7226 307.186 13.798 306.683 13.9839C307.211 13.9875 307.741 13.9125 308.23 13.7418Z" fill="#D43E36"/>
<path opacity="0.26" d="M303.366 13.9707L303.555 13.9917C303.487 13.9894 303.433 13.973 303.366 13.9707Z" fill="#D43E36"/>
<path opacity="0.26" d="M334.511 13.8203L334.511 13.8033C334.497 13.8027 334.497 13.8198 334.497 13.8198L334.511 13.8203Z" fill="#D43E36"/>
<path opacity="0.26" d="M328.348 13.9432C328.213 13.9076 328.064 13.8715 327.915 13.8662C328.064 13.9177 328.199 13.9379 328.348 13.9432Z" fill="#D43E36"/>
<path opacity="0.26" d="M288.025 14.882L287.999 14.8643L288.025 14.882Z" fill="#D43E36"/>
<path opacity="0.26" d="M229.946 17.579C235.772 17.4107 243.319 17.0399 249.116 17.0868C250.731 16.7863 252.385 16.6356 254.037 16.6335L254.25 17.0723L255.782 16.9178C256.403 17.0454 254.602 17.0024 255.711 17.1588L256.283 16.8796C256.403 17.0319 260.237 16.9497 257.661 17.2875L263.634 17.2454C264.962 17.2465 264.396 16.8776 265.858 16.9775C266.155 17.1084 265.342 17.0694 265.463 17.2218C269.862 17.5084 270.51 16.3402 274.599 16.5091L274.246 16.5656C274.938 16.4387 276.265 16.4534 276.279 16.3863C275.742 15.9507 275.546 16.6199 274.302 16.3782C274.4 16.0032 275.848 16.1702 275.756 15.8836C276.541 15.9353 277.327 15.8924 278.114 15.7821C279.547 16.0162 281.581 15.8369 282.661 16.1274C283.626 15.8471 284.616 15.6756 285.619 15.626C286.7 15.9165 285.372 15.9019 286.834 16.0153L287.066 15.8065C288.258 15.8304 288.081 15.8924 288.04 15.9991C288.921 15.8647 289.816 15.8118 290.71 15.8398L289.814 16.0548C291.006 15.9707 291.48 15.9991 293.146 16.0244C293.118 16.145 292.454 16.1377 291.967 16.1089C292.871 16.4209 293.498 15.9679 293.986 15.9967C293.851 15.8979 292.7 15.8618 293.258 15.6497C294.084 15.6891 294.994 15.3531 295.588 15.6013L294.692 15.8163C295.628 15.6161 296.604 15.5522 297.565 15.6228C297.457 15.6329 297.51 15.6887 297.469 15.7414C299.028 15.5877 300.613 15.5835 302.183 15.7273L301.83 15.7837C302.576 15.7126 302.97 15.5224 303.377 15.5352C302.321 15.4075 302.606 15.3489 302.513 15.1434C303.905 15.4977 304.617 14.7232 306.89 14.9296C306.862 15.0503 306.319 15.2088 305.683 15.0808C305.029 15.5465 304.267 15.8467 303.454 15.9293C304.308 15.848 305.325 15.7854 305.106 15.9406L305.367 15.5976C305.882 15.5868 306.301 15.6135 306.694 15.5988C306.913 15.3896 305.641 15.2551 306.835 15.1035C308.19 14.9839 307.563 15.4505 307.767 15.2948C309.638 15.1509 308.529 14.9271 310.33 15.0376C310.112 15.0848 309.882 15.1046 309.652 15.0974C310.937 15.2323 312.822 15.0213 313.197 15.4383C312.993 15.5939 312.734 15.6668 312.491 15.6187L312.505 15.5516C311.094 15.8584 313.685 15.4671 313.247 15.845C313.141 15.6256 314.956 15.6825 315.768 15.7215L315.499 15.47C318.202 14.731 315.359 15.9653 318.042 15.874C319.75 15.7115 317.393 15.7996 318.437 15.6298C319.519 15.7718 320.616 15.8332 321.713 15.8001C322.186 15.896 323.147 16.0342 323.239 16.3207C324.471 16.3594 325.704 16.3171 326.938 16.1802C325.179 15.9359 325.201 16.4769 323.146 16.1017L323.717 15.836C325.139 15.8537 326.942 15.7212 327.93 15.8197C327.727 15.7593 327.647 15.6893 327.769 15.6391C329.274 15.4567 330.806 15.3562 332.336 15.3503C332.605 15.6018 331.454 15.5522 330.614 15.5798C331.71 15.6818 332.807 15.7162 333.904 15.6831C334.011 15.9025 332.577 15.6685 332.358 15.8777L334.54 15.8111C334.526 15.8242 334.539 15.8381 334.539 15.8516C334.854 15.4833 336.205 15.8904 337.533 15.7835C339.362 15.7734 341.166 15.5194 342.904 15.0067C343.378 15.1026 343.512 15.2014 343.322 15.2899C342.551 15.1307 342.685 15.2564 342.414 15.3425C343.484 15.3085 344.753 15.713 344.156 15.8564C345.85 15.7475 343.548 15.6617 344.579 15.5455L346.894 15.5777C346.612 15.3932 345.8 15.3407 346.993 15.2026C348.009 15.1535 348.496 15.1958 349.81 15.21C349.62 15.2985 350.227 15.4932 349.239 15.4757C349.915 15.5779 350.606 15.5456 351.258 15.377C349.81 15.1965 353.63 15.2218 352.549 14.9313L353.996 15.1118C353.671 15.1016 353.629 15.2353 353.142 15.193C353.559 15.4762 354.321 15.122 354.823 15.0972C355.473 15.1176 356.122 15.192 356.771 15.3069C357.368 15.2311 357.977 15.2773 358.558 15.4441C359.235 15.3978 358.614 15.2567 358.804 15.1682L361.12 15.2139C361.24 15.3797 361.439 15.8046 361.1 15.8615C361.968 15.7267 361.402 15.3983 362.729 15.4265C361.982 15.7271 364.474 15.6703 363.387 16.0279C364.753 16.2463 366.134 16.3032 367.49 16.1972C368.223 15.9636 366.204 16.0488 366.274 15.8079C369.62 15.7508 369.817 15.0682 372.267 15.1991L371.631 15.1251C372.39 15.1084 373.149 15.0107 373.882 14.8311C373.459 15.1285 375.635 15.6695 378.141 15.6266C378.346 15.471 376.735 15.3259 377.144 15.0821L378.81 15.0534C378.932 15.0842 378.742 15.1323 378.538 15.1664C380.029 15.0646 381.324 15.5915 381.761 15.227L383.287 15.6936L382.68 15.499C383.412 15.3599 384.158 15.2888 384.917 15.2586C386.002 15.1171 387.112 15.1789 388.193 15.4425C387.896 15.3116 387.154 15.0182 388.495 14.9792C388.49 15.4788 391.324 15.1896 391.281 15.4449C391.823 15.4484 392.796 15.614 392.852 15.4131L392.768 15.7211C392.894 15.2929 394.871 15.3415 396.389 15.281C396.045 15.8645 398.055 15.2658 398.741 15.8006C399.029 15.4044 401.437 15.6826 401.698 15.3532C402.862 15.3492 402.75 15.7239 403.047 15.8547L403.59 15.7097C404.184 15.9039 406.378 15.9593 407.69 16.1085L408.899 15.7683L409.345 15.9309C409.535 15.8423 410.551 15.8067 409.916 15.6652L410.566 15.6991C410.624 15.3227 411.488 15.6065 412.803 15.4587C413.114 15.5225 413.032 15.6144 412.747 15.6595C413.397 15.6799 413.124 15.8604 413.489 15.9934C413.016 15.884 415.852 15.3383 414.079 15.1341C413.959 14.9817 414.989 14.879 415.639 14.9534L416.028 15.3033L416.804 14.9495C417.562 14.9733 418.319 15.0646 419.063 15.196C418.223 15.2101 417.201 15.8263 419.368 15.8538C418.596 15.8971 417.836 15.9813 417.09 16.1335C417.537 16.161 417.767 16.1952 417.061 16.3217C418.755 16.2398 417.632 16.1235 419.298 16.0948C419.2 16.4023 419.673 16.5117 421.135 16.6386L420.04 16.4017C420.108 16.3633 420.176 16.3384 420.244 16.3135C419.825 16.2734 419.717 16.2159 419.623 16.105C419.948 16.1152 421.563 15.7472 421.832 15.9447C420.144 15.4325 424.761 15.618 423.694 15.3143C424.183 15.2081 424.697 15.2378 425.17 15.3877C423.773 15.6004 426.223 15.7584 425.99 15.9672C426.506 15.8888 424.896 15.7167 425.587 15.6169C426.237 15.6373 426.873 15.7248 427.494 15.9063L427.142 15.9628L428.427 16.1247C428.632 15.9691 427.184 15.8291 428.362 15.785C428.673 15.8623 429.866 15.8052 429.824 15.9254C429.253 16.1236 429.67 16.4203 428.654 16.4425C429.494 16.4418 432.162 16.4715 431.081 16.154L432.083 16.1855C431.462 16.0444 429.704 15.7596 431.708 15.7685L431.694 15.8491L433.091 15.6498L433.699 15.831C433.686 15.7495 433.903 15.6888 434.418 15.705C434.552 15.8038 435.039 15.8461 434.997 15.9663C436.501 15.9865 436.38 15.8206 436.571 15.7456C437.411 15.7449 437.721 15.8087 437.327 15.9854C438.641 15.9996 439.954 16.0949 441.266 16.2441C442.811 16.144 440.955 16.1668 441.851 15.9789C443.173 16.5471 446.927 16.3138 449.433 16.2979C448.747 15.8036 450.124 16.2656 450.575 15.834C450.032 15.9655 452.955 16.2599 450.76 16.3395L452.101 16.3276C453.019 16.6131 449.878 16.4739 451.269 16.8553C452.68 16.6699 454.103 16.5796 455.525 16.5972C454.926 16.916 456.894 16.5186 456.443 16.8691C455.995 16.9496 455.548 16.9761 455.088 16.9481L455.399 17.0254C458.688 17.1962 456.35 16.6501 458.086 16.4615C460.09 16.4704 459.668 16.7678 459.788 16.9201C460.411 16.9802 461.02 16.9723 461.644 16.8838C460.423 17.0616 459.385 16.6238 459.942 16.4252C461.104 16.6913 462.31 16.6751 463.464 16.3872C460.597 15.919 461.473 16.3247 458.796 15.822C458.43 15.932 458.481 16.2713 456.87 16.0992C457.888 15.9555 456.805 15.908 456.521 15.8451C456.83 16.0439 455.396 15.9043 454.908 15.97C454.462 15.794 455.874 15.5412 454.236 15.4222L453.92 15.885C453.284 15.7975 454.194 15.556 452.825 15.6345C453.559 15.4145 452.599 15.2493 454.454 15.2265C452.251 14.7792 451.081 15.3637 449.359 15.4852C449.536 15.4638 449.55 15.3967 449.726 15.3752C449.224 15.4675 448.709 15.5053 448.194 15.4757C447.072 15.3459 449.09 15.2877 448.794 15.1568L446.965 15.1265C446.925 15.1117 446.925 15.0982 446.925 15.0982C446.558 15.1812 446.179 15.1693 445.815 15.0633C446.358 14.9318 446.576 14.7766 446.943 14.6665L445.03 14.9442C445.235 14.802 443.448 14.6379 444.817 14.5593L441.973 14.5511L441.732 14.2329C441.055 14.2791 441.027 14.3323 441.853 14.3852C440.878 14.2871 437.541 14.8306 438.062 14.2257C435.825 14.4256 435.027 14.306 432.331 14.3969C434.405 14.1649 429.951 13.9711 432.146 13.8914C431.28 13.8507 430.412 13.9045 429.571 14.0807C428.624 13.9294 429.047 13.6321 430.077 13.5428L428.871 13.6535L428.898 13.5869L427.854 13.7432C426.745 13.5598 427.627 13.4254 426.476 13.3623L426.23 13.6382L425.446 13.465C425.742 13.5959 425.051 13.6417 424.225 13.6563L424.239 13.5892L423.223 13.6248C424.227 13.4672 422.302 13.5554 422.751 13.3534C421.885 13.3262 421.871 13.3258 420.3 13.3575L420.569 13.555C418.522 13.6933 420.477 13.2685 418.825 13.2301L418.931 13.4496C416.551 13.0507 414.893 13.5929 413.121 13.3347C414.138 13.2991 413.869 13.0476 413.855 13.1011C412.338 13.1615 409.86 13.0568 408.3 13.3049C407.586 12.8908 406.775 12.6898 405.976 12.7187C404.811 12.7227 404.635 12.7442 404.254 12.9213C403.143 12.9404 402.033 12.8651 400.924 12.7087C400.665 12.8897 399.895 12.6494 399.284 12.8058L399.15 12.707L399.256 12.9265C397.243 12.4041 395.854 13.1438 393.813 12.7016L394.166 12.6451L393.312 12.7129C393.177 12.6141 393.517 12.5572 393.558 12.437L389.577 12.339L390.361 12.5122C389.588 12.623 388.789 12.6384 388.004 12.5868C389.591 12.2719 386.677 12.5586 386.422 12.3075L387.276 12.2263C386.111 12.2302 386.111 12.2302 386.204 12.4492C384.686 12.5096 385.165 12.0249 383.767 12.2512L384.77 12.2691C385.066 12.4 384.347 12.5665 383.683 12.5592C383.521 12.5271 383.062 12.4181 383.563 12.3933C382.37 12.4639 380.584 12.3403 380.055 12.4183C379.405 12.3438 379.623 12.1886 379.963 12.1317C377.415 12.3084 378.812 12.0821 376.264 12.2452L376.306 12.125L375.396 12.3125L374.139 12.0435L374.585 12.206C373.812 12.2628 373.027 12.2652 372.255 12.2274L372.649 12.0507C370.292 12.1388 369.917 11.7218 367.679 11.9622C367.531 11.9306 367.87 11.8737 368.046 11.8387C365.971 12.1112 366.465 11.4919 364.389 11.832C364.512 11.7683 364.282 11.6935 364.364 11.6421L363.415 11.7473L363.485 11.5064L362.71 11.8603L362.116 11.612L361.749 11.7221C360.738 11.2446 359.299 11.5911 357.907 11.2233L358.148 11.5415C354.648 12.1474 350.12 11.1139 345.878 11.4129L345.948 11.172L344.198 11.4547C343.252 11.263 344.756 11.2426 344.459 11.1118C342.588 11.2421 343.683 11.4791 341.516 11.5461C340.407 11.3762 341.897 11.369 342.426 11.2775C340.27 11.4395 338.103 11.4795 335.937 11.3845C335.909 11.4106 335.814 11.4617 335.895 11.4777C334.54 11.5837 332.739 11.4732 331.236 11.48C331.264 11.3729 331.644 11.3443 332.009 11.3287C331.428 11.2699 330.845 11.2787 330.276 11.3418L330.833 11.1297C329.627 11.2134 328.408 11.1752 327.204 11.0158C327.339 11.1146 327.296 11.3023 326.294 11.2844C325.742 10.9024 323.584 11.4424 321.987 11.2302C322.178 11.1417 323.343 11.1242 323.018 11.114C322.274 11.0636 321.528 11.1348 320.795 11.3008L321.013 11.1456L317.3 11.3532C316.748 10.9712 313.791 11.4051 314.038 11.1292C312.711 11.1146 315.16 11.2995 313.48 11.3413C313.035 11.1788 311.963 11.4288 312.033 11.1743L312.209 11.1394L311.031 11.1564L311.765 10.9093C310.762 10.9589 310.014 11.2055 309.972 11.3933C309.051 11.3779 308.131 11.3085 307.211 11.158L307.564 11.1016C304.881 11.2064 303.101 10.4482 300.997 10.8684C300.835 10.8363 300.863 10.7697 301.188 10.7799L299.522 10.7816L299.916 10.5914L297.177 10.8836L297.206 10.7629C295.391 10.7195 292.56 10.7926 290.216 10.8406L290.569 10.7842C288.02 10.9878 288.105 10.6798 286.248 10.8106C286.302 10.7853 286.37 10.7604 286.438 10.7625L284.758 10.7773L285.125 10.6538C284.19 10.7055 283.269 10.6631 282.336 10.5392C281.617 10.6112 280.912 10.7511 280.233 10.9594C278.404 10.9831 279.787 10.7969 278.65 10.7072C277.539 10.7938 276.428 10.8265 275.304 10.8047L275.332 10.684C274.492 10.7117 273.976 10.8036 272.812 10.821L273.164 10.7646C271.265 11.0426 270.784 10.4197 269.302 10.9675C268.504 10.8749 266.986 10.9623 267.056 10.7079C264.684 10.89 262.841 10.9672 260.497 11.0962C260.108 10.6923 259.996 11.121 258.562 10.9004L258.668 11.1199C255.336 11.1773 251.494 10.665 247.822 10.7794L247.716 10.56L246.982 10.807C243.028 10.7369 237.909 10.6843 234.753 10.7068C233.355 10.933 231.946 11.0508 230.524 11.0467L230.7 11.0117C227.854 11.1655 224.832 11.3002 221.718 11.2025C221.909 11.1139 221.598 11.0501 221.937 10.9798C221.109 11.1158 220.27 11.13 219.445 11.0096L220.229 11.1692C219.36 11.3311 218.467 11.2895 217.616 11.0467L216.218 11.3C216.123 11.2835 215.975 11.2518 215.962 11.2109L215.717 11.3247L214.961 11.0444C214.026 11.0961 213.103 11.2427 212.194 11.4843C212.059 11.3855 210.746 11.3308 211.762 11.2681L206.643 11.2425L207.441 11.3351C207.547 11.5545 206.015 11.709 205.217 11.6164C206.248 11.4327 205.288 11.308 204.842 11.1454C204.15 11.2723 205.45 11.3266 205.097 11.4506C204.052 11.6204 202.982 11.6678 201.912 11.6072L202.428 11.5153C201.248 11.6134 200.683 11.231 199.518 11.2619C198.473 11.4452 197.689 11.2991 197.916 11.6708C196.398 11.7718 197.322 11.4226 196.835 11.3938C195.804 11.564 194.748 11.5309 193.721 11.3095C192.903 11.8781 189.618 11.1672 189.329 11.6309L188.072 11.3888C188.044 11.5095 187.797 11.7989 186.794 11.8619C185.834 11.7373 186.053 11.5145 185.769 11.3976L185.142 11.8641C179.633 11.4481 172.41 11.8831 166.372 11.5585C163.689 11.6904 160.314 11.9626 157.185 11.9454L157.524 11.875L154.41 11.8043L156.684 11.9702C156.006 12.03 155.477 12.1349 154.827 12.1415C150.752 11.9325 146.688 11.94 142.623 12.1636C139.922 12.7406 140.798 11.7281 138.194 12.1596C138.411 12.1124 138.493 12.0339 138.697 11.9728C135.891 12.1954 134.373 12.3098 131.566 12.6674C131.869 12.1366 129.737 12.7045 129.97 12.4282L129.737 12.6505C129.102 12.536 127.626 12.5167 127.83 12.361L126.595 12.6464L126.475 12.4265C124.823 12.4422 121.299 12.6962 120.409 12.2631C116.342 12.6757 109.894 12.7029 104.774 12.7177C103.662 12.8989 102.537 12.9986 101.399 12.9899L100.142 12.7479C98.9747 12.9679 97.7953 13.0794 96.6035 13.069C96.6037 13.042 96.6582 13.0167 96.726 13.0053C95.5614 12.9823 94.3958 13.0672 93.2429 13.2336C91.9154 13.246 90.6297 13.1381 91.0249 12.8939C90.9124 13.3225 88.2211 12.9004 88.2211 12.9004C88.2211 12.9004 71.2622 13.0298 52.2273 13.5398C33.1787 14.0628 12.0812 14.9807 3.84512 16.4915C3.2198 16.7285 1.52439 16.9724 2.22666 17.1835C0.938377 17.3456 0.237141 17.0265 0.0318233 17.2497C1.83308 17.2657 -0.339363 17.8188 1.41997 17.9685L0.362264 18.0974C0.184677 18.2539 1.75978 17.8441 1.56749 18.1217L1.78817 17.71C2.35738 17.6738 2.92556 17.7457 3.47941 17.8981C4.43205 17.4283 5.50408 17.2189 6.58666 17.3204L6.07161 17.3582C7.57576 17.2839 7.00394 17.5901 7.32852 17.6408L6.98988 17.6437L8.27504 17.8056C7.31433 17.7079 5.73948 18.0906 6.56622 18.0355C8.36722 18.0786 6.09296 17.9532 7.43476 17.8602C8.27504 17.8056 8.04264 18.0279 8.01426 18.162L9.50487 18.0873C9.46243 18.275 8.51591 18.1102 9.13733 18.2783L11.009 18.0129C11.3839 18.4704 13.0436 17.7121 13.9335 18.1317C12.5776 18.2783 14.0675 18.2845 13.8492 18.4397L17.1688 18.3144C17.4799 18.3646 16.3003 18.4897 16.8018 18.4514C17.2621 18.4793 17.7231 18.4263 18.1578 18.2914C18.4547 18.4087 20.6373 18.2071 20.5664 18.5291C22.827 18.6675 21.4916 18.0989 23.6034 18.2192C23.886 18.4037 21.9365 18.3154 22.883 18.4802L25.0786 18.333C24.7242 18.565 24.2898 18.6729 23.8567 18.6323C29.7615 18.6961 32.9897 19.6214 38.3572 19.2226C39.1273 19.4223 37.8137 19.3946 37.284 19.5536C41.1751 19.149 42.7932 19.9021 46.1128 19.7767L46.1688 19.5894C50.8237 20.0461 56.3815 19.5723 61.6358 19.6697L61.0003 19.5552C61.8959 19.3808 62.818 19.2746 63.7261 19.2086C63.8607 19.2939 63.1261 19.622 64.6307 19.5071C64.3062 19.4429 63.6701 19.3959 63.8607 19.2939C68.3811 19.6519 77.8653 19.3283 85.2599 19.3984C95.2458 19.023 106.107 19.1749 115.916 18.8616C114.426 18.9093 115.04 18.4289 116.163 18.5182C119.285 19.2374 121.502 18.2806 124.681 18.745C130.386 18.3704 135.514 18.977 140.817 18.2791L140.923 18.4985C141.546 18.5181 142.156 18.4832 142.766 18.3943L142.752 18.4614C144.729 18.51 147.102 18.2468 148.238 18.3365L148.295 18.0817C149.46 18.0372 148.916 18.2633 150.11 18.0981L150.082 18.2188L151.466 17.9651C151.353 18.3938 154.771 17.9473 155.717 18.1256C157.235 18.0247 160.095 17.7903 162.397 17.8356C164.075 18.0233 165.767 18.1034 167.447 18.0886C170.942 17.9823 175.942 17.8421 180.398 17.8604L180.305 17.5874L181.47 17.5564C181.456 17.6235 181.619 17.6421 181.442 17.6771C182.36 17.9895 184.125 17.5452 185.058 17.7231C184.465 17.4748 184.246 17.6976 183.582 17.7037C182.622 17.579 183.532 17.297 184.817 17.4184L184.79 17.485L185.658 17.3232C185.764 17.5426 186.562 17.6352 186.682 17.8416C190.503 17.7319 193.107 17.3275 197.048 17.3701C196.653 17.6143 199.88 17.2699 199.104 17.7048C201.476 17.5226 198.701 17.368 199.774 17.0505C200.438 17.0578 201.129 16.931 201.25 17.0833C200.937 17.1951 201.803 17.3303 201.261 17.3808L202.846 17.336C202.994 17.3677 202.655 17.4246 202.479 17.4596C205.705 17.1827 208.206 17.6799 211.094 17.3924C211.298 17.2367 209.943 17.3562 210.148 17.2006C213.049 16.8595 212.732 17.4438 215.443 17.2048L214.886 17.4169C215.755 17.174 216.677 17.1084 217.583 17.2314C217.852 17.4829 216.362 17.4497 215.67 17.5765C216.659 17.5806 219.165 17.4837 218.395 17.2704C219.154 17.2267 219.912 17.291 220.669 17.4498C220.683 17.3827 219.56 17.2935 220.252 17.1666C221.876 17.2851 224.369 17.2553 226.346 17.2634C226.332 17.3305 226.467 17.4157 226.304 17.4511C227.905 17.1232 227.751 17.6856 229.946 17.579Z" fill="#D43E36"/>
<path opacity="0.26" d="M335.322 13.8714L334.523 13.8268C334.523 13.8893 334.495 13.9666 334.115 14.031L335.322 13.8714Z" fill="#D43E36"/>
<path opacity="0.26" d="M297.47 14.3583C297.375 14.3709 297.28 14.3997 297.185 14.4447C297.375 14.4194 297.43 14.3891 297.47 14.3583Z" fill="#D43E36"/>
<path opacity="0.26" d="M288.281 15.1023C288.933 15.0293 288.35 14.9587 288.025 14.8815C288.01 14.9459 288.024 15.0114 288.281 15.1023Z" fill="#D43E36"/>
<path opacity="0.26" d="M356.745 12.7207C356.609 12.7485 356.527 12.7949 356.54 12.8449C356.731 12.8026 356.772 12.7547 356.745 12.7207Z" fill="#D43E36"/>
<path opacity="0.26" d="M416.012 12.6734L415.782 12.6177C415.863 12.6522 415.93 12.6704 416.012 12.6734Z" fill="#D43E36"/>
<path opacity="0.26" d="M412.728 12.1888C412.498 12.1809 412.281 12.203 412.064 12.2251C412.294 12.233 412.511 12.2257 412.728 12.1888Z" fill="#D43E36"/>
<path opacity="0.26" d="M342.388 13.048C342.185 13.0562 341.967 13.0796 341.764 13.1346C341.981 13.1425 342.184 13.103 342.388 13.048Z" fill="#D43E36"/>
<path opacity="0.26" d="M411.386 12.3115L410.56 12.2695C410.546 12.2834 410.546 12.2978 410.546 12.3266L411.386 12.3115Z" fill="#D43E36"/>
<path opacity="0.26" d="M417.054 12.7197C416.729 12.7095 416.295 12.6958 416.011 12.6733C416.363 12.7386 416.715 12.7497 417.054 12.7197Z" fill="#D43E36"/>
<path opacity="0.26" d="M378.499 12.1527L378.404 12.165C377.779 12.2684 378.173 12.2197 378.499 12.1527Z" fill="#D43E36"/>
<path opacity="0.26" d="M407.764 12.8242L407.655 12.8044L407.411 12.8746L407.764 12.8242Z" fill="#D43E36"/>
<path opacity="0.26" d="M420.626 12.8454C420.491 12.8405 420.355 12.867 420.219 12.8935L420.693 12.9423C420.64 12.8931 420.64 12.8616 420.626 12.8454Z" fill="#D43E36"/>
<path opacity="0.26" d="M390.91 12.5067C391.142 12.3998 391.224 12.3203 391.238 12.2713C390.966 12.2774 390.789 12.3203 390.91 12.5067Z" fill="#D43E36"/>
</g>
</g>
</g>
</g>
<path d="M71.3064 18.3894C71.2651 18.4214 71.2374 18.4706 71.2232 18.5372C71.2921 18.4727 71.3197 18.4402 71.3064 18.3894Z" fill="#D43E36"/>
<path d="M107.8 18.2047L107.379 18.2679C107.528 18.2733 107.664 18.2625 107.8 18.2047Z" fill="#D43E36"/>
<path d="M49.4468 18.8108C49.4605 18.798 49.4876 18.7988 49.5012 18.786L47.9709 18.7919L49.4468 18.8108Z" fill="#D43E36"/>
<path d="M185.623 17.7064L185.135 17.7047C185.298 17.7095 185.46 17.7144 185.623 17.7064Z" fill="#D43E36"/>
<path d="M139.504 17.7793C139.707 17.7239 139.911 17.6841 140.128 17.692C139.911 17.6527 139.694 17.692 139.504 17.7793Z" fill="#D43E36"/>
<path d="M37.8085 16.269L38.4444 16.452C38.4315 16.3717 38.2016 16.2835 37.8085 16.269Z" fill="#D43E36"/>
<path d="M15.6589 18.1528C15.6723 18.1697 15.6993 18.187 15.7129 18.1875C15.7538 18.1727 15.7267 18.1554 15.6589 18.1528Z" fill="#D43E36"/>
<path d="M24.3464 18.5489C24.5364 18.5243 24.7536 18.4849 24.9709 18.4455C24.7132 18.4519 24.3742 18.4711 24.3464 18.5489Z" fill="#D43E36"/>
<path d="M25.2697 18.379L24.971 18.4314C25.1338 18.4215 25.2694 18.4106 25.2697 18.379Z" fill="#D43E36"/>
<path d="M468.289 17.729C468.804 17.7474 469.32 17.6885 469.822 17.5518L468.289 17.729Z" fill="#D43E36"/>
<path d="M256.093 17.221L255.957 17.2982C256.093 17.2704 256.106 17.2544 256.093 17.221Z" fill="#D43E36"/>
<path d="M469.085 16.0059L469.518 16.0659C469.369 16.0307 469.234 16.011 469.085 16.0059Z" fill="#D43E36"/>
<path d="M49.5497 15.1868C50.1882 14.9958 51.5009 15.1946 51.4888 15.0112C50.811 15.0483 49.8364 14.9377 49.5497 15.1868Z" fill="#D43E36"/>
<path d="M270.969 9.58389L271.389 9.58357C271.186 9.57739 271.064 9.57369 270.969 9.58389Z" fill="#D43E36"/>
<path d="M469.085 16.0252L468.584 15.9443C468.625 15.9772 468.679 16.0105 468.732 16.0439C468.855 16.0169 468.963 16.0208 469.085 16.0252Z" fill="#D43E36"/>
<path d="M329.467 17.291L329.44 17.2901L329.291 17.3159L329.467 17.291Z" fill="#D43E36"/>
<path d="M333.348 17.6364L332.522 17.6824C332.806 17.7071 333.077 17.7015 333.348 17.6364Z" fill="#D43E36"/>
<path d="M469.822 17.5164L470.718 17.409C470.42 17.4138 470.121 17.4651 469.822 17.5164Z" fill="#D43E36"/>
<path d="M375.31 17.5909L374.931 17.6073C375.066 17.6118 375.188 17.6159 375.31 17.5909Z" fill="#D43E36"/>
<path d="M136.539 17.7279L136.201 17.6846C136.16 17.7453 136.187 17.7619 136.539 17.7279Z" fill="#D43E36"/>
<path d="M163.926 12.0997C164.454 12.1188 164.97 12.0435 165.473 11.8738C164.944 11.8703 164.429 11.9456 163.926 12.0997Z" fill="#D43E36"/>
<path d="M168.804 11.9048L168.614 11.8838C168.682 11.9006 168.736 11.9025 168.804 11.9048Z" fill="#D43E36"/>
<path d="M137.631 12.0889L137.631 12.1059C137.645 12.1064 137.645 12.0894 137.645 12.0894L137.631 12.0889Z" fill="#D43E36"/>
<path d="M143.807 11.9321C143.942 11.9677 144.091 12.0038 144.24 12.0091C144.092 11.9576 143.943 11.9369 143.807 11.9321Z" fill="#D43E36"/>
<path d="M184.155 11.1301C184.155 11.1301 184.142 11.1296 184.155 11.1301L184.182 11.1477L184.155 11.1301Z" fill="#D43E36"/>
<path d="M242.273 10.5979C236.435 10.6163 228.876 10.8791 223.08 10.7572C221.452 11.0173 219.799 11.148 218.147 11.1114L217.948 10.6937L216.416 10.8151C215.795 10.6807 217.595 10.7475 216.486 10.5856L215.915 10.8387C215.795 10.6936 211.962 10.7076 214.538 10.4372L208.565 10.4001C207.238 10.3732 207.804 10.7376 206.342 10.6295C206.045 10.5048 206.871 10.5553 206.737 10.3968C202.339 10.0593 201.678 11.172 197.59 10.9467L197.942 10.8929C197.251 11.0009 195.924 10.9869 195.91 11.038C196.447 11.4658 196.643 10.8154 197.887 11.0714C197.788 11.4288 196.327 11.2564 196.419 11.5294C195.634 11.4801 194.849 11.5081 194.062 11.6132C192.642 11.3906 190.596 11.5353 189.515 11.2584C188.551 11.5255 187.56 11.6889 186.544 11.7229C185.464 11.446 186.791 11.46 185.329 11.3519L185.097 11.5637C183.892 11.5277 184.082 11.469 184.123 11.3802C183.242 11.4954 182.348 11.5458 181.454 11.5191L182.35 11.3271C181.157 11.4073 180.67 11.367 179.018 11.3433C179.046 11.2283 179.71 11.2353 180.21 11.276C179.306 10.9658 178.679 11.3974 178.192 11.37C178.326 11.4641 179.477 11.4985 178.92 11.7006C178.094 11.663 177.17 11.97 176.59 11.7339L177.486 11.5419C176.536 11.7194 175.574 11.7807 174.613 11.7133C174.721 11.7037 174.668 11.6506 174.709 11.6004C173.15 11.7339 171.565 11.7379 169.996 11.588L170.348 11.5342C169.603 11.602 169.208 11.7832 168.802 11.7711C169.857 11.8927 169.572 11.9485 169.665 12.1443C168.274 11.7939 167.562 12.5318 165.289 12.3222C165.317 12.2073 165.86 12.0691 166.496 12.1911C167.15 11.7474 167.925 11.4746 168.725 11.3956C167.871 11.473 166.854 11.5198 167.072 11.3719L166.812 11.6987C166.297 11.709 165.878 11.6836 165.485 11.6847C165.266 11.884 166.538 12.025 165.345 12.1566C163.989 12.2576 164.617 11.826 164.412 11.9614C162.542 12.0856 163.65 12.3118 161.85 12.1936C162.067 12.1486 162.298 12.1298 162.528 12.1495C161.229 12.0206 159.358 12.1962 158.969 11.8114C159.174 11.6631 159.432 11.5936 159.689 11.6399L159.675 11.7039C161.086 11.4244 158.496 11.7715 158.932 11.4243C159.039 11.6334 157.224 11.5791 156.399 11.5544L156.667 11.794C153.965 12.511 156.807 11.3221 154.111 11.4216C152.403 11.5892 154.76 11.4925 153.716 11.6542C152.634 11.5189 151.537 11.4732 150.44 11.5047C149.967 11.4134 149.007 11.2817 148.914 11.0216C147.682 10.9847 146.449 11.0379 145.216 11.1683C146.974 11.3882 146.952 10.8856 149.007 11.2302L148.436 11.4962C147.014 11.4794 145.198 11.6181 144.223 11.5246C144.426 11.5693 144.507 11.6489 144.384 11.6967C142.879 11.8833 141.348 11.979 139.817 11.9847C139.549 11.7451 140.7 11.7795 141.539 11.766C140.443 11.6689 139.347 11.6361 138.249 11.6804C138.143 11.4714 139.576 11.6944 139.795 11.4822L137.614 11.5456C137.628 11.5332 137.614 11.5199 137.614 11.507C137.313 11.8583 135.949 11.4829 134.621 11.5847C132.792 11.5944 130.988 11.8492 129.25 12.3377C128.777 12.2463 128.642 12.1522 128.833 12.0678C129.617 12.22 129.469 12.0997 129.741 12.0049C128.671 12.0372 127.401 11.6647 127.998 11.5281C126.304 11.6319 128.62 11.714 127.576 11.8243L125.247 11.7418C125.53 11.9175 126.342 11.9547 125.149 12.0992C124.132 12.146 123.645 12.1185 122.332 12.1049C122.522 12.0206 121.901 11.8347 122.903 11.8389C122.227 11.7415 121.536 11.7852 120.884 11.9329C122.332 12.0921 118.512 12.0936 119.607 12.3709L118.159 12.2246C118.484 12.2214 118.526 12.1069 119.013 12.1343C118.596 11.8645 117.834 12.2149 117.333 12.2513C116.683 12.2448 116.033 12.1867 115.384 12.0772C114.787 12.1623 114.178 12.1183 113.597 11.9723C112.92 12.0292 113.541 12.1508 113.351 12.2351L111.022 12.2427C110.888 12.0971 110.688 11.6794 111.041 11.6256C110.173 11.7669 110.739 12.0669 109.425 12.0662C110.173 11.7669 107.667 11.8592 108.754 11.5056C107.387 11.3232 106.006 11.2819 104.637 11.4082C103.904 11.6436 105.936 11.5372 105.853 11.7663C102.52 11.8725 102.324 12.5229 99.8735 12.4238L100.51 12.4815C99.7508 12.5102 99.0049 12.6166 98.2717 12.8005C98.6809 12.5039 96.5052 12.0271 93.9989 12.1065C93.7943 12.2548 95.4182 12.3806 95.0096 12.6129L93.3568 12.6663C93.2351 12.6498 93.4117 12.5908 93.6287 12.5587C92.1379 12.6685 90.8289 12.1918 90.4056 12.5394L88.8658 12.1202L89.4735 12.2928C88.7409 12.4253 87.9951 12.5188 87.2499 12.548C86.1649 12.7085 85.0412 12.662 83.9601 12.4238C84.2568 12.5485 85.0126 12.8156 83.6713 12.8655C83.676 12.3895 80.8424 12.7037 80.8717 12.4729C80.3299 12.4825 79.3561 12.3504 79.2999 12.5546L79.3841 12.2611C79.2717 12.6695 77.2806 12.6872 75.763 12.7705C76.0936 12.2013 74.0965 12.8364 73.3971 12.3394C73.1224 12.7301 70.7001 12.5289 70.4531 12.8561C69.2746 12.8851 69.3863 12.541 69.0896 12.4164L68.5464 12.5674C67.9522 12.3952 65.758 12.4067 64.4453 12.3031L63.2365 12.653L62.7775 12.5106C62.587 12.595 61.5841 12.6679 62.206 12.7766L61.5561 12.7571C61.5118 13.129 60.6341 12.8711 59.3186 13.0505C59.0077 12.9897 59.0898 12.9021 59.3746 12.8592C58.7245 12.8654 58.9973 12.6677 58.6328 12.5539C59.1059 12.6452 56.2965 13.2432 58.0693 13.3863C58.2033 13.5319 57.1727 13.6555 56.5232 13.5974L56.1201 13.2765L55.3581 13.6398C54.5998 13.6299 53.8418 13.5815 53.098 13.4692C53.938 13.4428 54.933 12.8035 52.7792 12.842C53.5382 12.7875 54.2978 12.6686 55.0442 12.5108C54.5973 12.5103 54.3674 12.4777 55.0595 12.3311C53.3789 12.461 54.5021 12.5461 52.8356 12.612C52.9198 12.3186 52.4467 12.2272 50.9848 12.1449L52.0799 12.3449C52.0118 12.3815 51.9437 12.4181 51.8759 12.4289C52.2955 12.4543 52.4169 12.4966 52.5106 12.6152C52.1855 12.6183 50.5835 13.0079 50.3009 12.8322C52.003 13.2691 47.3851 13.2339 48.4661 13.485C47.9774 13.5991 47.4764 13.5841 46.99 13.4666C48.3738 13.2249 45.9232 13.1516 46.142 12.9393C45.6265 13.0269 47.2506 13.1398 46.5451 13.2602C45.895 13.2665 45.2593 13.1832 44.6242 13.0355L44.9634 12.9684L43.678 12.8527C43.4733 13.001 44.9353 13.0705 43.756 13.1768C43.4451 13.116 42.2523 13.2219 42.294 13.1073C42.8514 12.8924 42.4341 12.6354 43.4371 12.5624C42.597 12.6016 39.9416 12.6895 41.0226 12.9406L40.0203 12.9492C40.6558 13.0583 42.4146 13.2396 40.4093 13.334L40.4234 13.2701L39.0395 13.5247L38.4314 13.3906C38.4577 13.4686 38.2403 13.5394 37.7255 13.5497C37.5909 13.4684 37.0901 13.4406 37.1319 13.326C35.6281 13.3711 35.7621 13.5167 35.5715 13.6139C34.7314 13.6531 34.4204 13.6052 34.8016 13.4107C33.4875 13.4486 32.1739 13.435 30.8611 13.3443C29.3291 13.5043 31.1857 13.3926 30.2895 13.6232C28.94 13.1324 25.1981 13.5352 22.705 13.6536C23.4049 14.0863 22.0271 13.7234 21.5896 14.1349C22.1193 13.9835 19.1953 13.8445 21.3776 13.6653L20.036 13.741C19.1037 13.5201 22.2459 13.5112 20.8405 13.1989C19.4431 13.4402 18.0331 13.591 16.6106 13.6385C17.1827 13.3082 15.2549 13.7781 15.6783 13.4176C16.1261 13.328 16.5735 13.2771 17.034 13.278L16.7231 13.2172C13.4323 13.196 15.7847 13.6138 14.0757 13.8715C12.0705 13.9531 12.4797 13.6565 12.3592 13.5113C11.7233 13.4537 11.1 13.4865 10.4894 13.5969C11.697 13.3757 12.7633 13.7422 12.2059 13.9571C11.0295 13.7675 9.82357 13.8215 8.68271 14.1477C11.5643 14.4655 10.6739 14.1172 13.379 14.4812C13.7458 14.3635 13.6677 14.0395 15.2785 14.1263C14.2745 14.315 15.358 14.3088 15.6419 14.3559C15.3186 14.1789 16.7536 14.2476 17.242 14.1593C17.7011 14.3017 16.3029 14.6202 17.9413 14.6563L18.2301 14.2146C18.8797 14.2597 17.9696 14.5414 19.3387 14.415C18.6184 14.6637 19.579 14.7697 17.7359 14.8818C19.9539 15.2055 21.0974 14.6092 22.8059 14.403C22.6295 14.4363 22.6155 14.4873 22.4391 14.5207C22.9412 14.4199 23.4564 14.3581 23.9712 14.3478C25.1081 14.4204 23.0887 14.5658 23.3855 14.6777L25.2144 14.6294C25.2549 14.6435 25.2547 14.6564 25.2547 14.6564C25.6078 14.564 26.0007 14.55 26.3655 14.6382C25.8358 14.7896 25.6176 14.9375 25.2642 15.0685L27.1637 14.7264C26.959 14.8747 28.7596 14.9414 27.4039 15.081L30.2357 14.9598L30.4901 15.2506C31.168 15.1808 31.182 15.1297 30.3697 15.1054C31.3444 15.1474 34.6419 14.4869 34.162 15.0902C36.386 14.7964 37.1843 14.8718 39.8814 14.6694C37.8196 14.9937 42.2757 14.9598 40.0799 15.1386C40.9467 15.1388 41.801 15.0357 42.6425 14.8421C43.6031 14.948 43.1938 15.2446 42.1632 15.3811L43.3701 15.2242L43.3559 15.2881L44.4006 15.1006C45.5233 15.25 44.6415 15.3909 45.7924 15.4253L46.0252 15.1621L46.8094 15.3013C46.5125 15.1895 47.1904 15.1197 48.0168 15.093L48.0026 15.1569L49.0189 15.0972C48.015 15.2731 49.953 15.138 49.4905 15.343C50.3573 15.3432 50.3708 15.3436 51.9425 15.2748L51.6599 15.099C53.6932 14.9154 51.7521 15.3592 53.4044 15.3571L53.2981 15.1481C55.6922 15.4642 57.3366 14.8957 59.0953 15.0899C58.0925 15.15 58.3474 15.3892 58.3751 15.3257C59.8929 15.2296 62.3576 15.2518 63.9178 14.9768C64.632 15.3456 65.4563 15.5247 66.2559 15.4714C67.4345 15.4424 67.5973 15.4086 67.9783 15.227C69.0893 15.183 70.1996 15.2163 71.3089 15.3395C71.5679 15.1671 72.338 15.3575 72.9489 15.2084L73.0836 15.2897L72.9773 15.0806C75.0045 15.5144 76.3662 14.7702 78.4074 15.153L78.0686 15.1815L78.9227 15.0912C79.0572 15.1853 78.7181 15.2395 78.6763 15.3541L82.6446 15.3441L81.8606 15.192C82.6338 15.0736 83.4196 15.0456 84.2182 15.0824C82.644 15.4085 85.5319 15.0831 85.8004 15.3227L84.9463 15.413C86.1113 15.3835 86.1113 15.3835 86.0051 15.1745C87.5092 15.0908 87.0576 15.5663 88.4414 15.3246L87.4527 15.3207C87.156 15.196 87.862 15.0241 88.5255 15.0311C88.6877 15.0617 89.1609 15.1531 88.646 15.1763C89.8387 15.0833 91.6254 15.1882 92.1409 15.1007C92.7904 15.1587 92.5858 15.307 92.2332 15.3608C94.7677 15.1664 93.384 15.3952 95.9322 15.1884L95.8904 15.303L96.7586 15.1616L98.0157 15.4051L97.5703 15.2503C98.343 15.1833 99.1286 15.1682 99.9004 15.1913L99.5058 15.3725C101.863 15.2629 102.239 15.6473 104.476 15.3926C104.625 15.4227 104.286 15.4769 104.109 15.5103C106.184 15.2249 105.691 15.815 107.766 15.4653C107.644 15.526 107.873 15.5972 107.792 15.6462L108.741 15.533L108.684 15.7501L109.446 15.3997L110.04 15.6363L110.407 15.5185C111.432 15.961 112.857 15.6176 114.262 15.9428L114.022 15.6524C117.509 14.9976 122.05 15.9441 126.278 15.6589L126.208 15.8884L127.958 15.6448C128.904 15.8275 127.4 15.8469 127.697 15.9716C129.567 15.8345 128.473 15.6216 130.64 15.5449C131.763 15.7072 130.259 15.7265 129.73 15.8008C131.885 15.6465 134.053 15.5955 136.219 15.6732C136.246 15.6483 136.341 15.5997 136.26 15.5844C137.616 15.4834 139.416 15.5759 140.906 15.569C140.864 15.6835 140.498 15.6983 140.132 15.7131C140.714 15.7691 141.297 15.7608 141.866 15.6878L141.309 15.8899C142.515 15.8101 143.734 15.8337 144.938 15.9727C144.803 15.8786 144.846 15.6997 145.848 15.7168C146.399 16.0808 148.544 15.5659 150.141 15.7552C149.95 15.8396 148.785 15.8562 149.11 15.8659C149.855 15.9139 150.6 15.8462 151.32 15.6747L151.115 15.823L154.828 15.6124C155.393 15.9767 158.323 15.5496 158.076 15.8125C159.404 15.8265 156.967 15.6506 158.634 15.6104C159.079 15.7653 160.151 15.54 160.081 15.7824L159.905 15.8029L161.07 15.7862L160.336 16.0088C161.339 15.9616 162.086 15.7394 162.128 15.5606C163.049 15.5752 163.969 15.6542 164.889 15.7976L164.536 15.8514C167.219 15.7643 168.999 16.4996 171.102 16.1122C171.264 16.1428 171.237 16.2063 170.912 16.1966L172.577 16.2207L172.183 16.389L174.921 16.1235L174.893 16.2385C176.707 16.2928 179.538 16.2359 181.868 16.2155L181.515 16.2693C184.063 16.1011 183.979 16.3945 185.836 16.2699C185.781 16.294 185.713 16.3177 185.646 16.3157L187.325 16.3145L186.958 16.4322C187.893 16.383 188.814 16.4234 189.747 16.5542C190.465 16.4857 191.171 16.3524 191.864 16.1672C193.692 16.1576 192.309 16.3221 193.446 16.4204C194.773 16.4344 194.991 16.235 196.792 16.3404L196.763 16.4553C197.603 16.4419 198.119 16.3544 199.284 16.3506L198.931 16.4044C200.829 16.1652 201.311 16.7716 202.792 16.2626C203.59 16.3636 205.108 16.3061 205.038 16.5356C207.409 16.4007 209.251 16.34 211.609 16.269C211.998 16.6538 212.11 16.2454 213.543 16.4813L213.437 16.2722C216.769 16.269 220.596 16.8082 224.267 16.7507L224.373 16.9598L225.107 16.7372C229.06 16.8684 234.179 16.9701 237.334 17.013C238.731 16.8232 240.153 16.7371 241.575 16.7796L241.399 16.8129C244.257 16.7183 247.264 16.6667 250.378 16.8242C250.187 16.9086 250.498 16.9694 250.146 17.0232C250.973 16.9064 251.813 16.9186 252.637 17.0463L251.854 16.8813C252.722 16.7528 253.615 16.8053 254.466 17.0495L255.863 16.8339C255.957 16.8496 256.092 16.8923 256.119 16.9188L256.364 16.8103L257.106 17.0899C258.041 17.0535 258.977 16.94 259.886 16.7356C260.021 16.8297 261.334 16.9075 260.317 16.9544L265.435 17.0946L264.637 16.9935C264.531 16.7845 266.076 16.6763 266.861 16.777C265.816 16.9387 266.776 17.0704 267.222 17.2253C267.914 17.1173 266.614 17.0398 266.981 16.9221C268.039 16.7865 269.109 16.7542 270.165 16.8372L269.649 16.9119C270.842 16.8446 271.393 17.2214 272.558 17.2048C273.603 17.043 274.386 17.2209 274.16 16.8538C275.677 16.7963 274.753 17.1032 275.24 17.1435C276.271 17.0071 277.327 17.0644 278.354 17.301C279.185 16.7854 282.441 17.5391 282.757 17.1111L284 17.3799C284.042 17.2653 284.289 17.0025 285.291 16.9681C286.238 17.1123 286.019 17.3116 286.316 17.4363L286.957 17.0051C292.45 17.5555 299.684 17.3344 305.706 17.7977C308.389 17.7364 311.776 17.5933 314.903 17.7126L314.55 17.7664L317.664 17.9368L315.404 17.7019C316.082 17.6578 316.611 17.5836 317.274 17.6034C321.334 17.9436 325.409 18.0656 329.473 17.9813C332.2 17.5224 331.283 18.4601 333.9 18.1266C333.683 18.1716 333.588 18.2459 333.398 18.2917C336.216 18.1702 337.733 18.1126 340.553 17.8624C340.236 18.3548 342.381 17.8785 342.135 18.1414L342.367 17.9424C342.988 18.0768 344.464 18.1467 344.259 18.295L345.508 18.0621L345.614 18.2712C347.266 18.3206 350.802 18.2205 351.664 18.6581C355.743 18.4199 362.187 18.6384 367.305 18.8173C368.43 18.6837 369.555 18.6401 370.692 18.6742L371.936 18.943C373.115 18.7724 374.294 18.7305 375.485 18.7918C375.485 18.8176 375.431 18.8417 375.349 18.8521C376.513 18.9127 377.678 18.8961 378.831 18.7761C380.158 18.8158 381.443 18.983 381.034 19.2024C381.16 18.7944 383.836 19.3248 383.836 19.3248C383.836 19.3248 400.813 19.9872 419.864 20.4157C438.916 20.8442 460.041 21.116 468.323 20.3215C468.799 20.1427 470.168 20.0679 469.683 19.8088C470.076 19.7949 470.482 19.8327 470.86 19.9341C470.968 19.9631 471.076 19.9792 471.184 19.9953C471.225 19.9965 471.266 19.9977 471.306 19.9861C471.32 19.9865 471.347 19.9745 471.361 19.9749L471.388 19.9628L471.401 19.9503C471.541 19.5041 471.668 19.0575 471.808 18.5985C471.682 19.0065 471.556 19.4274 471.443 19.8358C471.401 19.9889 471.415 19.925 471.415 19.9379L471.388 19.9371L471.361 19.9363L471.307 19.9346L471.199 19.9185C471.145 19.9041 471.09 19.9024 471.036 19.8751C470.956 19.8469 470.915 19.82 470.888 19.7934C470.848 19.7279 470.93 19.666 470.999 19.6037C471.149 19.4667 471.326 19.3176 470.597 19.167L471.572 19.1576C471.803 19.023 470.216 19.2586 470.517 19.0231L470.175 19.386C469.674 19.3582 469.187 19.2535 468.729 19.0597C467.75 19.4422 466.679 19.5517 465.624 19.3914L466.139 19.3811C464.636 19.349 465.22 19.1091 464.91 19.0355L465.248 19.0456L463.991 18.815C464.951 18.9724 466.538 18.7239 465.712 18.712C463.926 18.5428 466.171 18.8159 464.83 18.8272C463.991 18.815 464.236 18.6293 464.265 18.5014L462.762 18.4693C462.818 18.2909 463.75 18.5118 463.143 18.3134L461.245 18.4368C460.898 17.976 459.185 18.5811 458.337 18.131C459.692 18.0686 458.216 17.973 458.434 17.838L455.103 17.7641C454.793 17.6904 455.985 17.6489 455.47 17.6592C455.01 17.6068 454.549 17.6317 454.102 17.7212C453.818 17.5969 451.624 17.6599 451.708 17.3665C449.449 17.1059 450.756 17.7112 448.646 17.4808C448.377 17.2926 450.312 17.4791 449.379 17.2711L447.199 17.2702C447.567 17.0624 448.014 16.9857 448.447 17.0502C442.546 16.642 439.374 15.6205 433.969 15.7162C433.213 15.4876 434.512 15.5909 435.055 15.4656C431.139 15.6444 429.562 14.8508 426.231 14.7898L426.175 14.9682C421.536 14.3018 415.955 14.508 410.717 14.1454L411.339 14.2798C410.43 14.3942 409.508 14.4695 408.587 14.4806C408.453 14.3865 409.214 14.1133 407.697 14.158C408.007 14.2316 408.657 14.3154 408.466 14.3869C403.962 13.8146 394.456 13.7231 387.065 13.3476C377.057 13.254 366.201 12.7104 356.369 12.635C357.872 12.6542 357.231 13.0726 356.095 12.9485C353.001 12.1482 350.745 12.9686 347.581 12.4107C341.851 12.5352 336.739 11.816 331.412 12.3L331.306 12.091C330.683 12.0466 330.073 12.0541 329.463 12.1259L329.477 12.062C327.501 11.9514 325.116 12.1245 323.979 12.0004L323.909 12.23C322.731 12.2333 323.302 12.0445 322.095 12.1499L322.124 12.035L320.727 12.2377C320.866 11.8301 317.423 12.1517 316.477 11.9432C314.96 11.9879 312.087 12.1207 309.786 12.0004C308.109 11.7701 306.431 11.6426 304.738 11.6177C301.23 11.6286 296.233 11.6206 291.778 11.4873L291.857 11.7599L290.692 11.7636C290.706 11.6997 290.558 11.6695 290.72 11.6487C289.816 11.3385 288.038 11.71 287.092 11.5015C287.686 11.7509 287.904 11.5515 288.568 11.5714C289.528 11.7159 288.618 11.959 287.32 11.8043L287.347 11.7408L286.466 11.8688C286.373 11.6601 285.561 11.5458 285.469 11.3371C281.636 11.3382 279.032 11.6593 275.079 11.5024C275.488 11.2701 272.235 11.5202 273.024 11.132C270.653 11.2541 273.414 11.4654 272.341 11.7421C271.678 11.7223 270.986 11.8303 270.866 11.6851C271.178 11.5915 270.326 11.4374 270.868 11.4021L269.284 11.419C269.135 11.3888 269.488 11.3351 269.65 11.3142C266.425 11.5137 263.911 10.988 261.024 11.1976C260.806 11.3455 262.175 11.2578 261.97 11.3932C259.056 11.6535 259.386 11.11 256.676 11.2863L257.233 11.0971C256.351 11.3023 255.429 11.3519 254.523 11.2219C254.268 10.9826 255.744 11.0396 256.436 10.9317C255.447 10.9149 252.928 10.9425 253.698 11.1714C252.939 11.2002 252.181 11.1261 251.425 10.949C251.41 11.0129 252.533 11.1237 251.842 11.2188C250.218 11.0673 247.726 11.0442 245.749 11.0108C245.763 10.9469 245.629 10.8657 245.805 10.8323C244.218 11.1323 244.386 10.5968 242.191 10.6341" fill="#D43E36"/>
<path d="M136.833 12.0381L137.632 12.0827C137.633 12.0201 137.66 11.9427 138.027 11.8776L136.833 12.0381Z" fill="#D43E36"/>
<path d="M174.711 11.5682C174.807 11.5556 174.902 11.5268 174.997 11.4818C174.793 11.5066 174.739 11.5369 174.711 11.5682Z" fill="#D43E36"/>
<path d="M183.9 10.909C183.248 10.9658 183.831 11.0527 184.156 11.1298C184.17 11.0654 184.158 10.9836 183.9 10.909Z" fill="#D43E36"/>
<path d="M115.394 13.3576C115.53 13.3297 115.612 13.2832 115.599 13.2165C115.408 13.2755 115.367 13.307 115.394 13.3576Z" fill="#D43E36"/>
<path d="M56.1063 14.9805L56.3498 15.0195C56.2687 15.0014 56.1875 14.9833 56.1063 14.9805Z" fill="#D43E36"/>
<path d="M59.4051 15.3466C59.6355 15.3395 59.8524 15.332 60.0695 15.2942C59.8392 15.2862 59.6222 15.3088 59.4051 15.3466Z" fill="#D43E36"/>
<path d="M129.767 12.895C129.97 12.8867 130.187 12.8633 130.391 12.8081C130.174 12.8003 129.971 12.8242 129.767 12.895Z" fill="#D43E36"/>
<path d="M60.7478 15.1871L61.5741 15.2006C61.5742 15.1858 61.5879 15.1715 61.5881 15.142L60.7478 15.1871Z" fill="#D43E36"/>
<path d="M55.0501 14.9805C55.3752 14.9771 55.8086 14.9771 56.0928 15.0003C55.7548 14.9335 55.4028 14.9221 55.0501 14.9805Z" fill="#D43E36"/>
<path d="M93.6351 14.349L93.7301 14.3365C94.3685 14.2006 93.9612 14.2653 93.6351 14.349Z" fill="#D43E36"/>
<path d="M64.3586 14.5233L64.4671 14.5273L64.7119 14.4403L64.3586 14.5233Z" fill="#D43E36"/>
<path d="M51.489 14.9949C51.6246 14.9841 51.7603 14.9732 51.8962 14.9309L51.422 14.8979C51.4622 14.9467 51.4757 14.9629 51.489 14.9949Z" fill="#D43E36"/>
<path d="M81.2204 14.2155C80.9882 14.3392 80.906 14.4188 80.892 14.468C81.1641 14.4618 81.3414 14.4023 81.2204 14.2155Z" fill="#D43E36"/>
<g opacity="0.26">
<g opacity="0.26">
<g opacity="0.26">
<g opacity="0.26">
<path opacity="0.26" d="M71.3106 18.3925C71.2693 18.4247 71.2416 18.4742 71.2273 18.5409C71.2962 18.4761 71.3103 18.4262 71.3106 18.3925Z" fill="#D43E36"/>
<path opacity="0.26" d="M107.791 18.207L107.37 18.2723C107.519 18.2774 107.668 18.2506 107.791 18.207Z" fill="#D43E36"/>
<path opacity="0.26" d="M49.4373 18.8132C49.451 18.7998 49.4781 18.8006 49.4917 18.7872L47.9614 18.7975L49.4373 18.8132Z" fill="#D43E36"/>
<path opacity="0.26" d="M185.627 17.7092L185.139 17.7087C185.302 17.7133 185.464 17.718 185.627 17.7092Z" fill="#D43E36"/>
<path opacity="0.26" d="M139.494 17.7838C139.698 17.727 139.902 17.6861 140.118 17.6934C139.902 17.6542 139.698 17.6792 139.494 17.7838Z" fill="#D43E36"/>
<path opacity="0.26" d="M37.8127 16.2725L38.4483 16.4554C38.4219 16.3739 38.2058 16.2859 37.8127 16.2725Z" fill="#D43E36"/>
<path opacity="0.26" d="M15.6633 18.1396C15.6767 18.1566 15.7037 18.174 15.7173 18.1745C15.758 18.1759 15.7174 18.158 15.6633 18.1396Z" fill="#D43E36"/>
<path opacity="0.26" d="M24.3506 18.5539C24.5406 18.5284 24.7578 18.4879 24.975 18.4474C24.7039 18.4542 24.3784 18.4751 24.3506 18.5539Z" fill="#D43E36"/>
<path opacity="0.26" d="M25.2737 18.3817L24.975 18.4356C25.1378 18.4251 25.2734 18.4137 25.2737 18.3817Z" fill="#D43E36"/>
<path opacity="0.26" d="M468.294 17.7361C468.808 17.7532 469.324 17.6919 469.826 17.5515L468.294 17.7361Z" fill="#D43E36"/>
<path opacity="0.26" d="M256.084 17.224L255.947 17.3019C256.083 17.2736 256.111 17.2415 256.084 17.224Z" fill="#D43E36"/>
<path opacity="0.26" d="M469.089 16.0093L469.522 16.0693C469.373 16.0338 469.224 16.0137 469.089 16.0093Z" fill="#D43E36"/>
<path opacity="0.26" d="M49.5403 15.1942C50.1789 14.9978 51.4912 15.1963 51.4794 15.0096C50.8016 15.0494 49.8407 14.9401 49.5403 15.1942Z" fill="#D43E36"/>
<path opacity="0.26" d="M270.973 9.58754L271.393 9.58601C271.19 9.5656 271.068 9.57616 270.973 9.58754Z" fill="#D43E36"/>
<path opacity="0.26" d="M469.089 16.0112L468.588 15.9307C468.629 15.9638 468.683 15.9974 468.737 16.0311C468.845 16.0188 468.967 16.007 469.089 16.0112Z" fill="#D43E36"/>
<path opacity="0.26" d="M329.471 17.2945L329.444 17.2936L329.295 17.3203L329.471 17.2945Z" fill="#D43E36"/>
<path opacity="0.26" d="M333.352 17.638L332.526 17.6875C332.796 17.7115 333.081 17.7054 333.352 17.638Z" fill="#D43E36"/>
<path opacity="0.26" d="M469.826 17.522L470.722 17.4102C470.424 17.416 470.125 17.4533 469.826 17.522Z" fill="#D43E36"/>
<path opacity="0.26" d="M375.314 17.5936L374.935 17.6114C375.057 17.6153 375.192 17.6196 375.314 17.5936Z" fill="#D43E36"/>
<path opacity="0.26" d="M136.543 17.7307L136.205 17.688C136.164 17.7338 136.191 17.7661 136.543 17.7307Z" fill="#D43E36"/>
<path opacity="0.26" d="M163.93 12.107C164.458 12.1248 164.974 12.0469 165.477 11.8733C164.949 11.8555 164.433 11.9334 163.93 12.107Z" fill="#D43E36"/>
<path opacity="0.26" d="M168.794 11.9079L168.618 11.8872C168.672 11.904 168.74 11.9062 168.794 11.9079Z" fill="#D43E36"/>
<path opacity="0.26" d="M137.635 12.0752L137.635 12.0923C137.649 12.0928 137.649 12.0757 137.649 12.0757L137.635 12.0752Z" fill="#D43E36"/>
<path opacity="0.26" d="M143.812 11.9189C143.947 11.9547 144.096 11.991 144.245 11.9959C144.096 11.9597 143.947 11.9391 143.812 11.9189Z" fill="#D43E36"/>
<path opacity="0.26" d="M184.159 11.1166C184.146 11.1161 184.146 11.1325 184.159 11.1166L184.186 11.1339L184.159 11.1166Z" fill="#D43E36"/>
<path opacity="0.26" d="M242.282 10.3733C236.445 10.4082 228.885 10.7035 223.09 10.5914C221.462 10.8681 219.808 11.0093 218.156 10.9755L217.957 10.5387L216.426 10.67C215.804 10.5309 217.605 10.596 216.496 10.4295L215.924 10.696C215.804 10.5444 211.971 10.5693 214.547 10.2794L208.575 10.2565C207.248 10.232 207.813 10.6119 206.351 10.5027C206.055 10.3729 206.88 10.4235 206.747 10.258C202.349 9.91651 201.686 11.083 197.599 10.8582L197.952 10.8009C197.26 10.9158 195.933 10.9048 195.919 10.9582C196.456 11.4047 196.652 10.7233 197.895 10.9879C197.797 11.3623 196.336 11.1857 196.428 11.4713C195.643 11.4219 194.857 11.4532 194.07 11.5654C192.651 11.3362 190.604 11.4931 189.524 11.2062C188.559 11.4884 187.569 11.6621 186.552 11.7003C185.472 11.4134 186.799 11.4245 185.338 11.3153L185.105 11.5376C183.9 11.5031 184.09 11.4412 184.132 11.3481C183.25 11.471 182.356 11.5263 181.462 11.5007L182.358 11.2973C181.166 11.3844 180.679 11.3435 179.027 11.3231C179.055 11.2027 179.718 11.2082 180.219 11.2495C179.315 10.9272 178.687 11.3808 178.2 11.3533C178.334 11.4515 179.485 11.4844 178.928 11.6975C178.102 11.6604 177.178 11.9842 176.598 11.7385L177.494 11.5352C176.544 11.7235 175.582 11.7903 174.621 11.7223C174.729 11.712 174.676 11.6565 174.717 11.6038C173.158 11.7478 171.573 11.7563 170.004 11.6035L170.357 11.5463C169.611 11.6192 169.216 11.81 168.81 11.7984C169.865 11.9229 169.58 11.9821 169.673 12.1868C168.282 11.8236 167.569 12.5981 165.296 12.3848C165.325 12.2643 165.868 12.1182 166.503 12.2442C167.158 11.778 167.933 11.4903 168.733 11.4055C167.879 11.4888 166.863 11.5405 167.081 11.3851L166.82 11.7279C166.305 11.7401 165.886 11.7146 165.493 11.7168C165.274 11.9261 166.546 12.0703 165.352 12.2112C163.997 12.3206 164.625 11.8671 164.42 12.0094C162.55 12.1444 163.658 12.3783 161.858 12.2593C162.075 12.2117 162.305 12.1913 162.535 12.2114C161.237 12.0799 159.366 12.2688 158.977 11.867C159.182 11.7112 159.44 11.6378 159.697 11.6855L159.629 11.6971C161.041 11.4007 158.45 11.7711 158.887 11.4064C158.993 11.625 157.179 11.573 156.353 11.5493L156.621 11.7995C153.918 12.5573 156.762 11.3051 154.066 11.4165C152.357 11.5965 154.715 11.4889 153.67 11.6611C152.588 11.5223 151.492 11.4775 150.395 11.5134C149.922 11.419 148.961 11.2837 148.87 11.0117C147.638 10.9764 146.404 11.0354 145.171 11.1751C146.929 11.4006 146.907 10.8746 148.962 11.2299L148.39 11.5099C146.968 11.4961 145.152 11.6461 144.178 11.5509C144.381 11.5971 144.461 11.6802 144.339 11.7306C142.833 11.93 141.302 12.0343 139.771 12.0443C139.503 11.7942 140.654 11.8271 141.494 11.8108C140.398 11.712 139.301 11.6806 138.204 11.73C138.098 11.5114 139.531 11.7411 139.75 11.5183L137.569 11.5906C137.582 11.5775 137.569 11.5636 137.569 11.5502C137.267 11.9187 135.903 11.5294 134.575 11.6395C132.801 11.6426 130.983 11.9139 129.258 12.4303C128.785 12.3359 128.65 12.2377 128.841 12.1489C129.625 12.306 129.477 12.1806 129.749 12.0806C128.679 12.1173 127.41 11.7307 128.007 11.5861C126.313 11.6993 128.628 11.779 127.584 11.8973L125.268 11.8849C125.551 12.0681 126.363 12.1048 125.17 12.2593C124.153 12.311 123.666 12.2836 122.353 12.2729C122.543 12.184 121.922 11.9911 122.924 11.9929C122.248 11.8927 121.557 11.9402 120.905 12.0967C122.353 12.2594 118.533 12.2713 119.627 12.5586L118.153 12.4085C118.478 12.4044 118.52 12.2843 119.007 12.3118C118.59 12.0304 117.828 12.3992 117.326 12.4388C116.676 12.4336 116.027 12.3746 115.378 12.2617C114.781 12.3524 114.172 12.308 113.591 12.1566C112.914 12.2181 113.535 12.3436 113.345 12.4325L111.029 12.4335C110.895 12.2815 110.697 11.8447 111.049 11.7875C110.181 11.9377 110.746 12.2503 109.433 12.2531C110.181 11.9377 107.674 12.041 108.762 11.668C107.396 11.4807 106.015 11.4412 104.646 11.5771C103.912 11.8255 105.944 11.7086 105.861 11.9487C102.514 12.0684 102.317 12.7498 99.8672 12.6527L100.503 12.7113C99.7443 12.7434 98.9983 12.8568 98.2649 13.0513C98.6745 12.7397 96.4993 12.2464 93.9929 12.3362C93.7881 12.492 95.4119 12.6194 95.003 12.8636L93.3501 12.924C93.2284 12.9071 93.4051 12.8448 93.6222 12.8106C92.1312 12.9295 90.8228 12.434 90.3991 12.7991L88.8598 12.3643L89.4673 12.5434C88.7345 12.6841 87.9886 12.7839 87.2434 12.8165C86.1581 12.9875 85.0345 12.9418 83.9537 12.6953C84.2503 12.825 85.0057 13.1026 83.6644 13.1585C83.6697 12.6602 80.8356 12.9967 80.8653 12.755C80.3234 12.7665 79.3498 12.6308 79.2933 12.8447L79.3778 12.5373C79.265 12.9652 77.2739 12.989 75.7561 13.0802C76.0875 12.4835 74.0895 13.1537 73.3908 12.6352C73.1156 13.045 70.6936 12.8409 70.4462 13.1841C69.2676 13.2177 69.3797 12.8571 69.0831 12.7274L68.5397 12.887C67.9457 12.7083 65.7516 12.7263 64.439 12.6213L63.2298 12.9908L62.7709 12.843C62.5803 12.9318 61.5773 13.0109 62.1991 13.123L61.5491 13.1178C61.5044 13.5072 60.6269 13.2396 59.3112 13.4309C59.0004 13.3681 59.0826 13.2762 59.3675 13.2305C58.7173 13.2388 58.9904 13.0311 58.626 12.9129C59.099 13.0072 56.2889 13.6407 58.0615 13.7858C58.1953 13.9378 57.1646 14.07 56.5152 14.011L56.1125 13.6761L55.35 14.0584C54.5917 14.0502 53.8338 14.0015 53.0902 13.8859C53.9301 13.8561 54.9259 13.1841 52.7721 13.2302C53.5311 13.1711 54.2908 13.0446 55.0375 12.8774C54.5905 12.8781 54.3607 12.8446 55.053 12.6893C53.3722 12.8297 54.4953 12.9158 52.8288 12.9893C52.9133 12.6819 52.4403 12.5875 50.9785 12.5052L52.0733 12.7117C52.0052 12.7502 51.9371 12.7886 51.8692 12.8001C52.2888 12.8256 52.4102 12.8695 52.5037 12.9934C52.1786 12.9976 50.5762 13.4097 50.2937 13.2265C51.9954 13.6794 47.3775 13.6549 48.4581 13.9149C47.9693 14.0356 47.4684 14.0213 46.9821 13.8996C48.3662 13.6428 45.9157 13.5726 46.1347 13.3499C45.6191 13.4429 47.2431 13.5568 46.5375 13.6847C45.8873 13.6931 45.2517 13.6075 44.6168 13.4546L44.9561 13.3835L43.6708 13.2658C43.466 13.4216 44.9279 13.4905 43.7485 13.6049C43.4376 13.5421 42.2446 13.6561 42.2865 13.536C42.8442 13.3095 42.4272 13.0416 43.4302 12.9626C42.5901 13.0059 39.9346 13.1049 41.0153 13.3649L40.013 13.3766C40.6483 13.4891 42.407 13.6742 40.4015 13.7784L40.4158 13.7115L39.045 13.9821L38.4371 13.8434C38.4633 13.925 38.2458 13.9996 37.7311 14.0118C37.5965 13.9271 37.0957 13.8993 37.1376 13.7792C35.6338 13.8305 35.7676 13.9825 35.577 14.0848C34.7368 14.1281 34.4259 14.0788 34.8072 13.8741C33.4931 13.9173 32.1795 13.9067 30.8668 13.8152C29.3347 13.9868 31.1913 13.8649 30.2949 14.1086C28.946 13.5985 25.2036 14.0302 22.7103 14.1608C23.4098 14.6119 22.0324 14.2357 21.5809 14.6673C22.111 14.4804 19.1737 14.3424 21.3697 14.1494L20.028 14.2322C19.1095 14.0038 22.2381 13.9856 20.8331 13.6625C19.4355 13.9188 18.0253 14.0805 16.6027 14.1341C17.1752 13.7867 15.2468 14.2838 15.6706 13.9053C16.1186 13.8103 16.5661 13.7558 17.0265 13.7555L16.7022 13.6923C13.4114 13.6789 15.7768 14.1104 14.0675 14.3848C12.0622 14.4755 12.4718 14.1639 12.3379 14.0119C11.7288 13.981 11.1055 14.017 10.4948 14.1342C11.7161 13.8998 12.7685 14.2802 12.2108 14.5067C11.0346 14.3114 9.84222 14.3715 8.70096 14.716C11.5822 15.041 10.692 14.6922 13.3968 15.0526C13.7638 14.9284 13.6861 14.5894 15.2968 14.6759C14.2925 14.8762 15.3761 14.8668 15.66 14.9154C15.3504 14.7314 16.7853 14.7994 17.2738 14.7056C17.7327 14.8535 16.3342 15.1906 17.9725 15.2241L18.2618 14.7609C18.8843 14.8056 17.9874 15.1033 19.3432 14.9535C18.6227 15.2158 19.5831 15.3241 17.7535 15.4468C19.971 15.7798 21.1153 15.1524 22.824 14.932C22.6476 14.9673 22.6335 15.0208 22.4571 15.0562C22.9593 14.9493 23.4746 14.8832 23.9894 14.871C25.1262 14.944 23.1066 15.1017 23.4033 15.218L25.2322 15.1626C25.2727 15.1772 25.2726 15.1907 25.2726 15.1907C25.6257 15.093 26.0186 15.0773 26.3833 15.1686C25.8535 15.3286 25.6351 15.484 25.2815 15.622L27.1814 15.2588C26.9766 15.4146 28.7772 15.4797 27.4213 15.6294L30.2532 15.495L30.5073 15.7987C31.1852 15.7238 31.1993 15.6703 30.387 15.647C31.3617 15.6884 34.66 14.9881 34.1793 15.6209C36.4037 15.3075 37.2019 15.3842 39.8993 15.1651C37.8371 15.5102 42.2932 15.4627 40.0972 15.6557C40.964 15.6536 41.8184 15.5434 42.6602 15.3385C43.6206 15.4468 43.211 15.7584 42.1802 15.904L43.3873 15.7365L43.3731 15.8035L44.418 15.6044C45.5404 15.7578 44.6586 15.9076 45.8094 15.9406L46.0425 15.6644L46.8265 15.8081C46.5298 15.6918 47.2077 15.6169 48.0342 15.5867L48.0199 15.6537L49.0363 15.5885C48.0322 15.7752 49.9704 15.6287 49.5076 15.8445C50.3744 15.8423 50.3879 15.8427 51.9597 15.7665L51.6773 15.5833C53.7108 15.3856 51.7692 15.8553 53.4215 15.8488L53.3155 15.6302C55.7091 15.9547 57.3542 15.3552 59.1127 15.5538C58.1098 15.6193 58.3645 15.8691 58.3923 15.8026C59.9102 15.6979 62.3748 15.7146 63.9354 15.4225C64.6491 15.8066 65.4733 15.9919 66.2729 15.934C67.4515 15.9004 67.6144 15.8646 67.9956 15.6735C69.1067 15.6245 70.2169 15.6563 71.3261 15.7823C71.5853 15.6012 72.3551 15.7984 72.9663 15.6407L73.1008 15.7254L72.9948 15.5068C75.0215 15.9556 76.384 15.1728 78.4249 15.5681L78.072 15.6388L78.9262 15.542C79.0606 15.6402 78.7214 15.6978 78.6795 15.8178L82.6478 15.7968L81.864 15.6396C82.6373 15.5136 83.4231 15.4822 84.2218 15.5186C82.6471 15.8641 85.5355 15.5158 85.8037 15.7659L84.9495 15.8627C86.1145 15.8287 86.1145 15.8287 86.0085 15.6101C87.5127 15.5185 87.0605 16.0175 88.4446 15.7608L87.456 15.7594C87.1594 15.6296 87.8656 15.4478 88.5291 15.4533C88.6913 15.4849 89.1643 15.5793 88.6494 15.605C89.8423 15.5044 91.6288 15.6095 92.1444 15.5165C92.7939 15.5755 92.5891 15.7313 92.2364 15.7885C94.7711 15.5782 93.3872 15.8215 95.9356 15.5981L95.8937 15.7182L96.7621 15.5679L98.0189 15.8194L97.5737 15.6585C98.3464 15.5863 99.1321 15.5684 99.9038 15.5905L99.509 15.7813C101.867 15.6602 102.242 16.0617 104.479 15.7889C104.628 15.8201 104.289 15.8778 104.112 15.9132C106.188 15.6089 105.693 16.2279 107.769 15.8562C107.647 15.9201 107.876 15.994 107.795 16.0456L108.744 15.9246L108.673 16.1785L109.436 15.8097L110.029 16.0557L110.396 15.9315C111.42 16.3919 112.846 16.0286 114.251 16.3652L114.011 16.062C117.499 15.367 122.039 16.3458 126.267 16.0358L126.197 16.2763L127.947 16.0166C128.893 16.2053 127.389 16.2296 127.686 16.3594C129.556 16.2109 128.462 15.9909 130.63 15.9048C131.752 16.0717 130.248 16.096 129.719 16.1751C131.874 16.0078 134.042 15.9487 136.208 16.0242C136.235 15.998 136.331 15.9469 136.25 15.9311C137.605 15.8217 139.405 15.9137 140.895 15.9025C140.853 16.0225 140.487 16.039 140.122 16.0555C140.703 16.1125 141.286 16.1023 141.855 16.0243L141.298 16.2373C142.504 16.1506 143.723 16.1721 144.927 16.3143C144.792 16.2162 144.835 16.0288 145.837 16.044C146.388 16.4235 148.534 15.8788 150.13 16.0727C149.939 16.1615 148.774 16.182 149.099 16.1914C149.844 16.2396 150.589 16.1667 151.309 15.9852L151.104 16.141L154.817 15.9106C155.382 16.2905 158.312 15.8355 158.065 16.1114C159.393 16.1225 156.957 15.9449 158.623 15.8983C159.068 16.0593 160.141 15.8206 160.07 16.0745L159.894 16.0964L161.059 16.0759L160.325 16.3108C161.328 16.2587 162.075 16.0242 162.118 15.8368C163.039 15.8497 163.959 15.9299 164.878 16.0775L164.525 16.1348C167.208 16.0365 168.987 16.8014 171.091 16.3902C171.253 16.4218 171.225 16.4883 170.9 16.479L172.566 16.4998L172.171 16.6771L174.91 16.3918L174.882 16.5122C176.696 16.5642 179.527 16.4971 181.857 16.4695L181.504 16.5268C184.052 16.3438 183.968 16.6512 185.824 16.5158C185.77 16.5412 185.702 16.5662 185.634 16.5643L187.314 16.5585L186.947 16.6827C187.882 16.6286 188.802 16.6685 189.735 16.803C190.454 16.7292 191.16 16.5878 191.852 16.3921C193.681 16.3771 192.298 16.553 193.434 16.6529C194.761 16.664 194.98 16.4547 196.78 16.5602L196.752 16.6806C197.592 16.6643 198.107 16.5713 199.272 16.5642L198.919 16.6215C200.818 16.366 201.299 16.9995 202.781 16.4626C203.579 16.5663 205.096 16.502 205.026 16.7425C207.398 16.5949 209.24 16.5264 211.597 16.4457C211.986 16.8475 212.099 16.4197 213.532 16.6628L213.426 16.4442C216.757 16.4319 220.584 16.9861 224.255 16.9161L224.361 17.1347L225.095 16.8997C229.048 17.0264 234.166 17.1191 237.322 17.1556C238.719 16.9531 240.142 16.8592 241.563 16.8999L241.387 16.9353C244.246 16.8286 247.253 16.7665 250.366 16.923C250.175 17.0119 250.486 17.0747 250.134 17.1319C250.961 17.0074 251.801 17.018 252.625 17.1494L251.842 16.9788C252.71 16.842 253.603 16.8945 254.454 17.1479L255.851 16.9185C255.946 16.9347 256.081 16.9789 256.107 17.0066L256.352 16.8924L257.094 17.1831C258.029 17.1425 258.965 17.0211 259.874 16.8047C260.009 16.9029 261.322 16.9809 260.305 17.0326L265.423 17.1657L264.625 17.062C264.519 16.8434 266.064 16.726 266.849 16.8293C265.804 17.0015 266.764 17.1368 267.209 17.2977C267.901 17.1828 266.602 17.1052 266.969 16.981C268.027 16.8361 269.097 16.7994 270.153 16.8836L269.637 16.9631C270.83 16.8895 271.381 17.2825 272.546 17.262C273.59 17.0898 274.374 17.2739 274.148 16.8902C275.665 16.8259 274.741 17.1497 275.228 17.1906C276.259 17.045 277.315 17.1022 278.341 17.3471C279.173 16.8051 282.429 17.5855 282.745 17.1365L283.988 17.4146C284.03 17.2945 284.277 17.0187 285.279 16.98C286.226 17.1284 286.007 17.3377 286.303 17.4674L286.945 17.0143C292.437 17.5757 299.672 17.3249 305.693 17.7938C308.376 17.7224 311.763 17.5635 314.89 17.68L314.538 17.7373L317.651 17.9073L315.392 17.6674C316.069 17.6195 316.598 17.5403 317.262 17.5593C321.321 17.9046 325.396 18.0213 329.46 17.9222C332.187 17.4345 331.27 18.4186 333.887 18.0625C333.67 18.1102 333.574 18.1882 333.384 18.2367C336.203 18.1019 337.72 18.0376 340.54 17.7681C340.223 18.2844 342.368 17.78 342.121 18.0559L342.354 17.847C342.975 17.986 344.451 18.0552 344.246 18.211L345.495 17.9639L345.601 18.1825C347.252 18.2298 350.788 18.1155 351.65 18.5713C355.729 18.3109 362.174 18.5224 367.291 18.696C368.417 18.5531 369.541 18.5045 370.678 18.537L371.921 18.8151C373.102 18.6334 374.28 18.5863 375.472 18.6474C375.471 18.6743 375.417 18.6997 375.335 18.7108C376.499 18.7711 377.664 18.7506 378.817 18.622C380.144 18.66 381.428 18.8315 381.02 19.0623C381.146 18.6348 383.822 19.1829 383.822 19.1829C383.822 19.1829 400.799 19.7635 419.849 20.161C438.9 20.5585 460.025 20.7864 468.309 19.9324C468.785 19.744 470.153 19.6619 469.669 19.3921C470.062 19.3764 470.467 19.415 470.846 19.5201C470.954 19.5501 471.062 19.5667 471.17 19.5833C471.211 19.5845 471.251 19.5856 471.292 19.5733C471.305 19.5737 471.333 19.561 471.346 19.5614L471.373 19.5487L471.387 19.5356C471.528 19.0681 471.654 18.6003 471.795 18.1193C471.668 18.5468 471.542 18.9877 471.429 19.4156C471.387 19.576 471.401 19.5091 471.401 19.5225L471.374 19.5218L471.347 19.521L471.293 19.5194L471.184 19.5029C471.13 19.4879 471.076 19.4863 471.022 19.4578C470.941 19.4286 470.901 19.4005 470.874 19.3727C470.834 19.3042 470.916 19.2392 470.985 19.1738C471.135 19.03 471.313 18.8734 470.583 18.7178L471.558 18.7053C471.79 18.5637 470.203 18.8147 470.504 18.5673L470.161 18.9482C469.66 18.9203 469.174 18.8121 468.715 18.6104C467.736 19.0134 466.665 19.1309 465.61 18.966L466.125 18.9538C464.622 18.9242 465.207 18.6716 464.896 18.5953L465.235 18.605L463.978 18.3669C464.938 18.5291 466.525 18.2647 465.699 18.2546C463.913 18.0822 466.158 18.362 464.818 18.3775C463.978 18.3669 464.224 18.1719 464.252 18.038L462.749 18.0084C462.805 17.8214 463.738 18.0502 463.13 17.8442L461.233 17.9784C460.886 17.497 459.173 18.135 458.324 17.6661C459.679 17.5971 458.204 17.501 458.422 17.3591L455.092 17.2906C454.781 17.2144 455.973 17.1677 455.458 17.1799C454.999 17.1263 454.538 17.1535 454.09 17.2484C453.807 17.1191 451.612 17.1909 451.697 16.8835C449.438 16.6167 450.745 17.2469 448.635 17.0114C448.366 16.8151 450.3 17.0052 449.368 16.7899L447.188 16.7948C447.556 16.5763 448.003 16.4948 448.436 16.5611C442.536 16.1496 439.364 15.0888 433.96 15.2034C433.204 14.9662 434.503 15.0708 435.046 14.9382C431.13 15.1359 429.554 14.3094 426.223 14.2544L426.167 14.4414C421.529 13.7562 415.947 13.987 410.709 13.6214L411.331 13.7604C410.422 13.8826 409.5 13.964 408.579 13.978C408.445 13.8799 409.206 13.5918 407.689 13.6427C408 13.7189 408.649 13.8049 408.459 13.8802C403.955 13.2932 394.448 13.223 387.058 12.8496C377.05 12.7785 366.195 12.2386 356.363 12.186C357.866 12.2021 357.225 12.6418 356.089 12.5149C352.996 11.6854 350.739 12.5503 347.576 11.9747C341.846 12.1204 336.734 11.3813 331.42 11.9026L331.314 11.684C330.691 11.6393 330.082 11.6488 329.471 11.7256L329.486 11.6586C327.51 11.5481 325.124 11.7358 323.988 11.6089L323.918 11.8494C322.739 11.8561 323.31 11.6569 322.104 11.7705L322.132 11.6501L320.735 11.866C320.875 11.4389 317.431 11.7848 316.485 11.5692C314.968 11.62 312.095 11.7667 309.794 11.6469C308.117 11.4103 306.44 11.2814 304.747 11.2599C301.239 11.2806 296.242 11.2857 291.787 11.1581L291.866 11.4432L290.701 11.4503C290.715 11.3833 290.566 11.3521 290.729 11.3299C289.825 11.0076 288.047 11.4012 287.101 11.1855C287.694 11.445 287.913 11.2357 288.577 11.2547C289.537 11.4035 288.626 11.6603 287.328 11.5019L287.356 11.4353L286.474 11.5717C286.382 11.3535 285.57 11.236 285.478 11.0178C281.645 11.0292 279.041 11.3723 275.088 11.2186C275.497 10.9744 272.244 11.2449 273.034 10.8365C270.662 10.9706 273.423 11.1844 272.35 11.477C271.686 11.458 270.994 11.5729 270.874 11.4213C271.187 11.3224 270.335 11.1633 270.877 11.125L269.292 11.1469C269.144 11.1157 269.497 11.0585 269.659 11.0362C266.434 11.2537 263.921 10.7102 261.033 10.9373C260.815 11.0927 262.184 10.9972 261.979 11.1395C259.065 11.4198 259.396 10.85 256.685 11.0418L257.242 10.8422C256.36 11.0594 255.438 11.1138 254.532 10.9801C254.278 10.7303 255.753 10.7861 256.445 10.6712C255.457 10.6563 252.937 10.692 253.707 10.9295C252.948 10.9617 252.19 10.8861 251.434 10.7028C251.42 10.7697 252.543 10.8827 251.851 10.9841C250.227 10.8299 247.736 10.8124 245.759 10.7827C245.773 10.7158 245.638 10.6311 245.815 10.5957C244.227 10.914 244.395 10.353 242.201 10.3979" fill="#D43E36"/>
<path opacity="0.26" d="M136.837 12.0448L137.636 12.0876C137.637 12.0241 137.664 11.9456 138.031 11.8786L136.837 12.0448Z" fill="#D43E36"/>
<path opacity="0.26" d="M174.702 11.5724C174.797 11.5594 174.892 11.5301 174.988 11.4845C174.798 11.5105 174.729 11.5408 174.702 11.5724Z" fill="#D43E36"/>
<path opacity="0.26" d="M183.905 10.8945C183.253 10.9537 183.836 11.0394 184.16 11.1162C184.174 11.0675 184.162 10.9853 183.905 10.8945Z" fill="#D43E36"/>
<path opacity="0.26" d="M115.399 13.3446C115.535 13.3161 115.617 13.2692 115.604 13.2023C115.413 13.2786 115.372 13.3104 115.399 13.3446Z" fill="#D43E36"/>
<path opacity="0.26" d="M56.1103 14.9839L56.3538 15.0229C56.2592 15.0043 56.1916 14.9866 56.1103 14.9839Z" fill="#D43E36"/>
<path opacity="0.26" d="M59.3957 15.3515C59.626 15.3436 59.8429 15.3353 60.06 15.2961C59.8433 15.289 59.6263 15.3128 59.3957 15.3515Z" fill="#D43E36"/>
<path opacity="0.26" d="M129.771 12.8999C129.974 12.8909 130.191 12.8665 130.395 12.81C130.178 12.8027 129.975 12.8276 129.771 12.8999Z" fill="#D43E36"/>
<path opacity="0.26" d="M60.7521 15.1752L61.5783 15.1866C61.5784 15.1715 61.5921 15.1568 61.5924 15.1266L60.7521 15.1752Z" fill="#D43E36"/>
<path opacity="0.26" d="M55.0544 14.9694C55.3794 14.9651 55.8128 14.964 56.097 14.9866C55.7589 14.9342 55.4069 14.9237 55.0544 14.9694Z" fill="#D43E36"/>
<path opacity="0.26" d="M93.6394 14.3366L93.7344 14.3238C94.3726 14.201 93.9654 14.2513 93.6394 14.3366Z" fill="#D43E36"/>
<path opacity="0.26" d="M64.3491 14.5277L64.4576 14.5314L64.7024 14.4428L64.3491 14.5277Z" fill="#D43E36"/>
<path opacity="0.26" d="M51.4797 14.9822C51.6154 14.9709 51.751 14.9595 51.8869 14.9163L51.4128 14.8843C51.4666 14.9339 51.4799 14.9663 51.4797 14.9822Z" fill="#D43E36"/>
<path opacity="0.26" d="M81.2109 14.218C80.9788 14.3428 80.8966 14.423 80.8826 14.4724C81.168 14.4658 81.3452 14.4055 81.2109 14.218Z" fill="#D43E36"/>
</g>
</g>
</g>
</g>
</g>
<defs>
<clipPath id="clip0_669_42665">
<rect width="472" height="34" fill="white"/>
</clipPath>
</defs>
</svg>
