<svg width="80" height="68" viewBox="0 0 80 68" fill="none" xmlns="http://www.w3.org/2000/svg">
    <path d="M28.3344 30.0923C29.2077 30.0923 30.0453 30.4357 30.6628 31.0469C31.2803 31.6582 31.6273 32.4872 31.6273 33.3516V45.908C31.627 46.7728 31.2798 47.602 30.6619 48.2134C30.0441 48.8248 29.2062 49.1683 28.3325 49.1683H3.29475C2.42109 49.1683 1.58321 48.8248 0.965348 48.2134C0.347491 47.602 0.000253675 46.7728 0 45.908V33.3516C-7.30258e-08 32.9235 0.0852349 32.4995 0.250835 32.1039C0.416435 31.7083 0.659156 31.3489 0.965126 31.0463C1.2711 30.7436 1.63432 30.5035 2.03405 30.3398C2.43377 30.1762 2.86216 30.092 3.29475 30.0923H28.3344Z" fill="#60A16D"/>
    <path d="M50.7369 26.6655C51.1698 26.6654 51.5986 26.7497 51.9986 26.9137C52.3986 27.0776 52.7621 27.318 53.0682 27.621C53.3744 27.924 53.6172 28.2838 53.7828 28.6798C53.9485 29.0757 54.0336 29.5001 54.0335 29.9287V42.4831C54.0334 42.9114 53.948 43.3355 53.7822 43.7312C53.6165 44.1268 53.3736 44.4862 53.0674 44.7889C52.7613 45.0916 52.3979 45.3316 51.998 45.4952C51.5981 45.6588 51.1696 45.7429 50.7369 45.7425H25.6962C25.2638 45.7426 24.8355 45.6584 24.4359 45.4946C24.0364 45.3309 23.6733 45.0908 23.3675 44.7881C23.0617 44.4854 22.8192 44.1261 22.6538 43.7306C22.4883 43.3351 22.4032 42.9112 22.4034 42.4831V29.9287C22.403 29.5004 22.4879 29.0762 22.6532 28.6804C22.8185 28.2845 23.061 27.9248 23.3667 27.6218C23.6725 27.3188 24.0357 27.0783 24.4354 26.9142C24.8351 26.7502 25.2635 26.6657 25.6962 26.6655H50.7369Z" fill="#C3443E"/>
    <path d="M34.923 39.222C34.9232 39.6504 34.838 40.0746 34.6724 40.4704C34.5068 40.8662 34.2641 41.2258 33.958 41.5287C33.6519 41.8315 33.2885 42.0717 32.8886 42.2355C32.4887 42.3993 32.0601 42.4835 31.6273 42.4832H18.9448C18.5122 42.4832 18.0838 42.3989 17.6841 42.235C17.2845 42.0711 16.9213 41.8308 16.6154 41.528C16.3096 41.2251 16.067 40.8656 15.9015 40.4699C15.736 40.0743 15.6509 39.6502 15.651 39.222V14.4341C15.6513 13.5693 15.9985 12.7401 16.6164 12.1287C17.2343 11.5173 18.0721 11.1738 18.9458 11.1738H31.6273C32.06 11.1737 32.4885 11.2579 32.8883 11.4217C33.288 11.5855 33.6513 11.8256 33.9574 12.1284C34.2634 12.4311 34.5062 12.7905 34.6719 13.1862C34.8376 13.5818 34.9229 14.0058 34.923 14.4341V39.222Z" fill="#436FAE"/>
    <path d="M38.3808 61.3969C38.3813 61.8252 38.2965 62.2494 38.1313 62.6452C37.9662 63.0411 37.7238 63.4009 37.4181 63.704C37.1124 64.0071 36.7493 64.2477 36.3497 64.4118C35.95 64.576 35.5216 64.6607 35.0889 64.6609H22.4036C21.9706 64.6608 21.542 64.5763 21.1421 64.4122C20.7421 64.2481 20.3788 64.0076 20.0728 63.7045C19.7667 63.4014 19.524 63.0416 19.3584 62.6457C19.1929 62.2497 19.1077 61.8254 19.1079 61.3969V36.6118C19.1084 35.747 19.4558 34.9177 20.0738 34.3064C20.6918 33.695 21.5298 33.3516 22.4036 33.3516H35.0889C35.5213 33.3517 35.9495 33.4361 36.349 33.6C36.7484 33.7639 37.1113 34.0041 37.417 34.3069C37.7227 34.6096 37.9651 34.969 38.1305 35.3645C38.2959 35.76 38.3809 36.1838 38.3808 36.6118V61.3969Z" fill="#EED861"/>
    <path d="M78.0312 2.46321C77.9001 2.342 77.7652 2.22553 77.6236 2.11569L77.5863 2.08728C77.4534 1.98596 77.3185 1.88748 77.1778 1.79657L77.1032 1.74544C76.9674 1.66021 76.8306 1.57783 76.689 1.50302L76.6785 1.49829C76.4526 1.3817 76.2197 1.27893 75.9811 1.19053L75.894 1.15928C75.7122 1.09394 75.5276 1.03713 75.3382 0.988836L75.1899 0.950956C75.0139 0.911185 74.835 0.878989 74.6551 0.856262C74.5977 0.84774 74.5422 0.837325 74.4848 0.830696C74.2499 0.803094 74.0135 0.788868 73.7769 0.788086C73.6098 0.788086 73.4443 0.794714 73.2804 0.807971C72.8634 0.841501 72.4509 0.916691 72.0492 1.03239C71.8283 1.09556 71.6111 1.1708 71.3986 1.25776C71.0142 1.41479 70.6466 1.60957 70.3014 1.83918L56.9836 9.66181C54.1079 11.3038 53.1139 15.136 54.9947 17.8765C56.1035 19.8461 58.0953 20.9417 60.1952 20.9417C61.1901 20.9417 62.2998 20.7239 63.2938 20.0667L67.7193 17.545V61.1987C67.7193 64.5935 70.376 67.2203 73.8047 67.2203C77.1243 67.2203 80 64.5935 80 61.1987V6.95358C80.0005 6.11147 79.826 5.27825 79.4873 4.50576C79.1486 3.73326 78.653 3.038 78.0312 2.46321Z" fill="white"/>
</svg>
