<svg width="100" height="83" viewBox="0 0 100 83" fill="none" xmlns="http://www.w3.org/2000/svg">
<path d="M35.418 36.6118C36.5097 36.6118 37.5566 37.0409 38.3285 37.8045C39.1004 38.5682 39.5341 39.604 39.5341 40.684V56.3719C39.5338 57.4523 39.0997 58.4884 38.3274 59.2523C37.5551 60.0161 36.5077 60.4453 35.4156 60.4453H4.11843C3.02636 60.4453 1.97901 60.0161 1.20668 59.2523C0.434364 58.4884 0.000317093 57.4523 0 56.3719V40.684C-9.12823e-08 40.1491 0.106544 39.6193 0.313544 39.1251C0.520544 38.6309 0.823945 38.1819 1.20641 37.8037C1.58887 37.4255 2.0429 37.1256 2.54256 36.9211C3.04222 36.7166 3.5777 36.6115 4.11843 36.6118H35.418Z" fill="#60A16D"/>
<path d="M63.4211 32.3306C63.9623 32.3304 64.4982 32.4358 64.9982 32.6406C65.4983 32.8454 65.9526 33.1457 66.3353 33.5243C66.718 33.9029 67.0215 34.3524 67.2285 34.8472C67.4356 35.3419 67.5421 35.8721 67.5419 36.4075V52.093C67.5417 52.6281 67.435 53.158 67.2278 53.6523C67.0206 54.1466 66.717 54.5956 66.3343 54.9738C65.9516 55.352 65.4974 55.6518 64.9975 55.8563C64.4976 56.0607 63.962 56.1657 63.4211 56.1652H32.1203C31.5797 56.1654 31.0444 56.0601 30.5449 55.8556C30.0455 55.651 29.5917 55.351 29.2094 54.9728C28.8272 54.5947 28.524 54.1457 28.3172 53.6516C28.1104 53.1574 28.0041 52.6278 28.0042 52.093V36.4075C28.0037 35.8724 28.1099 35.3424 28.3165 34.8479C28.5231 34.3533 28.8262 33.9039 29.2084 33.5253C29.5907 33.1467 30.0446 32.8463 30.5442 32.6413C31.0438 32.4363 31.5794 32.3307 32.1203 32.3306H63.4211Z" fill="#C3443E"/>
<path d="M43.6538 48.0188C43.654 48.554 43.5475 49.084 43.3405 49.5785C43.1335 50.073 42.8301 50.5223 42.4475 50.9007C42.0649 51.2791 41.6107 51.5792 41.1108 51.7839C40.6109 51.9885 40.0752 52.0937 39.5342 52.0934H23.6811C23.1403 52.0934 22.6048 51.988 22.1052 51.7832C21.6056 51.5784 21.1516 51.2783 20.7693 50.8999C20.387 50.5215 20.0837 50.0723 19.8769 49.578C19.67 49.0836 19.5637 48.5538 19.5638 48.0188V17.049C19.5641 15.9685 19.9982 14.9325 20.7705 14.1686C21.5428 13.4047 22.5902 12.9756 23.6823 12.9756H39.5342C40.075 12.9754 40.6106 13.0807 41.1103 13.2853C41.6101 13.4899 42.0642 13.7899 42.4467 14.1682C42.8293 14.5464 43.1327 14.9955 43.3399 15.4898C43.547 15.9841 43.6537 16.5139 43.6538 17.049V48.0188Z" fill="#436FAE"/>
<path d="M47.976 75.7237C47.9766 76.2588 47.8707 76.7888 47.6642 77.2834C47.4577 77.778 47.1548 78.2275 46.7726 78.6062C46.3905 78.985 45.9367 79.2855 45.4371 79.4906C44.9376 79.6958 44.402 79.8015 43.8612 79.8018H28.0045C27.4633 79.8017 26.9275 79.6961 26.4276 79.491C25.9277 79.286 25.4735 78.9856 25.0909 78.6069C24.7084 78.2282 24.405 77.7787 24.1981 77.284C23.9911 76.7893 23.8847 76.2591 23.8848 75.7237V44.7575C23.8855 43.6769 24.3198 42.6408 25.0923 41.877C25.8648 41.1132 26.9123 40.6841 28.0045 40.6841H43.8612C44.4017 40.6842 44.9369 40.7897 45.4362 40.9945C45.9355 41.1993 46.3892 41.4994 46.7713 41.8776C47.1534 42.2559 47.4564 42.7049 47.6631 43.199C47.8698 43.6931 47.9762 44.2227 47.976 44.7575V75.7237Z" fill="#EED861"/>
<path d="M97.539 2.09289C97.3752 1.94145 97.2065 1.79594 97.0296 1.6587L96.9829 1.6232C96.8167 1.49661 96.6481 1.37357 96.4723 1.25999L96.379 1.19611C96.2092 1.08963 96.0382 0.986699 95.8612 0.893235L95.8481 0.887321C95.5657 0.741662 95.2746 0.613253 94.9763 0.502815L94.8675 0.463771C94.6403 0.382138 94.4095 0.311153 94.1727 0.250815L93.9874 0.203489C93.7673 0.153799 93.5437 0.113574 93.3189 0.0851793C93.2472 0.0745315 93.1778 0.0615188 93.106 0.0532371C92.8124 0.0187511 92.5169 0.000977586 92.2211 0C92.0123 0 91.8054 0.00828065 91.6005 0.024844C91.0793 0.0667361 90.5636 0.160678 90.0615 0.305237C89.7854 0.384162 89.5139 0.478166 89.2483 0.586814C88.7677 0.782998 88.3082 1.02635 87.8767 1.31323L71.2296 11.0868C67.6349 13.1383 66.3924 17.9262 68.7434 21.3501C70.1294 23.811 72.6191 25.1798 75.244 25.1798C76.4876 25.1798 77.8748 24.9077 79.1172 24.0866L84.6492 20.936V75.4767C84.6492 79.7181 87.97 83 92.2558 83C96.4053 83 100 79.7181 100 75.4767V7.70313C100.001 6.651 99.7825 5.60999 99.3591 4.64483C98.9357 3.67968 98.3162 2.81103 97.539 2.09289Z" fill="#1A36A8"/>
</svg>
