<svg width="132" height="132" viewBox="0 0 132 132" fill="none" xmlns="http://www.w3.org/2000/svg">
<path d="M124.855 80.689L116.781 72.6143C116.392 72.2386 115.871 72.0308 115.33 72.0355C114.789 72.0402 114.272 72.2571 113.89 72.6395C113.507 73.0219 113.29 73.5392 113.286 74.08C113.281 74.6207 113.489 75.1417 113.864 75.5307L121.939 83.6054C123.099 84.7657 123.751 86.3393 123.751 87.98C123.751 89.6207 123.099 91.1942 121.939 92.3545L92.2804 122.011C91.1271 123.157 89.5705 123.804 87.945 123.815C86.3195 123.825 84.7548 123.198 83.5869 122.067L24.1581 64.1437C23.7664 63.7608 23.2387 63.5491 22.691 63.5553C22.1433 63.5615 21.6205 63.785 21.2376 64.1767C20.8547 64.5683 20.643 65.096 20.6492 65.6437C20.6554 66.1914 20.8789 66.7143 21.2706 67.0972L80.7077 125.022C82.655 126.906 85.2628 127.95 87.9716 127.933C90.6804 127.915 93.2743 126.836 95.1967 124.928L124.855 95.2709C126.789 93.337 127.875 90.7145 127.875 87.98C127.875 85.2455 126.789 82.6229 124.855 80.689V80.689Z" fill="white"/>
<path d="M8.25 48.6296V8.25H46.5836L68.9391 30.6054C63.2972 32.2586 57.4412 33.0655 51.5625 33C44.3853 33.1706 37.2471 31.8962 30.5724 29.2524C32.1298 27.4184 32.9895 25.0935 33 22.6875C33 20.6479 32.3952 18.6541 31.262 16.9582C30.1289 15.2623 28.5183 13.9405 26.6339 13.16C24.7496 12.3795 22.6761 12.1752 20.6756 12.5732C18.6752 12.9711 16.8377 13.9532 15.3955 15.3955C13.9532 16.8377 12.9711 18.6752 12.5732 20.6756C12.1752 22.6761 12.3795 24.7496 13.16 26.6339C13.9405 28.5183 15.2623 30.1289 16.9582 31.262C18.6541 32.3952 20.6479 33 22.6875 33C24.1628 32.9945 25.6193 32.6694 26.9569 32.0471C32.9752 35.3739 42.4339 37.125 51.5625 37.125C58.5732 37.2085 65.5472 36.1018 72.1875 33.8518L96.0836 57.75L62.4793 91.3543C62.2823 91.5446 62.1252 91.7722 62.0171 92.0238C61.909 92.2754 61.8521 92.5461 61.8497 92.8199C61.8474 93.0938 61.8995 93.3654 62.0032 93.6188C62.1069 93.8723 62.2601 94.1026 62.4537 94.2963C62.6474 94.4899 62.8777 94.6431 63.1312 94.7468C63.3846 94.8505 63.6562 94.9026 63.9301 94.9003C64.2039 94.8979 64.4746 94.841 64.7262 94.7329C64.9778 94.6248 65.2054 94.4677 65.3957 94.2707L99 60.6664L108.032 69.6981C108.421 70.0738 108.942 70.2817 109.482 70.277C110.023 70.2723 110.541 70.0553 110.923 69.6729C111.305 69.2905 111.522 68.7732 111.527 68.2325C111.532 67.6917 111.324 67.1707 110.948 66.7817L76.1991 32.0327C80.0518 29.9063 82.5 27.1178 82.5 23.7188C82.5 15.6276 68.5822 10.9416 54.549 10.3826L48.8957 4.72931C48.509 4.34249 47.9845 4.12512 47.4375 4.125H6.1875C5.64049 4.125 5.11589 4.3423 4.7291 4.72909C4.3423 5.11589 4.125 5.64049 4.125 6.1875V49.5C4.12449 49.775 4.17897 50.0473 4.28523 50.3009C4.39149 50.5545 4.54739 50.7843 4.74375 50.9767L15.3677 61.3326C15.5616 61.5222 15.791 61.6717 16.0427 61.7727C16.2944 61.8736 16.5636 61.924 16.8348 61.9209C17.106 61.9179 17.3739 61.8614 17.6233 61.7548C17.8727 61.6482 18.0986 61.4935 18.2882 61.2996C18.4778 61.1056 18.6273 60.8763 18.7283 60.6245C18.8292 60.3728 18.8796 60.1037 18.8765 59.8325C18.8735 59.5613 18.817 59.2933 18.7104 59.044C18.6038 58.7946 18.4491 58.5687 18.2552 58.3791L8.25 48.6296ZM24.75 23.7188C24.75 22.3905 25.9256 20.9158 28.0026 19.5711C28.7202 20.7627 29.0081 22.1641 28.8182 23.5421C28.6283 24.9201 27.9721 26.1915 26.9589 27.1446C26.3593 26.7736 25.8499 26.2736 25.4677 25.681C25.0856 25.0884 24.8404 24.4181 24.75 23.7188V23.7188ZM16.5 22.6875C16.5 21.0465 17.1519 19.4727 18.3123 18.3123C19.4727 17.1519 21.0465 16.5 22.6875 16.5C23.3749 16.5074 24.0562 16.6309 24.7026 16.8651C23.5245 17.5983 22.5394 18.6033 21.83 19.7958C21.1205 20.9883 20.7073 22.3336 20.625 23.7188C20.6695 25.6502 21.4449 27.4929 22.7948 28.875C22.7597 28.875 22.7246 28.875 22.6875 28.875C21.0465 28.875 19.4727 28.2231 18.3123 27.0627C17.1519 25.9023 16.5 24.3285 16.5 22.6875ZM78.375 23.7188C78.375 25.5069 76.4404 27.3756 73.1362 28.9699L58.9999 14.8335C70.6468 16.1019 78.375 20.1919 78.375 23.7188Z" fill="white"/>
<path d="M82.2422 62.0006C82.6292 62.3873 83.154 62.6045 83.7011 62.6043C84.2482 62.6041 84.7729 62.3865 85.1596 61.9995C85.5463 61.6125 85.7635 61.0877 85.7633 60.5406C85.7631 59.9935 85.5456 59.4689 85.1586 59.0821L80.7819 54.7076C80.465 54.3905 80.0533 54.1854 79.6093 54.1233C79.1654 54.0611 78.7132 54.1453 78.3214 54.3631L68.4317 59.8576L48.6977 40.1236C48.4761 39.9018 48.2069 39.7334 47.9105 39.6312C47.6141 39.529 47.2983 39.4957 46.9871 39.5339C46.6759 39.5721 46.3776 39.6807 46.1146 39.8515C45.8517 40.0223 45.6312 40.2508 45.4699 40.5196L36.7125 55.1056C36.4761 55.4998 36.3781 55.9617 36.4341 56.418C36.4902 56.8742 36.6971 57.2987 37.0219 57.6239L37.3086 57.9106C36.6605 58.1917 36.0692 58.5887 35.5637 59.0821C34.4029 60.2437 33.7512 61.8188 33.7517 63.4609C33.7523 65.1031 34.4052 66.6777 35.5668 67.8385C36.7284 68.9992 38.3035 69.651 39.9456 69.6504C41.5877 69.6499 43.1624 68.997 44.3231 67.8354C44.816 67.3326 45.2186 66.7486 45.5132 66.1091L47.2374 67.8333L47.5035 68.0994C46.864 68.3939 46.28 68.7965 45.7772 69.2895C44.6323 70.4529 43.9935 72.0216 43.9999 73.6539C44.0064 75.2862 44.6576 76.8498 45.8116 78.0041C46.9657 79.1585 48.5292 79.81 50.1615 79.8169C51.7937 79.8237 53.3626 79.1853 54.5263 78.0406C55.3605 77.2015 55.9366 76.1407 56.1863 74.984C56.436 73.8274 56.3487 72.6235 55.935 71.5149L78.9587 58.7274L82.2422 62.0006ZM41.4047 64.9169C41.2144 65.1139 40.9868 65.2711 40.7352 65.3792C40.4836 65.4872 40.2129 65.5441 39.9391 65.5465C39.6652 65.5489 39.3936 65.4967 39.1402 65.393C38.8867 65.2893 38.6564 65.1362 38.4627 64.9425C38.2691 64.7489 38.1159 64.5186 38.0122 64.2651C37.9085 64.0116 37.8564 63.74 37.8587 63.4662C37.8611 63.1923 37.918 62.9217 38.0261 62.6701C38.1342 62.4184 38.2913 62.1908 38.4883 62.0006C38.875 61.6145 39.3991 61.3977 39.9455 61.3977C40.4919 61.3977 41.0159 61.6145 41.4026 62.0006C41.7898 62.3868 42.0078 62.911 42.0086 63.4579C42.0093 64.0048 41.7929 64.5296 41.4068 64.9169H41.4047ZM51.612 66.3751L54.5284 63.4588L57.1787 66.1091L53.4291 68.1922L51.612 66.3751ZM48.6956 63.4588L45.7875 60.5424L48.7039 57.6239L51.6202 60.5424L48.6956 63.4588ZM43.2712 52.1996L45.7875 54.7076L42.8711 57.6239L41.0912 55.8461L43.2712 52.1996ZM51.612 54.7076L54.5284 51.7912L57.4468 54.7076L54.5284 57.6239L51.612 54.7076ZM47.6438 44.9086L51.6141 48.881L48.6977 51.7974L45.4616 48.5613L47.6438 44.9086ZM51.6079 75.1263C51.3193 75.4145 50.9518 75.6107 50.5518 75.6901C50.1518 75.7695 49.7372 75.7286 49.3605 75.5724C48.9837 75.4162 48.6617 75.1519 48.4352 74.8127C48.2087 74.4736 48.0878 74.0749 48.0878 73.6671C48.0878 73.2593 48.2087 72.8606 48.4352 72.5215C48.6617 72.1824 48.9837 71.918 49.3605 71.7618C49.7372 71.6057 50.1518 71.5647 50.5518 71.6441C50.9518 71.7235 51.3193 71.9197 51.6079 72.2079C51.8 72.399 51.9527 72.6262 52.057 72.8763C52.1613 73.1265 52.2153 73.3948 52.2159 73.6658C52.2164 73.9369 52.1636 74.2054 52.0603 74.456C51.9571 74.7066 51.8054 74.9344 51.6141 75.1263H51.6079ZM60.9242 64.0259L57.4406 60.5424L60.3591 57.6239L64.6759 61.9408L60.9242 64.0259Z" fill="white"/>
<path d="M111.375 92.8125C111.375 92.2655 111.158 91.7409 110.771 91.3541C110.384 90.9673 109.859 90.75 109.312 90.75H80.4375C79.8905 90.75 79.3659 90.9673 78.9791 91.3541C78.5923 91.7409 78.375 92.2655 78.375 92.8125C78.375 93.3595 78.5923 93.8841 78.9791 94.2709C79.3659 94.6577 79.8905 94.875 80.4375 94.875H109.312C109.859 94.875 110.384 94.6577 110.771 94.2709C111.158 93.8841 111.375 93.3595 111.375 92.8125Z" fill="white"/>
<path d="M88.6875 105.187C88.6875 106.411 89.0504 107.608 89.7303 108.625C90.4102 109.643 91.3765 110.436 92.5071 110.904C93.6378 111.372 94.8818 111.495 96.0821 111.256C97.2824 111.017 98.3849 110.428 99.2502 109.563C100.116 108.697 100.705 107.595 100.944 106.395C101.182 105.194 101.06 103.95 100.591 102.82C100.123 101.689 99.3301 100.723 98.3126 100.043C97.295 99.3629 96.0988 99 94.875 99C93.234 99 91.6601 99.6519 90.4998 100.812C89.3394 101.973 88.6875 103.546 88.6875 105.187ZM96.9375 105.187C96.9375 105.595 96.8165 105.994 96.5899 106.333C96.3633 106.673 96.0411 106.937 95.6643 107.093C95.2874 107.249 94.8727 107.29 94.4726 107.21C94.0725 107.131 93.705 106.934 93.4166 106.646C93.1281 106.357 92.9317 105.99 92.8521 105.59C92.7725 105.19 92.8134 104.775 92.9695 104.398C93.1256 104.021 93.39 103.699 93.7291 103.473C94.0683 103.246 94.4671 103.125 94.875 103.125C95.422 103.125 95.9466 103.342 96.3334 103.729C96.7202 104.116 96.9375 104.64 96.9375 105.187Z" fill="white"/>
<path d="M101.062 80.4375C101.062 79.2137 100.7 78.0174 100.02 76.9999C99.3398 75.9824 98.3735 75.1893 97.2428 74.721C96.1122 74.2527 94.8681 74.1301 93.6679 74.3689C92.4676 74.6076 91.3651 75.1969 90.4998 76.0623C89.6344 76.9276 89.0451 78.0301 88.8064 79.2304C88.5676 80.4306 88.6902 81.6747 89.1585 82.8054C89.6268 83.936 90.4199 84.9023 91.4374 85.5822C92.4549 86.2621 93.6512 86.625 94.875 86.625C96.516 86.625 98.0898 85.9731 99.2502 84.8127C100.411 83.6523 101.062 82.0785 101.062 80.4375ZM92.8125 80.4375C92.8125 80.0296 92.9335 79.6308 93.1601 79.2916C93.3867 78.9525 93.7088 78.6881 94.0857 78.532C94.4626 78.3759 94.8773 78.3351 95.2774 78.4146C95.6775 78.4942 96.045 78.6906 96.3334 78.9791C96.6218 79.2675 96.8183 79.635 96.8979 80.0351C96.9774 80.4352 96.9366 80.8499 96.7805 81.2268C96.6244 81.6037 96.36 81.9258 96.0209 82.1524C95.6817 82.379 95.2829 82.5 94.875 82.5C94.328 82.5 93.8034 82.2827 93.4166 81.8959C93.0298 81.5091 92.8125 80.9845 92.8125 80.4375Z" fill="white"/>
</svg>
