<svg width="132" height="132" viewBox="0 0 132 132" fill="none" xmlns="http://www.w3.org/2000/svg">
<path d="M37.125 12.375H41.25V16.5H37.125V12.375Z" fill="white"/>
<path d="M45.375 12.375H61.875V16.5H45.375V12.375Z" fill="white"/>
<path d="M84.5625 92.8125C84.5592 95.5465 83.4717 98.1677 81.5384 100.101C79.6052 102.034 76.9841 103.122 74.25 103.125H36.5723L43.6631 90.8449C43.4389 91.477 43.3204 92.1418 43.3125 92.8125C43.3125 94.4535 43.9644 96.0273 45.1248 97.1877C46.2852 98.3481 47.859 99 49.5 99H57.75C59.391 99 60.9649 98.3481 62.1252 97.1877C63.2856 96.0273 63.9375 94.4535 63.9375 92.8125C63.9375 91.1715 63.2856 89.5977 62.1252 88.4373C60.9649 87.2769 59.391 86.625 57.75 86.625H49.5C48.518 86.6268 47.5505 86.863 46.6781 87.3139C45.8057 87.7649 45.0535 88.4175 44.484 89.2176C45.3031 87.288 45.3549 85.1186 44.629 83.1521C43.903 81.1855 42.454 79.5702 40.5776 78.6357C38.7012 77.7012 36.5389 77.5179 34.532 78.1234C32.5251 78.7288 30.8249 80.0773 29.7784 81.8936L22.7659 94.0459C22.715 93.6367 22.6888 93.2248 22.6875 92.8125V18.5625C22.6908 15.8285 23.7783 13.2073 25.7116 11.2741C27.6448 9.34082 30.266 8.25327 33 8.25H74.25C76.0594 8.2542 77.836 8.73248 79.4029 9.63718C80.9699 10.5419 82.2724 11.8414 83.1806 13.4062L86.7508 11.3438C85.4794 9.15325 83.6562 7.33411 81.4629 6.06756C79.2696 4.80101 76.7827 4.13125 74.25 4.125H33C29.1723 4.12937 25.5026 5.65186 22.796 8.35847C20.0894 11.0651 18.5669 14.7348 18.5625 18.5625V58.3687C17.25 58.9796 16.1932 60.0313 15.576 61.3408L6.21432 81.6503C4.82845 84.6293 4.11515 87.8769 4.12501 91.1625V127.875H8.25001V91.1625C8.24081 88.4759 8.82389 85.8204 9.95776 83.3848L18.5625 64.7151V92.8125C18.5611 95.2759 19.1925 97.6984 20.3961 99.8477C20.5514 100.195 20.7999 100.493 21.1141 100.709C21.4284 100.924 21.796 101.048 22.1764 101.067C22.5568 101.086 22.935 100.999 23.2691 100.816C23.6032 100.633 23.8802 100.362 24.0694 100.031L33.3506 83.9561C33.9015 83.0164 34.8018 82.3328 35.8548 82.0543C36.9079 81.7759 38.0284 81.9253 38.9718 82.47C39.9151 83.0146 40.6047 83.9103 40.8901 84.9615C41.1755 86.0128 41.0335 87.1342 40.4951 88.0811L31.2139 104.156C31.0295 104.475 30.9339 104.838 30.9372 105.207C30.9405 105.575 31.0424 105.936 31.2324 106.252L35.6503 113.594C36.614 115.201 37.1237 117.038 37.125 118.911V127.854H41.25V118.911C41.2497 116.29 40.5368 113.718 39.1875 111.47L36.6486 107.25H74.25C78.0777 107.246 81.7474 105.723 84.454 103.017C87.1607 100.31 88.6831 96.6402 88.6875 92.8125V82.5H84.5625V92.8125ZM49.5 90.75H57.75C58.297 90.75 58.8216 90.9673 59.2084 91.3541C59.5952 91.7409 59.8125 92.2655 59.8125 92.8125C59.8125 93.3595 59.5952 93.8841 59.2084 94.2709C58.8216 94.6577 58.297 94.875 57.75 94.875H49.5C48.953 94.875 48.4284 94.6577 48.0416 94.2709C47.6548 93.8841 47.4375 93.3595 47.4375 92.8125C47.4375 92.2655 47.6548 91.7409 48.0416 91.3541C48.4284 90.9673 48.953 90.75 49.5 90.75Z" fill="white"/>
<path d="M121.914 28.504C117.276 21.8645 110.358 17.1628 102.477 15.2939C94.5962 13.425 86.3034 14.5196 79.1775 18.3692C72.0515 22.2188 66.5901 28.5545 63.8331 36.1701C61.0761 43.7857 61.216 52.1492 64.2263 59.6683L57.255 71.4864C57.0539 71.8266 56.9548 72.2174 56.9694 72.6123C56.9841 73.0072 57.1118 73.3896 57.3375 73.7139C57.569 74.0377 57.8877 74.289 58.2565 74.4387C58.6253 74.5884 59.029 74.6303 59.4206 74.5596L72.8888 72.0433C77.462 76.1429 83.0922 78.8795 89.1413 79.9427C91.042 80.2695 92.967 80.4351 94.8956 80.4377C100.932 80.436 106.853 78.7784 112.013 75.6453C117.173 72.5122 121.375 68.0236 124.161 62.6682C126.948 57.3128 128.211 51.2957 127.815 45.2719C127.419 39.248 125.378 33.4483 121.914 28.504V28.504ZM123.317 52.4496C122.41 57.5947 120.124 62.3973 116.702 66.3456C113.281 70.294 108.852 73.24 103.889 74.8699C98.9249 76.4998 93.6119 76.7524 88.5159 75.6009C83.4199 74.4493 78.7319 71.9367 74.9513 68.3308C74.5645 67.9718 74.0559 67.7728 73.5281 67.7739C73.404 67.7705 73.2799 67.7774 73.1569 67.7946L63.1125 69.6714L68.31 60.8852C68.4716 60.6022 68.5667 60.2862 68.5881 59.961C68.6096 59.6359 68.5568 59.3101 68.4338 59.0083C66.1333 53.8026 65.4368 48.0293 66.4331 42.4258C67.7624 34.8826 72.0337 28.1763 78.3075 23.7823C81.414 21.6067 84.9185 20.0641 88.6211 19.2429C92.3237 18.4216 96.1518 18.3377 99.8869 18.9958C103.622 19.654 107.191 21.0414 110.39 23.0788C113.588 25.1162 116.355 27.7637 118.53 30.8702C120.706 33.9767 122.249 37.4812 123.07 41.1838C123.891 44.8864 123.975 48.7145 123.317 52.4496Z" fill="white"/>
<path d="M109.312 35.0625H103.125V33C103.125 30.812 102.256 28.7135 100.709 27.1664C99.1615 25.6192 97.063 24.75 94.875 24.75C92.687 24.75 90.5885 25.6192 89.0414 27.1664C87.4942 28.7135 86.625 30.812 86.625 33V35.0625H80.4375C79.8905 35.0625 79.3659 35.2798 78.9791 35.6666C78.5923 36.0534 78.375 36.578 78.375 37.125V61.875C78.3799 63.5145 79.0334 65.0855 80.1927 66.2448C81.352 67.4041 82.923 68.0576 84.5625 68.0625H105.188C106.827 68.0576 108.398 67.4041 109.557 66.2448C110.717 65.0855 111.37 63.5145 111.375 61.875V37.125C111.375 36.578 111.158 36.0534 110.771 35.6666C110.384 35.2798 109.86 35.0625 109.312 35.0625ZM90.75 33C90.75 31.906 91.1846 30.8568 91.9582 30.0832C92.7318 29.3096 93.781 28.875 94.875 28.875C95.969 28.875 97.0182 29.3096 97.7918 30.0832C98.5654 30.8568 99 31.906 99 33V35.0625H90.75V33ZM107.25 61.875C107.25 62.422 107.033 62.9466 106.646 63.3334C106.259 63.7202 105.735 63.9375 105.188 63.9375H84.5625C84.0155 63.9375 83.4909 63.7202 83.1041 63.3334C82.7173 62.9466 82.5 62.422 82.5 61.875V59.8125H107.25V61.875ZM107.25 55.6875H82.5V39.1875H86.625V43.3125H90.75V39.1875H99V43.3125H103.125V39.1875H107.25V55.6875Z" fill="white"/>
<path d="M45.9793 31.542L42.8031 34.7182C40.6651 33.3032 38.0778 32.7326 35.543 33.1171C33.0081 33.5015 30.7064 34.8138 29.0843 36.7992C27.4621 38.7846 26.6352 41.3017 26.7638 43.8623C26.8924 46.4229 27.9674 48.8445 29.7803 50.6574C31.5932 52.4703 34.0148 53.5453 36.5754 53.6739C39.136 53.8025 41.6531 52.9756 43.6385 51.3534C45.6239 49.7313 46.9361 47.4296 47.3206 44.8947C47.7051 42.3599 47.1345 39.7726 45.7195 37.6346L48.8957 34.4584L45.9793 31.542ZM43.3125 43.3127C43.3125 44.5365 42.9496 45.7327 42.2697 46.7503C41.5898 47.7678 40.6235 48.5609 39.4929 49.0292C38.3622 49.4975 37.1181 49.62 35.9179 49.3813C34.7176 49.1425 33.6151 48.5532 32.7498 47.6879C31.8845 46.8226 31.2951 45.7201 31.0564 44.5198C30.8177 43.3195 30.9402 42.0754 31.4085 40.9448C31.8768 39.8142 32.6699 38.8479 33.6874 38.168C34.705 37.4881 35.9012 37.1252 37.125 37.1252C38.0438 37.1287 38.9499 37.3403 39.7753 37.7439L33.6043 43.9149L36.5207 46.8313L42.6938 40.6624C43.0974 41.4878 43.309 42.3939 43.3125 43.3127V43.3127Z" fill="white"/>
<path d="M51.5625 37.125H59.8125V41.25H51.5625V37.125Z" fill="white"/>
<path d="M51.5625 45.375H59.8125V49.5H51.5625V45.375Z" fill="white"/>
</svg>
